<?xml version="1.0" encoding="utf-8" ?>
<svg xmlns="http://www.w3.org/2000/svg" xmlns:xlink="http://www.w3.org/1999/xlink" width="110" height="110">
	<path fill="#6E6E6E" transform="matrix(0.77186 -1.2021 1.2021 0.77186 55 47.8571)" d="M-15 1.5L-20 1.5Q-20.0737 1.5 -20.147 1.49278Q-20.2204 1.48555 -20.2926 1.47118Q-20.3649 1.4568 -20.4354 1.43541Q-20.5059 1.41402 -20.574 1.38582Q-20.6421 1.35762 -20.7071 1.32288Q-20.7721 1.28814 -20.8334 1.2472Q-20.8946 1.20626 -20.9516 1.15952Q-21.0086 1.11277 -21.0607 1.06066Q-21.1128 1.00855 -21.1595 0.95159Q-21.2063 0.894626 -21.2472 0.833355Q-21.2881 0.772084 -21.3229 0.707095Q-21.3576 0.642106 -21.3858 0.574025Q-21.414 0.505944 -21.4354 0.435427Q-21.4568 0.36491 -21.4712 0.292635Q-21.4856 0.220361 -21.4928 0.147026Q-21.5 0.0736903 -21.5 0Q-21.5 -0.0736903 -21.4928 -0.147026Q-21.4856 -0.220361 -21.4712 -0.292635Q-21.4568 -0.36491 -21.4354 -0.435427Q-21.414 -0.505944 -21.3858 -0.574025Q-21.3576 -0.642106 -21.3229 -0.707095Q-21.2881 -0.772084 -21.2472 -0.833355Q-21.2063 -0.894626 -21.1595 -0.95159Q-21.1128 -1.00855 -21.0607 -1.06066Q-21.0086 -1.11277 -20.9516 -1.15952Q-20.8946 -1.20626 -20.8334 -1.2472Q-20.7721 -1.28814 -20.7071 -1.32288Q-20.6421 -1.35762 -20.574 -1.38582Q-20.5059 -1.41402 -20.4354 -1.43541Q-20.3649 -1.4568 -20.2926 -1.47118Q-20.2204 -1.48555 -20.147 -1.49278Q-20.0737 -1.5 -20 -1.5L-15 -1.5Q-14.9263 -1.5 -14.853 -1.49278Q-14.7796 -1.48555 -14.7074 -1.47118Q-14.6351 -1.4568 -14.5646 -1.43541Q-14.4941 -1.41402 -14.426 -1.38582Q-14.3579 -1.35762 -14.2929 -1.32288Q-14.2279 -1.28814 -14.1666 -1.2472Q-14.1054 -1.20626 -14.0484 -1.15952Q-13.9914 -1.11277 -13.9393 -1.06066Q-13.8872 -1.00855 -13.8405 -0.95159Q-13.7937 -0.894626 -13.7528 -0.833355Q-13.7119 -0.772084 -13.6771 -0.707095Q-13.6424 -0.642106 -13.6142 -0.574025Q-13.586 -0.505944 -13.5646 -0.435427Q-13.5432 -0.36491 -13.5288 -0.292635Q-13.5144 -0.220361 -13.5072 -0.147026Q-13.5 -0.0736903 -13.5 0Q-13.5 0.0736903 -13.5072 0.147026Q-13.5144 0.220361 -13.5288 0.292635Q-13.5432 0.36491 -13.5646 0.435427Q-13.586 0.505944 -13.6142 0.574025Q-13.6424 0.642106 -13.6771 0.707095Q-13.7119 0.772084 -13.7528 0.833355Q-13.7937 0.894626 -13.8405 0.95159Q-13.8872 1.00855 -13.9393 1.06066Q-13.9914 1.11277 -14.0484 1.15952Q-14.1054 1.20626 -14.1666 1.2472Q-14.2279 1.28814 -14.2929 1.32288Q-14.3579 1.35762 -14.426 1.38582Q-14.4941 1.41402 -14.5646 1.43541Q-14.6351 1.4568 -14.7074 1.47118Q-14.7796 1.48555 -14.853 1.49278Q-14.9263 1.5 -15 1.5Z"/>
	<path fill="#888" transform="matrix(0.77186 -1.2021 1.2021 0.77186 55 47.8571)" d="M-5.5 -7.4Q-5.5 -7.25262 -5.51445 -7.10595Q-5.52889 -6.95928 -5.55764 -6.81473Q-5.5864 -6.67018 -5.62918 -6.52915Q-5.67196 -6.38811 -5.72836 -6.25195Q-5.78476 -6.11579 -5.85424 -5.98581Q-5.92371 -5.85583 -6.00559 -5.73329Q-6.08747 -5.61075 -6.18097 -5.49682Q-6.27447 -5.38289 -6.37868 -5.27868Q-6.48289 -5.17447 -6.59682 -5.08097Q-6.71075 -4.98747 -6.83329 -4.90559Q-6.95583 -4.82371 -7.08581 -4.75424Q-7.21579 -4.68476 -7.35195 -4.62836Q-7.48811 -4.57196 -7.62915 -4.52918Q-7.77018 -4.4864 -7.91473 -4.45764Q-8.05928 -4.42889 -8.20595 -4.41445Q-8.35262 -4.4 -8.5 -4.4Q-8.68252 -4.4 -8.86369 -4.42213Q-9.04486 -4.44425 -9.22201 -4.48818Q-9.39917 -4.53211 -9.56969 -4.59719Q-9.74021 -4.66226 -9.90158 -4.74753Q-10.063 -4.83281 -10.2128 -4.93701Q-10.3626 -5.04122 -10.4988 -5.16282Q-10.6349 -5.28442 -10.7552 -5.42163Q-10.8756 -5.55884 -10.9784 -5.70962C-12.6325 -4.27533 -14.0116 -2.37212 -15 0C-11.8425 7.57811 -4.69687 10.3706 2.65902 8.37739Q2.5 7.95311 2.5 7.5Q2.5 7.37718 2.51204 7.25496Q2.52408 7.13273 2.54804 7.01227Q2.572 6.89182 2.60765 6.77429Q2.6433 6.65676 2.6903 6.54329Q2.7373 6.42982 2.7952 6.32151Q2.85309 6.21319 2.92133 6.11107Q2.98956 6.00896 3.06747 5.91402Q3.14539 5.81908 3.23223 5.73223Q3.31908 5.64539 3.41402 5.56747Q3.50896 5.48956 3.61107 5.42133Q3.71319 5.35309 3.82151 5.2952Q3.92982 5.2373 4.04329 5.1903Q4.15676 5.1433 4.27429 5.10765Q4.39182 5.072 4.51227 5.04804Q4.63273 5.02408 4.75496 5.01204Q4.87718 5 5 5Q5.18066 5 5.35945 5.02598Q5.53824 5.05195 5.71143 5.10336Q5.88463 5.15478 6.04863 5.23056Q6.21263 5.30634 6.36403 5.40491Q6.51544 5.50348 6.65109 5.6228Q6.78675 5.74212 6.90384 5.8797Q7.02094 6.01728 7.11703 6.17027Q7.21312 6.32326 7.28622 6.48847C10.0044 4.99326 12.6413 2.83044 15 0C8.82576 -7.40909 0.745448 -10.2436 -5.71037 -8.50361Q-5.5 -7.97186 -5.5 -7.4Z" fill-rule="evenodd"/>
	<path fill="#6E6E6E" transform="matrix(0.77186 -1.2021 1.2021 0.77186 55 47.8571)" d="M-4 -7.4Q-4 -5.53604 -5.31802 -4.21802Q-6.63604 -2.9 -8.5 -2.9Q-10.8778 -2.9 -12.2176 -4.86443L-10.9784 -5.70962L-9.99573 -4.57636Q-12.3012 -2.57721 -13.6154 0.576924L-15 0L-13.6154 -0.576923Q-11.5298 4.42845 -7.12897 6.41021Q-2.87917 8.32395 2.26672 6.9296L2.65902 8.37739L1.25443 8.90383Q1 8.22497 1 7.5Q1 5.84315 2.17157 4.67157Q3.34315 3.5 5 3.5Q7.60425 3.5 8.65795 5.88155L7.28622 6.48847L6.56327 5.17419Q10.5742 2.96789 13.8477 -0.960277L15 0L13.8477 0.960277Q9.57043 -4.17241 4.20077 -6.28705Q-0.82584 -8.2666 -5.32001 -7.0553L-5.71037 -8.50361L-4.31556 -9.05543Q-4 -8.25779 -4 -7.4ZM-7 -7.4Q-7 -7.68593 -7.10519 -7.9518Q-7.13652 -8.03101 -7.15869 -8.11325Q-7.17787 -8.18441 -7.18998 -8.2571Q-7.20209 -8.32978 -7.20701 -8.40331Q-7.21194 -8.47683 -7.20964 -8.55049Q-7.20734 -8.62414 -7.19782 -8.69722Q-7.18831 -8.77029 -7.17169 -8.84208Q-7.15506 -8.91387 -7.13147 -8.98368Q-7.10789 -9.0535 -7.07758 -9.12066Q-7.04726 -9.18783 -7.01051 -9.2517Q-6.97376 -9.31557 -6.93092 -9.37554Q-6.88809 -9.4355 -6.83958 -9.49097Q-6.79108 -9.54645 -6.73737 -9.5969Q-6.68366 -9.64735 -6.62526 -9.6923Q-6.56686 -9.73724 -6.50434 -9.77625Q-6.44182 -9.81526 -6.37578 -9.84795Q-6.30974 -9.88064 -6.24081 -9.90669Q-6.17188 -9.93275 -6.10073 -9.95193Q-0.649162 -11.4213 5.30004 -9.0784Q11.3838 -6.68254 16.1523 -0.960277Q16.2359 -0.859953 16.3009 -0.746692Q16.366 -0.63343 16.4104 -0.510638Q16.4549 -0.387846 16.4774 -0.259219Q16.5 -0.130592 16.5 -4.47035e-07Q16.5 0.130591 16.4774 0.259218Q16.4549 0.387845 16.4104 0.510637Q16.366 0.633429 16.3009 0.746691Q16.2359 0.859952 16.1523 0.960275Q12.5163 5.32351 8.00917 7.80275Q7.9524 7.83399 7.89314 7.8602Q7.82575 7.89002 7.75576 7.91309Q7.68578 7.93615 7.61386 7.95225Q7.54195 7.96835 7.46881 7.97732Q7.39567 7.98629 7.322 7.98804Q7.24833 7.9898 7.17484 7.98433Q7.10136 7.97886 7.02876 7.96621Q6.95616 7.95356 6.88516 7.93386Q6.81415 7.91416 6.74542 7.88759Q6.67668 7.86102 6.61088 7.82784Q6.54508 7.79467 6.48285 7.7552Q6.42062 7.71573 6.36256 7.67035Q6.3045 7.62498 6.25116 7.57413Q6.19783 7.52328 6.14973 7.46745Q6.10164 7.41162 6.05925 7.35134Q6.01686 7.29106 5.98058 7.22692Q5.9443 7.16278 5.91449 7.09539Q5.65106 6.5 5 6.5Q4 6.5 4 7.5Q4 7.68124 4.06361 7.85096Q4.08837 7.91701 4.10681 7.9851Q4.12609 8.05622 4.13829 8.12889Q4.1505 8.20156 4.15553 8.27508Q4.16055 8.3486 4.15835 8.42226Q4.15615 8.49592 4.14673 8.569Q4.13732 8.64209 4.12079 8.7139Q4.10426 8.78571 4.08077 8.85556Q4.05727 8.9254 4.02705 8.99261Q3.99683 9.05982 3.96016 9.12374Q3.9235 9.18766 3.88074 9.24768Q3.83799 9.3077 3.78955 9.36324Q3.74112 9.41878 3.68748 9.4693Q3.63384 9.51983 3.5755 9.56485Q3.51717 9.60988 3.4547 9.64897Q3.39223 9.68806 3.32623 9.72083Q3.26023 9.75361 3.19134 9.77976Q3.12244 9.80591 3.05132 9.82519Q-3.13145 11.5005 -8.36077 9.14565Q-13.8429 6.67696 -16.3846 0.576923Q-16.4417 0.439819 -16.4709 0.294174Q-16.5 0.148529 -16.5 3.12924e-07Q-16.5 -0.148529 -16.4709 -0.294174Q-16.4417 -0.439818 -16.3846 -0.576922Q-14.7992 -4.38185 -11.9611 -6.84289Q-11.8954 -6.89985 -11.8236 -6.94884Q-11.7627 -6.99036 -11.6981 -7.02571Q-11.6334 -7.06107 -11.5656 -7.08991Q-11.4978 -7.11876 -11.4275 -7.14082Q-11.3572 -7.16288 -11.2851 -7.17795Q-11.2129 -7.19301 -11.1397 -7.20093Q-11.0664 -7.20885 -10.9927 -7.20955Q-10.919 -7.21026 -10.8456 -7.20373Q-10.7722 -7.19721 -10.6998 -7.18352Q-10.6274 -7.16983 -10.5567 -7.14911Q-10.486 -7.12839 -10.4176 -7.10084Q-10.3493 -7.07329 -10.284 -7.03917Q-10.2186 -7.00506 -10.157 -6.9647Q-10.0953 -6.92435 -10.0379 -6.87814Q-9.98051 -6.83194 -9.92791 -6.78033Q-9.87531 -6.72872 -9.82803 -6.67221Q-9.78074 -6.61569 -9.73922 -6.55481Q-9.29261 -5.9 -8.5 -5.9Q-7 -5.9 -7 -7.4Z"/>
	<path fill="#6E6E6E" transform="matrix(0.77186 -1.2021 1.2021 0.77186 55 47.8571)" d="M-9.2466 -1.47959Q0.0245857 -3.02479 7.79417 -1.47087Q7.86643 -1.45642 7.93693 -1.43495Q8.00742 -1.41349 8.07547 -1.38522Q8.14353 -1.35695 8.20848 -1.32214Q8.27343 -1.28734 8.33466 -1.24633Q8.39589 -1.20533 8.4528 -1.15852Q8.50972 -1.11171 8.56177 -1.05955Q8.61382 -1.00739 8.66051 -0.950377Q8.7072 -0.893364 8.74807 -0.83205Q8.78895 -0.770736 8.82362 -0.705711Q8.85829 -0.640686 8.88642 -0.572575Q8.91455 -0.504465 8.93587 -0.433925Q8.95718 -0.363386 8.97148 -0.291096Q8.98578 -0.218807 8.99293 -0.145464Q9.00008 -0.0721212 9 0.00156905Q8.99992 0.0752593 8.99262 0.148587Q8.98532 0.221915 8.97087 0.294174Q8.95642 0.366433 8.93495 0.436928Q8.91349 0.507423 8.88522 0.575474Q8.85695 0.643526 8.82214 0.708478Q8.78734 0.773431 8.74633 0.834659Q8.70533 0.895888 8.65852 0.952802Q8.61171 1.00972 8.55955 1.06177Q8.50739 1.11382 8.45038 1.16051Q8.39336 1.2072 8.33205 1.24808Q8.27074 1.28895 8.20571 1.32362Q8.14069 1.35829 8.07257 1.38642Q8.00447 1.41455 7.93393 1.43587Q7.86339 1.45718 7.7911 1.47148Q7.71881 1.48578 7.64546 1.49293Q7.57212 1.50008 7.49843 1.5Q7.42474 1.49992 7.35141 1.49262Q7.27809 1.48532 7.20583 1.47087Q-0.0245857 0.0247884 -8.7534 1.47959Q-8.82609 1.49171 -8.89961 1.49664Q-8.97314 1.50157 -9.04679 1.49927Q-9.12045 1.49697 -9.19352 1.48746Q-9.2666 1.47796 -9.33839 1.46133Q-9.41018 1.44471 -9.47999 1.42113Q-9.54981 1.39755 -9.61698 1.36724Q-9.68415 1.33693 -9.74802 1.30018Q-9.81189 1.26343 -9.87186 1.2206Q-9.93182 1.17777 -9.9873 1.12927Q-10.0428 1.08076 -10.0932 1.02706Q-10.1437 0.973349 -10.1886 0.914955Q-10.2336 0.856561 -10.2726 0.794042Q-10.3116 0.731524 -10.3443 0.665483Q-10.377 0.599442 -10.4031 0.530514Q-10.4291 0.461586 -10.4483 0.390436Q-10.4675 0.319286 -10.4796 0.246598Q-10.4917 0.173911 -10.4966 0.100386Q-10.5016 0.0268607 -10.4993 -0.0467937Q-10.497 -0.120448 -10.4875 -0.193523Q-10.478 -0.266597 -10.4613 -0.338388Q-10.4447 -0.410178 -10.4211 -0.479994Q-10.3975 -0.549809 -10.3672 -0.616978Q-10.3369 -0.684146 -10.3002 -0.748019Q-10.2634 -0.811893 -10.2206 -0.871857Q-10.1778 -0.931822 -10.1293 -0.987299Q-10.0808 -1.04278 -10.0271 -1.09323Q-9.97335 -1.14369 -9.91496 -1.18864Q-9.85656 -1.23359 -9.79404 -1.27259Q-9.73152 -1.3116 -9.66548 -1.3443Q-9.59944 -1.37699 -9.53051 -1.40305Q-9.46159 -1.42911 -9.39044 -1.4483Q-9.31929 -1.46748 -9.2466 -1.47959Z"/>
	<path fill="none" stroke="black" stroke-width="2.3999999" stroke-linejoin="round" transform="translate(55 79.2857)" d="M-10.3606 4.74934L-10.3606 7.43L-19.6184 7.43L-19.6184 -6.4323L-16.4983 -6.4323L-16.4983 4.74934L-10.3606 4.74934ZM-9.06155 2.24934Q-9.06155 0.847969 -8.63186 -0.201836Q-8.20217 -1.25164 -7.50393 -1.94988Q-6.8008 -2.64813 -5.8926 -3.00945Q-4.97952 -3.37078 -4.0176 -3.37078Q-1.78127 -3.37078 -0.482445 -1.99871Q0.821266 -0.631524 0.821266 2.02961Q0.821266 2.2884 0.801735 2.6009Q0.782204 2.90852 0.75779 3.14777L-6.00002 3.14777Q-5.90237 4.07062 -5.14065 4.61262Q-4.37893 5.14973 -3.09963 5.14973Q-2.27932 5.14973 -1.49319 5.00324Q-0.702171 4.85187 -0.199242 4.63215L0.201149 7.04914Q-0.0381088 7.17121 -0.438499 7.29328Q-0.83889 7.41047 -1.33205 7.49836Q-1.82034 7.59113 -2.38186 7.64973Q-2.9385 7.70832 -3.50002 7.70832Q-4.92092 7.70832 -5.97073 7.2884Q-7.02053 6.86848 -7.71389 6.14094Q-8.40237 5.40852 -8.7344 4.41242Q-9.06155 3.41145 -9.06155 2.24934ZM-2.05959 1.11164Q-2.07912 0.730781 -2.19143 0.369453Q-2.29885 0.00812483 -2.52834 -0.270195Q-2.75784 -0.548516 -3.1094 -0.72918Q-3.46096 -0.909844 -3.97854 -0.909844Q-4.48147 -0.909844 -4.8428 -0.738945Q-5.19924 -0.568047 -5.4385 -0.289727Q-5.67776 -0.0114064 -5.80959 0.359687Q-5.94143 0.730781 -6.00002 1.11164L-2.05959 1.11164ZM7.13993 5.34992Q7.57938 5.34992 7.97977 5.33039Q8.38017 5.31086 8.61942 5.2718L8.61942 3.01105Q8.43876 2.97199 8.07743 2.93293Q7.72099 2.88898 7.41825 2.88898Q6.99833 2.88898 6.62724 2.9427Q6.26102 2.99152 5.97782 3.13312Q5.6995 3.26984 5.53837 3.5091Q5.38212 3.74836 5.38212 4.10969Q5.38212 4.80793 5.85087 5.08137Q6.31962 5.34992 7.13993 5.34992ZM6.90067 -3.37078Q8.21903 -3.37078 9.09794 -3.06805Q9.98173 -2.7702 10.5091 -2.20867Q11.0413 -1.65203 11.261 -0.85125Q11.4808 -0.0504689 11.4808 0.930976L11.4808 7.13215Q10.8411 7.26887 9.69852 7.4593Q8.56083 7.64973 6.93974 7.64973Q5.91923 7.64973 5.08915 7.46906Q4.25907 7.2884 3.65849 6.87824Q3.0579 6.46809 2.73563 5.80891Q2.41825 5.14973 2.41825 4.18781Q2.41825 3.26984 2.78934 2.6302Q3.16044 1.99055 3.78056 1.60969Q4.40067 1.22883 5.20145 1.06281Q6.00224 0.891914 6.86161 0.891914Q7.43778 0.891914 7.887 0.940742Q8.3411 0.98957 8.61942 1.0677L8.61942 0.789375Q8.61942 0.0276561 8.16044 -0.431328Q7.70145 -0.890313 6.55888 -0.890313Q5.80204 -0.890313 5.05985 -0.778008Q4.31767 -0.670586 3.78056 -0.470391L3.3997 -2.86785Q3.65849 -2.95086 4.04911 -3.03875Q4.43974 -3.13152 4.89872 -3.19988Q5.3577 -3.26824 5.86552 -3.31707Q6.37821 -3.37078 6.90067 -3.37078ZM18.7419 -8.08758Q19.5817 -8.08758 20.28 -7.91668Q20.9782 -7.75066 21.3591 -7.58953L20.778 -5.2116Q20.3776 -5.39227 19.9089 -5.48016Q19.4401 -5.56805 19.0398 -5.56805Q18.4978 -5.56805 18.1267 -5.41668Q17.7605 -5.2702 17.5505 -5.00652Q17.3405 -4.74773 17.2478 -4.38641Q17.1599 -4.02996 17.1599 -3.61004L17.1599 -3.08758L20.8415 -3.08758L20.8415 -0.611992L17.1599 -0.611992L17.1599 7.43L14.1814 7.43L14.1814 -3.6491Q14.1814 -5.69012 15.3288 -6.88641Q16.4812 -8.08758 18.7419 -8.08758Z"/>
	<path fill="white" transform="translate(55 79.2857)" d="M-10.3606 4.74934L-10.3606 7.43L-19.6184 7.43L-19.6184 -6.4323L-16.4983 -6.4323L-16.4983 4.74934L-10.3606 4.74934ZM-9.06155 2.24934Q-9.06155 0.847969 -8.63186 -0.201836Q-8.20217 -1.25164 -7.50393 -1.94988Q-6.8008 -2.64813 -5.8926 -3.00945Q-4.97952 -3.37078 -4.0176 -3.37078Q-1.78127 -3.37078 -0.482445 -1.99871Q0.821266 -0.631524 0.821266 2.02961Q0.821266 2.2884 0.801735 2.6009Q0.782204 2.90852 0.75779 3.14777L-6.00002 3.14777Q-5.90237 4.07062 -5.14065 4.61262Q-4.37893 5.14973 -3.09963 5.14973Q-2.27932 5.14973 -1.49319 5.00324Q-0.702171 4.85187 -0.199242 4.63215L0.201149 7.04914Q-0.0381088 7.17121 -0.438499 7.29328Q-0.83889 7.41047 -1.33205 7.49836Q-1.82034 7.59113 -2.38186 7.64973Q-2.9385 7.70832 -3.50002 7.70832Q-4.92092 7.70832 -5.97073 7.2884Q-7.02053 6.86848 -7.71389 6.14094Q-8.40237 5.40852 -8.7344 4.41242Q-9.06155 3.41145 -9.06155 2.24934ZM-2.05959 1.11164Q-2.07912 0.730781 -2.19143 0.369453Q-2.29885 0.00812483 -2.52834 -0.270195Q-2.75784 -0.548516 -3.1094 -0.72918Q-3.46096 -0.909844 -3.97854 -0.909844Q-4.48147 -0.909844 -4.8428 -0.738945Q-5.19924 -0.568047 -5.4385 -0.289727Q-5.67776 -0.0114064 -5.80959 0.359687Q-5.94143 0.730781 -6.00002 1.11164L-2.05959 1.11164ZM7.13993 5.34992Q7.57938 5.34992 7.97977 5.33039Q8.38017 5.31086 8.61942 5.2718L8.61942 3.01105Q8.43876 2.97199 8.07743 2.93293Q7.72099 2.88898 7.41825 2.88898Q6.99833 2.88898 6.62724 2.9427Q6.26102 2.99152 5.97782 3.13312Q5.6995 3.26984 5.53837 3.5091Q5.38212 3.74836 5.38212 4.10969Q5.38212 4.80793 5.85087 5.08137Q6.31962 5.34992 7.13993 5.34992ZM6.90067 -3.37078Q8.21903 -3.37078 9.09794 -3.06805Q9.98173 -2.7702 10.5091 -2.20867Q11.0413 -1.65203 11.261 -0.85125Q11.4808 -0.0504689 11.4808 0.930976L11.4808 7.13215Q10.8411 7.26887 9.69852 7.4593Q8.56083 7.64973 6.93974 7.64973Q5.91923 7.64973 5.08915 7.46906Q4.25907 7.2884 3.65849 6.87824Q3.0579 6.46809 2.73563 5.80891Q2.41825 5.14973 2.41825 4.18781Q2.41825 3.26984 2.78934 2.6302Q3.16044 1.99055 3.78056 1.60969Q4.40067 1.22883 5.20145 1.06281Q6.00224 0.891914 6.86161 0.891914Q7.43778 0.891914 7.887 0.940742Q8.3411 0.98957 8.61942 1.0677L8.61942 0.789375Q8.61942 0.0276561 8.16044 -0.431328Q7.70145 -0.890313 6.55888 -0.890313Q5.80204 -0.890313 5.05985 -0.778008Q4.31767 -0.670586 3.78056 -0.470391L3.3997 -2.86785Q3.65849 -2.95086 4.04911 -3.03875Q4.43974 -3.13152 4.89872 -3.19988Q5.3577 -3.26824 5.86552 -3.31707Q6.37821 -3.37078 6.90067 -3.37078ZM18.7419 -8.08758Q19.5817 -8.08758 20.28 -7.91668Q20.9782 -7.75066 21.3591 -7.58953L20.778 -5.2116Q20.3776 -5.39227 19.9089 -5.48016Q19.4401 -5.56805 19.0398 -5.56805Q18.4978 -5.56805 18.1267 -5.41668Q17.7605 -5.2702 17.5505 -5.00652Q17.3405 -4.74773 17.2478 -4.38641Q17.1599 -4.02996 17.1599 -3.61004L17.1599 -3.08758L20.8415 -3.08758L20.8415 -0.611992L17.1599 -0.611992L17.1599 7.43L14.1814 7.43L14.1814 -3.6491Q14.1814 -5.69012 15.3288 -6.88641Q16.4812 -8.08758 18.7419 -8.08758Z"/>
</svg>
