<?xml version="1.0" encoding="utf-8" ?>
<svg xmlns="http://www.w3.org/2000/svg" xmlns:xlink="http://www.w3.org/1999/xlink" width="110" height="110">
	<path fill="#FFE763" transform="matrix(0.955337 -0.29552 0.29552 0.955337 52.4295 49.699)" d="M-0.646386 -24.9916L-4 -8L10 11L3.96299 24.6839Q1.9941 25 0 25Q-0.613716 25 -1.22669 24.9699Q-1.83967 24.9398 -2.45043 24.8796Q-3.06119 24.8195 -3.66826 24.7294Q-4.27533 24.6394 -4.87726 24.5196Q-5.47918 24.3999 -6.0745 24.2508Q-6.66983 24.1017 -7.25712 23.9235Q-7.84441 23.7454 -8.42225 23.5386Q-9.00008 23.3318 -9.56708 23.097Q-10.1341 22.8621 -10.6889 22.5997Q-11.2437 22.3373 -11.7849 22.048Q-12.3262 21.7587 -12.8526 21.4432Q-13.379 21.1277 -13.8893 20.7867Q-14.3995 20.4458 -14.8925 20.0802Q-15.3854 19.7146 -15.8598 19.3253Q-16.3342 18.9359 -16.789 18.5238Q-17.2437 18.1116 -17.6777 17.6777Q-18.1116 17.2437 -18.5238 16.789Q-18.9359 16.3342 -19.3253 15.8598Q-19.7146 15.3854 -20.0802 14.8925Q-20.4458 14.3995 -20.7867 13.8893Q-21.1277 13.379 -21.4432 12.8526Q-21.7587 12.3262 -22.048 11.7849Q-22.3373 11.2437 -22.5997 10.6889Q-22.8621 10.1341 -23.097 9.56708Q-23.3318 9.00008 -23.5386 8.42225Q-23.7454 7.8444 -23.9235 7.25712Q-24.1017 6.66983 -24.2508 6.0745Q-24.3999 5.47918 -24.5196 4.87726Q-24.6394 4.27533 -24.7294 3.66826Q-24.8195 3.06119 -24.8796 2.45043Q-24.9398 1.83967 -24.9699 1.22669Q-25 0.613716 -25 0Q-25 -0.603609 -24.9709 -1.20651Q-24.9417 -1.80942 -24.8835 -2.41022Q-24.8254 -3.01101 -24.7382 -3.6083Q-24.6511 -4.20559 -24.5353 -4.79798Q-24.4194 -5.39037 -24.2751 -5.97647Q-24.1308 -6.56258 -23.9584 -7.14104Q-23.786 -7.7195 -23.5859 -8.28897Q-23.3857 -8.85843 -23.1584 -9.41757Q-22.931 -9.97672 -22.6769 -10.5242Q-22.4228 -11.0718 -22.1425 -11.6064Q-21.8623 -12.141 -21.5566 -12.6615Q-21.2509 -13.1819 -20.9204 -13.687Q-20.59 -14.1921 -20.2355 -14.6807Q-19.8811 -15.1693 -19.5034 -15.6402Q-19.1258 -16.1111 -18.7259 -16.5632Q-18.326 -17.0153 -17.9047 -17.4476Q-17.4835 -17.8799 -17.0418 -18.2914Q-16.6002 -18.7029 -16.1392 -19.0925Q-15.6783 -19.4822 -15.199 -19.8492Q-14.7198 -20.2162 -14.2234 -20.5596Q-13.727 -20.903 -13.2146 -21.222Q-12.7022 -21.5411 -12.175 -21.8351Q-11.6478 -22.129 -11.107 -22.3972Q-10.5663 -22.6654 -10.0132 -22.9071Q-9.46012 -23.1489 -8.89602 -23.3637Q-8.33192 -23.5785 -7.75811 -23.7658Q-7.1843 -23.9531 -6.60212 -24.1125Q-6.01994 -24.2719 -5.43074 -24.403Q-4.84155 -24.5341 -4.24671 -24.6367Q-3.65188 -24.7392 -3.05279 -24.8129Q-2.45369 -24.8866 -1.85174 -24.9313Q-1.24979 -24.976 -0.646386 -24.9916Z" fill-rule="evenodd"/>
	<path fill="none" stroke="#CFBB50" stroke-width="3" stroke-linecap="round" stroke-linejoin="round" transform="matrix(0.955337 -0.29552 0.29552 0.955337 52.4295 49.699)" d="M-0.646386 -24.9916L-4 -8L10 11L3.96299 24.6839Q1.9941 25 0 25Q-0.613716 25 -1.22669 24.9699Q-1.83967 24.9398 -2.45043 24.8796Q-3.06119 24.8195 -3.66826 24.7294Q-4.27533 24.6394 -4.87726 24.5196Q-5.47918 24.3999 -6.0745 24.2508Q-6.66983 24.1017 -7.25712 23.9235Q-7.84441 23.7454 -8.42225 23.5386Q-9.00008 23.3318 -9.56708 23.097Q-10.1341 22.8621 -10.6889 22.5997Q-11.2437 22.3373 -11.7849 22.048Q-12.3262 21.7587 -12.8526 21.4432Q-13.379 21.1277 -13.8893 20.7867Q-14.3995 20.4458 -14.8925 20.0802Q-15.3854 19.7146 -15.8598 19.3253Q-16.3342 18.9359 -16.789 18.5238Q-17.2437 18.1116 -17.6777 17.6777Q-18.1116 17.2437 -18.5238 16.789Q-18.9359 16.3342 -19.3253 15.8598Q-19.7146 15.3854 -20.0802 14.8925Q-20.4458 14.3995 -20.7867 13.8893Q-21.1277 13.379 -21.4432 12.8526Q-21.7587 12.3262 -22.048 11.7849Q-22.3373 11.2437 -22.5997 10.6889Q-22.8621 10.1341 -23.097 9.56708Q-23.3318 9.00008 -23.5386 8.42225Q-23.7454 7.8444 -23.9235 7.25712Q-24.1017 6.66983 -24.2508 6.0745Q-24.3999 5.47918 -24.5196 4.87726Q-24.6394 4.27533 -24.7294 3.66826Q-24.8195 3.06119 -24.8796 2.45043Q-24.9398 1.83967 -24.9699 1.22669Q-25 0.613716 -25 0Q-25 -0.603609 -24.9709 -1.20651Q-24.9417 -1.80942 -24.8835 -2.41022Q-24.8254 -3.01101 -24.7382 -3.6083Q-24.6511 -4.20559 -24.5353 -4.79798Q-24.4194 -5.39037 -24.2751 -5.97647Q-24.1308 -6.56258 -23.9584 -7.14104Q-23.786 -7.7195 -23.5859 -8.28897Q-23.3857 -8.85843 -23.1584 -9.41757Q-22.931 -9.97672 -22.6769 -10.5242Q-22.4228 -11.0718 -22.1425 -11.6064Q-21.8623 -12.141 -21.5566 -12.6615Q-21.2509 -13.1819 -20.9204 -13.687Q-20.59 -14.1921 -20.2355 -14.6807Q-19.8811 -15.1693 -19.5034 -15.6402Q-19.1258 -16.1111 -18.7259 -16.5632Q-18.326 -17.0153 -17.9047 -17.4476Q-17.4835 -17.8799 -17.0418 -18.2914Q-16.6002 -18.7029 -16.1392 -19.0925Q-15.6783 -19.4822 -15.199 -19.8492Q-14.7198 -20.2162 -14.2234 -20.5596Q-13.727 -20.903 -13.2146 -21.222Q-12.7022 -21.5411 -12.175 -21.8351Q-11.6478 -22.129 -11.107 -22.3972Q-10.5663 -22.6654 -10.0132 -22.9071Q-9.46012 -23.1489 -8.89602 -23.3637Q-8.33192 -23.5785 -7.75811 -23.7658Q-7.1843 -23.9531 -6.60212 -24.1125Q-6.01994 -24.2719 -5.43074 -24.403Q-4.84155 -24.5341 -4.24671 -24.6367Q-3.65188 -24.7392 -3.05279 -24.8129Q-2.45369 -24.8866 -1.85174 -24.9313Q-1.24979 -24.976 -0.646386 -24.9916Z" fill-rule="evenodd"/>
	<clipPath id="cl_3">
		<path d="M-42.1338 -8.97625L38.1145 -33.7999L46.244 43.2384L65.2336 57.2525L56.6689 131.081L5.08071 147.039L-42.1338 -8.97625Z"/>
	</clipPath>
	<g clip-path="url(#cl_3)">
		<path fill="#111" transform="matrix(0.955337 -0.29552 0.59104 1.91067 44.2646 46.991)" d="M3 0Q3 0.147381 2.98555 0.294051Q2.97111 0.440722 2.94236 0.585271Q2.9136 0.72982 2.87082 0.870854Q2.82804 1.01189 2.77164 1.14805Q2.71524 1.28421 2.64576 1.41419Q2.57629 1.54417 2.49441 1.66671Q2.41253 1.78925 2.31903 1.90318Q2.22553 2.01711 2.12132 2.12132Q2.01711 2.22553 1.90318 2.31903Q1.78925 2.41253 1.66671 2.49441Q1.54417 2.57629 1.41419 2.64576Q1.28421 2.71524 1.14805 2.77164Q1.01189 2.82804 0.870854 2.87082Q0.72982 2.9136 0.585271 2.94236Q0.440722 2.97111 0.294051 2.98555Q0.147381 3 0 3Q-0.147381 3 -0.294051 2.98555Q-0.440722 2.97111 -0.585271 2.94236Q-0.72982 2.9136 -0.870854 2.87082Q-1.01189 2.82804 -1.14805 2.77164Q-1.28421 2.71524 -1.41419 2.64576Q-1.54417 2.57629 -1.66671 2.49441Q-1.78925 2.41253 -1.90318 2.31903Q-2.01711 2.22553 -2.12132 2.12132Q-2.22553 2.01711 -2.31903 1.90318Q-2.41253 1.78925 -2.49441 1.66671Q-2.57629 1.54417 -2.64576 1.41419Q-2.71524 1.28421 -2.77164 1.14805Q-2.82804 1.01189 -2.87082 0.870854Q-2.9136 0.72982 -2.94236 0.585271Q-2.97111 0.440722 -2.98555 0.294051Q-3 0.147381 -3 0Q-3 -0.147381 -2.98555 -0.294051Q-2.97111 -0.440722 -2.94236 -0.585271Q-2.9136 -0.72982 -2.87082 -0.870854Q-2.82804 -1.01189 -2.77164 -1.14805Q-2.71524 -1.28421 -2.64576 -1.41419Q-2.57629 -1.54417 -2.49441 -1.66671Q-2.41253 -1.78925 -2.31903 -1.90318Q-2.22553 -2.01711 -2.12132 -2.12132Q-2.01711 -2.22553 -1.90318 -2.31903Q-1.78925 -2.41253 -1.66671 -2.49441Q-1.54417 -2.57629 -1.41419 -2.64576Q-1.28421 -2.71524 -1.14805 -2.77164Q-1.01189 -2.82804 -0.870854 -2.87082Q-0.72982 -2.9136 -0.585271 -2.94236Q-0.440722 -2.97111 -0.294051 -2.98555Q-0.147381 -3 0 -3Q0.147381 -3 0.294051 -2.98555Q0.440722 -2.97111 0.585271 -2.94236Q0.72982 -2.9136 0.870854 -2.87082Q1.01189 -2.82804 1.14805 -2.77164Q1.28421 -2.71524 1.41419 -2.64576Q1.54417 -2.57629 1.66671 -2.49441Q1.78925 -2.41253 1.90318 -2.31903Q2.01711 -2.22553 2.12132 -2.12132Q2.22553 -2.01711 2.31903 -1.90318Q2.41253 -1.78925 2.49441 -1.66671Q2.57629 -1.54417 2.64576 -1.41419Q2.71524 -1.28421 2.77164 -1.14805Q2.82804 -1.01189 2.87082 -0.870854Q2.9136 -0.72982 2.94236 -0.585271Q2.97111 -0.440722 2.98555 -0.294051Q3 -0.147381 3 0"/>
		<clipPath id="cl_4">
			<path d="M47.1306 46.1044Q47.1741 46.2452 47.2141 46.3868Q47.2541 46.5284 47.2906 46.6705Q47.327 46.8127 47.3597 46.9551Q47.3924 47.0975 47.4214 47.2397Q47.4504 47.382 47.4755 47.5238Q47.5006 47.6656 47.5219 47.8065Q47.5431 47.9475 47.5604 48.0873Q47.5777 48.2271 47.5909 48.3655Q47.6042 48.5038 47.6135 48.6403Q47.6228 48.7768 47.628 48.9112Q47.6332 49.0455 47.6344 49.1774Q47.6355 49.3093 47.6326 49.4384Q47.6297 49.5675 47.6228 49.6935Q47.6159 49.8195 47.6049 49.942Q47.5939 50.0646 47.5789 50.1835Q47.5639 50.3024 47.5449 50.4173Q47.5259 50.5321 47.503 50.6428Q47.4801 50.7534 47.4534 50.8595Q47.4266 50.9656 47.396 51.0669Q47.3654 51.1682 47.3311 51.2645Q47.2968 51.3607 47.2588 51.4517Q47.2209 51.5427 47.1793 51.6283Q47.1378 51.7138 47.0928 51.7936Q47.0478 51.8735 46.9995 51.9474Q46.9511 52.0214 46.8996 52.0893Q46.848 52.1572 46.7933 52.2188Q46.7386 52.2805 46.6809 52.3358Q46.6232 52.3911 46.5627 52.4399Q46.5022 52.4887 46.439 52.5309Q46.3758 52.5731 46.3101 52.6085Q46.2443 52.644 46.1762 52.6726Q46.108 52.7013 46.0377 52.723Q45.9673 52.7448 45.8949 52.7596Q45.8225 52.7744 45.7482 52.7823Q45.6739 52.7902 45.598 52.7911Q45.522 52.7919 45.4445 52.7858Q45.367 52.7797 45.2882 52.7667Q45.2093 52.7536 45.1294 52.7336Q45.0494 52.7135 44.9685 52.6866Q44.8876 52.6597 44.8059 52.626Q44.7243 52.5922 44.6421 52.5517Q44.5598 52.5112 44.4773 52.4641Q44.3947 52.417 44.312 52.3633Q44.2293 52.3096 44.1466 52.2495Q44.0639 52.1895 43.9815 52.1231Q43.899 52.0568 43.817 51.9843Q43.735 51.9119 43.6537 51.8335Q43.5723 51.7551 43.4918 51.671Q43.4112 51.5869 43.3317 51.4973Q43.2522 51.4076 43.174 51.3127Q43.0957 51.2177 43.0188 51.1176Q42.9419 51.0176 42.8666 50.9127Q42.7914 50.8078 42.7179 50.6983Q42.6444 50.5888 42.5728 50.4749Q42.5012 50.3611 42.4318 50.2432Q42.3624 50.1253 42.2952 50.0036Q42.2281 49.8819 42.1634 49.7568Q42.0987 49.6316 42.0367 49.5033Q41.9746 49.375 41.9153 49.2438Q41.8559 49.1125 41.7995 48.9788Q41.7431 48.845 41.6897 48.709Q41.6364 48.573 41.5861 48.4351Q41.5359 48.2972 41.489 48.1578Q41.4421 48.0183 41.3985 47.8776Q41.355 47.7369 41.315 47.5952Q41.275 47.4536 41.2386 47.3115Q41.2021 47.1693 41.1694 47.0269Q41.1367 46.8845 41.1077 46.7423Q41.0787 46.6 41.0536 46.4582Q41.0285 46.3164 41.0072 46.1755Q40.986 46.0345 40.9687 45.8947Q40.9515 45.7549 40.9382 45.6165Q40.9249 45.4782 40.9156 45.3417Q40.9063 45.2052 40.9011 45.0708Q40.8959 44.9365 40.8947 44.8046Q40.8936 44.6727 40.8965 44.5436Q40.8994 44.4145 40.9063 44.2885Q40.9133 44.1625 40.9242 44.04Q40.9352 43.9174 40.9502 43.7985Q40.9652 43.6796 40.9842 43.5647Q41.0032 43.4499 41.0261 43.3392Q41.049 43.2286 41.0757 43.1225Q41.1025 43.0164 41.1331 42.9151Q41.1637 42.8138 41.198 42.7175Q41.2323 42.6213 41.2703 42.5303Q41.3082 42.4393 41.3498 42.3537Q41.3913 42.2682 41.4363 42.1884Q41.4813 42.1085 41.5296 42.0346Q41.578 41.9606 41.6296 41.8927Q41.6811 41.8248 41.7358 41.7632Q41.7905 41.7015 41.8482 41.6462Q41.9059 41.5909 41.9664 41.5421Q42.0269 41.4933 42.0901 41.4511Q42.1533 41.4089 42.2191 41.3735Q42.2848 41.338 42.3529 41.3094Q42.4211 41.2807 42.4914 41.259Q42.5618 41.2372 42.6342 41.2224Q42.7066 41.2076 42.7809 41.1997Q42.8552 41.1918 42.9312 41.1909Q43.0071 41.1901 43.0846 41.1962Q43.1621 41.2023 43.241 41.2153Q43.3198 41.2284 43.3997 41.2484Q43.4797 41.2685 43.5606 41.2954Q43.6415 41.3223 43.7232 41.356Q43.8048 41.3898 43.887 41.4303Q43.9693 41.4707 44.0518 41.5179Q44.1344 41.565 44.2171 41.6187Q44.2998 41.6724 44.3825 41.7324Q44.4652 41.7925 44.5476 41.8589Q44.6301 41.9252 44.7121 41.9977Q44.7941 42.0701 44.8755 42.1485Q44.9568 42.2268 45.0373 42.311Q45.1179 42.3951 45.1974 42.4847Q45.2769 42.5744 45.3552 42.6693Q45.4334 42.7643 45.5103 42.8643Q45.5872 42.9644 45.6625 43.0693Q45.7377 43.1742 45.8112 43.2837Q45.8848 43.3932 45.9563 43.5071Q46.0279 43.6209 46.0973 43.7388Q46.1667 43.8567 46.2339 43.9784Q46.301 44.1 46.3657 44.2252Q46.4304 44.3504 46.4924 44.4787Q46.5545 44.607 46.6138 44.7382Q46.6732 44.8694 46.7296 45.0032Q46.786 45.137 46.8394 45.273Q46.8928 45.409 46.943 45.5469Q46.9932 45.6848 47.0401 45.8242Q47.087 45.9637 47.1306 46.1044"/>
		</clipPath>
		<g clip-path="url(#cl_4)">
			<path fill="#EEE" transform="matrix(0.955337 -0.29552 0.29552 0.955337 44.2646 46.991)" d="M3 0Q3 0.147381 2.98555 0.294051Q2.97111 0.440722 2.94236 0.585271Q2.9136 0.72982 2.87082 0.870854Q2.82804 1.01189 2.77164 1.14805Q2.71524 1.28421 2.64576 1.41419Q2.57629 1.54417 2.49441 1.66671Q2.41253 1.78925 2.31903 1.90318Q2.22553 2.01711 2.12132 2.12132Q2.01711 2.22553 1.90318 2.31903Q1.78925 2.41253 1.66671 2.49441Q1.54417 2.57629 1.41419 2.64576Q1.28421 2.71524 1.14805 2.77164Q1.01189 2.82804 0.870854 2.87082Q0.72982 2.9136 0.585271 2.94236Q0.440722 2.97111 0.294051 2.98555Q0.147381 3 0 3Q-0.147381 3 -0.294051 2.98555Q-0.440722 2.97111 -0.585271 2.94236Q-0.72982 2.9136 -0.870854 2.87082Q-1.01189 2.82804 -1.14805 2.77164Q-1.28421 2.71524 -1.41419 2.64576Q-1.54417 2.57629 -1.66671 2.49441Q-1.78925 2.41253 -1.90318 2.31903Q-2.01711 2.22553 -2.12132 2.12132Q-2.22553 2.01711 -2.31903 1.90318Q-2.41253 1.78925 -2.49441 1.66671Q-2.57629 1.54417 -2.64576 1.41419Q-2.71524 1.28421 -2.77164 1.14805Q-2.82804 1.01189 -2.87082 0.870854Q-2.9136 0.72982 -2.94236 0.585271Q-2.97111 0.440722 -2.98555 0.294051Q-3 0.147381 -3 0Q-3 -0.147381 -2.98555 -0.294051Q-2.97111 -0.440722 -2.94236 -0.585271Q-2.9136 -0.72982 -2.87082 -0.870854Q-2.82804 -1.01189 -2.77164 -1.14805Q-2.71524 -1.28421 -2.64576 -1.41419Q-2.57629 -1.54417 -2.49441 -1.66671Q-2.41253 -1.78925 -2.31903 -1.90318Q-2.22553 -2.01711 -2.12132 -2.12132Q-2.01711 -2.22553 -1.90318 -2.31903Q-1.78925 -2.41253 -1.66671 -2.49441Q-1.54417 -2.57629 -1.41419 -2.64576Q-1.28421 -2.71524 -1.14805 -2.77164Q-1.01189 -2.82804 -0.870854 -2.87082Q-0.72982 -2.9136 -0.585271 -2.94236Q-0.440722 -2.97111 -0.294051 -2.98555Q-0.147381 -3 0 -3Q0.147381 -3 0.294051 -2.98555Q0.440722 -2.97111 0.585271 -2.94236Q0.72982 -2.9136 0.870854 -2.87082Q1.01189 -2.82804 1.14805 -2.77164Q1.28421 -2.71524 1.41419 -2.64576Q1.54417 -2.57629 1.66671 -2.49441Q1.78925 -2.41253 1.90318 -2.31903Q2.01711 -2.22553 2.12132 -2.12132Q2.22553 -2.01711 2.31903 -1.90318Q2.41253 -1.78925 2.49441 -1.66671Q2.57629 -1.54417 2.64576 -1.41419Q2.71524 -1.28421 2.77164 -1.14805Q2.82804 -1.01189 2.87082 -0.870854Q2.9136 -0.72982 2.94236 -0.585271Q2.97111 -0.440722 2.98555 -0.294051Q3 -0.147381 3 0"/>
		</g>
		<path fill="none" stroke="#111" stroke-width="0.5" stroke-linecap="round" stroke-linejoin="round" transform="matrix(0.955337 -0.29552 0.59104 1.91067 44.2646 46.991)" d="M3 0Q3 0.147381 2.98555 0.294051Q2.97111 0.440722 2.94236 0.585271Q2.9136 0.72982 2.87082 0.870854Q2.82804 1.01189 2.77164 1.14805Q2.71524 1.28421 2.64576 1.41419Q2.57629 1.54417 2.49441 1.66671Q2.41253 1.78925 2.31903 1.90318Q2.22553 2.01711 2.12132 2.12132Q2.01711 2.22553 1.90318 2.31903Q1.78925 2.41253 1.66671 2.49441Q1.54417 2.57629 1.41419 2.64576Q1.28421 2.71524 1.14805 2.77164Q1.01189 2.82804 0.870854 2.87082Q0.72982 2.9136 0.585271 2.94236Q0.440722 2.97111 0.294051 2.98555Q0.147381 3 0 3Q-0.147381 3 -0.294051 2.98555Q-0.440722 2.97111 -0.585271 2.94236Q-0.72982 2.9136 -0.870854 2.87082Q-1.01189 2.82804 -1.14805 2.77164Q-1.28421 2.71524 -1.41419 2.64576Q-1.54417 2.57629 -1.66671 2.49441Q-1.78925 2.41253 -1.90318 2.31903Q-2.01711 2.22553 -2.12132 2.12132Q-2.22553 2.01711 -2.31903 1.90318Q-2.41253 1.78925 -2.49441 1.66671Q-2.57629 1.54417 -2.64576 1.41419Q-2.71524 1.28421 -2.77164 1.14805Q-2.82804 1.01189 -2.87082 0.870854Q-2.9136 0.72982 -2.94236 0.585271Q-2.97111 0.440722 -2.98555 0.294051Q-3 0.147381 -3 0Q-3 -0.147381 -2.98555 -0.294051Q-2.97111 -0.440722 -2.94236 -0.585271Q-2.9136 -0.72982 -2.87082 -0.870854Q-2.82804 -1.01189 -2.77164 -1.14805Q-2.71524 -1.28421 -2.64576 -1.41419Q-2.57629 -1.54417 -2.49441 -1.66671Q-2.41253 -1.78925 -2.31903 -1.90318Q-2.22553 -2.01711 -2.12132 -2.12132Q-2.01711 -2.22553 -1.90318 -2.31903Q-1.78925 -2.41253 -1.66671 -2.49441Q-1.54417 -2.57629 -1.41419 -2.64576Q-1.28421 -2.71524 -1.14805 -2.77164Q-1.01189 -2.82804 -0.870854 -2.87082Q-0.72982 -2.9136 -0.585271 -2.94236Q-0.440722 -2.97111 -0.294051 -2.98555Q-0.147381 -3 0 -3Q0.147381 -3 0.294051 -2.98555Q0.440722 -2.97111 0.585271 -2.94236Q0.72982 -2.9136 0.870854 -2.87082Q1.01189 -2.82804 1.14805 -2.77164Q1.28421 -2.71524 1.41419 -2.64576Q1.54417 -2.57629 1.66671 -2.49441Q1.78925 -2.41253 1.90318 -2.31903Q2.01711 -2.22553 2.12132 -2.12132Q2.22553 -2.01711 2.31903 -1.90318Q2.41253 -1.78925 2.49441 -1.66671Q2.57629 -1.54417 2.64576 -1.41419Q2.71524 -1.28421 2.77164 -1.14805Q2.82804 -1.01189 2.87082 -0.870854Q2.9136 -0.72982 2.94236 -0.585271Q2.97111 -0.440722 2.98555 -0.294051Q3 -0.147381 3 0"/>
		<path fill="#111" transform="matrix(0.955337 -0.29552 0.59104 1.91067 57.6393 42.8537)" d="M3 0Q3 0.147381 2.98555 0.294051Q2.97111 0.440722 2.94236 0.585271Q2.9136 0.72982 2.87082 0.870854Q2.82804 1.01189 2.77164 1.14805Q2.71524 1.28421 2.64576 1.41419Q2.57629 1.54417 2.49441 1.66671Q2.41253 1.78925 2.31903 1.90318Q2.22553 2.01711 2.12132 2.12132Q2.01711 2.22553 1.90318 2.31903Q1.78925 2.41253 1.66671 2.49441Q1.54417 2.57629 1.41419 2.64576Q1.28421 2.71524 1.14805 2.77164Q1.01189 2.82804 0.870854 2.87082Q0.72982 2.9136 0.585271 2.94236Q0.440722 2.97111 0.294051 2.98555Q0.147381 3 0 3Q-0.147381 3 -0.294051 2.98555Q-0.440722 2.97111 -0.585271 2.94236Q-0.72982 2.9136 -0.870854 2.87082Q-1.01189 2.82804 -1.14805 2.77164Q-1.28421 2.71524 -1.41419 2.64576Q-1.54417 2.57629 -1.66671 2.49441Q-1.78925 2.41253 -1.90318 2.31903Q-2.01711 2.22553 -2.12132 2.12132Q-2.22553 2.01711 -2.31903 1.90318Q-2.41253 1.78925 -2.49441 1.66671Q-2.57629 1.54417 -2.64576 1.41419Q-2.71524 1.28421 -2.77164 1.14805Q-2.82804 1.01189 -2.87082 0.870854Q-2.9136 0.72982 -2.94236 0.585271Q-2.97111 0.440722 -2.98555 0.294051Q-3 0.147381 -3 0Q-3 -0.147381 -2.98555 -0.294051Q-2.97111 -0.440722 -2.94236 -0.585271Q-2.9136 -0.72982 -2.87082 -0.870854Q-2.82804 -1.01189 -2.77164 -1.14805Q-2.71524 -1.28421 -2.64576 -1.41419Q-2.57629 -1.54417 -2.49441 -1.66671Q-2.41253 -1.78925 -2.31903 -1.90318Q-2.22553 -2.01711 -2.12132 -2.12132Q-2.01711 -2.22553 -1.90318 -2.31903Q-1.78925 -2.41253 -1.66671 -2.49441Q-1.54417 -2.57629 -1.41419 -2.64576Q-1.28421 -2.71524 -1.14805 -2.77164Q-1.01189 -2.82804 -0.870854 -2.87082Q-0.72982 -2.9136 -0.585271 -2.94236Q-0.440722 -2.97111 -0.294051 -2.98555Q-0.147381 -3 0 -3Q0.147381 -3 0.294051 -2.98555Q0.440722 -2.97111 0.585271 -2.94236Q0.72982 -2.9136 0.870854 -2.87082Q1.01189 -2.82804 1.14805 -2.77164Q1.28421 -2.71524 1.41419 -2.64576Q1.54417 -2.57629 1.66671 -2.49441Q1.78925 -2.41253 1.90318 -2.31903Q2.01711 -2.22553 2.12132 -2.12132Q2.22553 -2.01711 2.31903 -1.90318Q2.41253 -1.78925 2.49441 -1.66671Q2.57629 -1.54417 2.64576 -1.41419Q2.71524 -1.28421 2.77164 -1.14805Q2.82804 -1.01189 2.87082 -0.870854Q2.9136 -0.72982 2.94236 -0.585271Q2.97111 -0.440722 2.98555 -0.294051Q3 -0.147381 3 0"/>
		<clipPath id="cl_5">
			<path d="M60.5053 41.9672Q60.5488 42.1079 60.5888 42.2495Q60.6288 42.3911 60.6653 42.5333Q60.7017 42.6754 60.7344 42.8178Q60.7672 42.9602 60.7961 43.1025Q60.8251 43.2447 60.8502 43.3865Q60.8753 43.5283 60.8966 43.6692Q60.9178 43.8102 60.9351 43.95Q60.9524 44.0899 60.9657 44.2282Q60.9789 44.3665 60.9882 44.503Q60.9975 44.6395 61.0027 44.7739Q61.0079 44.9082 61.0091 45.0401Q61.0102 45.172 61.0074 45.3011Q61.0045 45.4302 60.9975 45.5562Q60.9906 45.6822 60.9796 45.8047Q60.9686 45.9273 60.9536 46.0462Q60.9386 46.1651 60.9196 46.28Q60.9007 46.3949 60.8778 46.5055Q60.8549 46.6161 60.8281 46.7222Q60.8013 46.8283 60.7707 46.9296Q60.7401 47.0309 60.7058 47.1272Q60.6715 47.2234 60.6335 47.3144Q60.5956 47.4055 60.554 47.491Q60.5125 47.5765 60.4675 47.6563Q60.4225 47.7362 60.3742 47.8101Q60.3258 47.8841 60.2743 47.952Q60.2227 48.0199 60.168 48.0816Q60.1133 48.1432 60.0556 48.1985Q59.998 48.2538 59.9374 48.3026Q59.8769 48.3514 59.8137 48.3936Q59.7505 48.4358 59.6848 48.4712Q59.619 48.5067 59.5509 48.5353Q59.4827 48.564 59.4124 48.5857Q59.342 48.6075 59.2696 48.6223Q59.1972 48.6372 59.1229 48.645Q59.0486 48.6529 58.9727 48.6538Q58.8967 48.6547 58.8192 48.6486Q58.7417 48.6424 58.6629 48.6294Q58.584 48.6163 58.5041 48.5963Q58.4241 48.5762 58.3432 48.5493Q58.2623 48.5224 58.1806 48.4887Q58.099 48.4549 58.0168 48.4144Q57.9346 48.374 57.852 48.3268Q57.7694 48.2797 57.6867 48.226Q57.604 48.1723 57.5213 48.1123Q57.4386 48.0522 57.3562 47.9858Q57.2737 47.9195 57.1917 47.8471Q57.1097 47.7746 57.0284 47.6962Q56.947 47.6179 56.8665 47.5338Q56.7859 47.4496 56.7064 47.36Q56.6269 47.2704 56.5487 47.1754Q56.4704 47.0804 56.3935 46.9804Q56.3166 46.8803 56.2414 46.7754Q56.1661 46.6705 56.0926 46.561Q56.0191 46.4515 55.9475 46.3376Q55.876 46.2238 55.8065 46.1059Q55.7371 45.988 55.67 45.8663Q55.6028 45.7447 55.5381 45.6195Q55.4734 45.4943 55.4114 45.366Q55.3493 45.2377 55.29 45.1065Q55.2307 44.9753 55.1742 44.8415Q55.1178 44.7077 55.0644 44.5717Q55.0111 44.4357 54.9609 44.2978Q54.9106 44.1599 54.8637 44.0205Q54.8168 43.881 54.7733 43.7403Q54.7297 43.5996 54.6897 43.458Q54.6497 43.3163 54.6133 43.1742Q54.5768 43.032 54.5441 42.8896Q54.5114 42.7472 54.4824 42.605Q54.4534 42.4627 54.4283 42.3209Q54.4032 42.1792 54.382 42.0382Q54.3607 41.8972 54.3434 41.7574Q54.3262 41.6176 54.3129 41.4792Q54.2996 41.3409 54.2903 41.2044Q54.2811 41.0679 54.2758 40.9335Q54.2706 40.7992 54.2694 40.6673Q54.2683 40.5354 54.2712 40.4063Q54.2741 40.2772 54.281 40.1512Q54.288 40.0253 54.299 39.9027Q54.3099 39.7801 54.3249 39.6612Q54.3399 39.5424 54.3589 39.4275Q54.3779 39.3126 54.4008 39.2019Q54.4237 39.0913 54.4504 38.9852Q54.4772 38.8791 54.5078 38.7778Q54.5384 38.6765 54.5727 38.5803Q54.607 38.484 54.645 38.393Q54.683 38.302 54.7245 38.2164Q54.766 38.1309 54.811 38.0511Q54.856 37.9712 54.9043 37.8973Q54.9527 37.8233 55.0043 37.7554Q55.0558 37.6875 55.1105 37.6259Q55.1652 37.5642 55.2229 37.5089Q55.2806 37.4536 55.3411 37.4048Q55.4016 37.356 55.4648 37.3138Q55.528 37.2716 55.5938 37.2362Q55.6595 37.2007 55.7277 37.1721Q55.7958 37.1435 55.8661 37.1217Q55.9365 37.0999 56.0089 37.0851Q56.0813 37.0703 56.1556 37.0624Q56.2299 37.0545 56.3059 37.0537Q56.3818 37.0528 56.4593 37.0589Q56.5368 37.065 56.6157 37.0781Q56.6945 37.0911 56.7745 37.1112Q56.8544 37.1312 56.9353 37.1581Q57.0162 37.185 57.0979 37.2187Q57.1796 37.2525 57.2618 37.293Q57.344 37.3335 57.4265 37.3806Q57.5091 37.4277 57.5918 37.4814Q57.6746 37.5351 57.7572 37.5952Q57.8399 37.6553 57.9224 37.7216Q58.0048 37.7879 58.0868 37.8604Q58.1688 37.9328 58.2502 38.0112Q58.3315 38.0896 58.4121 38.1737Q58.4926 38.2578 58.5721 38.3474Q58.6516 38.4371 58.7299 38.532Q58.8081 38.627 58.885 38.7271Q58.9619 38.8271 59.0372 38.932Q59.1124 39.0369 59.186 39.1464Q59.2595 39.2559 59.331 39.3698Q59.4026 39.4836 59.472 39.6015Q59.5414 39.7194 59.6086 39.8411Q59.6757 39.9628 59.7404 40.0879Q59.8051 40.2131 59.8672 40.3414Q59.9292 40.4697 59.9885 40.601Q60.0479 40.7322 60.1043 40.8659Q60.1607 40.9997 60.2141 41.1357Q60.2675 41.2717 60.3177 41.4096Q60.3679 41.5475 60.4148 41.687Q60.4617 41.8264 60.5053 41.9672"/>
		</clipPath>
		<g clip-path="url(#cl_5)">
			<path fill="#EEE" transform="matrix(0.955337 -0.29552 0.29552 0.955337 57.6393 42.8537)" d="M3 0Q3 0.147381 2.98555 0.294051Q2.97111 0.440722 2.94236 0.585271Q2.9136 0.72982 2.87082 0.870854Q2.82804 1.01189 2.77164 1.14805Q2.71524 1.28421 2.64576 1.41419Q2.57629 1.54417 2.49441 1.66671Q2.41253 1.78925 2.31903 1.90318Q2.22553 2.01711 2.12132 2.12132Q2.01711 2.22553 1.90318 2.31903Q1.78925 2.41253 1.66671 2.49441Q1.54417 2.57629 1.41419 2.64576Q1.28421 2.71524 1.14805 2.77164Q1.01189 2.82804 0.870854 2.87082Q0.72982 2.9136 0.585271 2.94236Q0.440722 2.97111 0.294051 2.98555Q0.147381 3 0 3Q-0.147381 3 -0.294051 2.98555Q-0.440722 2.97111 -0.585271 2.94236Q-0.72982 2.9136 -0.870854 2.87082Q-1.01189 2.82804 -1.14805 2.77164Q-1.28421 2.71524 -1.41419 2.64576Q-1.54417 2.57629 -1.66671 2.49441Q-1.78925 2.41253 -1.90318 2.31903Q-2.01711 2.22553 -2.12132 2.12132Q-2.22553 2.01711 -2.31903 1.90318Q-2.41253 1.78925 -2.49441 1.66671Q-2.57629 1.54417 -2.64576 1.41419Q-2.71524 1.28421 -2.77164 1.14805Q-2.82804 1.01189 -2.87082 0.870854Q-2.9136 0.72982 -2.94236 0.585271Q-2.97111 0.440722 -2.98555 0.294051Q-3 0.147381 -3 0Q-3 -0.147381 -2.98555 -0.294051Q-2.97111 -0.440722 -2.94236 -0.585271Q-2.9136 -0.72982 -2.87082 -0.870854Q-2.82804 -1.01189 -2.77164 -1.14805Q-2.71524 -1.28421 -2.64576 -1.41419Q-2.57629 -1.54417 -2.49441 -1.66671Q-2.41253 -1.78925 -2.31903 -1.90318Q-2.22553 -2.01711 -2.12132 -2.12132Q-2.01711 -2.22553 -1.90318 -2.31903Q-1.78925 -2.41253 -1.66671 -2.49441Q-1.54417 -2.57629 -1.41419 -2.64576Q-1.28421 -2.71524 -1.14805 -2.77164Q-1.01189 -2.82804 -0.870854 -2.87082Q-0.72982 -2.9136 -0.585271 -2.94236Q-0.440722 -2.97111 -0.294051 -2.98555Q-0.147381 -3 0 -3Q0.147381 -3 0.294051 -2.98555Q0.440722 -2.97111 0.585271 -2.94236Q0.72982 -2.9136 0.870854 -2.87082Q1.01189 -2.82804 1.14805 -2.77164Q1.28421 -2.71524 1.41419 -2.64576Q1.54417 -2.57629 1.66671 -2.49441Q1.78925 -2.41253 1.90318 -2.31903Q2.01711 -2.22553 2.12132 -2.12132Q2.22553 -2.01711 2.31903 -1.90318Q2.41253 -1.78925 2.49441 -1.66671Q2.57629 -1.54417 2.64576 -1.41419Q2.71524 -1.28421 2.77164 -1.14805Q2.82804 -1.01189 2.87082 -0.870854Q2.9136 -0.72982 2.94236 -0.585271Q2.97111 -0.440722 2.98555 -0.294051Q3 -0.147381 3 0"/>
		</g>
		<path fill="none" stroke="#111" stroke-width="0.5" stroke-linecap="round" stroke-linejoin="round" transform="matrix(0.955337 -0.29552 0.59104 1.91067 57.6393 42.8537)" d="M3 0Q3 0.147381 2.98555 0.294051Q2.97111 0.440722 2.94236 0.585271Q2.9136 0.72982 2.87082 0.870854Q2.82804 1.01189 2.77164 1.14805Q2.71524 1.28421 2.64576 1.41419Q2.57629 1.54417 2.49441 1.66671Q2.41253 1.78925 2.31903 1.90318Q2.22553 2.01711 2.12132 2.12132Q2.01711 2.22553 1.90318 2.31903Q1.78925 2.41253 1.66671 2.49441Q1.54417 2.57629 1.41419 2.64576Q1.28421 2.71524 1.14805 2.77164Q1.01189 2.82804 0.870854 2.87082Q0.72982 2.9136 0.585271 2.94236Q0.440722 2.97111 0.294051 2.98555Q0.147381 3 0 3Q-0.147381 3 -0.294051 2.98555Q-0.440722 2.97111 -0.585271 2.94236Q-0.72982 2.9136 -0.870854 2.87082Q-1.01189 2.82804 -1.14805 2.77164Q-1.28421 2.71524 -1.41419 2.64576Q-1.54417 2.57629 -1.66671 2.49441Q-1.78925 2.41253 -1.90318 2.31903Q-2.01711 2.22553 -2.12132 2.12132Q-2.22553 2.01711 -2.31903 1.90318Q-2.41253 1.78925 -2.49441 1.66671Q-2.57629 1.54417 -2.64576 1.41419Q-2.71524 1.28421 -2.77164 1.14805Q-2.82804 1.01189 -2.87082 0.870854Q-2.9136 0.72982 -2.94236 0.585271Q-2.97111 0.440722 -2.98555 0.294051Q-3 0.147381 -3 0Q-3 -0.147381 -2.98555 -0.294051Q-2.97111 -0.440722 -2.94236 -0.585271Q-2.9136 -0.72982 -2.87082 -0.870854Q-2.82804 -1.01189 -2.77164 -1.14805Q-2.71524 -1.28421 -2.64576 -1.41419Q-2.57629 -1.54417 -2.49441 -1.66671Q-2.41253 -1.78925 -2.31903 -1.90318Q-2.22553 -2.01711 -2.12132 -2.12132Q-2.01711 -2.22553 -1.90318 -2.31903Q-1.78925 -2.41253 -1.66671 -2.49441Q-1.54417 -2.57629 -1.41419 -2.64576Q-1.28421 -2.71524 -1.14805 -2.77164Q-1.01189 -2.82804 -0.870854 -2.87082Q-0.72982 -2.9136 -0.585271 -2.94236Q-0.440722 -2.97111 -0.294051 -2.98555Q-0.147381 -3 0 -3Q0.147381 -3 0.294051 -2.98555Q0.440722 -2.97111 0.585271 -2.94236Q0.72982 -2.9136 0.870854 -2.87082Q1.01189 -2.82804 1.14805 -2.77164Q1.28421 -2.71524 1.41419 -2.64576Q1.54417 -2.57629 1.66671 -2.49441Q1.78925 -2.41253 1.90318 -2.31903Q2.01711 -2.22553 2.12132 -2.12132Q2.22553 -2.01711 2.31903 -1.90318Q2.41253 -1.78925 2.49441 -1.66671Q2.57629 -1.54417 2.64576 -1.41419Q2.71524 -1.28421 2.77164 -1.14805Q2.82804 -1.01189 2.87082 -0.870854Q2.9136 -0.72982 2.94236 -0.585271Q2.97111 -0.440722 2.98555 -0.294051Q3 -0.147381 3 0"/>
		<path fill="none" stroke="#111" stroke-width="1.5" stroke-linecap="round" stroke-linejoin="round" transform="matrix(0.955337 -0.29552 0.29552 0.955337 55.3847 59.2524)" d="M-6 0Q0 -4 6 0"/>
	</g>
	<path fill="#FFE763" transform="matrix(0.955337 -0.29552 0.29552 0.955337 57.5705 46.0152)" d="M3.96299 24.6839Q4.50751 24.5965 5.04765 24.4851Q5.58779 24.3738 6.1225 24.2387Q6.6572 24.1036 7.18543 23.9451Q7.71365 23.7866 8.23438 23.605Q8.7551 23.4233 9.26731 23.2189Q9.77951 23.0145 10.2822 22.7876Q10.7849 22.5608 11.2771 22.312Q11.7693 22.0633 12.2501 21.793Q12.7308 21.5228 13.1992 21.2316Q13.6675 20.9405 14.1226 20.6289Q14.5777 20.3174 15.0186 19.9861Q15.4595 19.6547 15.8853 19.3043Q16.3112 18.9539 16.7212 18.585Q17.1311 18.2162 17.5245 17.8296Q17.9178 17.443 18.2937 17.0394Q18.6696 16.6359 19.0273 16.2161Q19.385 15.7964 19.7239 15.3613Q20.0627 14.9262 20.3821 14.4765Q20.7014 14.0269 21.0007 13.5636Q21.2999 13.1004 21.5784 12.6244Q21.8569 12.1483 22.1141 11.6605Q22.3713 11.1727 22.6068 10.674Q22.8423 10.1753 23.0555 9.66666Q23.2687 9.15806 23.4594 8.64054Q23.65 8.12303 23.8176 7.59762Q23.9852 7.07221 24.1294 6.53991Q24.2737 6.00762 24.3944 5.46948Q24.515 4.93135 24.6118 4.38841Q24.7086 3.84548 24.7814 3.2988Q24.8542 2.75213 24.9028 2.20277Q24.9514 1.65342 24.9757 1.10246Q25 0.551498 25 0Q25 -0.613716 24.9699 -1.22669Q24.9398 -1.83967 24.8796 -2.45043Q24.8195 -3.06119 24.7294 -3.66826Q24.6394 -4.27533 24.5196 -4.87726Q24.3999 -5.47918 24.2508 -6.0745Q24.1017 -6.66983 23.9235 -7.25712Q23.7454 -7.84441 23.5386 -8.42225Q23.3318 -9.00008 23.097 -9.56708Q22.8621 -10.1341 22.5997 -10.6889Q22.3373 -11.2437 22.048 -11.7849Q21.7587 -12.3262 21.4432 -12.8526Q21.1277 -13.379 20.7867 -13.8893Q20.4458 -14.3995 20.0802 -14.8925Q19.7146 -15.3854 19.3253 -15.8598Q18.9359 -16.3342 18.5238 -16.789Q18.1116 -17.2437 17.6777 -17.6777Q17.2437 -18.1116 16.789 -18.5238Q16.3342 -18.9359 15.8598 -19.3253Q15.3854 -19.7146 14.8925 -20.0802Q14.3995 -20.4458 13.8893 -20.7867Q13.379 -21.1277 12.8526 -21.4432Q12.3262 -21.7587 11.7849 -22.048Q11.2437 -22.3373 10.6889 -22.5997Q10.1341 -22.8621 9.56708 -23.097Q9.00008 -23.3318 8.42225 -23.5386Q7.8444 -23.7454 7.25712 -23.9235Q6.66983 -24.1017 6.0745 -24.2508Q5.47918 -24.3999 4.87726 -24.5196Q4.27533 -24.6394 3.66826 -24.7294Q3.06119 -24.8195 2.45043 -24.8796Q1.83967 -24.9398 1.22669 -24.9699Q0.613716 -25 0 -25Q-0.323247 -25 -0.646386 -24.9916L-4 -8L10 11L3.96299 24.6839Z" fill-rule="evenodd"/>
	<path fill="none" stroke="#CFBB50" stroke-width="3" stroke-linecap="round" stroke-linejoin="round" transform="matrix(0.955337 -0.29552 0.29552 0.955337 57.5705 46.0152)" d="M3.96299 24.6839Q4.50751 24.5965 5.04765 24.4851Q5.58779 24.3738 6.1225 24.2387Q6.6572 24.1036 7.18543 23.9451Q7.71365 23.7866 8.23438 23.605Q8.7551 23.4233 9.26731 23.2189Q9.77951 23.0145 10.2822 22.7876Q10.7849 22.5608 11.2771 22.312Q11.7693 22.0633 12.2501 21.793Q12.7308 21.5228 13.1992 21.2316Q13.6675 20.9405 14.1226 20.6289Q14.5777 20.3174 15.0186 19.9861Q15.4595 19.6547 15.8853 19.3043Q16.3112 18.9539 16.7212 18.585Q17.1311 18.2162 17.5245 17.8296Q17.9178 17.443 18.2937 17.0394Q18.6696 16.6359 19.0273 16.2161Q19.385 15.7964 19.7239 15.3613Q20.0627 14.9262 20.3821 14.4765Q20.7014 14.0269 21.0007 13.5636Q21.2999 13.1004 21.5784 12.6244Q21.8569 12.1483 22.1141 11.6605Q22.3713 11.1727 22.6068 10.674Q22.8423 10.1753 23.0555 9.66666Q23.2687 9.15806 23.4594 8.64054Q23.65 8.12303 23.8176 7.59762Q23.9852 7.07221 24.1294 6.53991Q24.2737 6.00762 24.3944 5.46948Q24.515 4.93135 24.6118 4.38841Q24.7086 3.84548 24.7814 3.2988Q24.8542 2.75213 24.9028 2.20277Q24.9514 1.65342 24.9757 1.10246Q25 0.551498 25 0Q25 -0.613716 24.9699 -1.22669Q24.9398 -1.83967 24.8796 -2.45043Q24.8195 -3.06119 24.7294 -3.66826Q24.6394 -4.27533 24.5196 -4.87726Q24.3999 -5.47918 24.2508 -6.0745Q24.1017 -6.66983 23.9235 -7.25712Q23.7454 -7.84441 23.5386 -8.42225Q23.3318 -9.00008 23.097 -9.56708Q22.8621 -10.1341 22.5997 -10.6889Q22.3373 -11.2437 22.048 -11.7849Q21.7587 -12.3262 21.4432 -12.8526Q21.1277 -13.379 20.7867 -13.8893Q20.4458 -14.3995 20.0802 -14.8925Q19.7146 -15.3854 19.3253 -15.8598Q18.9359 -16.3342 18.5238 -16.789Q18.1116 -17.2437 17.6777 -17.6777Q17.2437 -18.1116 16.789 -18.5238Q16.3342 -18.9359 15.8598 -19.3253Q15.3854 -19.7146 14.8925 -20.0802Q14.3995 -20.4458 13.8893 -20.7867Q13.379 -21.1277 12.8526 -21.4432Q12.3262 -21.7587 11.7849 -22.048Q11.2437 -22.3373 10.6889 -22.5997Q10.1341 -22.8621 9.56708 -23.097Q9.00008 -23.3318 8.42225 -23.5386Q7.8444 -23.7454 7.25712 -23.9235Q6.66983 -24.1017 6.0745 -24.2508Q5.47918 -24.3999 4.87726 -24.5196Q4.27533 -24.6394 3.66826 -24.7294Q3.06119 -24.8195 2.45043 -24.8796Q1.83967 -24.9398 1.22669 -24.9699Q0.613716 -25 0 -25Q-0.323247 -25 -0.646386 -24.9916L-4 -8L10 11L3.96299 24.6839Z" fill-rule="evenodd"/>
	<clipPath id="cl_6">
		<path d="M132.102 -64.9671L43.2555 -37.4837L51.385 39.5546L70.3746 53.5687L61.8099 127.397L181.227 90.4572L132.102 -64.9671Z"/>
	</clipPath>
	<g clip-path="url(#cl_6)">
		<path fill="#111" transform="matrix(0.955337 -0.29552 0.59104 1.91067 49.4055 43.3072)" d="M3 0Q3 0.147381 2.98555 0.294051Q2.97111 0.440722 2.94236 0.585271Q2.9136 0.72982 2.87082 0.870854Q2.82804 1.01189 2.77164 1.14805Q2.71524 1.28421 2.64576 1.41419Q2.57629 1.54417 2.49441 1.66671Q2.41253 1.78925 2.31903 1.90318Q2.22553 2.01711 2.12132 2.12132Q2.01711 2.22553 1.90318 2.31903Q1.78925 2.41253 1.66671 2.49441Q1.54417 2.57629 1.41419 2.64576Q1.28421 2.71524 1.14805 2.77164Q1.01189 2.82804 0.870854 2.87082Q0.72982 2.9136 0.585271 2.94236Q0.440722 2.97111 0.294051 2.98555Q0.147381 3 0 3Q-0.147381 3 -0.294051 2.98555Q-0.440722 2.97111 -0.585271 2.94236Q-0.72982 2.9136 -0.870854 2.87082Q-1.01189 2.82804 -1.14805 2.77164Q-1.28421 2.71524 -1.41419 2.64576Q-1.54417 2.57629 -1.66671 2.49441Q-1.78925 2.41253 -1.90318 2.31903Q-2.01711 2.22553 -2.12132 2.12132Q-2.22553 2.01711 -2.31903 1.90318Q-2.41253 1.78925 -2.49441 1.66671Q-2.57629 1.54417 -2.64576 1.41419Q-2.71524 1.28421 -2.77164 1.14805Q-2.82804 1.01189 -2.87082 0.870854Q-2.9136 0.72982 -2.94236 0.585271Q-2.97111 0.440722 -2.98555 0.294051Q-3 0.147381 -3 0Q-3 -0.147381 -2.98555 -0.294051Q-2.97111 -0.440722 -2.94236 -0.585271Q-2.9136 -0.72982 -2.87082 -0.870854Q-2.82804 -1.01189 -2.77164 -1.14805Q-2.71524 -1.28421 -2.64576 -1.41419Q-2.57629 -1.54417 -2.49441 -1.66671Q-2.41253 -1.78925 -2.31903 -1.90318Q-2.22553 -2.01711 -2.12132 -2.12132Q-2.01711 -2.22553 -1.90318 -2.31903Q-1.78925 -2.41253 -1.66671 -2.49441Q-1.54417 -2.57629 -1.41419 -2.64576Q-1.28421 -2.71524 -1.14805 -2.77164Q-1.01189 -2.82804 -0.870854 -2.87082Q-0.72982 -2.9136 -0.585271 -2.94236Q-0.440722 -2.97111 -0.294051 -2.98555Q-0.147381 -3 0 -3Q0.147381 -3 0.294051 -2.98555Q0.440722 -2.97111 0.585271 -2.94236Q0.72982 -2.9136 0.870854 -2.87082Q1.01189 -2.82804 1.14805 -2.77164Q1.28421 -2.71524 1.41419 -2.64576Q1.54417 -2.57629 1.66671 -2.49441Q1.78925 -2.41253 1.90318 -2.31903Q2.01711 -2.22553 2.12132 -2.12132Q2.22553 -2.01711 2.31903 -1.90318Q2.41253 -1.78925 2.49441 -1.66671Q2.57629 -1.54417 2.64576 -1.41419Q2.71524 -1.28421 2.77164 -1.14805Q2.82804 -1.01189 2.87082 -0.870854Q2.9136 -0.72982 2.94236 -0.585271Q2.97111 -0.440722 2.98555 -0.294051Q3 -0.147381 3 0"/>
		<clipPath id="cl_7">
			<path d="M52.2715 42.4206Q52.3151 42.5614 52.3551 42.703Q52.3951 42.8446 52.4315 42.9867Q52.468 43.1289 52.5007 43.2713Q52.5334 43.4137 52.5624 43.5559Q52.5914 43.6982 52.6165 43.84Q52.6416 43.9818 52.6628 44.1227Q52.6841 44.2637 52.7013 44.4035Q52.7186 44.5433 52.7319 44.6817Q52.7452 44.82 52.7545 44.9565Q52.7637 45.093 52.769 45.2274Q52.7742 45.3617 52.7754 45.4936Q52.7765 45.6255 52.7736 45.7546Q52.7707 45.8837 52.7638 46.0097Q52.7568 46.1357 52.7458 46.2582Q52.7349 46.3808 52.7199 46.4997Q52.7049 46.6186 52.6859 46.7335Q52.6669 46.8483 52.644 46.959Q52.6211 47.0696 52.5943 47.1757Q52.5676 47.2818 52.537 47.3831Q52.5064 47.4844 52.4721 47.5806Q52.4378 47.6769 52.3998 47.7679Q52.3618 47.8589 52.3203 47.9445Q52.2788 48.03 52.2338 48.1098Q52.1888 48.1897 52.1404 48.2636Q52.0921 48.3376 52.0405 48.4055Q51.9889 48.4734 51.9343 48.535Q51.8796 48.5967 51.8219 48.652Q51.7642 48.7073 51.7037 48.7561Q51.6432 48.8049 51.58 48.8471Q51.5168 48.8893 51.451 48.9247Q51.3853 48.9602 51.3171 48.9888Q51.249 49.0175 51.1787 49.0392Q51.1083 49.061 51.0359 49.0758Q50.9635 49.0907 50.8892 49.0985Q50.8149 49.1064 50.7389 49.1073Q50.6629 49.1081 50.5854 49.102Q50.508 49.0959 50.4291 49.0829Q50.3503 49.0698 50.2703 49.0498Q50.1904 49.0297 50.1095 49.0028Q50.0286 48.9759 49.9469 48.9422Q49.8652 48.9084 49.783 48.8679Q49.7008 48.8274 49.6183 48.7803Q49.5357 48.7332 49.453 48.6795Q49.3702 48.6258 49.2876 48.5657Q49.2049 48.5057 49.1224 48.4393Q49.04 48.373 48.958 48.3005Q48.876 48.2281 48.7946 48.1497Q48.7133 48.0714 48.6327 47.9872Q48.5522 47.9031 48.4727 47.8135Q48.3932 47.7238 48.3149 47.6289Q48.2367 47.5339 48.1598 47.4339Q48.0829 47.3338 48.0076 47.2289Q47.9323 47.124 47.8588 47.0145Q47.7853 46.905 47.7138 46.7911Q47.6422 46.6773 47.5728 46.5594Q47.5034 46.4415 47.4362 46.3198Q47.3691 46.1982 47.3044 46.073Q47.2397 45.9478 47.1776 45.8195Q47.1156 45.6912 47.0562 45.56Q46.9969 45.4287 46.9405 45.295Q46.8841 45.1612 46.8307 45.0252Q46.7773 44.8892 46.7271 44.7513Q46.6769 44.6134 46.63 44.474Q46.5831 44.3345 46.5395 44.1938Q46.496 44.0531 46.456 43.9114Q46.4159 43.7698 46.3795 43.6277Q46.3431 43.4855 46.3104 43.3431Q46.2776 43.2007 46.2487 43.0585Q46.2197 42.9162 46.1946 42.7744Q46.1694 42.6326 46.1482 42.4917Q46.127 42.3507 46.1097 42.2109Q46.0924 42.0711 46.0791 41.9327Q46.0658 41.7944 46.0566 41.6579Q46.0473 41.5214 46.0421 41.387Q46.0369 41.2527 46.0357 41.1208Q46.0345 40.9889 46.0374 40.8598Q46.0403 40.7307 46.0473 40.6047Q46.0542 40.4787 46.0652 40.3562Q46.0762 40.2336 46.0912 40.1147Q46.1062 39.9958 46.1252 39.8809Q46.1441 39.7661 46.167 39.6554Q46.1899 39.5448 46.2167 39.4387Q46.2435 39.3326 46.2741 39.2313Q46.3046 39.13 46.339 39.0337Q46.3733 38.9375 46.4112 38.8465Q46.4492 38.7555 46.4907 38.6699Q46.5323 38.5844 46.5773 38.5046Q46.6223 38.4247 46.6706 38.3508Q46.7189 38.2768 46.7705 38.2089Q46.8221 38.141 46.8768 38.0794Q46.9315 38.0177 46.9892 37.9624Q47.0468 37.9071 47.1073 37.8583Q47.1679 37.8095 47.2311 37.7673Q47.2943 37.7251 47.36 37.6897Q47.4258 37.6542 47.4939 37.6256Q47.5621 37.5969 47.6324 37.5752Q47.7028 37.5534 47.7752 37.5386Q47.8476 37.5238 47.9219 37.5159Q47.9962 37.508 48.0721 37.5071Q48.1481 37.5063 48.2256 37.5124Q48.3031 37.5185 48.3819 37.5315Q48.4608 37.5446 48.5407 37.5646Q48.6207 37.5847 48.7016 37.6116Q48.7825 37.6385 48.8642 37.6722Q48.9458 37.706 49.028 37.7465Q49.1102 37.787 49.1928 37.8341Q49.2754 37.8812 49.3581 37.9349Q49.4408 37.9886 49.5235 38.0487Q49.6062 38.1087 49.6886 38.1751Q49.7711 38.2414 49.8531 38.3139Q49.9351 38.3863 50.0164 38.4647Q50.0978 38.543 50.1783 38.6272Q50.2588 38.7113 50.3383 38.8009Q50.4178 38.8906 50.4961 38.9855Q50.5744 39.0805 50.6513 39.1805Q50.7282 39.2806 50.8034 39.3855Q50.8787 39.4904 50.9522 39.5999Q51.0257 39.7094 51.0973 39.8233Q51.1688 39.9371 51.2383 40.055Q51.3077 40.1729 51.3748 40.2946Q51.442 40.4162 51.5067 40.5414Q51.5713 40.6666 51.6334 40.7949Q51.6955 40.9232 51.7548 41.0544Q51.8141 41.1856 51.8706 41.3194Q51.927 41.4532 51.9803 41.5892Q52.0337 41.7252 52.0839 41.8631Q52.1342 42.001 52.1811 42.1404Q52.228 42.2799 52.2715 42.4206"/>
		</clipPath>
		<g clip-path="url(#cl_7)">
			<path fill="#EEE" transform="matrix(0.955337 -0.29552 0.29552 0.955337 49.4055 43.3072)" d="M3 0Q3 0.147381 2.98555 0.294051Q2.97111 0.440722 2.94236 0.585271Q2.9136 0.72982 2.87082 0.870854Q2.82804 1.01189 2.77164 1.14805Q2.71524 1.28421 2.64576 1.41419Q2.57629 1.54417 2.49441 1.66671Q2.41253 1.78925 2.31903 1.90318Q2.22553 2.01711 2.12132 2.12132Q2.01711 2.22553 1.90318 2.31903Q1.78925 2.41253 1.66671 2.49441Q1.54417 2.57629 1.41419 2.64576Q1.28421 2.71524 1.14805 2.77164Q1.01189 2.82804 0.870854 2.87082Q0.72982 2.9136 0.585271 2.94236Q0.440722 2.97111 0.294051 2.98555Q0.147381 3 0 3Q-0.147381 3 -0.294051 2.98555Q-0.440722 2.97111 -0.585271 2.94236Q-0.72982 2.9136 -0.870854 2.87082Q-1.01189 2.82804 -1.14805 2.77164Q-1.28421 2.71524 -1.41419 2.64576Q-1.54417 2.57629 -1.66671 2.49441Q-1.78925 2.41253 -1.90318 2.31903Q-2.01711 2.22553 -2.12132 2.12132Q-2.22553 2.01711 -2.31903 1.90318Q-2.41253 1.78925 -2.49441 1.66671Q-2.57629 1.54417 -2.64576 1.41419Q-2.71524 1.28421 -2.77164 1.14805Q-2.82804 1.01189 -2.87082 0.870854Q-2.9136 0.72982 -2.94236 0.585271Q-2.97111 0.440722 -2.98555 0.294051Q-3 0.147381 -3 0Q-3 -0.147381 -2.98555 -0.294051Q-2.97111 -0.440722 -2.94236 -0.585271Q-2.9136 -0.72982 -2.87082 -0.870854Q-2.82804 -1.01189 -2.77164 -1.14805Q-2.71524 -1.28421 -2.64576 -1.41419Q-2.57629 -1.54417 -2.49441 -1.66671Q-2.41253 -1.78925 -2.31903 -1.90318Q-2.22553 -2.01711 -2.12132 -2.12132Q-2.01711 -2.22553 -1.90318 -2.31903Q-1.78925 -2.41253 -1.66671 -2.49441Q-1.54417 -2.57629 -1.41419 -2.64576Q-1.28421 -2.71524 -1.14805 -2.77164Q-1.01189 -2.82804 -0.870854 -2.87082Q-0.72982 -2.9136 -0.585271 -2.94236Q-0.440722 -2.97111 -0.294051 -2.98555Q-0.147381 -3 0 -3Q0.147381 -3 0.294051 -2.98555Q0.440722 -2.97111 0.585271 -2.94236Q0.72982 -2.9136 0.870854 -2.87082Q1.01189 -2.82804 1.14805 -2.77164Q1.28421 -2.71524 1.41419 -2.64576Q1.54417 -2.57629 1.66671 -2.49441Q1.78925 -2.41253 1.90318 -2.31903Q2.01711 -2.22553 2.12132 -2.12132Q2.22553 -2.01711 2.31903 -1.90318Q2.41253 -1.78925 2.49441 -1.66671Q2.57629 -1.54417 2.64576 -1.41419Q2.71524 -1.28421 2.77164 -1.14805Q2.82804 -1.01189 2.87082 -0.870854Q2.9136 -0.72982 2.94236 -0.585271Q2.97111 -0.440722 2.98555 -0.294051Q3 -0.147381 3 0"/>
		</g>
		<path fill="none" stroke="#111" stroke-width="0.5" stroke-linecap="round" stroke-linejoin="round" transform="matrix(0.955337 -0.29552 0.59104 1.91067 49.4055 43.3072)" d="M3 0Q3 0.147381 2.98555 0.294051Q2.97111 0.440722 2.94236 0.585271Q2.9136 0.72982 2.87082 0.870854Q2.82804 1.01189 2.77164 1.14805Q2.71524 1.28421 2.64576 1.41419Q2.57629 1.54417 2.49441 1.66671Q2.41253 1.78925 2.31903 1.90318Q2.22553 2.01711 2.12132 2.12132Q2.01711 2.22553 1.90318 2.31903Q1.78925 2.41253 1.66671 2.49441Q1.54417 2.57629 1.41419 2.64576Q1.28421 2.71524 1.14805 2.77164Q1.01189 2.82804 0.870854 2.87082Q0.72982 2.9136 0.585271 2.94236Q0.440722 2.97111 0.294051 2.98555Q0.147381 3 0 3Q-0.147381 3 -0.294051 2.98555Q-0.440722 2.97111 -0.585271 2.94236Q-0.72982 2.9136 -0.870854 2.87082Q-1.01189 2.82804 -1.14805 2.77164Q-1.28421 2.71524 -1.41419 2.64576Q-1.54417 2.57629 -1.66671 2.49441Q-1.78925 2.41253 -1.90318 2.31903Q-2.01711 2.22553 -2.12132 2.12132Q-2.22553 2.01711 -2.31903 1.90318Q-2.41253 1.78925 -2.49441 1.66671Q-2.57629 1.54417 -2.64576 1.41419Q-2.71524 1.28421 -2.77164 1.14805Q-2.82804 1.01189 -2.87082 0.870854Q-2.9136 0.72982 -2.94236 0.585271Q-2.97111 0.440722 -2.98555 0.294051Q-3 0.147381 -3 0Q-3 -0.147381 -2.98555 -0.294051Q-2.97111 -0.440722 -2.94236 -0.585271Q-2.9136 -0.72982 -2.87082 -0.870854Q-2.82804 -1.01189 -2.77164 -1.14805Q-2.71524 -1.28421 -2.64576 -1.41419Q-2.57629 -1.54417 -2.49441 -1.66671Q-2.41253 -1.78925 -2.31903 -1.90318Q-2.22553 -2.01711 -2.12132 -2.12132Q-2.01711 -2.22553 -1.90318 -2.31903Q-1.78925 -2.41253 -1.66671 -2.49441Q-1.54417 -2.57629 -1.41419 -2.64576Q-1.28421 -2.71524 -1.14805 -2.77164Q-1.01189 -2.82804 -0.870854 -2.87082Q-0.72982 -2.9136 -0.585271 -2.94236Q-0.440722 -2.97111 -0.294051 -2.98555Q-0.147381 -3 0 -3Q0.147381 -3 0.294051 -2.98555Q0.440722 -2.97111 0.585271 -2.94236Q0.72982 -2.9136 0.870854 -2.87082Q1.01189 -2.82804 1.14805 -2.77164Q1.28421 -2.71524 1.41419 -2.64576Q1.54417 -2.57629 1.66671 -2.49441Q1.78925 -2.41253 1.90318 -2.31903Q2.01711 -2.22553 2.12132 -2.12132Q2.22553 -2.01711 2.31903 -1.90318Q2.41253 -1.78925 2.49441 -1.66671Q2.57629 -1.54417 2.64576 -1.41419Q2.71524 -1.28421 2.77164 -1.14805Q2.82804 -1.01189 2.87082 -0.870854Q2.9136 -0.72982 2.94236 -0.585271Q2.97111 -0.440722 2.98555 -0.294051Q3 -0.147381 3 0"/>
		<path fill="#111" transform="matrix(0.955337 -0.29552 0.59104 1.91067 62.7802 39.1699)" d="M3 0Q3 0.147381 2.98555 0.294051Q2.97111 0.440722 2.94236 0.585271Q2.9136 0.72982 2.87082 0.870854Q2.82804 1.01189 2.77164 1.14805Q2.71524 1.28421 2.64576 1.41419Q2.57629 1.54417 2.49441 1.66671Q2.41253 1.78925 2.31903 1.90318Q2.22553 2.01711 2.12132 2.12132Q2.01711 2.22553 1.90318 2.31903Q1.78925 2.41253 1.66671 2.49441Q1.54417 2.57629 1.41419 2.64576Q1.28421 2.71524 1.14805 2.77164Q1.01189 2.82804 0.870854 2.87082Q0.72982 2.9136 0.585271 2.94236Q0.440722 2.97111 0.294051 2.98555Q0.147381 3 0 3Q-0.147381 3 -0.294051 2.98555Q-0.440722 2.97111 -0.585271 2.94236Q-0.72982 2.9136 -0.870854 2.87082Q-1.01189 2.82804 -1.14805 2.77164Q-1.28421 2.71524 -1.41419 2.64576Q-1.54417 2.57629 -1.66671 2.49441Q-1.78925 2.41253 -1.90318 2.31903Q-2.01711 2.22553 -2.12132 2.12132Q-2.22553 2.01711 -2.31903 1.90318Q-2.41253 1.78925 -2.49441 1.66671Q-2.57629 1.54417 -2.64576 1.41419Q-2.71524 1.28421 -2.77164 1.14805Q-2.82804 1.01189 -2.87082 0.870854Q-2.9136 0.72982 -2.94236 0.585271Q-2.97111 0.440722 -2.98555 0.294051Q-3 0.147381 -3 0Q-3 -0.147381 -2.98555 -0.294051Q-2.97111 -0.440722 -2.94236 -0.585271Q-2.9136 -0.72982 -2.87082 -0.870854Q-2.82804 -1.01189 -2.77164 -1.14805Q-2.71524 -1.28421 -2.64576 -1.41419Q-2.57629 -1.54417 -2.49441 -1.66671Q-2.41253 -1.78925 -2.31903 -1.90318Q-2.22553 -2.01711 -2.12132 -2.12132Q-2.01711 -2.22553 -1.90318 -2.31903Q-1.78925 -2.41253 -1.66671 -2.49441Q-1.54417 -2.57629 -1.41419 -2.64576Q-1.28421 -2.71524 -1.14805 -2.77164Q-1.01189 -2.82804 -0.870854 -2.87082Q-0.72982 -2.9136 -0.585271 -2.94236Q-0.440722 -2.97111 -0.294051 -2.98555Q-0.147381 -3 0 -3Q0.147381 -3 0.294051 -2.98555Q0.440722 -2.97111 0.585271 -2.94236Q0.72982 -2.9136 0.870854 -2.87082Q1.01189 -2.82804 1.14805 -2.77164Q1.28421 -2.71524 1.41419 -2.64576Q1.54417 -2.57629 1.66671 -2.49441Q1.78925 -2.41253 1.90318 -2.31903Q2.01711 -2.22553 2.12132 -2.12132Q2.22553 -2.01711 2.31903 -1.90318Q2.41253 -1.78925 2.49441 -1.66671Q2.57629 -1.54417 2.64576 -1.41419Q2.71524 -1.28421 2.77164 -1.14805Q2.82804 -1.01189 2.87082 -0.870854Q2.9136 -0.72982 2.94236 -0.585271Q2.97111 -0.440722 2.98555 -0.294051Q3 -0.147381 3 0"/>
		<clipPath id="cl_8">
			<path d="M65.6463 38.2834Q65.6898 38.4241 65.7298 38.5657Q65.7698 38.7073 65.8063 38.8495Q65.8427 38.9916 65.8754 39.134Q65.9081 39.2764 65.9371 39.4186Q65.9661 39.5609 65.9912 39.7027Q66.0163 39.8445 66.0376 39.9854Q66.0588 40.1264 66.0761 40.2662Q66.0933 40.4061 66.1066 40.5444Q66.1199 40.6827 66.1292 40.8192Q66.1385 40.9557 66.1437 41.0901Q66.1489 41.2244 66.1501 41.3563Q66.1512 41.4882 66.1483 41.6173Q66.1454 41.7464 66.1385 41.8724Q66.1315 41.9984 66.1206 42.121Q66.1096 42.2435 66.0946 42.3624Q66.0796 42.4813 66.0606 42.5962Q66.0416 42.7111 66.0187 42.8217Q65.9958 42.9323 65.9691 43.0384Q65.9423 43.1445 65.9117 43.2458Q65.8811 43.3471 65.8468 43.4434Q65.8125 43.5396 65.7745 43.6306Q65.7365 43.7217 65.695 43.8072Q65.6535 43.8927 65.6085 43.9725Q65.5635 44.0524 65.5152 44.1263Q65.4668 44.2003 65.4152 44.2682Q65.3636 44.3361 65.309 44.3978Q65.2543 44.4594 65.1966 44.5147Q65.1389 44.57 65.0784 44.6188Q65.0179 44.6676 64.9547 44.7098Q64.8915 44.752 64.8258 44.7874Q64.76 44.8229 64.6919 44.8515Q64.6237 44.8802 64.5534 44.9019Q64.483 44.9237 64.4106 44.9385Q64.3382 44.9534 64.2639 44.9612Q64.1896 44.9691 64.1136 44.97Q64.0377 44.9709 63.9602 44.9648Q63.8827 44.9586 63.8038 44.9456Q63.725 44.9325 63.6451 44.9125Q63.5651 44.8924 63.4842 44.8655Q63.4033 44.8386 63.3216 44.8049Q63.24 44.7711 63.1577 44.7306Q63.0755 44.6902 62.993 44.643Q62.9104 44.5959 62.8277 44.5422Q62.7449 44.4885 62.6623 44.4285Q62.5796 44.3684 62.4971 44.302Q62.4147 44.2357 62.3327 44.1633Q62.2507 44.0908 62.1693 44.0124Q62.088 43.9341 62.0074 43.85Q61.9269 43.7659 61.8474 43.6762Q61.7679 43.5866 61.6896 43.4916Q61.6114 43.3966 61.5345 43.2966Q61.4576 43.1965 61.3823 43.0916Q61.307 42.9867 61.2335 42.8772Q61.16 42.7677 61.0885 42.6539Q61.0169 42.54 60.9475 42.4221Q60.8781 42.3042 60.8109 42.1825Q60.7438 42.0609 60.6791 41.9357Q60.6144 41.8106 60.5523 41.6822Q60.4903 41.5539 60.431 41.4227Q60.3716 41.2915 60.3152 41.1577Q60.2588 41.0239 60.2054 40.8879Q60.152 40.7519 60.1018 40.614Q60.0516 40.4761 60.0047 40.3367Q59.9578 40.1972 59.9142 40.0565Q59.8707 39.9158 59.8307 39.7742Q59.7907 39.6325 59.7542 39.4904Q59.7178 39.3482 59.6851 39.2058Q59.6523 39.0634 59.6234 38.9212Q59.5944 38.7789 59.5693 38.6371Q59.5442 38.4954 59.5229 38.3544Q59.5017 38.2134 59.4844 38.0736Q59.4671 37.9338 59.4538 37.7954Q59.4406 37.6571 59.4313 37.5206Q59.422 37.3841 59.4168 37.2497Q59.4116 37.1154 59.4104 36.9835Q59.4092 36.8516 59.4121 36.7225Q59.415 36.5934 59.422 36.4674Q59.4289 36.3415 59.4399 36.2189Q59.4509 36.0963 59.4659 35.9774Q59.4809 35.8586 59.4999 35.7437Q59.5188 35.6288 59.5417 35.5182Q59.5647 35.4075 59.5914 35.3014Q59.6182 35.1953 59.6488 35.094Q59.6794 34.9927 59.7137 34.8965Q59.748 34.8002 59.786 34.7092Q59.8239 34.6182 59.8655 34.5326Q59.907 34.4471 59.952 34.3673Q59.997 34.2874 60.0453 34.2135Q60.0937 34.1395 60.1452 34.0716Q60.1968 34.0037 60.2515 33.9421Q60.3062 33.8804 60.3639 33.8251Q60.4215 33.7698 60.4821 33.721Q60.5426 33.6722 60.6058 33.63Q60.669 33.5878 60.7347 33.5524Q60.8005 33.5169 60.8686 33.4883Q60.9368 33.4597 61.0071 33.4379Q61.0775 33.4161 61.1499 33.4013Q61.2223 33.3865 61.2966 33.3786Q61.3709 33.3707 61.4468 33.3699Q61.5228 33.369 61.6003 33.3751Q61.6778 33.3812 61.7566 33.3943Q61.8355 33.4073 61.9154 33.4274Q61.9954 33.4474 62.0763 33.4743Q62.1572 33.5012 62.2389 33.535Q62.3205 33.5687 62.4027 33.6092Q62.4849 33.6497 62.5675 33.6968Q62.6501 33.7439 62.7328 33.7976Q62.8155 33.8513 62.8982 33.9114Q62.9809 33.9715 63.0633 34.0378Q63.1458 34.1041 63.2278 34.1766Q63.3098 34.249 63.3911 34.3274Q63.4725 34.4058 63.553 34.4899Q63.6336 34.574 63.7131 34.6636Q63.7926 34.7533 63.8708 34.8482Q63.9491 34.9432 64.026 35.0433Q64.1029 35.1433 64.1781 35.2482Q64.2534 35.3531 64.3269 35.4626Q64.4004 35.5721 64.472 35.686Q64.5435 35.7998 64.613 35.9177Q64.6824 36.0356 64.7495 36.1573Q64.8167 36.279 64.8814 36.4041Q64.9461 36.5293 65.0081 36.6576Q65.0702 36.7859 65.1295 36.9172Q65.1888 37.0484 65.2453 37.1821Q65.3017 37.3159 65.3551 37.4519Q65.4084 37.5879 65.4587 37.7258Q65.5089 37.8637 65.5558 38.0032Q65.6027 38.1426 65.6463 38.2834"/>
		</clipPath>
		<g clip-path="url(#cl_8)">
			<path fill="#EEE" transform="matrix(0.955337 -0.29552 0.29552 0.955337 62.7802 39.1699)" d="M3 0Q3 0.147381 2.98555 0.294051Q2.97111 0.440722 2.94236 0.585271Q2.9136 0.72982 2.87082 0.870854Q2.82804 1.01189 2.77164 1.14805Q2.71524 1.28421 2.64576 1.41419Q2.57629 1.54417 2.49441 1.66671Q2.41253 1.78925 2.31903 1.90318Q2.22553 2.01711 2.12132 2.12132Q2.01711 2.22553 1.90318 2.31903Q1.78925 2.41253 1.66671 2.49441Q1.54417 2.57629 1.41419 2.64576Q1.28421 2.71524 1.14805 2.77164Q1.01189 2.82804 0.870854 2.87082Q0.72982 2.9136 0.585271 2.94236Q0.440722 2.97111 0.294051 2.98555Q0.147381 3 0 3Q-0.147381 3 -0.294051 2.98555Q-0.440722 2.97111 -0.585271 2.94236Q-0.72982 2.9136 -0.870854 2.87082Q-1.01189 2.82804 -1.14805 2.77164Q-1.28421 2.71524 -1.41419 2.64576Q-1.54417 2.57629 -1.66671 2.49441Q-1.78925 2.41253 -1.90318 2.31903Q-2.01711 2.22553 -2.12132 2.12132Q-2.22553 2.01711 -2.31903 1.90318Q-2.41253 1.78925 -2.49441 1.66671Q-2.57629 1.54417 -2.64576 1.41419Q-2.71524 1.28421 -2.77164 1.14805Q-2.82804 1.01189 -2.87082 0.870854Q-2.9136 0.72982 -2.94236 0.585271Q-2.97111 0.440722 -2.98555 0.294051Q-3 0.147381 -3 0Q-3 -0.147381 -2.98555 -0.294051Q-2.97111 -0.440722 -2.94236 -0.585271Q-2.9136 -0.72982 -2.87082 -0.870854Q-2.82804 -1.01189 -2.77164 -1.14805Q-2.71524 -1.28421 -2.64576 -1.41419Q-2.57629 -1.54417 -2.49441 -1.66671Q-2.41253 -1.78925 -2.31903 -1.90318Q-2.22553 -2.01711 -2.12132 -2.12132Q-2.01711 -2.22553 -1.90318 -2.31903Q-1.78925 -2.41253 -1.66671 -2.49441Q-1.54417 -2.57629 -1.41419 -2.64576Q-1.28421 -2.71524 -1.14805 -2.77164Q-1.01189 -2.82804 -0.870854 -2.87082Q-0.72982 -2.9136 -0.585271 -2.94236Q-0.440722 -2.97111 -0.294051 -2.98555Q-0.147381 -3 0 -3Q0.147381 -3 0.294051 -2.98555Q0.440722 -2.97111 0.585271 -2.94236Q0.72982 -2.9136 0.870854 -2.87082Q1.01189 -2.82804 1.14805 -2.77164Q1.28421 -2.71524 1.41419 -2.64576Q1.54417 -2.57629 1.66671 -2.49441Q1.78925 -2.41253 1.90318 -2.31903Q2.01711 -2.22553 2.12132 -2.12132Q2.22553 -2.01711 2.31903 -1.90318Q2.41253 -1.78925 2.49441 -1.66671Q2.57629 -1.54417 2.64576 -1.41419Q2.71524 -1.28421 2.77164 -1.14805Q2.82804 -1.01189 2.87082 -0.870854Q2.9136 -0.72982 2.94236 -0.585271Q2.97111 -0.440722 2.98555 -0.294051Q3 -0.147381 3 0"/>
		</g>
		<path fill="none" stroke="#111" stroke-width="0.5" stroke-linecap="round" stroke-linejoin="round" transform="matrix(0.955337 -0.29552 0.59104 1.91067 62.7802 39.1699)" d="M3 0Q3 0.147381 2.98555 0.294051Q2.97111 0.440722 2.94236 0.585271Q2.9136 0.72982 2.87082 0.870854Q2.82804 1.01189 2.77164 1.14805Q2.71524 1.28421 2.64576 1.41419Q2.57629 1.54417 2.49441 1.66671Q2.41253 1.78925 2.31903 1.90318Q2.22553 2.01711 2.12132 2.12132Q2.01711 2.22553 1.90318 2.31903Q1.78925 2.41253 1.66671 2.49441Q1.54417 2.57629 1.41419 2.64576Q1.28421 2.71524 1.14805 2.77164Q1.01189 2.82804 0.870854 2.87082Q0.72982 2.9136 0.585271 2.94236Q0.440722 2.97111 0.294051 2.98555Q0.147381 3 0 3Q-0.147381 3 -0.294051 2.98555Q-0.440722 2.97111 -0.585271 2.94236Q-0.72982 2.9136 -0.870854 2.87082Q-1.01189 2.82804 -1.14805 2.77164Q-1.28421 2.71524 -1.41419 2.64576Q-1.54417 2.57629 -1.66671 2.49441Q-1.78925 2.41253 -1.90318 2.31903Q-2.01711 2.22553 -2.12132 2.12132Q-2.22553 2.01711 -2.31903 1.90318Q-2.41253 1.78925 -2.49441 1.66671Q-2.57629 1.54417 -2.64576 1.41419Q-2.71524 1.28421 -2.77164 1.14805Q-2.82804 1.01189 -2.87082 0.870854Q-2.9136 0.72982 -2.94236 0.585271Q-2.97111 0.440722 -2.98555 0.294051Q-3 0.147381 -3 0Q-3 -0.147381 -2.98555 -0.294051Q-2.97111 -0.440722 -2.94236 -0.585271Q-2.9136 -0.72982 -2.87082 -0.870854Q-2.82804 -1.01189 -2.77164 -1.14805Q-2.71524 -1.28421 -2.64576 -1.41419Q-2.57629 -1.54417 -2.49441 -1.66671Q-2.41253 -1.78925 -2.31903 -1.90318Q-2.22553 -2.01711 -2.12132 -2.12132Q-2.01711 -2.22553 -1.90318 -2.31903Q-1.78925 -2.41253 -1.66671 -2.49441Q-1.54417 -2.57629 -1.41419 -2.64576Q-1.28421 -2.71524 -1.14805 -2.77164Q-1.01189 -2.82804 -0.870854 -2.87082Q-0.72982 -2.9136 -0.585271 -2.94236Q-0.440722 -2.97111 -0.294051 -2.98555Q-0.147381 -3 0 -3Q0.147381 -3 0.294051 -2.98555Q0.440722 -2.97111 0.585271 -2.94236Q0.72982 -2.9136 0.870854 -2.87082Q1.01189 -2.82804 1.14805 -2.77164Q1.28421 -2.71524 1.41419 -2.64576Q1.54417 -2.57629 1.66671 -2.49441Q1.78925 -2.41253 1.90318 -2.31903Q2.01711 -2.22553 2.12132 -2.12132Q2.22553 -2.01711 2.31903 -1.90318Q2.41253 -1.78925 2.49441 -1.66671Q2.57629 -1.54417 2.64576 -1.41419Q2.71524 -1.28421 2.77164 -1.14805Q2.82804 -1.01189 2.87082 -0.870854Q2.9136 -0.72982 2.94236 -0.585271Q2.97111 -0.440722 2.98555 -0.294051Q3 -0.147381 3 0"/>
		<path fill="none" stroke="#111" stroke-width="1.5" stroke-linecap="round" stroke-linejoin="round" transform="matrix(0.955337 -0.29552 0.29552 0.955337 60.5257 55.5686)" d="M-6 0Q0 -4 6 0"/>
	</g>
	<path fill="none" stroke="black" stroke-width="2.3999999" stroke-linecap="round" stroke-linejoin="round" transform="translate(55 79.2857)" d="M-31.4691 5.05207Q-30.8099 5.05207 -30.3802 4.94465Q-29.9505 4.83234 -29.6918 4.64191Q-29.4281 4.45148 -29.3304 4.1927Q-29.2279 3.92902 -29.2279 3.61164Q-29.2279 2.92805 -29.8724 2.47883Q-30.5121 2.02961 -32.0697 1.51203Q-32.7484 1.26789 -33.432 0.960273Q-34.1107 0.647773 -34.6527 0.179023Q-35.1898 -0.289727 -35.5316 -0.958672Q-35.8685 -1.62762 -35.8685 -2.58953Q-35.8685 -3.55145 -35.5121 -4.31805Q-35.1507 -5.08953 -34.4916 -5.62664Q-33.8324 -6.16863 -32.89 -6.45672Q-31.9476 -6.74969 -30.7709 -6.74969Q-29.3695 -6.74969 -28.349 -6.44695Q-27.3285 -6.1491 -26.6693 -5.78777L-27.5677 -3.33172Q-28.1488 -3.62957 -28.8617 -3.85906Q-29.5697 -4.08855 -30.5707 -4.08855Q-31.6888 -4.08855 -32.182 -3.77605Q-32.6703 -3.46844 -32.6703 -2.82879Q-32.6703 -2.44793 -32.4896 -2.18914Q-32.3089 -1.93035 -31.9818 -1.72039Q-31.6498 -1.51043 -31.2201 -1.33953Q-30.7904 -1.16863 -30.2679 -0.987969Q-29.1888 -0.587578 -28.3929 -0.196953Q-27.5921 0.188789 -27.0599 0.71125Q-26.5277 1.22883 -26.2689 1.93195Q-26.0101 2.6302 -26.0101 3.63117Q-26.0101 5.56965 -27.3724 6.63898Q-28.7298 7.70832 -31.4691 7.70832Q-32.392 7.70832 -33.1341 7.59602Q-33.8714 7.48859 -34.4427 7.33234Q-35.0091 7.17121 -35.4193 6.99055Q-35.8295 6.80988 -36.1078 6.64875L-35.2289 4.16828Q-34.6087 4.51008 -33.7005 4.78352Q-32.7923 5.05207 -31.4691 5.05207ZM-17.0703 2.24934Q-17.0703 0.872383 -17.6904 0.0423045Q-18.3106 -0.787774 -19.5313 -0.787774Q-19.9317 -0.787774 -20.2735 -0.758477Q-20.6104 -0.72918 -20.8301 -0.690117L-20.8301 4.69074Q-20.5518 4.87141 -20.1026 4.99348Q-19.6485 5.11066 -19.1895 5.11066Q-17.0703 5.11066 -17.0703 2.24934ZM-14.0283 2.17121Q-14.0283 3.39191 -14.3311 4.39289Q-14.6289 5.38898 -15.21 6.11164Q-15.791 6.82941 -16.6504 7.2298Q-17.5098 7.6302 -18.6279 7.6302Q-19.2481 7.6302 -19.7901 7.50812Q-20.332 7.39094 -20.8301 7.17121L-20.8301 11.1312L-23.8086 11.1312L-23.8086 -2.73113Q-23.4082 -2.84832 -22.8906 -2.95574Q-22.3682 -3.06805 -21.8018 -3.14617Q-21.2305 -3.22918 -20.6397 -3.27801Q-20.0488 -3.33172 -19.5117 -3.33172Q-18.208 -3.33172 -17.1924 -2.94109Q-16.1719 -2.55047 -15.4736 -1.83758Q-14.7705 -1.12957 -14.3994 -0.109063Q-14.0283 0.911445 -14.0283 2.17121ZM-7.5294 7.6302Q-8.82823 7.61066 -9.63878 7.35187Q-10.4493 7.0882 -10.923 6.61945Q-11.3917 6.1507 -11.5626 5.48176Q-11.7286 4.80793 -11.7286 3.96809L-11.7286 -7.60906L-8.75011 -8.08758L-8.75011 3.37238Q-8.75011 3.76789 -8.69151 4.09016Q-8.62804 4.41242 -8.46202 4.63215Q-8.29112 4.85187 -7.97374 4.99348Q-7.65147 5.1302 -7.10948 5.16926L-7.5294 7.6302ZM-2.43011 7.43L-5.40863 7.43L-5.40863 -3.08758L-2.43011 -3.08758L-2.43011 7.43ZM-2.15179 -6.12957Q-2.15179 -5.30926 -2.68402 -4.84051Q-3.21136 -4.37176 -3.92914 -4.37176Q-4.65179 -4.37176 -5.18402 -4.84051Q-5.71136 -5.30926 -5.71136 -6.12957Q-5.71136 -6.94988 -5.18402 -7.41863Q-4.65179 -7.89227 -3.92914 -7.89227Q-3.21136 -7.89227 -2.68402 -7.41863Q-2.15179 -6.94988 -2.15179 -6.12957ZM0.268829 -5.70965L3.25223 -6.18816L3.25223 -3.08758L6.83133 -3.08758L6.83133 -0.611992L3.25223 -0.611992L3.25223 3.08918Q3.25223 4.03156 3.57938 4.59309Q3.91141 5.14973 4.91238 5.14973Q5.3909 5.14973 5.89871 5.06184Q6.41141 4.96906 6.83133 4.80793L7.25125 7.13215Q6.70926 7.35187 6.05008 7.50812Q5.3909 7.66926 4.42899 7.66926Q3.20828 7.66926 2.4075 7.34211Q1.6116 7.01008 1.1282 6.41926Q0.649689 5.82844 0.459259 4.98859Q0.268829 4.14875 0.268829 3.12824L0.268829 -5.70965ZM9.14882 -5.70965L12.1322 -6.18816L12.1322 -3.08758L15.7113 -3.08758L15.7113 -0.611992L12.1322 -0.611992L12.1322 3.08918Q12.1322 4.03156 12.4594 4.59309Q12.7914 5.14973 13.7924 5.14973Q14.2709 5.14973 14.7787 5.06184Q15.2914 4.96906 15.7113 4.80793L16.1312 7.13215Q15.5892 7.35187 14.9301 7.50812Q14.2709 7.66926 13.309 7.66926Q12.0883 7.66926 11.2875 7.34211Q10.4916 7.01008 10.0082 6.41926Q9.52968 5.82844 9.33925 4.98859Q9.14882 4.14875 9.14882 3.12824L9.14882 -5.70965ZM17.6284 2.24934Q17.6284 0.847969 18.0581 -0.201836Q18.4878 -1.25164 19.186 -1.94988Q19.8892 -2.64813 20.7974 -3.00945Q21.7104 -3.37078 22.6724 -3.37078Q24.9087 -3.37078 26.2075 -1.99871Q27.5112 -0.631524 27.5112 2.02961Q27.5112 2.2884 27.4917 2.6009Q27.4722 2.90852 27.4478 3.14777L20.6899 3.14777Q20.7876 4.07062 21.5493 4.61262Q22.311 5.14973 23.5903 5.14973Q24.4106 5.14973 25.1968 5.00324Q25.9878 4.85187 26.4907 4.63215L26.8911 7.04914Q26.6519 7.17121 26.2515 7.29328Q25.8511 7.41047 25.3579 7.49836Q24.8696 7.59113 24.3081 7.64973Q23.7515 7.70832 23.1899 7.70832Q21.769 7.70832 20.7192 7.2884Q19.6694 6.86848 18.9761 6.14094Q18.2876 5.40852 17.9556 4.41242Q17.6284 3.41145 17.6284 2.24934ZM24.6304 1.11164Q24.6108 0.730781 24.4985 0.369453Q24.3911 0.00812483 24.1616 -0.270195Q23.9321 -0.548516 23.5806 -0.72918Q23.229 -0.909844 22.7114 -0.909844Q22.2085 -0.909844 21.8472 -0.738945Q21.4907 -0.568047 21.2515 -0.289727Q21.0122 -0.0114064 20.8804 0.359687Q20.7485 0.730781 20.6899 1.11164L24.6304 1.11164ZM36.1492 -0.45086Q35.7488 -0.548516 35.2068 -0.655938Q34.6697 -0.768242 34.0496 -0.768242Q33.7713 -0.768242 33.3807 -0.719414Q32.9901 -0.670586 32.7899 -0.611992L32.7899 7.43L29.8113 7.43L29.8113 -2.53094Q30.6121 -2.80926 31.701 -3.05828Q32.7899 -3.31219 34.1277 -3.31219Q34.3719 -3.31219 34.7088 -3.27801Q35.0506 -3.24871 35.3875 -3.19988Q35.7293 -3.15105 36.0662 -3.07781Q36.408 -3.00945 36.6522 -2.9118L36.1492 -0.45086Z"/>
	<path fill="white" transform="translate(55 79.2857)" d="M-31.4691 5.05207Q-30.8099 5.05207 -30.3802 4.94465Q-29.9505 4.83234 -29.6918 4.64191Q-29.4281 4.45148 -29.3304 4.1927Q-29.2279 3.92902 -29.2279 3.61164Q-29.2279 2.92805 -29.8724 2.47883Q-30.5121 2.02961 -32.0697 1.51203Q-32.7484 1.26789 -33.432 0.960273Q-34.1107 0.647773 -34.6527 0.179023Q-35.1898 -0.289727 -35.5316 -0.958672Q-35.8685 -1.62762 -35.8685 -2.58953Q-35.8685 -3.55145 -35.5121 -4.31805Q-35.1507 -5.08953 -34.4916 -5.62664Q-33.8324 -6.16863 -32.89 -6.45672Q-31.9476 -6.74969 -30.7709 -6.74969Q-29.3695 -6.74969 -28.349 -6.44695Q-27.3285 -6.1491 -26.6693 -5.78777L-27.5677 -3.33172Q-28.1488 -3.62957 -28.8617 -3.85906Q-29.5697 -4.08855 -30.5707 -4.08855Q-31.6888 -4.08855 -32.182 -3.77605Q-32.6703 -3.46844 -32.6703 -2.82879Q-32.6703 -2.44793 -32.4896 -2.18914Q-32.3089 -1.93035 -31.9818 -1.72039Q-31.6498 -1.51043 -31.2201 -1.33953Q-30.7904 -1.16863 -30.2679 -0.987969Q-29.1888 -0.587578 -28.3929 -0.196953Q-27.5921 0.188789 -27.0599 0.71125Q-26.5277 1.22883 -26.2689 1.93195Q-26.0101 2.6302 -26.0101 3.63117Q-26.0101 5.56965 -27.3724 6.63898Q-28.7298 7.70832 -31.4691 7.70832Q-32.392 7.70832 -33.1341 7.59602Q-33.8714 7.48859 -34.4427 7.33234Q-35.0091 7.17121 -35.4193 6.99055Q-35.8295 6.80988 -36.1078 6.64875L-35.2289 4.16828Q-34.6087 4.51008 -33.7005 4.78352Q-32.7923 5.05207 -31.4691 5.05207ZM-17.0703 2.24934Q-17.0703 0.872383 -17.6904 0.0423045Q-18.3106 -0.787774 -19.5313 -0.787774Q-19.9317 -0.787774 -20.2735 -0.758477Q-20.6104 -0.72918 -20.8301 -0.690117L-20.8301 4.69074Q-20.5518 4.87141 -20.1026 4.99348Q-19.6485 5.11066 -19.1895 5.11066Q-17.0703 5.11066 -17.0703 2.24934ZM-14.0283 2.17121Q-14.0283 3.39191 -14.3311 4.39289Q-14.6289 5.38898 -15.21 6.11164Q-15.791 6.82941 -16.6504 7.2298Q-17.5098 7.6302 -18.6279 7.6302Q-19.2481 7.6302 -19.7901 7.50812Q-20.332 7.39094 -20.8301 7.17121L-20.8301 11.1312L-23.8086 11.1312L-23.8086 -2.73113Q-23.4082 -2.84832 -22.8906 -2.95574Q-22.3682 -3.06805 -21.8018 -3.14617Q-21.2305 -3.22918 -20.6397 -3.27801Q-20.0488 -3.33172 -19.5117 -3.33172Q-18.208 -3.33172 -17.1924 -2.94109Q-16.1719 -2.55047 -15.4736 -1.83758Q-14.7705 -1.12957 -14.3994 -0.109063Q-14.0283 0.911445 -14.0283 2.17121ZM-7.5294 7.6302Q-8.82823 7.61066 -9.63878 7.35187Q-10.4493 7.0882 -10.923 6.61945Q-11.3917 6.1507 -11.5626 5.48176Q-11.7286 4.80793 -11.7286 3.96809L-11.7286 -7.60906L-8.75011 -8.08758L-8.75011 3.37238Q-8.75011 3.76789 -8.69151 4.09016Q-8.62804 4.41242 -8.46202 4.63215Q-8.29112 4.85187 -7.97374 4.99348Q-7.65147 5.1302 -7.10948 5.16926L-7.5294 7.6302ZM-2.43011 7.43L-5.40863 7.43L-5.40863 -3.08758L-2.43011 -3.08758L-2.43011 7.43ZM-2.15179 -6.12957Q-2.15179 -5.30926 -2.68402 -4.84051Q-3.21136 -4.37176 -3.92914 -4.37176Q-4.65179 -4.37176 -5.18402 -4.84051Q-5.71136 -5.30926 -5.71136 -6.12957Q-5.71136 -6.94988 -5.18402 -7.41863Q-4.65179 -7.89227 -3.92914 -7.89227Q-3.21136 -7.89227 -2.68402 -7.41863Q-2.15179 -6.94988 -2.15179 -6.12957ZM0.268829 -5.70965L3.25223 -6.18816L3.25223 -3.08758L6.83133 -3.08758L6.83133 -0.611992L3.25223 -0.611992L3.25223 3.08918Q3.25223 4.03156 3.57938 4.59309Q3.91141 5.14973 4.91238 5.14973Q5.3909 5.14973 5.89871 5.06184Q6.41141 4.96906 6.83133 4.80793L7.25125 7.13215Q6.70926 7.35187 6.05008 7.50812Q5.3909 7.66926 4.42899 7.66926Q3.20828 7.66926 2.4075 7.34211Q1.6116 7.01008 1.1282 6.41926Q0.649689 5.82844 0.459259 4.98859Q0.268829 4.14875 0.268829 3.12824L0.268829 -5.70965ZM9.14882 -5.70965L12.1322 -6.18816L12.1322 -3.08758L15.7113 -3.08758L15.7113 -0.611992L12.1322 -0.611992L12.1322 3.08918Q12.1322 4.03156 12.4594 4.59309Q12.7914 5.14973 13.7924 5.14973Q14.2709 5.14973 14.7787 5.06184Q15.2914 4.96906 15.7113 4.80793L16.1312 7.13215Q15.5892 7.35187 14.9301 7.50812Q14.2709 7.66926 13.309 7.66926Q12.0883 7.66926 11.2875 7.34211Q10.4916 7.01008 10.0082 6.41926Q9.52968 5.82844 9.33925 4.98859Q9.14882 4.14875 9.14882 3.12824L9.14882 -5.70965ZM17.6284 2.24934Q17.6284 0.847969 18.0581 -0.201836Q18.4878 -1.25164 19.186 -1.94988Q19.8892 -2.64813 20.7974 -3.00945Q21.7104 -3.37078 22.6724 -3.37078Q24.9087 -3.37078 26.2075 -1.99871Q27.5112 -0.631524 27.5112 2.02961Q27.5112 2.2884 27.4917 2.6009Q27.4722 2.90852 27.4478 3.14777L20.6899 3.14777Q20.7876 4.07062 21.5493 4.61262Q22.311 5.14973 23.5903 5.14973Q24.4106 5.14973 25.1968 5.00324Q25.9878 4.85187 26.4907 4.63215L26.8911 7.04914Q26.6519 7.17121 26.2515 7.29328Q25.8511 7.41047 25.3579 7.49836Q24.8696 7.59113 24.3081 7.64973Q23.7515 7.70832 23.1899 7.70832Q21.769 7.70832 20.7192 7.2884Q19.6694 6.86848 18.9761 6.14094Q18.2876 5.40852 17.9556 4.41242Q17.6284 3.41145 17.6284 2.24934ZM24.6304 1.11164Q24.6108 0.730781 24.4985 0.369453Q24.3911 0.00812483 24.1616 -0.270195Q23.9321 -0.548516 23.5806 -0.72918Q23.229 -0.909844 22.7114 -0.909844Q22.2085 -0.909844 21.8472 -0.738945Q21.4907 -0.568047 21.2515 -0.289727Q21.0122 -0.0114064 20.8804 0.359687Q20.7485 0.730781 20.6899 1.11164L24.6304 1.11164ZM36.1492 -0.45086Q35.7488 -0.548516 35.2068 -0.655938Q34.6697 -0.768242 34.0496 -0.768242Q33.7713 -0.768242 33.3807 -0.719414Q32.9901 -0.670586 32.7899 -0.611992L32.7899 7.43L29.8113 7.43L29.8113 -2.53094Q30.6121 -2.80926 31.701 -3.05828Q32.7899 -3.31219 34.1277 -3.31219Q34.3719 -3.31219 34.7088 -3.27801Q35.0506 -3.24871 35.3875 -3.19988Q35.7293 -3.15105 36.0662 -3.07781Q36.408 -3.00945 36.6522 -2.9118L36.1492 -0.45086Z"/>
</svg>
