<?xml version="1.0" encoding="utf-8" ?>
<svg xmlns="http://www.w3.org/2000/svg" xmlns:xlink="http://www.w3.org/1999/xlink" width="110" height="110">
	<path fill-opacity="0.2" transform="matrix(1.14286 0 0 1.14286 -7.85715 -15)" d="M55 28.5C40.382 28.5 28.5 40.382 28.5 55C28.5 69.618 40.382 81.5 55 81.5C69.618 81.5 81.5 69.618 81.5 55C81.5 40.382 69.618 28.5 55 28.5"/>
	<path fill="#54802C" transform="matrix(1.14286 0 0 1.14286 -7.85715 -15)" d="M77.478 58.67L77.478 51.98L75.079 50.667L75.079 43.699C75.079 41.379 74.095 40.365 71.959 40.365L38.04 40.365C35.904 40.365 34.92 41.379 34.92 43.699L34.92 50.667L32.521 51.98L32.521 58.672L55 58.672L77.478 58.67Z"/>
	<path fill="#436623" transform="matrix(1.14286 0 0 1.14286 -7.85715 -15)" d="M76.478 58.67L76.478 51.98L77.478 51.98L76.9979 52.8572L74.5989 51.5442Q74.4809 51.4796 74.3841 51.3861Q74.2873 51.2926 74.2187 51.1768Q74.1501 51.0611 74.1146 50.9313Q74.079 50.8016 74.079 50.667L74.079 43.699Q74.079 41.365 71.959 41.365L38.04 41.365Q36.8625 41.365 36.4062 41.8484Q35.92 42.3635 35.92 43.699L35.92 50.667Q35.92 50.8016 35.8844 50.9313Q35.8489 51.0611 35.7803 51.1768Q35.7117 51.2926 35.6149 51.3861Q35.5181 51.4796 35.4001 51.5442L33.0011 52.8572L32.521 51.98L33.521 51.98L33.521 58.672L32.521 58.672L32.521 57.672L55 57.672L77.4779 57.67L77.478 58.67L76.478 58.67ZM78.478 58.67Q78.478 58.7685 78.4588 58.8651Q78.4396 58.9617 78.4019 59.0527Q78.3642 59.1437 78.3095 59.2255Q78.2548 59.3074 78.1851 59.3771Q78.1155 59.4467 78.0336 59.5014Q77.9517 59.5562 77.8607 59.5938Q77.7698 59.6315 77.6732 59.6508Q77.5766 59.67 77.4781 59.67L55 59.672L32.521 59.672Q32.4225 59.672 32.3259 59.6528Q32.2293 59.6336 32.1383 59.5959Q32.0473 59.5582 31.9654 59.5035Q31.8835 59.4487 31.8139 59.3791Q31.7443 59.3095 31.6895 59.2276Q31.6348 59.1457 31.5971 59.0547Q31.5594 58.9637 31.5402 58.8671Q31.521 58.7705 31.521 58.672L31.521 51.98Q31.521 51.8454 31.5566 51.7157Q31.5921 51.5859 31.6607 51.4701Q31.7293 51.3544 31.8261 51.2609Q31.9229 51.1674 32.0409 51.1028L34.4399 49.7898L34.92 50.667L33.92 50.667L33.92 43.699Q33.92 41.5687 34.9518 40.4756Q36 39.365 38.04 39.365L71.959 39.365Q73.9989 39.365 75.0472 40.4756Q76.079 41.5687 76.079 43.699L76.079 50.667L75.079 50.667L75.5591 49.7898L77.9581 51.1028Q78.0761 51.1674 78.1729 51.2609Q78.2697 51.3544 78.3383 51.4701Q78.4069 51.5859 78.4424 51.7157Q78.478 51.8454 78.478 51.98L78.478 58.67Z"/>
	<path fill="#0E0E0E" transform="matrix(1.14286 0 0 1.14286 -7.85715 -15)" d="M62.304 39.548L62.304 37.548Q62.304 37.4988 62.3136 37.4505Q62.3232 37.4022 62.3421 37.3567Q62.3609 37.3112 62.3883 37.2702Q62.4156 37.2293 62.4504 37.1944Q62.4853 37.1596 62.5262 37.1323Q62.5672 37.1049 62.6127 37.0861Q62.6582 37.0672 62.7065 37.0576Q62.7548 37.048 62.804 37.048L68.804 37.048Q68.8532 37.048 68.9015 37.0576Q68.9498 37.0672 68.9953 37.0861Q69.0408 37.1049 69.0818 37.1323Q69.1227 37.1596 69.1575 37.1944Q69.1924 37.2293 69.2197 37.2702Q69.2471 37.3112 69.2659 37.3567Q69.2848 37.4022 69.2944 37.4505Q69.304 37.4988 69.304 37.548L69.304 39.548Q69.304 39.5972 69.2944 39.6455Q69.2848 39.6938 69.2659 39.7393Q69.2471 39.7848 69.2197 39.8258Q69.1924 39.8667 69.1575 39.9016Q69.1227 39.9364 69.0818 39.9637Q69.0408 39.9911 68.9953 40.0099Q68.9498 40.0288 68.9015 40.0384Q68.8532 40.048 68.804 40.048L62.804 40.048Q62.7548 40.048 62.7065 40.0384Q62.6582 40.0288 62.6127 40.0099Q62.5672 39.9911 62.5262 39.9637Q62.4853 39.9364 62.4504 39.9016Q62.4156 39.8667 62.3883 39.8258Q62.3609 39.7848 62.3421 39.7393Q62.3232 39.6938 62.3136 39.6455Q62.304 39.5972 62.304 39.548ZM63.304 38.048L63.304 39.048L68.304 39.048L68.304 38.048L63.304 38.048Z"/>
	<path fill="#111" transform="matrix(1.14286 0 0 1.14286 -7.85715 -15)" d="M62.804 37.548L68.804 37.548L68.804 39.548L62.804 39.548L62.804 37.548Z"/>
	<path fill="#111" transform="matrix(1.14286 0 0 1.14286 -7.85715 -15)" d="M80.043 46.346Q80.547 47.795 80.881 49.314C79.022 49.4 77.241 49.451 75.75 49.451L75.75 46.451C76.99 46.451 78.475 46.411 80.043 46.346M29.957 46.346Q29.4498 47.8051 29.119 49.314C30.978 49.4 32.759 49.451 34.25 49.451L34.25 46.451C33.01 46.451 31.525 46.411 29.957 46.346M53.5 28.44L53.5 39.683L56.5 39.683L56.5 28.44L53.5 28.44Z"/>
	<path fill="#111" transform="matrix(1.14286 0 0 1.14286 -7.85715 -15)" d="M80.5153 46.1817Q81.029 47.6586 81.3693 49.2066Q81.3799 49.2547 81.3809 49.304Q81.3819 49.3532 81.3732 49.4017Q81.3646 49.4502 81.3467 49.496Q81.3288 49.5419 81.3022 49.5834Q81.2757 49.6249 81.2416 49.6604Q81.2075 49.6959 81.1671 49.7241Q81.1267 49.7522 81.0816 49.772Q81.0365 49.7918 80.9884 49.8023Q80.9467 49.8115 80.9041 49.8135Q77.9311 49.951 75.75 49.951Q75.7008 49.951 75.6525 49.9414Q75.6042 49.9318 75.5587 49.9129Q75.5132 49.8941 75.4722 49.8667Q75.4313 49.8394 75.3964 49.8046Q75.3616 49.7697 75.3343 49.7288Q75.3069 49.6878 75.2881 49.6423Q75.2692 49.5968 75.2596 49.5485Q75.25 49.5002 75.25 49.451L75.25 46.451Q75.25 46.4018 75.2596 46.3535Q75.2692 46.3052 75.288 46.2597Q75.3069 46.2142 75.3343 46.1732Q75.3616 46.1323 75.3964 46.0974Q75.4313 46.0626 75.4722 46.0353Q75.5132 46.0079 75.5587 45.9891Q75.6042 45.9702 75.6525 45.9606Q75.7008 45.951 75.75 45.951Q77.4998 45.951 80.0223 45.8464Q80.0715 45.8444 80.1201 45.852Q80.1688 45.8596 80.215 45.8765Q80.2613 45.8935 80.3033 45.9191Q80.3454 45.9447 80.3816 45.9781Q80.4178 46.0115 80.4469 46.0512Q80.4759 46.091 80.4966 46.1357Q80.5173 46.1804 80.5289 46.2282Q80.5405 46.2761 80.5426 46.3253Q80.5446 46.3745 80.537 46.4231Q80.5294 46.4718 80.5125 46.518Q80.4955 46.5643 80.4699 46.6063Q80.4442 46.6484 80.4109 46.6846Q80.3775 46.7208 80.3378 46.7499Q80.298 46.7789 80.2533 46.7996Q80.2086 46.8203 80.1608 46.8319Q80.1129 46.8435 80.0637 46.8456Q77.5206 46.951 75.75 46.951L75.75 46.451L76.25 46.451L76.25 49.451L75.75 49.451L75.75 48.951Q77.9079 48.951 80.8579 48.8145L80.881 49.314L80.3927 49.4214Q80.065 47.9313 79.5707 46.5103Q79.5546 46.4637 79.5478 46.415Q79.541 46.3662 79.5438 46.317Q79.5467 46.2679 79.5591 46.2202Q79.5715 46.1725 79.5929 46.1282Q79.6144 46.0839 79.644 46.0446Q79.6737 46.0053 79.7105 45.9726Q79.7473 45.9398 79.7897 45.9149Q79.8322 45.8899 79.8787 45.8738Q79.9252 45.8576 79.974 45.8508Q80.0228 45.844 80.072 45.8468Q80.1211 45.8497 80.1688 45.8621Q80.2164 45.8745 80.2608 45.8959Q80.3051 45.9174 80.3444 45.9471Q80.3837 45.9767 80.4164 46.0135Q80.4492 46.0503 80.4741 46.0928Q80.4991 46.1352 80.5153 46.1817ZM30.4293 46.5102Q29.9319 47.9412 29.6074 49.4211L29.119 49.314L29.1421 48.8145Q32.0921 48.951 34.25 48.951L34.25 49.451L33.75 49.451L33.75 46.451L34.25 46.451L34.25 46.951Q32.4794 46.951 29.9363 46.8456Q29.8871 46.8435 29.8392 46.8319Q29.7914 46.8203 29.7467 46.7996Q29.702 46.7789 29.6622 46.7499Q29.6225 46.7208 29.5891 46.6846Q29.5558 46.6484 29.5301 46.6063Q29.5045 46.5643 29.4875 46.518Q29.4706 46.4718 29.463 46.4231Q29.4554 46.3745 29.4574 46.3253Q29.4595 46.2761 29.4711 46.2282Q29.4827 46.1804 29.5034 46.1357Q29.5241 46.091 29.5531 46.0512Q29.5822 46.0115 29.6184 45.9781Q29.6546 45.9447 29.6967 45.9191Q29.7387 45.8935 29.785 45.8765Q29.8312 45.8596 29.8799 45.852Q29.9285 45.8444 29.9777 45.8464Q32.5002 45.951 34.25 45.951Q34.2992 45.951 34.3475 45.9606Q34.3958 45.9702 34.4413 45.9891Q34.4868 46.0079 34.5278 46.0353Q34.5687 46.0626 34.6036 46.0974Q34.6384 46.1323 34.6657 46.1732Q34.6931 46.2142 34.7119 46.2597Q34.7308 46.3051 34.7404 46.3535Q34.75 46.4018 34.75 46.451L34.75 49.451Q34.75 49.5002 34.7404 49.5485Q34.7308 49.5968 34.7119 49.6423Q34.6931 49.6878 34.6657 49.7288Q34.6384 49.7697 34.6036 49.8046Q34.5687 49.8394 34.5278 49.8667Q34.4868 49.8941 34.4413 49.9129Q34.3958 49.9318 34.3475 49.9414Q34.2992 49.951 34.25 49.951Q32.0689 49.951 29.0959 49.8135Q29.0534 49.8115 29.0119 49.8024Q28.9638 49.7918 28.9187 49.7721Q28.8736 49.7524 28.8332 49.7242Q28.7928 49.6961 28.7586 49.6606Q28.7245 49.6251 28.6979 49.5836Q28.6714 49.5422 28.6534 49.4963Q28.6355 49.4504 28.6268 49.402Q28.6181 49.3535 28.6191 49.3042Q28.6201 49.255 28.6306 49.2069Q28.9678 47.669 29.4847 46.1818Q29.5009 46.1353 29.5258 46.0929Q29.5507 46.0504 29.5835 46.0136Q29.6162 45.9768 29.6555 45.9471Q29.6948 45.9174 29.7391 45.896Q29.7834 45.8745 29.8311 45.8621Q29.8788 45.8497 29.9279 45.8468Q29.9771 45.844 30.0259 45.8508Q30.0746 45.8575 30.1212 45.8737Q30.1677 45.8899 30.2101 45.9148Q30.2526 45.9397 30.2894 45.9725Q30.3262 46.0052 30.3559 46.0445Q30.3856 46.0838 30.407 46.1281Q30.4285 46.1724 30.4409 46.2201Q30.4533 46.2678 30.4562 46.3169Q30.459 46.3661 30.4522 46.4149Q30.4455 46.4636 30.4293 46.5102ZM54 28.44L54 39.683L53.5 39.683L53.5 39.183L56.5 39.183L56.5 39.683L56 39.683L56 28.44L56.5 28.44L56.5 28.94L53.5 28.94L53.5 28.44L54 28.44ZM53 28.44Q53 28.3908 53.0096 28.3425Q53.0192 28.2942 53.0381 28.2487Q53.0569 28.2032 53.0843 28.1622Q53.1116 28.1213 53.1464 28.0864Q53.1813 28.0516 53.2222 28.0243Q53.2632 27.9969 53.3087 27.9781Q53.3542 27.9592 53.4025 27.9496Q53.4508 27.94 53.5 27.94L56.5 27.94Q56.5492 27.94 56.5975 27.9496Q56.6458 27.9592 56.6913 27.9781Q56.7368 27.9969 56.7778 28.0243Q56.8187 28.0516 56.8535 28.0864Q56.8884 28.1213 56.9157 28.1622Q56.9431 28.2032 56.9619 28.2487Q56.9808 28.2942 56.9904 28.3425Q57 28.3908 57 28.44L57 39.683Q57 39.7322 56.9904 39.7805Q56.9808 39.8288 56.9619 39.8743Q56.9431 39.9198 56.9157 39.9608Q56.8884 40.0017 56.8535 40.0366Q56.8187 40.0714 56.7778 40.0987Q56.7368 40.1261 56.6913 40.1449Q56.6458 40.1638 56.5975 40.1734Q56.5492 40.183 56.5 40.183L53.5 40.183Q53.4508 40.183 53.4025 40.1734Q53.3542 40.1638 53.3087 40.1449Q53.2632 40.1261 53.2222 40.0987Q53.1813 40.0714 53.1464 40.0366Q53.1116 40.0017 53.0843 39.9608Q53.0569 39.9198 53.0381 39.8743Q53.0192 39.8288 53.0096 39.7805Q53 39.7322 53 39.683L53 28.44Z"/>
	<path fill="#111" transform="matrix(1.14286 0 0 1.14286 -7.85715 -15)" d="M60.75 50Q60.75 51.25 62 51.25Q63.25 51.25 63.25 50Q63.25 48.75 62 48.75Q60.75 48.75 60.75 50Q60.75 50.086 60.7416 50.1715Q60.7331 50.2571 60.7164 50.3414Q60.6996 50.4257 60.6746 50.508Q60.6497 50.5903 60.6168 50.6697Q60.5839 50.7491 60.5434 50.8249Q60.5028 50.9008 60.4551 50.9722Q60.4073 51.0437 60.3528 51.1102Q60.2982 51.1766 60.2374 51.2374Q60.1766 51.2982 60.1102 51.3528Q60.0437 51.4073 59.9722 51.4551Q59.9008 51.5028 59.8249 51.5434Q59.7491 51.5839 59.6697 51.6168Q59.5903 51.6497 59.508 51.6746Q59.4257 51.6996 59.3414 51.7164Q59.2571 51.7331 59.1715 51.7416Q59.086 51.75 59 51.75Q58.914 51.75 58.8285 51.7416Q58.7429 51.7331 58.6586 51.7164Q58.5743 51.6996 58.492 51.6746Q58.4097 51.6497 58.3303 51.6168Q58.2509 51.5839 58.1751 51.5434Q58.0992 51.5028 58.0277 51.4551Q57.9563 51.4073 57.8898 51.3528Q57.8234 51.2982 57.7626 51.2374Q57.7018 51.1766 57.6472 51.1102Q57.5927 51.0437 57.5449 50.9722Q57.4972 50.9008 57.4566 50.8249Q57.4161 50.7491 57.3832 50.6697Q57.3503 50.5903 57.3254 50.508Q57.3004 50.4257 57.2836 50.3414Q57.2669 50.2571 57.2584 50.1715Q57.25 50.086 57.25 50Q57.25 48.0325 58.6412 46.6412Q60.0325 45.25 62 45.25Q63.9675 45.25 65.3588 46.6412Q66.75 48.0325 66.75 50Q66.75 51.9675 65.3588 53.3588Q63.9675 54.75 62 54.75Q60.0325 54.75 58.6412 53.3588Q57.25 51.9675 57.25 50Q57.25 49.914 57.2584 49.8285Q57.2669 49.7429 57.2836 49.6586Q57.3004 49.5743 57.3254 49.492Q57.3503 49.4097 57.3832 49.3303Q57.4161 49.2509 57.4566 49.1751Q57.4972 49.0992 57.5449 49.0277Q57.5927 48.9563 57.6472 48.8898Q57.7018 48.8233 57.7626 48.7626Q57.8234 48.7018 57.8898 48.6472Q57.9563 48.5927 58.0277 48.5449Q58.0992 48.4972 58.1751 48.4566Q58.2509 48.4161 58.3303 48.3832Q58.4097 48.3503 58.492 48.3253Q58.5743 48.3004 58.6586 48.2836Q58.7429 48.2669 58.8285 48.2584Q58.914 48.25 59 48.25Q59.086 48.25 59.1715 48.2584Q59.2571 48.2669 59.3414 48.2836Q59.4257 48.3004 59.508 48.3254Q59.5903 48.3503 59.6697 48.3832Q59.7491 48.4161 59.8249 48.4566Q59.9008 48.4972 59.9722 48.5449Q60.0437 48.5927 60.1102 48.6472Q60.1766 48.7018 60.2374 48.7626Q60.2982 48.8234 60.3528 48.8898Q60.4073 48.9563 60.4551 49.0277Q60.5028 49.0992 60.5434 49.1751Q60.5839 49.2509 60.6168 49.3303Q60.6497 49.4097 60.6746 49.492Q60.6996 49.5743 60.7164 49.6586Q60.7331 49.7429 60.7416 49.8285Q60.75 49.914 60.75 50ZM52.75 50Q52.75 51.9675 51.3588 53.3588Q49.9675 54.75 48 54.75Q46.0325 54.75 44.6412 53.3588Q43.25 51.9675 43.25 50Q43.25 48.0325 44.6412 46.6412Q46.0325 45.25 48 45.25Q49.9675 45.25 51.3588 46.6412Q52.75 48.0325 52.75 50Q52.75 50.086 52.7416 50.1715Q52.7331 50.2571 52.7164 50.3414Q52.6996 50.4257 52.6746 50.508Q52.6497 50.5903 52.6168 50.6697Q52.5839 50.7491 52.5434 50.8249Q52.5028 50.9008 52.4551 50.9722Q52.4073 51.0437 52.3528 51.1102Q52.2982 51.1766 52.2374 51.2374Q52.1766 51.2982 52.1102 51.3528Q52.0437 51.4073 51.9722 51.4551Q51.9008 51.5028 51.8249 51.5434Q51.7491 51.5839 51.6697 51.6168Q51.5903 51.6497 51.508 51.6746Q51.4257 51.6996 51.3414 51.7164Q51.2571 51.7331 51.1715 51.7416Q51.086 51.75 51 51.75Q50.914 51.75 50.8285 51.7416Q50.7429 51.7331 50.6586 51.7164Q50.5743 51.6996 50.492 51.6746Q50.4097 51.6497 50.3303 51.6168Q50.2509 51.5839 50.1751 51.5434Q50.0992 51.5028 50.0277 51.4551Q49.9563 51.4073 49.8898 51.3528Q49.8233 51.2982 49.7626 51.2374Q49.7018 51.1766 49.6472 51.1102Q49.5927 51.0437 49.5449 50.9722Q49.4972 50.9008 49.4566 50.8249Q49.4161 50.7491 49.3832 50.6697Q49.3503 50.5903 49.3254 50.508Q49.3004 50.4257 49.2836 50.3414Q49.2669 50.2571 49.2584 50.1715Q49.25 50.086 49.25 50Q49.25 48.75 48 48.75Q46.75 48.75 46.75 50Q46.75 51.25 48 51.25Q49.25 51.25 49.25 50Q49.25 49.914 49.2584 49.8285Q49.2669 49.7429 49.2836 49.6586Q49.3004 49.5743 49.3254 49.492Q49.3503 49.4097 49.3832 49.3303Q49.4161 49.2509 49.4566 49.1751Q49.4972 49.0992 49.5449 49.0277Q49.5927 48.9563 49.6472 48.8898Q49.7018 48.8233 49.7626 48.7626Q49.8233 48.7018 49.8898 48.6472Q49.9563 48.5927 50.0277 48.5449Q50.0992 48.4972 50.1751 48.4566Q50.2509 48.4161 50.3303 48.3832Q50.4097 48.3503 50.492 48.3253Q50.5743 48.3004 50.6586 48.2836Q50.7429 48.2669 50.8285 48.2584Q50.914 48.25 51 48.25Q51.086 48.25 51.1715 48.2584Q51.2571 48.2669 51.3414 48.2836Q51.4257 48.3004 51.508 48.3254Q51.5903 48.3503 51.6697 48.3832Q51.7491 48.4161 51.8249 48.4566Q51.9008 48.4972 51.9722 48.5449Q52.0437 48.5927 52.1102 48.6472Q52.1766 48.7018 52.2374 48.7626Q52.2982 48.8234 52.3528 48.8898Q52.4073 48.9563 52.4551 49.0277Q52.5028 49.0992 52.5434 49.1751Q52.5839 49.2509 52.6168 49.3303Q52.6497 49.4097 52.6746 49.492Q52.6996 49.5743 52.7164 49.6586Q52.7331 49.7429 52.7416 49.8285Q52.75 49.914 52.75 50Z"/>
	<path fill="#B1CD29" transform="matrix(1.14286 0 0 1.14286 -7.85715 -15)" d="M59 50Q59 50.1474 59.0145 50.2941Q59.0289 50.4407 59.0576 50.5853Q59.0864 50.7298 59.1292 50.8708Q59.172 51.0119 59.2284 51.148Q59.2848 51.2842 59.3542 51.4142Q59.4237 51.5442 59.5056 51.6667Q59.5875 51.7893 59.681 51.9032Q59.7745 52.0171 59.8787 52.1213Q59.9829 52.2255 60.0968 52.319Q60.2107 52.4125 60.3333 52.4944Q60.4558 52.5763 60.5858 52.6458Q60.7158 52.7152 60.8519 52.7716Q60.9881 52.828 61.1291 52.8708Q61.2702 52.9136 61.4147 52.9424Q61.5593 52.9711 61.706 52.9856Q61.8526 53 62 53Q62.1474 53 62.2941 52.9856Q62.4407 52.9711 62.5853 52.9424Q62.7298 52.9136 62.8708 52.8708Q63.0119 52.828 63.148 52.7716Q63.2842 52.7152 63.4142 52.6458Q63.5442 52.5763 63.6667 52.4944Q63.7892 52.4125 63.9032 52.319Q64.0171 52.2255 64.1213 52.1213Q64.2255 52.0171 64.319 51.9032Q64.4125 51.7893 64.4944 51.6667Q64.5763 51.5442 64.6458 51.4142Q64.7152 51.2842 64.7716 51.148Q64.828 51.0119 64.8708 50.8709Q64.9136 50.7298 64.9424 50.5853Q64.9711 50.4407 64.9856 50.2941Q65 50.1474 65 50Q65 49.8526 64.9856 49.7059Q64.9711 49.5593 64.9424 49.4147Q64.9136 49.2702 64.8708 49.1291Q64.828 48.9881 64.7716 48.8519Q64.7152 48.7158 64.6458 48.5858Q64.5763 48.4558 64.4944 48.3333Q64.4125 48.2107 64.319 48.0968Q64.2255 47.9829 64.1213 47.8787Q64.0171 47.7745 63.9032 47.681Q63.7892 47.5875 63.6667 47.5056Q63.5442 47.4237 63.4142 47.3542Q63.2842 47.2848 63.148 47.2284Q63.0119 47.172 62.8708 47.1292Q62.7298 47.0864 62.5853 47.0576Q62.4407 47.0289 62.2941 47.0145Q62.1474 47 62 47Q61.8526 47 61.7059 47.0144Q61.5593 47.0289 61.4147 47.0576Q61.2702 47.0864 61.1291 47.1292Q60.9881 47.172 60.8519 47.2284Q60.7158 47.2848 60.5858 47.3542Q60.4558 47.4237 60.3333 47.5056Q60.2107 47.5875 60.0968 47.681Q59.9829 47.7745 59.8787 47.8787Q59.7745 47.9829 59.681 48.0968Q59.5875 48.2107 59.5056 48.3333Q59.4237 48.4558 59.3542 48.5858Q59.2848 48.7158 59.2284 48.852Q59.172 48.9881 59.1292 49.1292Q59.0864 49.2702 59.0576 49.4147Q59.0289 49.5593 59.0144 49.706Q59 49.8526 59 50M51 50Q51 50.1474 50.9856 50.2941Q50.9711 50.4407 50.9424 50.5853Q50.9136 50.7298 50.8708 50.8708Q50.828 51.0119 50.7716 51.148Q50.7152 51.2842 50.6458 51.4142Q50.5763 51.5442 50.4944 51.6667Q50.4125 51.7893 50.319 51.9032Q50.2255 52.0171 50.1213 52.1213Q50.0171 52.2255 49.9032 52.319Q49.7893 52.4125 49.6667 52.4944Q49.5442 52.5763 49.4142 52.6458Q49.2842 52.7152 49.148 52.7716Q49.0119 52.828 48.8709 52.8708Q48.7298 52.9136 48.5853 52.9424Q48.4407 52.9711 48.2941 52.9856Q48.1474 53 48 53Q47.8526 53 47.7059 52.9856Q47.5593 52.9711 47.4147 52.9424Q47.2702 52.9136 47.1291 52.8708Q46.9881 52.828 46.8519 52.7716Q46.7158 52.7152 46.5858 52.6458Q46.4558 52.5763 46.3333 52.4944Q46.2107 52.4125 46.0968 52.319Q45.9829 52.2255 45.8787 52.1213Q45.7745 52.0171 45.681 51.9032Q45.5875 51.7893 45.5056 51.6667Q45.4237 51.5442 45.3542 51.4142Q45.2848 51.2842 45.2284 51.148Q45.172 51.0119 45.1292 50.8709Q45.0864 50.7298 45.0576 50.5853Q45.0289 50.4407 45.0145 50.2941Q45 50.1474 45 50Q45 49.8526 45.0145 49.706Q45.0289 49.5593 45.0576 49.4147Q45.0864 49.2702 45.1292 49.1292Q45.172 48.9881 45.2284 48.852Q45.2848 48.7158 45.3542 48.5858Q45.4237 48.4558 45.5056 48.3333Q45.5875 48.2107 45.681 48.0968Q45.7745 47.9829 45.8787 47.8787Q45.9829 47.7745 46.0968 47.681Q46.2107 47.5875 46.3333 47.5056Q46.4558 47.4237 46.5858 47.3542Q46.7158 47.2848 46.852 47.2284Q46.9881 47.172 47.1292 47.1292Q47.2702 47.0864 47.4147 47.0576Q47.5593 47.0289 47.7059 47.0144Q47.8526 47 48 47Q48.1474 47 48.2941 47.0144Q48.4407 47.0289 48.5853 47.0576Q48.7298 47.0864 48.8708 47.1292Q49.0119 47.172 49.148 47.2284Q49.2842 47.2848 49.4142 47.3542Q49.5442 47.4237 49.6667 47.5056Q49.7893 47.5875 49.9032 47.681Q50.0171 47.7745 50.1213 47.8787Q50.2255 47.9829 50.319 48.0968Q50.4125 48.2107 50.4944 48.3333Q50.5763 48.4558 50.6458 48.5858Q50.7152 48.7158 50.7716 48.8519Q50.828 48.9881 50.8708 49.1291Q50.9136 49.2702 50.9424 49.4147Q50.9711 49.5593 50.9856 49.7059Q51 49.8526 51 50"/>
	<path fill="#999" transform="matrix(1.14286 0 0 1.14286 -7.85715 -15)" d="M71.2 54.802Q71.2 54.8585 71.2055 54.9147Q71.2111 54.9709 71.2221 55.0264Q71.2331 55.0818 71.2495 55.1358Q71.2659 55.1899 71.2875 55.2421Q71.3092 55.2943 71.3358 55.3441Q71.3624 55.3939 71.3938 55.4409Q71.4252 55.4879 71.461 55.5316Q71.4969 55.5752 71.5368 55.6152Q71.5768 55.6551 71.6205 55.691Q71.6641 55.7268 71.7111 55.7582Q71.7581 55.7896 71.8079 55.8162Q71.8577 55.8428 71.9099 55.8645Q71.9621 55.8861 72.0162 55.9025Q72.0703 55.9189 72.1257 55.9299Q72.1811 55.9409 72.2373 55.9465Q72.2935 55.952 72.35 55.952Q72.4065 55.952 72.4627 55.9465Q72.519 55.9409 72.5744 55.9299Q72.6298 55.9189 72.6838 55.9025Q72.7379 55.8861 72.7901 55.8645Q72.8423 55.8429 72.8921 55.8162Q72.942 55.7896 72.9889 55.7582Q73.0359 55.7268 73.0796 55.691Q73.1232 55.6551 73.1632 55.6152Q73.2031 55.5752 73.239 55.5316Q73.2748 55.4879 73.3062 55.4409Q73.3376 55.3939 73.3642 55.3441Q73.3909 55.2943 73.4125 55.2421Q73.4341 55.1899 73.4505 55.1358Q73.4669 55.0818 73.4779 55.0264Q73.4889 54.9709 73.4945 54.9147Q73.5 54.8585 73.5 54.802Q73.5 54.7455 73.4945 54.6893Q73.4889 54.6331 73.4779 54.5776Q73.4669 54.5222 73.4505 54.4682Q73.4341 54.4141 73.4125 54.3619Q73.3908 54.3097 73.3642 54.2599Q73.3376 54.2101 73.3062 54.1631Q73.2748 54.1161 73.239 54.0724Q73.2031 54.0288 73.1632 53.9888Q73.1232 53.9489 73.0795 53.913Q73.0359 53.8772 72.9889 53.8458Q72.9419 53.8144 72.8921 53.7878Q72.8423 53.7612 72.7901 53.7395Q72.7379 53.7179 72.6838 53.7015Q72.6298 53.6851 72.5743 53.6741Q72.5189 53.6631 72.4627 53.6575Q72.4065 53.652 72.35 53.652Q72.2935 53.652 72.2373 53.6575Q72.1811 53.6631 72.1256 53.6741Q72.0702 53.6851 72.0162 53.7015Q71.9621 53.7179 71.9099 53.7395Q71.8577 53.7612 71.8079 53.7878Q71.7581 53.8144 71.7111 53.8458Q71.6641 53.8772 71.6204 53.913Q71.5768 53.9489 71.5368 53.9888Q71.4969 54.0288 71.461 54.0724Q71.4252 54.1161 71.3938 54.1631Q71.3624 54.2101 71.3358 54.2599Q71.3092 54.3097 71.2875 54.3619Q71.2659 54.4141 71.2495 54.4682Q71.2331 54.5222 71.2221 54.5776Q71.2111 54.6331 71.2055 54.6893Q71.2 54.7455 71.2 54.802M70.395 44.041Q70.395 44.0975 70.4005 44.1537Q70.4061 44.2099 70.4171 44.2654Q70.4281 44.3208 70.4445 44.3748Q70.4609 44.4289 70.4825 44.4811Q70.5042 44.5333 70.5308 44.5831Q70.5574 44.6329 70.5888 44.6799Q70.6202 44.7269 70.656 44.7706Q70.6919 44.8142 70.7318 44.8542Q70.7718 44.8941 70.8154 44.93Q70.8591 44.9658 70.9061 44.9972Q70.9531 45.0286 71.0029 45.0552Q71.0527 45.0818 71.1049 45.1035Q71.1571 45.1251 71.2112 45.1415Q71.2652 45.1579 71.3206 45.1689Q71.3761 45.1799 71.4323 45.1855Q71.4885 45.191 71.545 45.191Q71.6015 45.191 71.6577 45.1855Q71.7139 45.1799 71.7693 45.1689Q71.8248 45.1579 71.8788 45.1415Q71.9329 45.1251 71.9851 45.1035Q72.0373 45.0818 72.0871 45.0552Q72.1369 45.0286 72.1839 44.9972Q72.2309 44.9658 72.2746 44.93Q72.3182 44.8941 72.3582 44.8542Q72.3981 44.8142 72.434 44.7705Q72.4698 44.7269 72.5012 44.6799Q72.5326 44.6329 72.5592 44.5831Q72.5858 44.5333 72.6075 44.4811Q72.6291 44.4289 72.6455 44.3748Q72.6619 44.3208 72.6729 44.2654Q72.6839 44.2099 72.6895 44.1537Q72.695 44.0975 72.695 44.041Q72.695 43.9845 72.6895 43.9283Q72.6839 43.8721 72.6729 43.8166Q72.6619 43.7612 72.6455 43.7072Q72.6291 43.6531 72.6075 43.6009Q72.5858 43.5487 72.5592 43.4989Q72.5326 43.4491 72.5012 43.4021Q72.4698 43.3551 72.434 43.3114Q72.3981 43.2678 72.3582 43.2278Q72.3182 43.1879 72.2746 43.152Q72.2309 43.1162 72.1839 43.0848Q72.1369 43.0534 72.0871 43.0268Q72.0373 43.0002 71.9851 42.9785Q71.9329 42.9569 71.8788 42.9405Q71.8248 42.9241 71.7693 42.9131Q71.7139 42.9021 71.6577 42.8965Q71.6015 42.891 71.545 42.891Q71.4885 42.891 71.4323 42.8965Q71.3761 42.9021 71.3206 42.9131Q71.2652 42.9241 71.2112 42.9405Q71.1571 42.9569 71.1049 42.9785Q71.0527 43.0002 71.0029 43.0268Q70.9531 43.0534 70.9061 43.0848Q70.8591 43.1162 70.8154 43.152Q70.7718 43.1879 70.7318 43.2278Q70.6919 43.2678 70.656 43.3114Q70.6202 43.3551 70.5888 43.4021Q70.5574 43.4491 70.5308 43.4989Q70.5042 43.5487 70.4825 43.6009Q70.4609 43.6531 70.4445 43.7072Q70.4281 43.7612 70.4171 43.8166Q70.4061 43.8721 70.4005 43.9283Q70.395 43.9845 70.395 44.041M38.801 54.801Q38.801 54.8575 38.7955 54.9137Q38.7899 54.97 38.7789 55.0254Q38.7679 55.0808 38.7515 55.1348Q38.7351 55.1889 38.7135 55.2411Q38.6918 55.2933 38.6652 55.3431Q38.6386 55.3929 38.6072 55.4399Q38.5758 55.4869 38.54 55.5306Q38.5041 55.5742 38.4642 55.6142Q38.4242 55.6541 38.3806 55.69Q38.3369 55.7258 38.2899 55.7572Q38.2429 55.7886 38.1931 55.8152Q38.1433 55.8419 38.0911 55.8635Q38.0389 55.8851 37.9848 55.9015Q37.9308 55.9179 37.8754 55.9289Q37.8199 55.9399 37.7637 55.9455Q37.7075 55.951 37.651 55.951Q37.5945 55.951 37.5383 55.9455Q37.482 55.9399 37.4266 55.9289Q37.3712 55.9179 37.3172 55.9015Q37.2631 55.8851 37.2109 55.8635Q37.1587 55.8418 37.1089 55.8152Q37.0591 55.7886 37.0121 55.7572Q36.9651 55.7258 36.9214 55.69Q36.8778 55.6541 36.8378 55.6142Q36.7979 55.5742 36.762 55.5306Q36.7262 55.4869 36.6948 55.4399Q36.6634 55.3929 36.6368 55.3431Q36.6102 55.2933 36.5885 55.2411Q36.5669 55.1889 36.5505 55.1348Q36.5341 55.0808 36.5231 55.0254Q36.5121 54.9699 36.5065 54.9137Q36.501 54.8575 36.501 54.801Q36.501 54.7445 36.5065 54.6883Q36.5121 54.6321 36.5231 54.5766Q36.5341 54.5212 36.5505 54.4672Q36.5669 54.4131 36.5885 54.3609Q36.6102 54.3087 36.6368 54.2589Q36.6634 54.2091 36.6948 54.1621Q36.7262 54.1151 36.762 54.0714Q36.7979 54.0278 36.8378 53.9878Q36.8778 53.9479 36.9214 53.912Q36.9651 53.8762 37.0121 53.8448Q37.0591 53.8134 37.1089 53.7868Q37.1587 53.7602 37.2109 53.7385Q37.2631 53.7169 37.3172 53.7005Q37.3712 53.6841 37.4266 53.6731Q37.482 53.6621 37.5383 53.6565Q37.5945 53.651 37.651 53.651Q37.7075 53.651 37.7637 53.6565Q37.8199 53.6621 37.8754 53.6731Q37.9308 53.6841 37.9848 53.7005Q38.0389 53.7169 38.0911 53.7385Q38.1433 53.7602 38.1931 53.7868Q38.2429 53.8134 38.2899 53.8448Q38.3369 53.8762 38.3806 53.912Q38.4242 53.9479 38.4642 53.9878Q38.5041 54.0278 38.54 54.0715Q38.5758 54.1151 38.6072 54.1621Q38.6386 54.2091 38.6652 54.2589Q38.6918 54.3087 38.7135 54.3609Q38.7351 54.4131 38.7515 54.4672Q38.7679 54.5212 38.7789 54.5767Q38.7899 54.6321 38.7955 54.6883Q38.801 54.7445 38.801 54.801M39.605 44.041Q39.605 44.0975 39.5995 44.1537Q39.5939 44.2099 39.5829 44.2654Q39.5719 44.3208 39.5555 44.3748Q39.5391 44.4289 39.5175 44.4811Q39.4958 44.5333 39.4692 44.5831Q39.4426 44.6329 39.4112 44.6799Q39.3798 44.7269 39.344 44.7706Q39.3081 44.8142 39.2682 44.8542Q39.2282 44.8941 39.1845 44.93Q39.1409 44.9658 39.0939 44.9972Q39.0469 45.0286 38.9971 45.0552Q38.9473 45.0818 38.8951 45.1035Q38.8429 45.1251 38.7888 45.1415Q38.7348 45.1579 38.6793 45.1689Q38.6239 45.1799 38.5677 45.1855Q38.5115 45.191 38.455 45.191Q38.3985 45.191 38.3423 45.1855Q38.286 45.1799 38.2306 45.1689Q38.1752 45.1579 38.1212 45.1415Q38.0671 45.1251 38.0149 45.1035Q37.9627 45.0818 37.9129 45.0552Q37.8631 45.0286 37.8161 44.9972Q37.7691 44.9658 37.7254 44.93Q37.6818 44.8941 37.6418 44.8542Q37.6019 44.8142 37.566 44.7705Q37.5302 44.7269 37.4988 44.6799Q37.4674 44.6329 37.4408 44.5831Q37.4142 44.5333 37.3925 44.4811Q37.3709 44.4289 37.3545 44.3748Q37.3381 44.3208 37.3271 44.2654Q37.3161 44.2099 37.3105 44.1537Q37.305 44.0975 37.305 44.041Q37.305 43.9845 37.3105 43.9283Q37.3161 43.8721 37.3271 43.8166Q37.3381 43.7612 37.3545 43.7072Q37.3709 43.6531 37.3925 43.6009Q37.4142 43.5487 37.4408 43.4989Q37.4674 43.4491 37.4988 43.4021Q37.5302 43.3551 37.566 43.3114Q37.6019 43.2678 37.6418 43.2278Q37.6818 43.1879 37.7254 43.152Q37.7691 43.1162 37.8161 43.0848Q37.8631 43.0534 37.9129 43.0268Q37.9627 43.0002 38.0149 42.9785Q38.0671 42.9569 38.1212 42.9405Q38.1752 42.9241 38.2306 42.9131Q38.286 42.9021 38.3423 42.8965Q38.3985 42.891 38.455 42.891Q38.5115 42.891 38.5677 42.8965Q38.6239 42.9021 38.6793 42.9131Q38.7348 42.9241 38.7888 42.9405Q38.8429 42.9569 38.8951 42.9785Q38.9473 43.0002 38.9971 43.0268Q39.0469 43.0534 39.0939 43.0848Q39.1409 43.1162 39.1845 43.152Q39.2282 43.1879 39.2682 43.2278Q39.3081 43.2678 39.344 43.3114Q39.3798 43.3551 39.4112 43.4021Q39.4426 43.4491 39.4692 43.4989Q39.4958 43.5487 39.5175 43.6009Q39.5391 43.6531 39.5555 43.7072Q39.5719 43.7612 39.5829 43.8166Q39.5939 43.8721 39.5995 43.9283Q39.605 43.9845 39.605 44.041"/>
	<path fill="none" stroke="black" stroke-width="2.2285714" stroke-linecap="round" stroke-linejoin="round" transform="translate(55 79.2857)" d="M-28.2676 -3.74211Q-30.2898 -3.74211 -31.1921 -2.61767Q-32.0944 -1.49322 -32.0944 0.456414Q-32.0944 1.40403 -31.8722 2.17482Q-31.6455 2.9456 -31.2012 3.50329Q-30.7568 4.05644 -30.0903 4.36476Q-29.4193 4.66854 -28.5261 4.66854Q-28.0455 4.66854 -27.7009 4.6504Q-27.3563 4.63227 -27.0979 4.57786L-27.0979 0.102759L-24.2006 0.102759L-24.2006 6.47309Q-24.722 6.67712 -25.8737 6.90835Q-27.0208 7.13959 -28.712 7.13959Q-30.1629 7.13959 -31.3417 6.69525Q-32.5206 6.25092 -33.3548 5.39852Q-34.1891 4.54158 -34.647 3.29926Q-35.1004 2.0524 -35.1004 0.456414Q-35.1004 -1.16224 -34.6017 -2.40456Q-34.0984 -3.65143 -33.2279 -4.51289Q-32.3528 -5.37436 -31.174 -5.8187Q-29.9951 -6.26757 -28.6576 -6.26757Q-27.7462 -6.26757 -27.0162 -6.14515Q-26.2817 -6.02726 -25.7512 -5.86857Q-25.2208 -5.70988 -24.8807 -5.54212Q-24.5361 -5.37436 -24.3865 -5.28368L-25.2208 -2.96225Q-25.8147 -3.27963 -26.5855 -3.51087Q-27.3563 -3.74211 -28.2676 -3.74211ZM-12.5616 1.99799Q-12.5616 3.14963 -12.8972 4.10632Q-13.2327 5.05847 -13.8629 5.73857Q-14.4931 6.41868 -15.3773 6.79047Q-16.2569 7.15773 -17.3541 7.15773Q-18.4287 7.15773 -19.3128 6.79047Q-20.197 6.41868 -20.8272 5.73857Q-21.4574 5.05847 -21.8111 4.10632Q-22.1647 3.14963 -22.1647 1.99799Q-22.1647 0.846342 -21.802 -0.101273Q-21.4393 -1.04889 -20.8 -1.71539Q-20.1562 -2.38643 -19.2766 -2.75822Q-18.3924 -3.13001 -17.3541 -3.13001Q-16.2932 -3.13001 -15.4136 -2.75822Q-14.5294 -2.38643 -13.8992 -1.71539Q-13.269 -1.04889 -12.9153 -0.101273Q-12.5616 0.846342 -12.5616 1.99799ZM-15.3863 1.99799Q-15.3863 0.714855 -15.8987 -0.01966Q-16.4065 -0.754174 -17.3541 -0.754174Q-18.3017 -0.754174 -18.8232 -0.01966Q-19.34 0.714855 -19.34 1.99799Q-19.34 3.27659 -18.8232 4.02924Q-18.3017 4.78189 -17.3541 4.78189Q-16.4065 4.78189 -15.8987 4.02924Q-15.3863 3.27659 -15.3863 1.99799ZM-8.07256 1.69874Q-8.07256 4.02017 -6.19547 4.02017Q-5.76927 4.02017 -5.39748 3.91135Q-5.02568 3.798 -4.76724 3.64838L-4.76724 -0.772311Q-4.97128 -0.808583 -5.25239 -0.835787Q-5.52896 -0.862991 -5.90075 -0.862991Q-6.99799 -0.862991 -7.53754 -0.137545Q-8.07256 0.583367 -8.07256 1.69874ZM-2.00148 5.67509Q-2.00148 8.06907 -3.2166 9.22978Q-4.43172 10.3905 -6.97532 10.3905Q-7.86853 10.3905 -8.76173 10.2318Q-9.6504 10.0731 -10.4121 9.81467L-9.93152 7.49324Q-9.27861 7.75168 -8.56677 7.90131Q-7.85039 8.05093 -6.93905 8.05093Q-5.75113 8.05093 -5.26145 7.52952Q-4.76724 7.01264 -4.76724 6.19198L-4.76724 5.84285Q-5.21158 6.04689 -5.68765 6.15117Q-6.15919 6.25092 -6.71688 6.25092Q-8.7436 6.25092 -9.8227 5.05393Q-10.8973 3.85241 -10.8973 1.69874Q-10.8973 0.624174 -10.5617 -0.259964Q-10.2262 -1.1441 -9.58693 -1.77433Q-8.94763 -2.40456 -8.01815 -2.74915Q-7.08867 -3.09374 -5.91889 -3.09374Q-5.41561 -3.09374 -4.88966 -3.04386Q-4.35918 -2.99852 -3.8423 -2.92145Q-3.32088 -2.8489 -2.84934 -2.74462Q-2.37327 -2.64487 -2.00148 -2.53605L-2.00148 5.67509ZM2.95359 1.69874Q2.95359 4.02017 4.83069 4.02017Q5.25689 4.02017 5.62868 3.91135Q6.00047 3.798 6.25891 3.64838L6.25891 -0.772311Q6.05488 -0.808583 5.77377 -0.835787Q5.49719 -0.862991 5.1254 -0.862991Q4.02816 -0.862991 3.48861 -0.137545Q2.95359 0.583367 2.95359 1.69874ZM9.02467 5.67509Q9.02467 8.06907 7.80955 9.22978Q6.59443 10.3905 4.05083 10.3905Q3.15763 10.3905 2.26442 10.2318Q1.37575 10.0731 0.61403 9.81467L1.09464 7.49324Q1.74754 7.75168 2.45938 7.90131Q3.17576 8.05093 4.0871 8.05093Q5.27502 8.05093 5.7647 7.52952Q6.25891 7.01264 6.25891 6.19198L6.25891 5.84285Q5.81457 6.04689 5.3385 6.15117Q4.86696 6.25092 4.30927 6.25092Q2.28256 6.25092 1.20346 5.05393Q0.128888 3.85241 0.128888 1.69874Q0.128888 0.624174 0.464407 -0.259964Q0.799926 -1.1441 1.43923 -1.77433Q2.07853 -2.40456 3.008 -2.74915Q3.93748 -3.09374 5.10726 -3.09374Q5.61054 -3.09374 6.13649 -3.04386Q6.66697 -2.99852 7.18385 -2.92145Q7.70527 -2.8489 8.17681 -2.74462Q8.65288 -2.64487 9.02467 -2.53605L9.02467 5.67509ZM15.5213 7.08518Q14.3153 7.06704 13.5626 6.82674Q12.81 6.5819 12.3702 6.14663Q11.9349 5.71137 11.7762 5.0902Q11.622 4.46451 11.622 3.68465L11.622 -7.06556L14.3878 -7.50989L14.3878 3.1315Q14.3878 3.49876 14.4422 3.798Q14.5012 4.09725 14.6553 4.30128Q14.814 4.50531 15.1087 4.6368Q15.408 4.76375 15.9112 4.80002L15.5213 7.08518ZM17.0208 2.08867Q17.0208 0.787399 17.4198 -0.187419Q17.8188 -1.16224 18.4672 -1.81061Q19.1201 -2.45897 19.9634 -2.79449Q20.8113 -3.13001 21.7045 -3.13001Q23.7811 -3.13001 24.9871 -1.85595Q26.1977 -0.586415 26.1977 1.88464Q26.1977 2.12494 26.1796 2.41512Q26.1614 2.70076 26.1388 2.92293L19.8637 2.92293Q19.9543 3.77987 20.6616 4.28314Q21.369 4.78189 22.5569 4.78189Q23.3186 4.78189 24.0486 4.64587Q24.7831 4.50531 25.2501 4.30128L25.6219 6.54563Q25.3997 6.65898 25.0279 6.77233Q24.6561 6.88115 24.1982 6.96276Q23.7448 7.04891 23.2234 7.10332Q22.7065 7.15773 22.1851 7.15773Q20.8657 7.15773 19.8909 6.7678Q18.916 6.37787 18.2722 5.7023Q17.6329 5.02219 17.3246 4.09725Q17.0208 3.16777 17.0208 2.08867ZM23.5226 1.03224Q23.5045 0.678582 23.4002 0.343063Q23.3005 0.00754452 23.0874 -0.250896Q22.8743 -0.509336 22.5478 -0.677096Q22.2214 -0.844855 21.7407 -0.844855Q21.2737 -0.844855 20.9382 -0.686164Q20.6072 -0.527472 20.3851 -0.269032Q20.1629 -0.010592 20.0405 0.333995Q19.9181 0.678582 19.8637 1.03224L23.5226 1.03224ZM31.1304 4.91338Q31.8921 4.91338 32.2049 4.76375Q32.5223 4.61413 32.5223 4.18793Q32.5223 3.85241 32.1143 3.60304Q31.7062 3.35367 30.8719 3.03628Q30.2236 2.79598 29.6931 2.53754Q29.1626 2.27456 28.7908 1.91184Q28.419 1.54912 28.215 1.05037Q28.011 0.547095 28.011 -0.155681Q28.011 -1.53403 29.0311 -2.33202Q30.0558 -3.13001 31.8377 -3.13001Q32.7264 -3.13001 33.5425 -2.97132Q34.3632 -2.81263 34.8438 -2.62673L34.3632 -0.473064Q33.878 -0.640823 33.3113 -0.767776Q32.749 -0.899264 32.0417 -0.899264Q30.7405 -0.899264 30.7405 -0.178351Q30.7405 -0.010592 30.7949 0.120895Q30.8538 0.252382 31.0216 0.374802Q31.1893 0.492687 31.475 0.633242Q31.7606 0.769263 32.2095 0.937023Q33.1163 1.27254 33.7103 1.59899Q34.3087 1.92091 34.6488 2.30177Q34.9934 2.68263 35.1339 3.14963Q35.2745 3.61211 35.2745 4.2242Q35.2745 5.67509 34.1863 6.41868Q33.0982 7.15773 31.1122 7.15773Q29.811 7.15773 28.945 6.93556Q28.0835 6.71339 27.7525 6.56377L28.215 4.31942Q28.9223 4.59599 29.6614 4.75468Q30.4049 4.91338 31.1304 4.91338Z"/>
	<path fill="white" transform="translate(55 79.2857)" d="M-28.2676 -3.74211Q-30.2898 -3.74211 -31.1921 -2.61767Q-32.0944 -1.49322 -32.0944 0.456414Q-32.0944 1.40403 -31.8722 2.17482Q-31.6455 2.9456 -31.2012 3.50329Q-30.7568 4.05644 -30.0903 4.36476Q-29.4193 4.66854 -28.5261 4.66854Q-28.0455 4.66854 -27.7009 4.6504Q-27.3563 4.63227 -27.0979 4.57786L-27.0979 0.102759L-24.2006 0.102759L-24.2006 6.47309Q-24.722 6.67712 -25.8737 6.90835Q-27.0208 7.13959 -28.712 7.13959Q-30.1629 7.13959 -31.3417 6.69525Q-32.5206 6.25092 -33.3548 5.39852Q-34.1891 4.54158 -34.647 3.29926Q-35.1004 2.0524 -35.1004 0.456414Q-35.1004 -1.16224 -34.6017 -2.40456Q-34.0984 -3.65143 -33.2279 -4.51289Q-32.3528 -5.37436 -31.174 -5.8187Q-29.9951 -6.26757 -28.6576 -6.26757Q-27.7462 -6.26757 -27.0162 -6.14515Q-26.2817 -6.02726 -25.7512 -5.86857Q-25.2208 -5.70988 -24.8807 -5.54212Q-24.5361 -5.37436 -24.3865 -5.28368L-25.2208 -2.96225Q-25.8147 -3.27963 -26.5855 -3.51087Q-27.3563 -3.74211 -28.2676 -3.74211ZM-12.5616 1.99799Q-12.5616 3.14963 -12.8972 4.10632Q-13.2327 5.05847 -13.8629 5.73857Q-14.4931 6.41868 -15.3773 6.79047Q-16.2569 7.15773 -17.3541 7.15773Q-18.4287 7.15773 -19.3128 6.79047Q-20.197 6.41868 -20.8272 5.73857Q-21.4574 5.05847 -21.8111 4.10632Q-22.1647 3.14963 -22.1647 1.99799Q-22.1647 0.846342 -21.802 -0.101273Q-21.4393 -1.04889 -20.8 -1.71539Q-20.1562 -2.38643 -19.2766 -2.75822Q-18.3924 -3.13001 -17.3541 -3.13001Q-16.2932 -3.13001 -15.4136 -2.75822Q-14.5294 -2.38643 -13.8992 -1.71539Q-13.269 -1.04889 -12.9153 -0.101273Q-12.5616 0.846342 -12.5616 1.99799ZM-15.3863 1.99799Q-15.3863 0.714855 -15.8987 -0.01966Q-16.4065 -0.754174 -17.3541 -0.754174Q-18.3017 -0.754174 -18.8232 -0.01966Q-19.34 0.714855 -19.34 1.99799Q-19.34 3.27659 -18.8232 4.02924Q-18.3017 4.78189 -17.3541 4.78189Q-16.4065 4.78189 -15.8987 4.02924Q-15.3863 3.27659 -15.3863 1.99799ZM-8.07256 1.69874Q-8.07256 4.02017 -6.19547 4.02017Q-5.76927 4.02017 -5.39748 3.91135Q-5.02568 3.798 -4.76724 3.64838L-4.76724 -0.772311Q-4.97128 -0.808583 -5.25239 -0.835787Q-5.52896 -0.862991 -5.90075 -0.862991Q-6.99799 -0.862991 -7.53754 -0.137545Q-8.07256 0.583367 -8.07256 1.69874ZM-2.00148 5.67509Q-2.00148 8.06907 -3.2166 9.22978Q-4.43172 10.3905 -6.97532 10.3905Q-7.86853 10.3905 -8.76173 10.2318Q-9.6504 10.0731 -10.4121 9.81467L-9.93152 7.49324Q-9.27861 7.75168 -8.56677 7.90131Q-7.85039 8.05093 -6.93905 8.05093Q-5.75113 8.05093 -5.26145 7.52952Q-4.76724 7.01264 -4.76724 6.19198L-4.76724 5.84285Q-5.21158 6.04689 -5.68765 6.15117Q-6.15919 6.25092 -6.71688 6.25092Q-8.7436 6.25092 -9.8227 5.05393Q-10.8973 3.85241 -10.8973 1.69874Q-10.8973 0.624174 -10.5617 -0.259964Q-10.2262 -1.1441 -9.58693 -1.77433Q-8.94763 -2.40456 -8.01815 -2.74915Q-7.08867 -3.09374 -5.91889 -3.09374Q-5.41561 -3.09374 -4.88966 -3.04386Q-4.35918 -2.99852 -3.8423 -2.92145Q-3.32088 -2.8489 -2.84934 -2.74462Q-2.37327 -2.64487 -2.00148 -2.53605L-2.00148 5.67509ZM2.95359 1.69874Q2.95359 4.02017 4.83069 4.02017Q5.25689 4.02017 5.62868 3.91135Q6.00047 3.798 6.25891 3.64838L6.25891 -0.772311Q6.05488 -0.808583 5.77377 -0.835787Q5.49719 -0.862991 5.1254 -0.862991Q4.02816 -0.862991 3.48861 -0.137545Q2.95359 0.583367 2.95359 1.69874ZM9.02467 5.67509Q9.02467 8.06907 7.80955 9.22978Q6.59443 10.3905 4.05083 10.3905Q3.15763 10.3905 2.26442 10.2318Q1.37575 10.0731 0.61403 9.81467L1.09464 7.49324Q1.74754 7.75168 2.45938 7.90131Q3.17576 8.05093 4.0871 8.05093Q5.27502 8.05093 5.7647 7.52952Q6.25891 7.01264 6.25891 6.19198L6.25891 5.84285Q5.81457 6.04689 5.3385 6.15117Q4.86696 6.25092 4.30927 6.25092Q2.28256 6.25092 1.20346 5.05393Q0.128888 3.85241 0.128888 1.69874Q0.128888 0.624174 0.464407 -0.259964Q0.799926 -1.1441 1.43923 -1.77433Q2.07853 -2.40456 3.008 -2.74915Q3.93748 -3.09374 5.10726 -3.09374Q5.61054 -3.09374 6.13649 -3.04386Q6.66697 -2.99852 7.18385 -2.92145Q7.70527 -2.8489 8.17681 -2.74462Q8.65288 -2.64487 9.02467 -2.53605L9.02467 5.67509ZM15.5213 7.08518Q14.3153 7.06704 13.5626 6.82674Q12.81 6.5819 12.3702 6.14663Q11.9349 5.71137 11.7762 5.0902Q11.622 4.46451 11.622 3.68465L11.622 -7.06556L14.3878 -7.50989L14.3878 3.1315Q14.3878 3.49876 14.4422 3.798Q14.5012 4.09725 14.6553 4.30128Q14.814 4.50531 15.1087 4.6368Q15.408 4.76375 15.9112 4.80002L15.5213 7.08518ZM17.0208 2.08867Q17.0208 0.787399 17.4198 -0.187419Q17.8188 -1.16224 18.4672 -1.81061Q19.1201 -2.45897 19.9634 -2.79449Q20.8113 -3.13001 21.7045 -3.13001Q23.7811 -3.13001 24.9871 -1.85595Q26.1977 -0.586415 26.1977 1.88464Q26.1977 2.12494 26.1796 2.41512Q26.1614 2.70076 26.1388 2.92293L19.8637 2.92293Q19.9543 3.77987 20.6616 4.28314Q21.369 4.78189 22.5569 4.78189Q23.3186 4.78189 24.0486 4.64587Q24.7831 4.50531 25.2501 4.30128L25.6219 6.54563Q25.3997 6.65898 25.0279 6.77233Q24.6561 6.88115 24.1982 6.96276Q23.7448 7.04891 23.2234 7.10332Q22.7065 7.15773 22.1851 7.15773Q20.8657 7.15773 19.8909 6.7678Q18.916 6.37787 18.2722 5.7023Q17.6329 5.02219 17.3246 4.09725Q17.0208 3.16777 17.0208 2.08867ZM23.5226 1.03224Q23.5045 0.678582 23.4002 0.343063Q23.3005 0.00754452 23.0874 -0.250896Q22.8743 -0.509336 22.5478 -0.677096Q22.2214 -0.844855 21.7407 -0.844855Q21.2737 -0.844855 20.9382 -0.686164Q20.6072 -0.527472 20.3851 -0.269032Q20.1629 -0.010592 20.0405 0.333995Q19.9181 0.678582 19.8637 1.03224L23.5226 1.03224ZM31.1304 4.91338Q31.8921 4.91338 32.2049 4.76375Q32.5223 4.61413 32.5223 4.18793Q32.5223 3.85241 32.1143 3.60304Q31.7062 3.35367 30.8719 3.03628Q30.2236 2.79598 29.6931 2.53754Q29.1626 2.27456 28.7908 1.91184Q28.419 1.54912 28.215 1.05037Q28.011 0.547095 28.011 -0.155681Q28.011 -1.53403 29.0311 -2.33202Q30.0558 -3.13001 31.8377 -3.13001Q32.7264 -3.13001 33.5425 -2.97132Q34.3632 -2.81263 34.8438 -2.62673L34.3632 -0.473064Q33.878 -0.640823 33.3113 -0.767776Q32.749 -0.899264 32.0417 -0.899264Q30.7405 -0.899264 30.7405 -0.178351Q30.7405 -0.010592 30.7949 0.120895Q30.8538 0.252382 31.0216 0.374802Q31.1893 0.492687 31.475 0.633242Q31.7606 0.769263 32.2095 0.937023Q33.1163 1.27254 33.7103 1.59899Q34.3087 1.92091 34.6488 2.30177Q34.9934 2.68263 35.1339 3.14963Q35.2745 3.61211 35.2745 4.2242Q35.2745 5.67509 34.1863 6.41868Q33.0982 7.15773 31.1122 7.15773Q29.811 7.15773 28.945 6.93556Q28.0835 6.71339 27.7525 6.56377L28.215 4.31942Q28.9223 4.59599 29.6614 4.75468Q30.4049 4.91338 31.1304 4.91338Z"/>
</svg>
