<?xml version="1.0" encoding="utf-8" ?>
<svg xmlns="http://www.w3.org/2000/svg" xmlns:xlink="http://www.w3.org/1999/xlink" width="110" height="110">
	<clipPath id="cl_3">
		<path d="M13.3333 9.16667L96.6667 9.16667Q100.833 9.16667 100.833 13.3333L100.833 96.6667Q100.833 100.833 96.6667 100.833L13.3333 100.833Q9.16667 100.833 9.16667 96.6667L9.16667 13.3333Q9.16667 9.16667 13.3333 9.16667Z"/>
	</clipPath>
	<g clip-path="url(#cl_3)">
		<path fill="#39B54A" transform="matrix(0.630353 0.981716 -0.981716 0.630353 107.5 55)" d="M0 0C25 0 -1.09278e-06 25 0 0ZM0 0C-1.09278e-06 25 -25 -2.18557e-06 0 0ZM0 0C-25 -2.18557e-06 2.98122e-07 -25 0 0ZM0 0C2.98122e-07 -25 25 4.37114e-06 0 0Z"/>
		<path fill="#2E933C" transform="matrix(0.630353 0.981716 -0.981716 0.630353 107.5 55)" d="M0 -1Q9.00369 -1 11.4044 3.00113Q13.5639 6.60033 10.0821 10.0821Q6.60033 13.5639 3.00113 11.4044Q-0.999995 9.00369 -0.999992 -3.05176e-07Q-0.999993 -0.0984917 -0.980779 -0.195091Q-0.961565 -0.291689 -0.923875 -0.382684Q-0.886184 -0.473678 -0.831466 -0.55557Q-0.776748 -0.637463 -0.707104 -0.707107Q-0.637461 -0.776751 -0.555569 -0.83147Q-0.473677 -0.886188 -0.382683 -0.923879Q-0.291689 -0.961571 -0.19509 -0.980785Q-0.0984914 -1 0 -1ZM0 1L0 0L1.00001 3.05176e-07Q1 7.87131 4.03013 9.68938Q6.2903 11.0455 8.66789 8.66789Q11.0455 6.2903 9.68938 4.03012Q7.87131 1 0 1ZM1 4.37114e-08Q0.999999 9.00369 -3.00113 11.4044Q-6.60032 13.5639 -10.0821 10.0821Q-13.5639 6.60032 -11.4044 3.00112Q-9.00369 -1.00001 -3.27835e-06 -1.00001Q0.0984885 -1.00001 0.195088 -0.980791Q0.291687 -0.961576 0.382681 -0.923884Q0.473676 -0.886192 0.555569 -0.831473Q0.637462 -0.776753 0.707106 -0.707109Q0.77675 -0.637465 0.831469 -0.555571Q0.886188 -0.473678 0.923879 -0.382684Q0.96157 -0.291689 0.980785 -0.19509Q1 -0.0984913 1 4.37114e-08ZM-1 -4.37114e-08L0 0L-3.27835e-06 0.999992Q-7.87131 0.999992 -9.68938 4.03011Q-11.0455 6.29029 -8.66789 8.66789Q-6.2903 11.0455 -4.03012 9.68938Q-1 7.87131 -1 -4.37114e-08ZM-8.74228e-08 1Q-9.00369 0.999999 -11.4044 -3.00113Q-13.5639 -6.60033 -10.0821 -10.0821Q-6.60033 -13.5639 -3.00113 -11.4044Q1 -9.00369 1 1.07269e-06Q1 0.0984924 0.980785 0.195091Q0.96157 0.29169 0.923879 0.382684Q0.886188 0.473678 0.83147 0.555571Q0.776751 0.637463 0.707107 0.707107Q0.637463 0.776751 0.55557 0.83147Q0.473678 0.886189 0.382683 0.92388Q0.291689 0.961571 0.19509 0.980785Q0.0984914 1 -1.19249e-08 1L-8.74228e-08 1ZM8.74228e-08 -1L0 0L-1 1.07269e-06Q-1 -7.87131 -4.03012 -9.68938Q-6.2903 -11.0455 -8.66789 -8.66789Q-11.0455 -6.2903 -9.68938 -4.03012Q-7.87131 -1 8.74228e-08 -1ZM-1 -1.19249e-08Q-1 -9.00369 3.00113 -11.4044Q6.60033 -13.5639 10.0821 -10.0821Q13.5639 -6.60033 11.4044 -3.00113Q9.00369 1 5.8919e-07 1Q-0.0984909 1 -0.19509 0.980785Q-0.291689 0.96157 -0.382683 0.923879Q-0.473677 0.886188 -0.55557 0.831469Q-0.637463 0.776751 -0.707107 0.707107Q-0.776751 0.637463 -0.831469 0.55557Q-0.886188 0.473678 -0.923879 0.382683Q-0.961571 0.291689 -0.980785 0.19509Q-1 0.0984914 -1 -1.19249e-08L-1 -1.19249e-08ZM1 1.19249e-08L0 0L1.19954e-06 -1Q7.87131 -0.999997 9.68938 -4.03012Q11.0455 -6.29029 8.66789 -8.66789Q6.2903 -11.0455 4.03012 -9.68938Q1 -7.87131 1 1.19249e-08Z"/>
		<path fill="#292929" transform="matrix(0.630353 0.981716 -0.981716 0.630353 71.2234 104.93)" d="M14.5 0Q14.5 0.355955 14.4825 0.711481Q14.4651 1.06701 14.4302 1.42125Q14.3953 1.77549 14.3431 2.12759Q14.2908 2.47969 14.2214 2.82881Q14.1519 3.17792 14.0655 3.52321Q13.979 3.8685 13.8756 4.20913Q13.7723 4.54976 13.6524 4.8849Q13.5325 5.22005 13.3963 5.54891Q13.26 5.87777 13.1078 6.19955Q12.9557 6.52133 12.7879 6.83525Q12.6201 7.14918 12.4371 7.45449Q12.2541 7.7598 12.0563 8.05577Q11.8586 8.35173 11.6465 8.63764Q11.4345 8.92354 11.2087 9.1987Q10.9828 9.47386 10.7438 9.7376Q10.5047 10.0013 10.253 10.253Q10.0013 10.5047 9.7376 10.7438Q9.47386 10.9828 9.1987 11.2087Q8.92354 11.4345 8.63764 11.6465Q8.35173 11.8586 8.05577 12.0563Q7.7598 12.2541 7.45449 12.4371Q7.14918 12.6201 6.83525 12.7879Q6.52133 12.9557 6.19955 13.1078Q5.87777 13.26 5.54891 13.3963Q5.22005 13.5325 4.8849 13.6524Q4.54976 13.7723 4.20913 13.8756Q3.8685 13.979 3.52321 14.0655Q3.17792 14.1519 2.82881 14.2214Q2.47969 14.2908 2.12759 14.3431Q1.77549 14.3953 1.42125 14.4302Q1.06701 14.4651 0.711481 14.4825Q0.355955 14.5 0 14.5Q-0.355955 14.5 -0.711481 14.4825Q-1.06701 14.4651 -1.42125 14.4302Q-1.77549 14.3953 -2.12759 14.3431Q-2.47969 14.2908 -2.82881 14.2214Q-3.17792 14.1519 -3.52321 14.0655Q-3.8685 13.979 -4.20913 13.8756Q-4.54976 13.7723 -4.8849 13.6524Q-5.22005 13.5325 -5.54891 13.3963Q-5.87777 13.26 -6.19955 13.1078Q-6.52133 12.9557 -6.83525 12.7879Q-7.14918 12.6201 -7.45449 12.4371Q-7.7598 12.2541 -8.05577 12.0563Q-8.35173 11.8586 -8.63764 11.6465Q-8.92354 11.4345 -9.1987 11.2087Q-9.47386 10.9828 -9.7376 10.7438Q-10.0013 10.5047 -10.253 10.253Q-10.5047 10.0013 -10.7438 9.7376Q-10.9828 9.47386 -11.2087 9.1987Q-11.4345 8.92354 -11.6465 8.63764Q-11.8586 8.35173 -12.0563 8.05577Q-12.2541 7.7598 -12.4371 7.45449Q-12.6201 7.14918 -12.7879 6.83525Q-12.9557 6.52133 -13.1078 6.19955Q-13.26 5.87777 -13.3963 5.54891Q-13.5325 5.22005 -13.6524 4.8849Q-13.7723 4.54976 -13.8756 4.20913Q-13.979 3.8685 -14.0655 3.52321Q-14.1519 3.17792 -14.2214 2.82881Q-14.2908 2.47969 -14.3431 2.12759Q-14.3953 1.77549 -14.4302 1.42125Q-14.4651 1.06701 -14.4825 0.711481Q-14.5 0.355955 -14.5 0Q-14.5 -0.355955 -14.4825 -0.711481Q-14.4651 -1.06701 -14.4302 -1.42125Q-14.3953 -1.77549 -14.3431 -2.12759Q-14.2908 -2.47969 -14.2214 -2.82881Q-14.1519 -3.17792 -14.0655 -3.52321Q-13.979 -3.8685 -13.8756 -4.20913Q-13.7723 -4.54976 -13.6524 -4.8849Q-13.5325 -5.22005 -13.3963 -5.54891Q-13.26 -5.87777 -13.1078 -6.19955Q-12.9557 -6.52133 -12.7879 -6.83525Q-12.6201 -7.14918 -12.4371 -7.45449Q-12.2541 -7.7598 -12.0563 -8.05577Q-11.8586 -8.35173 -11.6465 -8.63764Q-11.4345 -8.92354 -11.2087 -9.1987Q-10.9828 -9.47386 -10.7438 -9.7376Q-10.5047 -10.0013 -10.253 -10.253Q-10.0013 -10.5047 -9.7376 -10.7438Q-9.47386 -10.9828 -9.1987 -11.2087Q-8.92354 -11.4345 -8.63764 -11.6465Q-8.35173 -11.8586 -8.05577 -12.0563Q-7.7598 -12.2541 -7.45449 -12.4371Q-7.14918 -12.6201 -6.83525 -12.7879Q-6.52133 -12.9557 -6.19955 -13.1078Q-5.87777 -13.26 -5.54891 -13.3963Q-5.22005 -13.5325 -4.8849 -13.6524Q-4.54976 -13.7723 -4.20913 -13.8756Q-3.8685 -13.979 -3.52321 -14.0655Q-3.17792 -14.1519 -2.82881 -14.2214Q-2.47969 -14.2908 -2.12759 -14.3431Q-1.77549 -14.3953 -1.42125 -14.4302Q-1.06701 -14.4651 -0.711481 -14.4825Q-0.355955 -14.5 0 -14.5Q0.355955 -14.5 0.711481 -14.4825Q1.06701 -14.4651 1.42125 -14.4302Q1.77549 -14.3953 2.12759 -14.3431Q2.47969 -14.2908 2.82881 -14.2214Q3.17792 -14.1519 3.52321 -14.0655Q3.8685 -13.979 4.20913 -13.8756Q4.54976 -13.7723 4.8849 -13.6524Q5.22005 -13.5325 5.54891 -13.3963Q5.87777 -13.26 6.19955 -13.1078Q6.52133 -12.9557 6.83525 -12.7879Q7.14918 -12.6201 7.45449 -12.4371Q7.7598 -12.2541 8.05577 -12.0563Q8.35173 -11.8586 8.63764 -11.6465Q8.92354 -11.4345 9.1987 -11.2087Q9.47386 -10.9828 9.7376 -10.7438Q10.0013 -10.5047 10.253 -10.253Q10.5047 -10.0013 10.7438 -9.7376Q10.9828 -9.47386 11.2087 -9.1987Q11.4345 -8.92354 11.6465 -8.63764Q11.8586 -8.35173 12.0563 -8.05577Q12.2541 -7.7598 12.4371 -7.45449Q12.6201 -7.14918 12.7879 -6.83525Q12.9557 -6.52133 13.1078 -6.19955Q13.26 -5.87777 13.3963 -5.54891Q13.5325 -5.22005 13.6524 -4.8849Q13.7723 -4.54976 13.8756 -4.20913Q13.979 -3.8685 14.0655 -3.52321Q14.1519 -3.17792 14.2214 -2.82881Q14.2908 -2.47969 14.3431 -2.12759Q14.3953 -1.77549 14.4302 -1.42125Q14.4651 -1.06701 14.4825 -0.711481Q14.5 -0.355955 14.5 0"/>
		<path fill="#333" transform="matrix(0.630353 0.981716 -0.981716 0.630353 71.2234 104.93)" d="M11.5 0Q11.5 0.282309 11.4861 0.564278Q11.4723 0.846247 11.4446 1.1272Q11.417 1.40815 11.3755 1.6874Q11.3341 1.96665 11.279 2.24354Q11.224 2.52042 11.1554 2.79427Q11.0868 3.06812 11.0048 3.33827Q10.9229 3.60843 10.8278 3.87423Q10.7326 4.14004 10.6246 4.40086Q10.5166 4.66168 10.3959 4.91688Q10.2752 5.17209 10.1421 5.42106Q10.009 5.67004 9.86388 5.91218Q9.71874 6.15433 9.5619 6.38906Q9.40506 6.62379 9.23689 6.85054Q9.06871 7.07729 8.88962 7.29552Q8.71052 7.51375 8.52094 7.72293Q8.33135 7.9321 8.13173 8.13173Q7.9321 8.33135 7.72293 8.52094Q7.51375 8.71052 7.29552 8.88962Q7.07729 9.06871 6.85054 9.23689Q6.62379 9.40506 6.38906 9.5619Q6.15433 9.71874 5.91218 9.86388Q5.67004 10.009 5.42106 10.1421Q5.17209 10.2752 4.91688 10.3959Q4.66168 10.5166 4.40086 10.6246Q4.14004 10.7326 3.87423 10.8278Q3.60843 10.9229 3.33827 11.0048Q3.06812 11.0868 2.79427 11.1554Q2.52042 11.224 2.24354 11.279Q1.96665 11.3341 1.6874 11.3755Q1.40815 11.417 1.1272 11.4446Q0.846247 11.4723 0.564278 11.4861Q0.282309 11.5 0 11.5Q-0.282309 11.5 -0.564278 11.4861Q-0.846247 11.4723 -1.1272 11.4446Q-1.40815 11.417 -1.6874 11.3755Q-1.96665 11.3341 -2.24354 11.279Q-2.52042 11.224 -2.79427 11.1554Q-3.06812 11.0868 -3.33827 11.0048Q-3.60843 10.9229 -3.87423 10.8278Q-4.14004 10.7326 -4.40086 10.6246Q-4.66168 10.5166 -4.91688 10.3959Q-5.17209 10.2752 -5.42106 10.1421Q-5.67004 10.009 -5.91218 9.86388Q-6.15433 9.71874 -6.38906 9.5619Q-6.62379 9.40506 -6.85054 9.23689Q-7.07729 9.06871 -7.29552 8.88962Q-7.51375 8.71052 -7.72293 8.52094Q-7.9321 8.33135 -8.13173 8.13173Q-8.33135 7.9321 -8.52094 7.72293Q-8.71052 7.51375 -8.88962 7.29552Q-9.06871 7.07729 -9.23689 6.85054Q-9.40506 6.62379 -9.5619 6.38906Q-9.71874 6.15433 -9.86388 5.91218Q-10.009 5.67004 -10.1421 5.42106Q-10.2752 5.17209 -10.3959 4.91688Q-10.5166 4.66168 -10.6246 4.40086Q-10.7326 4.14004 -10.8278 3.87423Q-10.9229 3.60843 -11.0048 3.33827Q-11.0868 3.06812 -11.1554 2.79427Q-11.224 2.52042 -11.279 2.24354Q-11.3341 1.96665 -11.3755 1.6874Q-11.417 1.40815 -11.4446 1.1272Q-11.4723 0.846247 -11.4861 0.564278Q-11.5 0.282309 -11.5 0Q-11.5 -0.282309 -11.4861 -0.564278Q-11.4723 -0.846247 -11.4446 -1.1272Q-11.417 -1.40815 -11.3755 -1.6874Q-11.3341 -1.96665 -11.279 -2.24354Q-11.224 -2.52042 -11.1554 -2.79427Q-11.0868 -3.06812 -11.0048 -3.33827Q-10.9229 -3.60843 -10.8278 -3.87423Q-10.7326 -4.14004 -10.6246 -4.40086Q-10.5166 -4.66168 -10.3959 -4.91688Q-10.2752 -5.17209 -10.1421 -5.42106Q-10.009 -5.67004 -9.86388 -5.91218Q-9.71874 -6.15433 -9.5619 -6.38906Q-9.40506 -6.62379 -9.23689 -6.85054Q-9.06871 -7.07729 -8.88962 -7.29552Q-8.71052 -7.51375 -8.52094 -7.72293Q-8.33135 -7.9321 -8.13173 -8.13173Q-7.9321 -8.33135 -7.72293 -8.52094Q-7.51375 -8.71052 -7.29552 -8.88962Q-7.07729 -9.06871 -6.85054 -9.23689Q-6.62379 -9.40506 -6.38906 -9.5619Q-6.15433 -9.71874 -5.91218 -9.86388Q-5.67004 -10.009 -5.42106 -10.1421Q-5.17209 -10.2752 -4.91688 -10.3959Q-4.66168 -10.5166 -4.40086 -10.6246Q-4.14004 -10.7326 -3.87423 -10.8278Q-3.60843 -10.9229 -3.33827 -11.0048Q-3.06812 -11.0868 -2.79427 -11.1554Q-2.52042 -11.224 -2.24354 -11.279Q-1.96665 -11.3341 -1.6874 -11.3755Q-1.40815 -11.417 -1.1272 -11.4446Q-0.846247 -11.4723 -0.564278 -11.4861Q-0.282309 -11.5 0 -11.5Q0.282309 -11.5 0.564278 -11.4861Q0.846247 -11.4723 1.1272 -11.4446Q1.40815 -11.417 1.6874 -11.3755Q1.96665 -11.3341 2.24354 -11.279Q2.52042 -11.224 2.79427 -11.1554Q3.06812 -11.0868 3.33827 -11.0048Q3.60843 -10.9229 3.87423 -10.8278Q4.14004 -10.7326 4.40086 -10.6246Q4.66168 -10.5166 4.91688 -10.3959Q5.17209 -10.2752 5.42106 -10.1421Q5.67004 -10.009 5.91218 -9.86388Q6.15433 -9.71874 6.38906 -9.5619Q6.62379 -9.40506 6.85054 -9.23689Q7.07729 -9.06871 7.29552 -8.88962Q7.51375 -8.71052 7.72293 -8.52094Q7.9321 -8.33135 8.13173 -8.13173Q8.33135 -7.9321 8.52094 -7.72293Q8.71052 -7.51375 8.88962 -7.29552Q9.06871 -7.07729 9.23689 -6.85054Q9.40506 -6.62379 9.5619 -6.38906Q9.71874 -6.15433 9.86388 -5.91218Q10.009 -5.67004 10.1421 -5.42106Q10.2752 -5.17209 10.3959 -4.91688Q10.5166 -4.66168 10.6246 -4.40086Q10.7326 -4.14004 10.8278 -3.87423Q10.9229 -3.60843 11.0048 -3.33827Q11.0868 -3.06812 11.1554 -2.79427Q11.224 -2.52042 11.279 -2.24354Q11.3341 -1.96665 11.3755 -1.6874Q11.417 -1.40815 11.4446 -1.1272Q11.4723 -0.846247 11.4861 -0.564278Q11.5 -0.282309 11.5 0"/>
		<path fill="white" transform="matrix(0.630353 0.981716 -0.981716 0.630353 71.2234 104.93)" d="M13 3L13 -3L10 -3L10 3L13 3ZM3.90192 12.7583L9.09808 9.75833L7.59808 7.16025L2.40192 10.1603L3.90192 12.7583ZM-9.09808 9.75833L-3.90192 12.7583L-2.40192 10.1603L-7.59808 7.16025L-9.09808 9.75833ZM-13 -3L-13 3L-10 3L-10 -3L-13 -3ZM-3.90192 -12.7583L-9.09808 -9.75833L-7.59808 -7.16026L-2.40192 -10.1603L-3.90192 -12.7583ZM9.09807 -9.75833L3.90192 -12.7583L2.40192 -10.1603L7.59807 -7.16025L9.09807 -9.75833ZM8.5 1.2L8.5 -1.2L7.5 -1.2L7.5 1.2L8.5 1.2ZM6.76122 5.28923L7.96122 3.21077L7.09519 2.71077L5.89519 4.78923L6.76122 5.28923ZM3.21077 7.96122L5.28923 6.76122L4.78923 5.89519L2.71077 7.09519L3.21077 7.96122ZM-1.2 8.5L1.2 8.5L1.2 7.5L-1.2 7.5L-1.2 8.5ZM-5.28923 6.76122L-3.21077 7.96122L-2.71077 7.09519L-4.78923 5.89519L-5.28923 6.76122ZM-7.96122 3.21077L-6.76122 5.28923L-5.89519 4.78923L-7.09519 2.71077L-7.96122 3.21077ZM-8.5 -1.2L-8.5 1.2L-7.5 1.2L-7.5 -1.2L-8.5 -1.2ZM-6.76122 -5.28923L-7.96122 -3.21077L-7.09519 -2.71077L-5.89519 -4.78923L-6.76122 -5.28923ZM-3.21077 -7.96122L-5.28923 -6.76122L-4.78923 -5.89519L-2.71077 -7.09519L-3.21077 -7.96122ZM1.2 -8.5L-1.2 -8.5L-1.2 -7.5L1.2 -7.5L1.2 -8.5ZM5.28923 -6.76122L3.21077 -7.96122L2.71077 -7.09519L4.78923 -5.89519L5.28923 -6.76122ZM7.96122 -3.21077L6.76122 -5.28923L5.89519 -4.78923L7.09519 -2.71077L7.96122 -3.21077Z"/>
		<path fill="white" transform="matrix(0.725212 0.913881 -0.913881 0.725212 12.5266 85.8587)" d="M-10 -10L10 -10L10 10L-10 10L-10 -10Z"/>
		<path fill="#CFCFCF" transform="matrix(0.725212 0.913881 -0.913881 0.725212 12.5266 85.8587)" d="M-11.5 10L-11.5 -10Q-11.5 -10.0737 -11.4928 -10.147Q-11.4856 -10.2204 -11.4712 -10.2926Q-11.4568 -10.3649 -11.4354 -10.4354Q-11.414 -10.5059 -11.3858 -10.574Q-11.3576 -10.6421 -11.3229 -10.7071Q-11.2881 -10.7721 -11.2472 -10.8334Q-11.2063 -10.8946 -11.1595 -10.9516Q-11.1128 -11.0086 -11.0607 -11.0607Q-11.0086 -11.1128 -10.9516 -11.1595Q-10.8946 -11.2063 -10.8334 -11.2472Q-10.7721 -11.2881 -10.7071 -11.3229Q-10.6421 -11.3576 -10.574 -11.3858Q-10.5059 -11.414 -10.4354 -11.4354Q-10.3649 -11.4568 -10.2926 -11.4712Q-10.2204 -11.4856 -10.147 -11.4928Q-10.0737 -11.5 -10 -11.5L10 -11.5Q10.0737 -11.5 10.147 -11.4928Q10.2204 -11.4856 10.2926 -11.4712Q10.3649 -11.4568 10.4354 -11.4354Q10.5059 -11.414 10.574 -11.3858Q10.6421 -11.3576 10.7071 -11.3229Q10.7721 -11.2881 10.8334 -11.2472Q10.8946 -11.2063 10.9516 -11.1595Q11.0086 -11.1128 11.0607 -11.0607Q11.1128 -11.0086 11.1595 -10.9516Q11.2063 -10.8946 11.2472 -10.8334Q11.2881 -10.7721 11.3229 -10.7071Q11.3576 -10.6421 11.3858 -10.574Q11.414 -10.5059 11.4354 -10.4354Q11.4568 -10.3649 11.4712 -10.2926Q11.4856 -10.2204 11.4928 -10.147Q11.5 -10.0737 11.5 -10L11.5 10Q11.5 10.0737 11.4928 10.147Q11.4856 10.2204 11.4712 10.2926Q11.4568 10.3649 11.4354 10.4354Q11.414 10.5059 11.3858 10.574Q11.3576 10.6421 11.3229 10.7071Q11.2881 10.7721 11.2472 10.8334Q11.2063 10.8946 11.1595 10.9516Q11.1128 11.0086 11.0607 11.0607Q11.0086 11.1128 10.9516 11.1595Q10.8946 11.2063 10.8334 11.2472Q10.7721 11.2881 10.7071 11.3229Q10.6421 11.3576 10.574 11.3858Q10.5059 11.414 10.4354 11.4354Q10.3649 11.4568 10.2926 11.4712Q10.2204 11.4856 10.147 11.4928Q10.0737 11.5 10 11.5L-10 11.5Q-10.0737 11.5 -10.147 11.4928Q-10.2204 11.4856 -10.2926 11.4712Q-10.3649 11.4568 -10.4354 11.4354Q-10.5059 11.414 -10.574 11.3858Q-10.6421 11.3576 -10.7071 11.3229Q-10.7721 11.2881 -10.8334 11.2472Q-10.8946 11.2063 -10.9516 11.1595Q-11.0086 11.1128 -11.0607 11.0607Q-11.1128 11.0086 -11.1595 10.9516Q-11.2063 10.8946 -11.2472 10.8334Q-11.2881 10.7721 -11.3229 10.7071Q-11.3576 10.6421 -11.3858 10.574Q-11.414 10.5059 -11.4354 10.4354Q-11.4568 10.3649 -11.4712 10.2926Q-11.4856 10.2204 -11.4928 10.147Q-11.5 10.0737 -11.5 10ZM-8.5 -8.5L-8.5 8.5L8.5 8.5L8.5 -8.5L-8.5 -8.5Z"/>
		<path fill="#777" transform="matrix(0.725212 0.913881 -0.913881 0.725212 12.5266 85.8587)" d="M2.2 0Q2.2 0.108079 2.18941 0.215638Q2.17881 0.323196 2.15773 0.429199Q2.13664 0.535201 2.10527 0.638626Q2.07389 0.742051 2.03253 0.841903Q1.99117 0.941756 1.94023 1.03707Q1.88928 1.13239 1.82923 1.22225Q1.76919 1.31212 1.70062 1.39567Q1.63206 1.47921 1.55563 1.55563Q1.47921 1.63206 1.39567 1.70062Q1.31212 1.76919 1.22225 1.82923Q1.13239 1.88928 1.03707 1.94023Q0.941756 1.99117 0.841903 2.03253Q0.742051 2.07389 0.638626 2.10527Q0.535201 2.13664 0.429199 2.15773Q0.323196 2.17881 0.215638 2.18941Q0.108079 2.2 0 2.2Q-0.108079 2.2 -0.215638 2.18941Q-0.323196 2.17881 -0.429199 2.15773Q-0.535201 2.13664 -0.638626 2.10527Q-0.742051 2.07389 -0.841903 2.03253Q-0.941756 1.99117 -1.03707 1.94023Q-1.13239 1.88928 -1.22225 1.82923Q-1.31212 1.76919 -1.39567 1.70062Q-1.47921 1.63206 -1.55563 1.55563Q-1.63206 1.47921 -1.70062 1.39567Q-1.76919 1.31212 -1.82923 1.22225Q-1.88928 1.13239 -1.94023 1.03707Q-1.99117 0.941756 -2.03253 0.841903Q-2.07389 0.742051 -2.10527 0.638626Q-2.13664 0.535201 -2.15773 0.429199Q-2.17881 0.323196 -2.18941 0.215638Q-2.2 0.108079 -2.2 0Q-2.2 -0.108079 -2.18941 -0.215638Q-2.17881 -0.323196 -2.15773 -0.429199Q-2.13664 -0.535201 -2.10527 -0.638626Q-2.07389 -0.742051 -2.03253 -0.841903Q-1.99117 -0.941756 -1.94023 -1.03707Q-1.88928 -1.13239 -1.82923 -1.22225Q-1.76919 -1.31212 -1.70062 -1.39567Q-1.63206 -1.47921 -1.55563 -1.55563Q-1.47921 -1.63206 -1.39567 -1.70062Q-1.31212 -1.76919 -1.22225 -1.82923Q-1.13239 -1.88928 -1.03707 -1.94023Q-0.941756 -1.99117 -0.841903 -2.03253Q-0.742051 -2.07389 -0.638626 -2.10527Q-0.535201 -2.13664 -0.429199 -2.15773Q-0.323196 -2.17881 -0.215638 -2.18941Q-0.108079 -2.2 0 -2.2Q0.108079 -2.2 0.215638 -2.18941Q0.323196 -2.17881 0.429199 -2.15773Q0.535201 -2.13664 0.638626 -2.10527Q0.742051 -2.07389 0.841903 -2.03253Q0.941756 -1.99117 1.03707 -1.94023Q1.13239 -1.88928 1.22225 -1.82923Q1.31212 -1.76919 1.39567 -1.70062Q1.47921 -1.63206 1.55563 -1.55563Q1.63206 -1.47921 1.70062 -1.39567Q1.76919 -1.31212 1.82923 -1.22225Q1.88928 -1.13239 1.94023 -1.03707Q1.99117 -0.941756 2.03253 -0.841903Q2.07389 -0.742051 2.10527 -0.638626Q2.13664 -0.535201 2.15773 -0.429199Q2.17881 -0.323196 2.18941 -0.215638Q2.2 -0.108079 2.2 0"/>
		<path fill="#777" transform="matrix(0.725212 0.913881 -0.913881 0.725212 12.5266 85.8587)" d="M-1.8 -4Q-1.8 -3.89192 -1.81059 -3.78436Q-1.82119 -3.6768 -1.84227 -3.5708Q-1.86336 -3.4648 -1.89473 -3.36137Q-1.9261 -3.25795 -1.96746 -3.1581Q-2.00882 -3.05824 -2.05977 -2.96293Q-2.11072 -2.86761 -2.17077 -2.77774Q-2.23081 -2.68788 -2.29938 -2.60433Q-2.36794 -2.52079 -2.44436 -2.44436Q-2.52079 -2.36794 -2.60433 -2.29938Q-2.68788 -2.23081 -2.77774 -2.17077Q-2.86761 -2.11072 -2.96293 -2.05977Q-3.05824 -2.00882 -3.1581 -1.96746Q-3.25795 -1.9261 -3.36137 -1.89473Q-3.4648 -1.86336 -3.5708 -1.84227Q-3.6768 -1.82119 -3.78436 -1.81059Q-3.89192 -1.8 -4 -1.8Q-4.10808 -1.8 -4.21564 -1.81059Q-4.3232 -1.82119 -4.4292 -1.84227Q-4.5352 -1.86336 -4.63863 -1.89473Q-4.74205 -1.9261 -4.8419 -1.96746Q-4.94175 -2.00882 -5.03707 -2.05977Q-5.13239 -2.11072 -5.22225 -2.17077Q-5.31212 -2.23081 -5.39566 -2.29938Q-5.47921 -2.36794 -5.55563 -2.44436Q-5.63206 -2.52079 -5.70062 -2.60433Q-5.76919 -2.68788 -5.82923 -2.77774Q-5.88928 -2.86761 -5.94023 -2.96293Q-5.99117 -3.05824 -6.03253 -3.1581Q-6.07389 -3.25795 -6.10527 -3.36137Q-6.13664 -3.4648 -6.15773 -3.5708Q-6.17881 -3.6768 -6.18941 -3.78436Q-6.2 -3.89192 -6.2 -4Q-6.2 -4.10808 -6.18941 -4.21564Q-6.17881 -4.3232 -6.15773 -4.4292Q-6.13664 -4.5352 -6.10527 -4.63863Q-6.07389 -4.74205 -6.03253 -4.8419Q-5.99117 -4.94175 -5.94023 -5.03707Q-5.88928 -5.13239 -5.82923 -5.22225Q-5.76919 -5.31212 -5.70062 -5.39566Q-5.63206 -5.47921 -5.55563 -5.55563Q-5.47921 -5.63206 -5.39566 -5.70062Q-5.31212 -5.76919 -5.22225 -5.82923Q-5.13239 -5.88928 -5.03707 -5.94023Q-4.94175 -5.99117 -4.8419 -6.03253Q-4.74205 -6.07389 -4.63863 -6.10527Q-4.5352 -6.13664 -4.4292 -6.15773Q-4.3232 -6.17881 -4.21564 -6.18941Q-4.10808 -6.2 -4 -6.2Q-3.89192 -6.2 -3.78436 -6.18941Q-3.6768 -6.17881 -3.5708 -6.15773Q-3.4648 -6.13664 -3.36137 -6.10527Q-3.25795 -6.07389 -3.1581 -6.03253Q-3.05824 -5.99117 -2.96293 -5.94023Q-2.86761 -5.88928 -2.77774 -5.82923Q-2.68788 -5.76919 -2.60433 -5.70062Q-2.52079 -5.63206 -2.44436 -5.55563Q-2.36794 -5.47921 -2.29938 -5.39566Q-2.23081 -5.31212 -2.17077 -5.22225Q-2.11072 -5.13239 -2.05977 -5.03707Q-2.00882 -4.94175 -1.96746 -4.8419Q-1.9261 -4.74205 -1.89473 -4.63863Q-1.86336 -4.5352 -1.84227 -4.4292Q-1.82119 -4.3232 -1.81059 -4.21564Q-1.8 -4.10808 -1.8 -4"/>
		<path fill="#777" transform="matrix(0.725212 0.913881 -0.913881 0.725212 12.5266 85.8587)" d="M-1.8 4Q-1.8 4.10808 -1.81059 4.21564Q-1.82119 4.3232 -1.84227 4.4292Q-1.86336 4.5352 -1.89473 4.63863Q-1.9261 4.74205 -1.96746 4.8419Q-2.00882 4.94175 -2.05977 5.03707Q-2.11072 5.13239 -2.17077 5.22225Q-2.23081 5.31212 -2.29938 5.39566Q-2.36794 5.47921 -2.44436 5.55563Q-2.52079 5.63206 -2.60433 5.70062Q-2.68788 5.76919 -2.77774 5.82923Q-2.86761 5.88928 -2.96293 5.94023Q-3.05824 5.99117 -3.1581 6.03253Q-3.25795 6.07389 -3.36137 6.10527Q-3.4648 6.13664 -3.5708 6.15773Q-3.6768 6.17881 -3.78436 6.18941Q-3.89192 6.2 -4 6.2Q-4.10808 6.2 -4.21564 6.18941Q-4.3232 6.17881 -4.4292 6.15773Q-4.5352 6.13664 -4.63863 6.10527Q-4.74205 6.07389 -4.8419 6.03253Q-4.94175 5.99117 -5.03707 5.94023Q-5.13239 5.88928 -5.22225 5.82923Q-5.31212 5.76919 -5.39566 5.70062Q-5.47921 5.63206 -5.55563 5.55563Q-5.63206 5.47921 -5.70062 5.39566Q-5.76919 5.31212 -5.82923 5.22225Q-5.88928 5.13239 -5.94023 5.03707Q-5.99117 4.94175 -6.03253 4.8419Q-6.07389 4.74205 -6.10527 4.63863Q-6.13664 4.5352 -6.15773 4.4292Q-6.17881 4.3232 -6.18941 4.21564Q-6.2 4.10808 -6.2 4Q-6.2 3.89192 -6.18941 3.78436Q-6.17881 3.6768 -6.15773 3.5708Q-6.13664 3.4648 -6.10527 3.36137Q-6.07389 3.25795 -6.03253 3.1581Q-5.99117 3.05824 -5.94023 2.96293Q-5.88928 2.86761 -5.82923 2.77775Q-5.76919 2.68788 -5.70062 2.60433Q-5.63206 2.52079 -5.55563 2.44437Q-5.47921 2.36794 -5.39566 2.29938Q-5.31212 2.23081 -5.22225 2.17077Q-5.13239 2.11072 -5.03707 2.05977Q-4.94175 2.00883 -4.8419 1.96747Q-4.74205 1.92611 -4.63863 1.89473Q-4.5352 1.86336 -4.4292 1.84227Q-4.3232 1.82119 -4.21564 1.81059Q-4.10808 1.8 -4 1.8Q-3.89192 1.8 -3.78436 1.81059Q-3.6768 1.82119 -3.5708 1.84227Q-3.4648 1.86336 -3.36137 1.89473Q-3.25795 1.92611 -3.1581 1.96746Q-3.05824 2.00883 -2.96293 2.05977Q-2.86761 2.11072 -2.77774 2.17077Q-2.68788 2.23081 -2.60433 2.29938Q-2.52079 2.36794 -2.44436 2.44437Q-2.36794 2.52079 -2.29938 2.60433Q-2.23081 2.68788 -2.17077 2.77775Q-2.11072 2.86761 -2.05977 2.96293Q-2.00882 3.05824 -1.96746 3.1581Q-1.9261 3.25795 -1.89473 3.36137Q-1.86336 3.4648 -1.84227 3.5708Q-1.82119 3.6768 -1.81059 3.78436Q-1.8 3.89192 -1.8 4"/>
		<path fill="#777" transform="matrix(0.725212 0.913881 -0.913881 0.725212 12.5266 85.8587)" d="M6.2 4Q6.2 4.10808 6.18941 4.21564Q6.17881 4.3232 6.15773 4.4292Q6.13664 4.5352 6.10527 4.63863Q6.07389 4.74205 6.03253 4.8419Q5.99117 4.94175 5.94023 5.03707Q5.88928 5.13239 5.82923 5.22225Q5.76919 5.31212 5.70062 5.39566Q5.63206 5.47921 5.55563 5.55563Q5.47921 5.63206 5.39566 5.70062Q5.31212 5.76919 5.22225 5.82923Q5.13239 5.88928 5.03707 5.94023Q4.94175 5.99117 4.8419 6.03253Q4.74205 6.07389 4.63863 6.10527Q4.5352 6.13664 4.4292 6.15773Q4.3232 6.17881 4.21564 6.18941Q4.10808 6.2 4 6.2Q3.89192 6.2 3.78436 6.18941Q3.6768 6.17881 3.5708 6.15773Q3.4648 6.13664 3.36137 6.10527Q3.25795 6.07389 3.1581 6.03253Q3.05824 5.99117 2.96293 5.94023Q2.86761 5.88928 2.77775 5.82923Q2.68788 5.76919 2.60433 5.70062Q2.52079 5.63206 2.44437 5.55563Q2.36794 5.47921 2.29938 5.39566Q2.23081 5.31212 2.17077 5.22225Q2.11072 5.13239 2.05977 5.03707Q2.00883 4.94175 1.96746 4.8419Q1.9261 4.74205 1.89473 4.63863Q1.86336 4.5352 1.84227 4.4292Q1.82119 4.3232 1.81059 4.21564Q1.8 4.10808 1.8 4Q1.8 3.89192 1.81059 3.78436Q1.82119 3.6768 1.84227 3.5708Q1.86336 3.4648 1.89473 3.36137Q1.9261 3.25795 1.96746 3.1581Q2.00883 3.05824 2.05977 2.96293Q2.11072 2.86761 2.17077 2.77775Q2.23081 2.68788 2.29938 2.60433Q2.36794 2.52079 2.44437 2.44437Q2.52079 2.36794 2.60433 2.29938Q2.68788 2.23081 2.77775 2.17077Q2.86761 2.11072 2.96293 2.05977Q3.05824 2.00883 3.1581 1.96747Q3.25795 1.92611 3.36137 1.89473Q3.4648 1.86336 3.5708 1.84227Q3.6768 1.82119 3.78436 1.81059Q3.89192 1.8 4 1.8Q4.10808 1.8 4.21564 1.81059Q4.3232 1.82119 4.4292 1.84227Q4.5352 1.86336 4.63863 1.89473Q4.74205 1.92611 4.8419 1.96746Q4.94175 2.00883 5.03707 2.05977Q5.13239 2.11072 5.22225 2.17077Q5.31212 2.23081 5.39566 2.29938Q5.47921 2.36794 5.55563 2.44437Q5.63206 2.52079 5.70062 2.60433Q5.76919 2.68788 5.82923 2.77775Q5.88928 2.86761 5.94023 2.96293Q5.99117 3.05824 6.03253 3.1581Q6.07389 3.25795 6.10527 3.36137Q6.13664 3.4648 6.15773 3.5708Q6.17881 3.6768 6.18941 3.78436Q6.2 3.89192 6.2 4"/>
		<path fill="#777" transform="matrix(0.725212 0.913881 -0.913881 0.725212 12.5266 85.8587)" d="M6.2 -4Q6.2 -3.89192 6.18941 -3.78436Q6.17881 -3.6768 6.15773 -3.5708Q6.13664 -3.4648 6.10527 -3.36137Q6.07389 -3.25795 6.03253 -3.1581Q5.99117 -3.05824 5.94023 -2.96293Q5.88928 -2.86761 5.82923 -2.77774Q5.76919 -2.68788 5.70062 -2.60433Q5.63206 -2.52079 5.55563 -2.44436Q5.47921 -2.36794 5.39566 -2.29938Q5.31212 -2.23081 5.22225 -2.17077Q5.13239 -2.11072 5.03707 -2.05977Q4.94175 -2.00882 4.8419 -1.96746Q4.74205 -1.9261 4.63863 -1.89473Q4.5352 -1.86336 4.4292 -1.84227Q4.3232 -1.82119 4.21564 -1.81059Q4.10808 -1.8 4 -1.8Q3.89192 -1.8 3.78436 -1.81059Q3.6768 -1.82119 3.5708 -1.84227Q3.4648 -1.86336 3.36137 -1.89473Q3.25795 -1.9261 3.1581 -1.96746Q3.05824 -2.00882 2.96293 -2.05977Q2.86761 -2.11072 2.77775 -2.17077Q2.68788 -2.23081 2.60433 -2.29938Q2.52079 -2.36794 2.44437 -2.44436Q2.36794 -2.52079 2.29938 -2.60433Q2.23081 -2.68788 2.17077 -2.77774Q2.11072 -2.86761 2.05977 -2.96293Q2.00883 -3.05824 1.96746 -3.1581Q1.9261 -3.25795 1.89473 -3.36137Q1.86336 -3.4648 1.84227 -3.5708Q1.82119 -3.6768 1.81059 -3.78436Q1.8 -3.89192 1.8 -4Q1.8 -4.10808 1.81059 -4.21564Q1.82119 -4.3232 1.84227 -4.4292Q1.86336 -4.5352 1.89473 -4.63863Q1.9261 -4.74205 1.96746 -4.8419Q2.00883 -4.94175 2.05977 -5.03707Q2.11072 -5.13239 2.17077 -5.22225Q2.23081 -5.31212 2.29938 -5.39566Q2.36794 -5.47921 2.44437 -5.55563Q2.52079 -5.63206 2.60433 -5.70062Q2.68788 -5.76919 2.77775 -5.82923Q2.86761 -5.88928 2.96293 -5.94023Q3.05824 -5.99117 3.1581 -6.03253Q3.25795 -6.07389 3.36137 -6.10527Q3.4648 -6.13664 3.5708 -6.15773Q3.6768 -6.17881 3.78436 -6.18941Q3.89192 -6.2 4 -6.2Q4.10808 -6.2 4.21564 -6.18941Q4.3232 -6.17881 4.4292 -6.15773Q4.5352 -6.13664 4.63863 -6.10527Q4.74205 -6.07389 4.8419 -6.03253Q4.94175 -5.99117 5.03707 -5.94023Q5.13239 -5.88928 5.22225 -5.82923Q5.31212 -5.76919 5.39566 -5.70062Q5.47921 -5.63206 5.55563 -5.55563Q5.63206 -5.47921 5.70062 -5.39566Q5.76919 -5.31212 5.82923 -5.22225Q5.88928 -5.13239 5.94023 -5.03707Q5.99117 -4.94175 6.03253 -4.8419Q6.07389 -4.74205 6.10527 -4.63863Q6.13664 -4.5352 6.15773 -4.4292Q6.17881 -4.3232 6.18941 -4.21564Q6.2 -4.10808 6.2 -4"/>
		<path fill="white" transform="matrix(1.16084 0.116472 -0.116472 1.16084 12.5266 24.1413)" d="M-10 -14L10 -14L10 14L-10 14L-10 -14Z"/>
		<path fill="#CFCFCF" transform="matrix(1.16084 0.116472 -0.116472 1.16084 12.5266 24.1413)" d="M-11.5 14L-11.5 -14Q-11.5 -14.0737 -11.4928 -14.147Q-11.4856 -14.2204 -11.4712 -14.2926Q-11.4568 -14.3649 -11.4354 -14.4354Q-11.414 -14.5059 -11.3858 -14.574Q-11.3576 -14.6421 -11.3229 -14.7071Q-11.2881 -14.7721 -11.2472 -14.8334Q-11.2063 -14.8946 -11.1595 -14.9516Q-11.1128 -15.0086 -11.0607 -15.0607Q-11.0086 -15.1128 -10.9516 -15.1595Q-10.8946 -15.2063 -10.8334 -15.2472Q-10.7721 -15.2881 -10.7071 -15.3229Q-10.6421 -15.3576 -10.574 -15.3858Q-10.5059 -15.414 -10.4354 -15.4354Q-10.3649 -15.4568 -10.2926 -15.4712Q-10.2204 -15.4856 -10.147 -15.4928Q-10.0737 -15.5 -10 -15.5L10 -15.5Q10.0737 -15.5 10.147 -15.4928Q10.2204 -15.4856 10.2926 -15.4712Q10.3649 -15.4568 10.4354 -15.4354Q10.5059 -15.414 10.574 -15.3858Q10.6421 -15.3576 10.7071 -15.3229Q10.7721 -15.2881 10.8334 -15.2472Q10.8946 -15.2063 10.9516 -15.1595Q11.0086 -15.1128 11.0607 -15.0607Q11.1128 -15.0086 11.1595 -14.9516Q11.2063 -14.8946 11.2472 -14.8334Q11.2881 -14.7721 11.3229 -14.7071Q11.3576 -14.6421 11.3858 -14.574Q11.414 -14.5059 11.4354 -14.4354Q11.4568 -14.3649 11.4712 -14.2926Q11.4856 -14.2204 11.4928 -14.147Q11.5 -14.0737 11.5 -14L11.5 14Q11.5 14.0737 11.4928 14.147Q11.4856 14.2204 11.4712 14.2926Q11.4568 14.3649 11.4354 14.4354Q11.414 14.5059 11.3858 14.574Q11.3576 14.6421 11.3229 14.7071Q11.2881 14.7721 11.2472 14.8334Q11.2063 14.8946 11.1595 14.9516Q11.1128 15.0086 11.0607 15.0607Q11.0086 15.1128 10.9516 15.1595Q10.8946 15.2063 10.8334 15.2472Q10.7721 15.2881 10.7071 15.3229Q10.6421 15.3576 10.574 15.3858Q10.5059 15.414 10.4354 15.4354Q10.3649 15.4568 10.2926 15.4712Q10.2204 15.4856 10.147 15.4928Q10.0737 15.5 10 15.5L-10 15.5Q-10.0737 15.5 -10.147 15.4928Q-10.2204 15.4856 -10.2926 15.4712Q-10.3649 15.4568 -10.4354 15.4354Q-10.5059 15.414 -10.574 15.3858Q-10.6421 15.3576 -10.7071 15.3229Q-10.7721 15.2881 -10.8334 15.2472Q-10.8946 15.2063 -10.9516 15.1595Q-11.0086 15.1128 -11.0607 15.0607Q-11.1128 15.0086 -11.1595 14.9516Q-11.2063 14.8946 -11.2472 14.8334Q-11.2881 14.7721 -11.3229 14.7071Q-11.3576 14.6421 -11.3858 14.574Q-11.414 14.5059 -11.4354 14.4354Q-11.4568 14.3649 -11.4712 14.2926Q-11.4856 14.2204 -11.4928 14.147Q-11.5 14.0737 -11.5 14ZM-8.5 -12.5L-8.5 12.5L8.5 12.5L8.5 -12.5L-8.5 -12.5Z"/>
		<path transform="matrix(0.0294744 0.0029573 -0.0029573 0.0294744 5.73823 15.8387)" d="M458.915 307.705C458.915 370.335 404.915 399.025 367.575 399.045C325.935 399.045 294.475 380.185 275.745 364.785C278.215 415.735 290.275 452.135 344.395 480.785L167.605 480.785C221.725 452.135 233.785 415.735 236.255 364.785C217.525 380.175 186.055 399.065 144.425 399.045C107.135 399.045 53.085 370.335 53.085 307.705C53.085 193.235 133.725 224.385 255.995 31.215C378.275 224.385 458.915 193.245 458.915 307.705Z"/>
		<path transform="matrix(0.0580419 0.00582362 -0.00582362 0.0580419 6.72631 11.8341)" d="M33.7 34.65L20.1 34.65Q18.7 30.55 17.2 26.55Q15.7 22.55 14.3 18.35L-14.9 18.35Q-16.3 22.55 -17.75 26.6Q-19.2 30.65 -20.6 34.65L-33.7 34.65Q-29.8 23.55 -26.3 14.15Q-22.8 4.75 -19.45 -3.65Q-16.1 -12.05 -12.8 -19.65Q-9.5 -27.25 -6 -34.65L5.9 -34.65Q9.4 -27.25 12.7 -19.65Q16 -12.05 19.35 -3.65Q22.7 4.75 26.25 14.15Q29.8 23.55 33.7 34.65ZM-11.7 8.15L11.1 8.15Q7.9 -0.75 4.9 -8.45Q1.973 -15.964 -0.193 -21.002Q-0.246422 -21.126 -0.3 -21.25Q-1.22723 -19.1091 -2.116 -16.952Q-3.706 -13.1 -5.55 -8.35Q-8.5 -0.75 -11.7 8.15Z"/>
		<path transform="matrix(-0.0580419 -0.00582362 0.00582362 -0.0580419 18.3269 36.4485)" d="M33.7 34.65L20.1 34.65Q18.7 30.55 17.2 26.55Q15.7 22.55 14.3 18.35L-14.9 18.35Q-16.3 22.55 -17.75 26.6Q-19.2 30.65 -20.6 34.65L-33.7 34.65Q-29.8 23.55 -26.3 14.15Q-22.8 4.75 -19.45 -3.65Q-16.1 -12.05 -12.8 -19.65Q-9.5 -27.25 -6 -34.65L5.9 -34.65Q9.4 -27.25 12.7 -19.65Q16 -12.05 19.35 -3.65Q22.7 4.75 26.25 14.15Q29.8 23.55 33.7 34.65ZM-11.7 8.15L11.1 8.15Q7.9 -0.75 4.9 -8.45Q1.973 -15.964 -0.193 -21.002Q-0.246422 -21.126 -0.3 -21.25Q-1.22723 -19.1091 -2.116 -16.952Q-3.706 -13.1 -5.55 -8.35Q-8.5 -0.75 -11.7 8.15Z"/>
		<path fill="white" transform="matrix(0.580169 0.731105 -0.731105 0.580169 71.2234 5.06953)" d="M-20 7L-20 -7Q-20 -7.19651 -19.9807 -7.39207Q-19.9615 -7.58763 -19.9231 -7.78036Q-19.8848 -7.97309 -19.8278 -8.16114Q-19.7707 -8.34918 -19.6955 -8.53073Q-19.6203 -8.71228 -19.5277 -8.88559Q-19.4351 -9.05889 -19.3259 -9.22228Q-19.2167 -9.38567 -19.092 -9.53757Q-18.9674 -9.68948 -18.8284 -9.82843Q-18.6895 -9.96738 -18.5376 -10.092Q-18.3857 -10.2167 -18.2223 -10.3259Q-18.0589 -10.4351 -17.8856 -10.5277Q-17.7123 -10.6203 -17.5307 -10.6955Q-17.3492 -10.7707 -17.1611 -10.8278Q-16.9731 -10.8848 -16.7804 -10.9231Q-16.5876 -10.9615 -16.3921 -10.9807Q-16.1965 -11 -16 -11L16 -11Q16.1965 -11 16.3921 -10.9807Q16.5876 -10.9615 16.7804 -10.9231Q16.9731 -10.8848 17.1611 -10.8278Q17.3492 -10.7707 17.5307 -10.6955Q17.7123 -10.6203 17.8856 -10.5277Q18.0589 -10.4351 18.2223 -10.3259Q18.3857 -10.2167 18.5376 -10.092Q18.6895 -9.96738 18.8284 -9.82843Q18.9674 -9.68948 19.092 -9.53757Q19.2167 -9.38567 19.3259 -9.22228Q19.4351 -9.05889 19.5277 -8.88559Q19.6203 -8.71228 19.6955 -8.53073Q19.7707 -8.34918 19.8278 -8.16114Q19.8848 -7.97309 19.9231 -7.78036Q19.9615 -7.58763 19.9807 -7.39207Q20 -7.19651 20 -7L20 7Q20 7.19651 19.9807 7.39207Q19.9615 7.58763 19.9231 7.78036Q19.8848 7.97309 19.8278 8.16114Q19.7707 8.34918 19.6955 8.53073Q19.6203 8.71228 19.5277 8.88559Q19.4351 9.05889 19.3259 9.22228Q19.2167 9.38567 19.092 9.53757Q18.9674 9.68948 18.8284 9.82843Q18.6895 9.96738 18.5376 10.092Q18.3857 10.2167 18.2223 10.3259Q18.0589 10.4351 17.8856 10.5277Q17.7123 10.6203 17.5307 10.6955Q17.3492 10.7707 17.1611 10.8278Q16.9731 10.8848 16.7804 10.9231Q16.5876 10.9615 16.3921 10.9807Q16.1965 11 16 11L-16 11Q-16.1965 11 -16.3921 10.9807Q-16.5876 10.9615 -16.7804 10.9231Q-16.9731 10.8848 -17.1611 10.8278Q-17.3492 10.7707 -17.5307 10.6955Q-17.7123 10.6203 -17.8856 10.5277Q-18.0589 10.4351 -18.2223 10.3259Q-18.3857 10.2167 -18.5376 10.092Q-18.6895 9.96738 -18.8284 9.82843Q-18.9674 9.68948 -19.092 9.53757Q-19.2167 9.38567 -19.3259 9.22228Q-19.4351 9.05889 -19.5277 8.88559Q-19.6203 8.71228 -19.6955 8.53073Q-19.7707 8.34918 -19.8278 8.16114Q-19.8848 7.97309 -19.9231 7.78036Q-19.9615 7.58763 -19.9807 7.39207Q-20 7.19651 -20 7Z"/>
		<path fill="#CFCFCF" transform="matrix(0.580169 0.731105 -0.731105 0.580169 71.2234 5.06953)" d="M-21.5 7L-21.5 -7Q-21.5 -9.27817 -19.8891 -10.8891Q-18.2782 -12.5 -16 -12.5L16 -12.5Q18.2782 -12.5 19.8891 -10.8891Q21.5 -9.27817 21.5 -7L21.5 7Q21.5 9.27817 19.8891 10.8891Q18.2782 12.5 16 12.5L-16 12.5Q-18.2782 12.5 -19.8891 10.8891Q-21.5 9.27817 -21.5 7ZM-18.5 7Q-18.5 9.5 -16 9.5L16 9.5Q18.5 9.5 18.5 7L18.5 -7Q18.5 -9.5 16 -9.5L-16 -9.5Q-18.5 -9.5 -18.5 -7L-18.5 7Z"/>
		<path fill="#777" transform="matrix(0.580169 0.731105 -0.731105 0.580169 71.2234 5.06953)" d="M1.1 -6L1.1 6Q1.1 6.05404 1.0947 6.10782Q1.08941 6.1616 1.07886 6.2146Q1.06832 6.2676 1.05263 6.31931Q1.03695 6.37103 1.01627 6.42095Q0.995587 6.47088 0.970113 6.51854Q0.944639 6.56619 0.914616 6.61113Q0.884594 6.65606 0.850312 6.69783Q0.816029 6.73961 0.777817 6.77782Q0.739606 6.81603 0.697833 6.85031Q0.65606 6.88459 0.611127 6.91462Q0.566195 6.94464 0.518536 6.97011Q0.470878 6.99559 0.420952 7.01627Q0.371026 7.03695 0.319313 7.05263Q0.267601 7.06832 0.214599 7.07886Q0.161598 7.08941 0.107819 7.0947Q0.0540395 7.1 0 7.1Q-0.0540395 7.1 -0.107819 7.0947Q-0.161598 7.08941 -0.214599 7.07886Q-0.267601 7.06832 -0.319313 7.05263Q-0.371026 7.03695 -0.420952 7.01627Q-0.470878 6.99559 -0.518536 6.97011Q-0.566195 6.94464 -0.611127 6.91462Q-0.65606 6.88459 -0.697833 6.85031Q-0.739606 6.81603 -0.777817 6.77782Q-0.816029 6.73961 -0.850311 6.69783Q-0.884594 6.65606 -0.914616 6.61113Q-0.944639 6.56619 -0.970113 6.51854Q-0.995587 6.47088 -1.01627 6.42095Q-1.03695 6.37103 -1.05263 6.31931Q-1.06832 6.2676 -1.07886 6.2146Q-1.08941 6.1616 -1.0947 6.10782Q-1.1 6.05404 -1.1 6L-1.1 -6Q-1.1 -6.05404 -1.0947 -6.10782Q-1.08941 -6.1616 -1.07886 -6.2146Q-1.06832 -6.2676 -1.05263 -6.31931Q-1.03695 -6.37103 -1.01627 -6.42095Q-0.995587 -6.47088 -0.970113 -6.51854Q-0.944639 -6.56619 -0.914616 -6.61113Q-0.884594 -6.65606 -0.850312 -6.69783Q-0.816029 -6.73961 -0.777817 -6.77782Q-0.739606 -6.81603 -0.697833 -6.85031Q-0.65606 -6.88459 -0.611127 -6.91462Q-0.566195 -6.94464 -0.518536 -6.97011Q-0.470878 -6.99559 -0.420952 -7.01627Q-0.371026 -7.03695 -0.319313 -7.05263Q-0.267601 -7.06832 -0.214599 -7.07886Q-0.161598 -7.08941 -0.107819 -7.0947Q-0.0540395 -7.1 0 -7.1Q0.0540395 -7.1 0.107819 -7.0947Q0.161598 -7.08941 0.214599 -7.07886Q0.267601 -7.06832 0.319313 -7.05263Q0.371026 -7.03695 0.420952 -7.01627Q0.470878 -6.99559 0.518536 -6.97011Q0.566195 -6.94464 0.611127 -6.91462Q0.65606 -6.88459 0.697833 -6.85031Q0.739606 -6.81603 0.777817 -6.77782Q0.816029 -6.73961 0.850311 -6.69783Q0.884594 -6.65606 0.914616 -6.61113Q0.944639 -6.56619 0.970113 -6.51854Q0.995587 -6.47088 1.01627 -6.42095Q1.03695 -6.37103 1.05263 -6.31931Q1.06832 -6.2676 1.07886 -6.2146Q1.08941 -6.1616 1.0947 -6.10782Q1.1 -6.05404 1.1 -6Z"/>
		<path fill="#777" transform="matrix(0.580169 0.731105 -0.731105 0.580169 77.0251 12.3806)" d="M2.2 0Q2.2 0.108079 2.18941 0.215638Q2.17881 0.323196 2.15773 0.429199Q2.13664 0.535201 2.10527 0.638626Q2.07389 0.742051 2.03253 0.841903Q1.99117 0.941756 1.94023 1.03707Q1.88928 1.13239 1.82923 1.22225Q1.76919 1.31212 1.70062 1.39567Q1.63206 1.47921 1.55563 1.55563Q1.47921 1.63206 1.39567 1.70062Q1.31212 1.76919 1.22225 1.82923Q1.13239 1.88928 1.03707 1.94023Q0.941756 1.99117 0.841903 2.03253Q0.742051 2.07389 0.638626 2.10527Q0.535201 2.13664 0.429199 2.15773Q0.323196 2.17881 0.215638 2.18941Q0.108079 2.2 0 2.2Q-0.108079 2.2 -0.215638 2.18941Q-0.323196 2.17881 -0.429199 2.15773Q-0.535201 2.13664 -0.638626 2.10527Q-0.742051 2.07389 -0.841903 2.03253Q-0.941756 1.99117 -1.03707 1.94023Q-1.13239 1.88928 -1.22225 1.82923Q-1.31212 1.76919 -1.39567 1.70062Q-1.47921 1.63206 -1.55563 1.55563Q-1.63206 1.47921 -1.70062 1.39567Q-1.76919 1.31212 -1.82923 1.22225Q-1.88928 1.13239 -1.94023 1.03707Q-1.99117 0.941756 -2.03253 0.841903Q-2.07389 0.742051 -2.10527 0.638626Q-2.13664 0.535201 -2.15773 0.429199Q-2.17881 0.323196 -2.18941 0.215638Q-2.2 0.108079 -2.2 0Q-2.2 -0.108079 -2.18941 -0.215638Q-2.17881 -0.323196 -2.15773 -0.429199Q-2.13664 -0.535201 -2.10527 -0.638626Q-2.07389 -0.742051 -2.03253 -0.841903Q-1.99117 -0.941756 -1.94023 -1.03707Q-1.88928 -1.13239 -1.82923 -1.22225Q-1.76919 -1.31212 -1.70062 -1.39567Q-1.63206 -1.47921 -1.55563 -1.55563Q-1.47921 -1.63206 -1.39567 -1.70062Q-1.31212 -1.76919 -1.22225 -1.82923Q-1.13239 -1.88928 -1.03707 -1.94023Q-0.941756 -1.99117 -0.841903 -2.03253Q-0.742051 -2.07389 -0.638626 -2.10527Q-0.535201 -2.13664 -0.429199 -2.15773Q-0.323196 -2.17881 -0.215638 -2.18941Q-0.108079 -2.2 0 -2.2Q0.108079 -2.2 0.215638 -2.18941Q0.323196 -2.17881 0.429199 -2.15773Q0.535201 -2.13664 0.638626 -2.10527Q0.742051 -2.07389 0.841903 -2.03253Q0.941756 -1.99117 1.03707 -1.94023Q1.13239 -1.88928 1.22225 -1.82923Q1.31212 -1.76919 1.39567 -1.70062Q1.47921 -1.63206 1.55563 -1.55563Q1.63206 -1.47921 1.70062 -1.39567Q1.76919 -1.31212 1.82923 -1.22225Q1.88928 -1.13239 1.94023 -1.03707Q1.99117 -0.941756 2.03253 -0.841903Q2.07389 -0.742051 2.10527 -0.638626Q2.13664 -0.535201 2.15773 -0.429199Q2.17881 -0.323196 2.18941 -0.215638Q2.2 -0.108079 2.2 0"/>
		<path fill="#777" transform="matrix(0.580169 0.731105 -0.731105 0.580169 77.0251 12.3806)" d="M-1.8 -4Q-1.8 -3.89192 -1.81059 -3.78436Q-1.82119 -3.6768 -1.84227 -3.5708Q-1.86336 -3.4648 -1.89473 -3.36137Q-1.9261 -3.25795 -1.96746 -3.1581Q-2.00882 -3.05824 -2.05977 -2.96293Q-2.11072 -2.86761 -2.17077 -2.77774Q-2.23081 -2.68788 -2.29938 -2.60433Q-2.36794 -2.52079 -2.44436 -2.44436Q-2.52079 -2.36794 -2.60433 -2.29938Q-2.68788 -2.23081 -2.77774 -2.17077Q-2.86761 -2.11072 -2.96293 -2.05977Q-3.05824 -2.00882 -3.1581 -1.96746Q-3.25795 -1.9261 -3.36137 -1.89473Q-3.4648 -1.86336 -3.5708 -1.84227Q-3.6768 -1.82119 -3.78436 -1.81059Q-3.89192 -1.8 -4 -1.8Q-4.10808 -1.8 -4.21564 -1.81059Q-4.3232 -1.82119 -4.4292 -1.84227Q-4.5352 -1.86336 -4.63863 -1.89473Q-4.74205 -1.9261 -4.8419 -1.96746Q-4.94175 -2.00882 -5.03707 -2.05977Q-5.13239 -2.11072 -5.22225 -2.17077Q-5.31212 -2.23081 -5.39566 -2.29938Q-5.47921 -2.36794 -5.55563 -2.44436Q-5.63206 -2.52079 -5.70062 -2.60433Q-5.76919 -2.68788 -5.82923 -2.77774Q-5.88928 -2.86761 -5.94023 -2.96293Q-5.99117 -3.05824 -6.03253 -3.1581Q-6.07389 -3.25795 -6.10527 -3.36137Q-6.13664 -3.4648 -6.15773 -3.5708Q-6.17881 -3.6768 -6.18941 -3.78436Q-6.2 -3.89192 -6.2 -4Q-6.2 -4.10808 -6.18941 -4.21564Q-6.17881 -4.3232 -6.15773 -4.4292Q-6.13664 -4.5352 -6.10527 -4.63863Q-6.07389 -4.74205 -6.03253 -4.8419Q-5.99117 -4.94175 -5.94023 -5.03707Q-5.88928 -5.13239 -5.82923 -5.22225Q-5.76919 -5.31212 -5.70062 -5.39566Q-5.63206 -5.47921 -5.55563 -5.55563Q-5.47921 -5.63206 -5.39566 -5.70062Q-5.31212 -5.76919 -5.22225 -5.82923Q-5.13239 -5.88928 -5.03707 -5.94023Q-4.94175 -5.99117 -4.8419 -6.03253Q-4.74205 -6.07389 -4.63863 -6.10527Q-4.5352 -6.13664 -4.4292 -6.15773Q-4.3232 -6.17881 -4.21564 -6.18941Q-4.10808 -6.2 -4 -6.2Q-3.89192 -6.2 -3.78436 -6.18941Q-3.6768 -6.17881 -3.5708 -6.15773Q-3.4648 -6.13664 -3.36137 -6.10527Q-3.25795 -6.07389 -3.1581 -6.03253Q-3.05824 -5.99117 -2.96293 -5.94023Q-2.86761 -5.88928 -2.77774 -5.82923Q-2.68788 -5.76919 -2.60433 -5.70062Q-2.52079 -5.63206 -2.44436 -5.55563Q-2.36794 -5.47921 -2.29938 -5.39566Q-2.23081 -5.31212 -2.17077 -5.22225Q-2.11072 -5.13239 -2.05977 -5.03707Q-2.00882 -4.94175 -1.96746 -4.8419Q-1.9261 -4.74205 -1.89473 -4.63863Q-1.86336 -4.5352 -1.84227 -4.4292Q-1.82119 -4.3232 -1.81059 -4.21564Q-1.8 -4.10808 -1.8 -4"/>
		<path fill="#777" transform="matrix(0.580169 0.731105 -0.731105 0.580169 77.0251 12.3806)" d="M-1.8 4Q-1.8 4.10808 -1.81059 4.21564Q-1.82119 4.3232 -1.84227 4.4292Q-1.86336 4.5352 -1.89473 4.63863Q-1.9261 4.74205 -1.96746 4.8419Q-2.00882 4.94175 -2.05977 5.03707Q-2.11072 5.13239 -2.17077 5.22225Q-2.23081 5.31212 -2.29938 5.39566Q-2.36794 5.47921 -2.44436 5.55563Q-2.52079 5.63206 -2.60433 5.70062Q-2.68788 5.76919 -2.77774 5.82923Q-2.86761 5.88928 -2.96293 5.94023Q-3.05824 5.99117 -3.1581 6.03253Q-3.25795 6.07389 -3.36137 6.10527Q-3.4648 6.13664 -3.5708 6.15773Q-3.6768 6.17881 -3.78436 6.18941Q-3.89192 6.2 -4 6.2Q-4.10808 6.2 -4.21564 6.18941Q-4.3232 6.17881 -4.4292 6.15773Q-4.5352 6.13664 -4.63863 6.10527Q-4.74205 6.07389 -4.8419 6.03253Q-4.94175 5.99117 -5.03707 5.94023Q-5.13239 5.88928 -5.22225 5.82923Q-5.31212 5.76919 -5.39566 5.70062Q-5.47921 5.63206 -5.55563 5.55563Q-5.63206 5.47921 -5.70062 5.39566Q-5.76919 5.31212 -5.82923 5.22225Q-5.88928 5.13239 -5.94023 5.03707Q-5.99117 4.94175 -6.03253 4.8419Q-6.07389 4.74205 -6.10527 4.63863Q-6.13664 4.5352 -6.15773 4.4292Q-6.17881 4.3232 -6.18941 4.21564Q-6.2 4.10808 -6.2 4Q-6.2 3.89192 -6.18941 3.78436Q-6.17881 3.6768 -6.15773 3.5708Q-6.13664 3.4648 -6.10527 3.36137Q-6.07389 3.25795 -6.03253 3.1581Q-5.99117 3.05824 -5.94023 2.96293Q-5.88928 2.86761 -5.82923 2.77775Q-5.76919 2.68788 -5.70062 2.60433Q-5.63206 2.52079 -5.55563 2.44437Q-5.47921 2.36794 -5.39566 2.29938Q-5.31212 2.23081 -5.22225 2.17077Q-5.13239 2.11072 -5.03707 2.05977Q-4.94175 2.00883 -4.8419 1.96747Q-4.74205 1.92611 -4.63863 1.89473Q-4.5352 1.86336 -4.4292 1.84227Q-4.3232 1.82119 -4.21564 1.81059Q-4.10808 1.8 -4 1.8Q-3.89192 1.8 -3.78436 1.81059Q-3.6768 1.82119 -3.5708 1.84227Q-3.4648 1.86336 -3.36137 1.89473Q-3.25795 1.92611 -3.1581 1.96746Q-3.05824 2.00883 -2.96293 2.05977Q-2.86761 2.11072 -2.77774 2.17077Q-2.68788 2.23081 -2.60433 2.29938Q-2.52079 2.36794 -2.44436 2.44437Q-2.36794 2.52079 -2.29938 2.60433Q-2.23081 2.68788 -2.17077 2.77775Q-2.11072 2.86761 -2.05977 2.96293Q-2.00882 3.05824 -1.96746 3.1581Q-1.9261 3.25795 -1.89473 3.36137Q-1.86336 3.4648 -1.84227 3.5708Q-1.82119 3.6768 -1.81059 3.78436Q-1.8 3.89192 -1.8 4"/>
		<path fill="#777" transform="matrix(0.580169 0.731105 -0.731105 0.580169 77.0251 12.3806)" d="M6.2 4Q6.2 4.10808 6.18941 4.21564Q6.17881 4.3232 6.15773 4.4292Q6.13664 4.5352 6.10527 4.63863Q6.07389 4.74205 6.03253 4.8419Q5.99117 4.94175 5.94023 5.03707Q5.88928 5.13239 5.82923 5.22225Q5.76919 5.31212 5.70062 5.39566Q5.63206 5.47921 5.55563 5.55563Q5.47921 5.63206 5.39566 5.70062Q5.31212 5.76919 5.22225 5.82923Q5.13239 5.88928 5.03707 5.94023Q4.94175 5.99117 4.8419 6.03253Q4.74205 6.07389 4.63863 6.10527Q4.5352 6.13664 4.4292 6.15773Q4.3232 6.17881 4.21564 6.18941Q4.10808 6.2 4 6.2Q3.89192 6.2 3.78436 6.18941Q3.6768 6.17881 3.5708 6.15773Q3.4648 6.13664 3.36137 6.10527Q3.25795 6.07389 3.1581 6.03253Q3.05824 5.99117 2.96293 5.94023Q2.86761 5.88928 2.77775 5.82923Q2.68788 5.76919 2.60433 5.70062Q2.52079 5.63206 2.44437 5.55563Q2.36794 5.47921 2.29938 5.39566Q2.23081 5.31212 2.17077 5.22225Q2.11072 5.13239 2.05977 5.03707Q2.00883 4.94175 1.96746 4.8419Q1.9261 4.74205 1.89473 4.63863Q1.86336 4.5352 1.84227 4.4292Q1.82119 4.3232 1.81059 4.21564Q1.8 4.10808 1.8 4Q1.8 3.89192 1.81059 3.78436Q1.82119 3.6768 1.84227 3.5708Q1.86336 3.4648 1.89473 3.36137Q1.9261 3.25795 1.96746 3.1581Q2.00883 3.05824 2.05977 2.96293Q2.11072 2.86761 2.17077 2.77775Q2.23081 2.68788 2.29938 2.60433Q2.36794 2.52079 2.44437 2.44437Q2.52079 2.36794 2.60433 2.29938Q2.68788 2.23081 2.77775 2.17077Q2.86761 2.11072 2.96293 2.05977Q3.05824 2.00883 3.1581 1.96747Q3.25795 1.92611 3.36137 1.89473Q3.4648 1.86336 3.5708 1.84227Q3.6768 1.82119 3.78436 1.81059Q3.89192 1.8 4 1.8Q4.10808 1.8 4.21564 1.81059Q4.3232 1.82119 4.4292 1.84227Q4.5352 1.86336 4.63863 1.89473Q4.74205 1.92611 4.8419 1.96746Q4.94175 2.00883 5.03707 2.05977Q5.13239 2.11072 5.22225 2.17077Q5.31212 2.23081 5.39566 2.29938Q5.47921 2.36794 5.55563 2.44437Q5.63206 2.52079 5.70062 2.60433Q5.76919 2.68788 5.82923 2.77775Q5.88928 2.86761 5.94023 2.96293Q5.99117 3.05824 6.03253 3.1581Q6.07389 3.25795 6.10527 3.36137Q6.13664 3.4648 6.15773 3.5708Q6.17881 3.6768 6.18941 3.78436Q6.2 3.89192 6.2 4"/>
		<path fill="#777" transform="matrix(0.580169 0.731105 -0.731105 0.580169 77.0251 12.3806)" d="M6.2 -4Q6.2 -3.89192 6.18941 -3.78436Q6.17881 -3.6768 6.15773 -3.5708Q6.13664 -3.4648 6.10527 -3.36137Q6.07389 -3.25795 6.03253 -3.1581Q5.99117 -3.05824 5.94023 -2.96293Q5.88928 -2.86761 5.82923 -2.77774Q5.76919 -2.68788 5.70062 -2.60433Q5.63206 -2.52079 5.55563 -2.44436Q5.47921 -2.36794 5.39566 -2.29938Q5.31212 -2.23081 5.22225 -2.17077Q5.13239 -2.11072 5.03707 -2.05977Q4.94175 -2.00882 4.8419 -1.96746Q4.74205 -1.9261 4.63863 -1.89473Q4.5352 -1.86336 4.4292 -1.84227Q4.3232 -1.82119 4.21564 -1.81059Q4.10808 -1.8 4 -1.8Q3.89192 -1.8 3.78436 -1.81059Q3.6768 -1.82119 3.5708 -1.84227Q3.4648 -1.86336 3.36137 -1.89473Q3.25795 -1.9261 3.1581 -1.96746Q3.05824 -2.00882 2.96293 -2.05977Q2.86761 -2.11072 2.77775 -2.17077Q2.68788 -2.23081 2.60433 -2.29938Q2.52079 -2.36794 2.44437 -2.44436Q2.36794 -2.52079 2.29938 -2.60433Q2.23081 -2.68788 2.17077 -2.77774Q2.11072 -2.86761 2.05977 -2.96293Q2.00883 -3.05824 1.96746 -3.1581Q1.9261 -3.25795 1.89473 -3.36137Q1.86336 -3.4648 1.84227 -3.5708Q1.82119 -3.6768 1.81059 -3.78436Q1.8 -3.89192 1.8 -4Q1.8 -4.10808 1.81059 -4.21564Q1.82119 -4.3232 1.84227 -4.4292Q1.86336 -4.5352 1.89473 -4.63863Q1.9261 -4.74205 1.96746 -4.8419Q2.00883 -4.94175 2.05977 -5.03707Q2.11072 -5.13239 2.17077 -5.22225Q2.23081 -5.31212 2.29938 -5.39566Q2.36794 -5.47921 2.44437 -5.55563Q2.52079 -5.63206 2.60433 -5.70062Q2.68788 -5.76919 2.77775 -5.82923Q2.86761 -5.88928 2.96293 -5.94023Q3.05824 -5.99117 3.1581 -6.03253Q3.25795 -6.07389 3.36137 -6.10527Q3.4648 -6.13664 3.5708 -6.15773Q3.6768 -6.17881 3.78436 -6.18941Q3.89192 -6.2 4 -6.2Q4.10808 -6.2 4.21564 -6.18941Q4.3232 -6.17881 4.4292 -6.15773Q4.5352 -6.13664 4.63863 -6.10527Q4.74205 -6.07389 4.8419 -6.03253Q4.94175 -5.99117 5.03707 -5.94023Q5.13239 -5.88928 5.22225 -5.82923Q5.31212 -5.76919 5.39566 -5.70062Q5.47921 -5.63206 5.55563 -5.55563Q5.63206 -5.47921 5.70062 -5.39566Q5.76919 -5.31212 5.82923 -5.22225Q5.88928 -5.13239 5.94023 -5.03707Q5.99117 -4.94175 6.03253 -4.8419Q6.07389 -4.74205 6.10527 -4.63863Q6.13664 -4.5352 6.15773 -4.4292Q6.17881 -4.3232 6.18941 -4.21564Q6.2 -4.10808 6.2 -4"/>
		<path fill="#A82121" transform="matrix(1.16667 0 0 1.16667 55 55)" d="M26.5 0Q26.5 0.650538 26.4681 1.30029Q26.4362 1.95005 26.3724 2.59745Q26.3086 3.24486 26.2132 3.88836Q26.1177 4.53185 25.9908 5.16989Q25.8639 5.80793 25.7058 6.43897Q25.5478 7.07002 25.3589 7.69254Q25.1701 8.31507 24.9509 8.92758Q24.7318 9.54009 24.4828 10.1411Q24.2339 10.7421 23.9557 11.3302Q23.6776 11.9183 23.3709 12.492Q23.0643 13.0657 22.7298 13.6237Q22.3954 14.1817 22.0339 14.7226Q21.6725 15.2635 21.285 15.786Q20.8975 16.3085 20.4848 16.8114Q20.0721 17.3143 19.6352 17.7963Q19.1983 18.2783 18.7383 18.7383Q18.2783 19.1983 17.7963 19.6352Q17.3143 20.0721 16.8114 20.4848Q16.3085 20.8975 15.786 21.285Q15.2635 21.6725 14.7226 22.0339Q14.1817 22.3954 13.6237 22.7298Q13.0657 23.0643 12.492 23.3709Q11.9183 23.6776 11.3302 23.9557Q10.7421 24.2339 10.1411 24.4828Q9.54009 24.7318 8.92758 24.9509Q8.31507 25.1701 7.69254 25.3589Q7.07002 25.5478 6.43897 25.7058Q5.80793 25.8639 5.16989 25.9908Q4.53185 26.1177 3.88836 26.2132Q3.24486 26.3086 2.59745 26.3724Q1.95005 26.4362 1.30029 26.4681Q0.650538 26.5 0 26.5Q-0.650538 26.5 -1.30029 26.4681Q-1.95005 26.4362 -2.59745 26.3724Q-3.24486 26.3086 -3.88836 26.2132Q-4.53185 26.1177 -5.16989 25.9908Q-5.80793 25.8639 -6.43897 25.7058Q-7.07002 25.5478 -7.69254 25.3589Q-8.31507 25.1701 -8.92758 24.9509Q-9.54009 24.7318 -10.1411 24.4828Q-10.7421 24.2339 -11.3302 23.9557Q-11.9183 23.6776 -12.492 23.3709Q-13.0657 23.0643 -13.6237 22.7298Q-14.1817 22.3954 -14.7226 22.0339Q-15.2635 21.6725 -15.786 21.285Q-16.3085 20.8975 -16.8114 20.4848Q-17.3143 20.0721 -17.7963 19.6352Q-18.2783 19.1983 -18.7383 18.7383Q-19.1983 18.2783 -19.6352 17.7963Q-20.0721 17.3143 -20.4848 16.8114Q-20.8975 16.3085 -21.285 15.786Q-21.6725 15.2635 -22.0339 14.7226Q-22.3954 14.1817 -22.7298 13.6237Q-23.0643 13.0657 -23.3709 12.492Q-23.6776 11.9183 -23.9557 11.3302Q-24.2339 10.7421 -24.4828 10.1411Q-24.7318 9.54009 -24.9509 8.92758Q-25.1701 8.31507 -25.3589 7.69254Q-25.5478 7.07002 -25.7058 6.43897Q-25.8639 5.80793 -25.9908 5.16989Q-26.1177 4.53185 -26.2132 3.88836Q-26.3086 3.24486 -26.3724 2.59745Q-26.4362 1.95005 -26.4681 1.30029Q-26.5 0.650538 -26.5 0Q-26.5 -0.650538 -26.4681 -1.30029Q-26.4362 -1.95005 -26.3724 -2.59745Q-26.3086 -3.24486 -26.2132 -3.88836Q-26.1177 -4.53185 -25.9908 -5.16989Q-25.8639 -5.80793 -25.7058 -6.43897Q-25.5478 -7.07002 -25.3589 -7.69254Q-25.1701 -8.31507 -24.9509 -8.92758Q-24.7318 -9.54009 -24.4828 -10.1411Q-24.2339 -10.7421 -23.9557 -11.3302Q-23.6776 -11.9183 -23.3709 -12.492Q-23.0643 -13.0657 -22.7298 -13.6237Q-22.3954 -14.1817 -22.0339 -14.7226Q-21.6725 -15.2635 -21.285 -15.786Q-20.8975 -16.3085 -20.4848 -16.8114Q-20.0721 -17.3143 -19.6352 -17.7963Q-19.1983 -18.2783 -18.7383 -18.7383Q-18.2783 -19.1983 -17.7963 -19.6352Q-17.3143 -20.0721 -16.8114 -20.4848Q-16.3085 -20.8975 -15.786 -21.285Q-15.2635 -21.6725 -14.7226 -22.0339Q-14.1817 -22.3954 -13.6237 -22.7298Q-13.0657 -23.0643 -12.492 -23.3709Q-11.9183 -23.6776 -11.3302 -23.9557Q-10.7421 -24.2339 -10.1411 -24.4828Q-9.54009 -24.7318 -8.92758 -24.9509Q-8.31507 -25.1701 -7.69254 -25.3589Q-7.07002 -25.5478 -6.43897 -25.7058Q-5.80793 -25.8639 -5.16989 -25.9908Q-4.53185 -26.1177 -3.88836 -26.2132Q-3.24486 -26.3086 -2.59745 -26.3724Q-1.95005 -26.4362 -1.30029 -26.4681Q-0.650538 -26.5 0 -26.5Q0.650538 -26.5 1.30029 -26.4681Q1.95005 -26.4362 2.59745 -26.3724Q3.24486 -26.3086 3.88836 -26.2132Q4.53185 -26.1177 5.16989 -25.9908Q5.80793 -25.8639 6.43897 -25.7058Q7.07002 -25.5478 7.69254 -25.3589Q8.31507 -25.1701 8.92758 -24.9509Q9.54009 -24.7318 10.1411 -24.4828Q10.7421 -24.2339 11.3302 -23.9557Q11.9183 -23.6776 12.492 -23.3709Q13.0657 -23.0643 13.6237 -22.7298Q14.1817 -22.3954 14.7226 -22.0339Q15.2635 -21.6725 15.786 -21.285Q16.3085 -20.8975 16.8114 -20.4848Q17.3143 -20.0721 17.7963 -19.6352Q18.2783 -19.1983 18.7383 -18.7383Q19.1983 -18.2783 19.6352 -17.7963Q20.0721 -17.3143 20.4848 -16.8114Q20.8975 -16.3085 21.285 -15.786Q21.6725 -15.2635 22.0339 -14.7226Q22.3954 -14.1817 22.7298 -13.6237Q23.0643 -13.0657 23.3709 -12.492Q23.6776 -11.9183 23.9557 -11.3302Q24.2339 -10.7421 24.4828 -10.1411Q24.7318 -9.54009 24.9509 -8.92758Q25.1701 -8.31507 25.3589 -7.69254Q25.5478 -7.07002 25.7058 -6.43897Q25.8639 -5.80793 25.9908 -5.16989Q26.1177 -4.53185 26.2132 -3.88836Q26.3086 -3.24486 26.3724 -2.59745Q26.4362 -1.95005 26.4681 -1.30029Q26.5 -0.650538 26.5 0"/>
		<path fill="#CF2929" transform="matrix(1.16667 0 0 1.16667 55 55)" d="M23.5 0Q23.5 0.576893 23.4717 1.15309Q23.4434 1.72929 23.3868 2.3034Q23.3303 2.87752 23.2456 3.44817Q23.161 4.01881 23.0485 4.58462Q22.9359 5.15043 22.7957 5.71003Q22.6556 6.26964 22.4881 6.82169Q22.3206 7.37374 22.1263 7.91691Q21.9319 8.46008 21.7112 8.99306Q21.4904 9.52604 21.2437 10.0475Q20.9971 10.569 20.7251 11.0778Q20.4532 11.5866 20.1566 12.0814Q19.86 12.5762 19.5395 13.0559Q19.219 13.5356 18.8754 13.9989Q18.5317 14.4623 18.1657 14.9082Q17.7998 15.3542 17.4123 15.7816Q17.0249 16.2091 16.617 16.617Q16.2091 17.0249 15.7816 17.4123Q15.3542 17.7998 14.9082 18.1657Q14.4623 18.5317 13.9989 18.8754Q13.5356 19.219 13.0559 19.5395Q12.5762 19.86 12.0814 20.1566Q11.5866 20.4532 11.0778 20.7251Q10.569 20.9971 10.0475 21.2437Q9.52604 21.4904 8.99306 21.7112Q8.46008 21.9319 7.91691 22.1263Q7.37374 22.3206 6.82169 22.4881Q6.26964 22.6556 5.71003 22.7957Q5.15043 22.9359 4.58462 23.0485Q4.01881 23.161 3.44817 23.2456Q2.87752 23.3303 2.3034 23.3868Q1.72929 23.4434 1.15309 23.4717Q0.576893 23.5 0 23.5Q-0.576893 23.5 -1.15309 23.4717Q-1.72929 23.4434 -2.3034 23.3868Q-2.87752 23.3303 -3.44817 23.2456Q-4.01881 23.161 -4.58462 23.0485Q-5.15043 22.9359 -5.71003 22.7957Q-6.26964 22.6556 -6.82169 22.4881Q-7.37374 22.3206 -7.91691 22.1263Q-8.46008 21.9319 -8.99306 21.7112Q-9.52604 21.4904 -10.0475 21.2437Q-10.569 20.9971 -11.0778 20.7251Q-11.5866 20.4532 -12.0814 20.1566Q-12.5762 19.86 -13.0559 19.5395Q-13.5356 19.219 -13.9989 18.8754Q-14.4623 18.5317 -14.9082 18.1657Q-15.3542 17.7998 -15.7816 17.4123Q-16.2091 17.0249 -16.617 16.617Q-17.0249 16.2091 -17.4123 15.7816Q-17.7998 15.3542 -18.1657 14.9082Q-18.5317 14.4623 -18.8754 13.9989Q-19.219 13.5356 -19.5395 13.0559Q-19.86 12.5762 -20.1566 12.0814Q-20.4532 11.5866 -20.7251 11.0778Q-20.9971 10.569 -21.2437 10.0475Q-21.4904 9.52604 -21.7112 8.99306Q-21.9319 8.46008 -22.1263 7.91691Q-22.3206 7.37374 -22.4881 6.82169Q-22.6556 6.26964 -22.7957 5.71003Q-22.9359 5.15043 -23.0485 4.58462Q-23.161 4.01881 -23.2456 3.44817Q-23.3303 2.87752 -23.3868 2.3034Q-23.4434 1.72929 -23.4717 1.15309Q-23.5 0.576893 -23.5 0Q-23.5 -0.576893 -23.4717 -1.15309Q-23.4434 -1.72929 -23.3868 -2.3034Q-23.3303 -2.87752 -23.2456 -3.44817Q-23.161 -4.01881 -23.0485 -4.58462Q-22.9359 -5.15043 -22.7957 -5.71003Q-22.6556 -6.26964 -22.4881 -6.82169Q-22.3206 -7.37374 -22.1263 -7.91691Q-21.9319 -8.46008 -21.7112 -8.99306Q-21.4904 -9.52604 -21.2437 -10.0475Q-20.9971 -10.569 -20.7251 -11.0778Q-20.4532 -11.5866 -20.1566 -12.0814Q-19.86 -12.5762 -19.5395 -13.0559Q-19.219 -13.5356 -18.8754 -13.9989Q-18.5317 -14.4623 -18.1657 -14.9082Q-17.7998 -15.3542 -17.4123 -15.7816Q-17.0249 -16.2091 -16.617 -16.617Q-16.2091 -17.0249 -15.7816 -17.4123Q-15.3542 -17.7998 -14.9082 -18.1657Q-14.4623 -18.5317 -13.9989 -18.8754Q-13.5356 -19.219 -13.0559 -19.5395Q-12.5762 -19.86 -12.0814 -20.1566Q-11.5866 -20.4532 -11.0778 -20.7251Q-10.569 -20.9971 -10.0475 -21.2437Q-9.52604 -21.4904 -8.99306 -21.7112Q-8.46008 -21.9319 -7.91691 -22.1263Q-7.37374 -22.3206 -6.82169 -22.4881Q-6.26964 -22.6556 -5.71003 -22.7957Q-5.15043 -22.9359 -4.58462 -23.0485Q-4.01881 -23.161 -3.44817 -23.2456Q-2.87752 -23.3303 -2.3034 -23.3868Q-1.72929 -23.4434 -1.15309 -23.4717Q-0.576893 -23.5 0 -23.5Q0.576893 -23.5 1.15309 -23.4717Q1.72929 -23.4434 2.3034 -23.3868Q2.87752 -23.3303 3.44817 -23.2456Q4.01881 -23.161 4.58462 -23.0485Q5.15043 -22.9359 5.71003 -22.7957Q6.26964 -22.6556 6.82169 -22.4881Q7.37374 -22.3206 7.91691 -22.1263Q8.46008 -21.9319 8.99306 -21.7112Q9.52604 -21.4904 10.0475 -21.2437Q10.569 -20.9971 11.0778 -20.7251Q11.5866 -20.4532 12.0814 -20.1566Q12.5762 -19.86 13.0559 -19.5395Q13.5356 -19.219 13.9989 -18.8754Q14.4623 -18.5317 14.9082 -18.1657Q15.3542 -17.7998 15.7816 -17.4123Q16.2091 -17.0249 16.617 -16.617Q17.0249 -16.2091 17.4123 -15.7816Q17.7998 -15.3542 18.1657 -14.9082Q18.5317 -14.4623 18.8754 -13.9989Q19.219 -13.5356 19.5395 -13.0559Q19.86 -12.5762 20.1566 -12.0814Q20.4532 -11.5866 20.7251 -11.0778Q20.9971 -10.569 21.2437 -10.0475Q21.4904 -9.52604 21.7112 -8.99306Q21.9319 -8.46008 22.1263 -7.91691Q22.3206 -7.37374 22.4881 -6.82169Q22.6556 -6.26964 22.7957 -5.71003Q22.9359 -5.15043 23.0485 -4.58462Q23.161 -4.01881 23.2456 -3.44817Q23.3303 -2.87752 23.3868 -2.3034Q23.4434 -1.72929 23.4717 -1.15309Q23.5 -0.576893 23.5 0"/>
		<clipPath id="cl_4">
			<path d="M38.6667 38.6667L55 49.1667L71.3333 38.6667L71.3333 62L38.6667 62L38.6667 38.6667Z"/>
		</clipPath>
		<g clip-path="url(#cl_4)">
			<path fill="#111" transform="matrix(1.75 0 0 2.33333 46.8333 49.1667)" d="M3 0Q3 0.147381 2.98555 0.294051Q2.97111 0.440722 2.94236 0.585271Q2.9136 0.72982 2.87082 0.870854Q2.82804 1.01189 2.77164 1.14805Q2.71524 1.28421 2.64576 1.41419Q2.57629 1.54417 2.49441 1.66671Q2.41253 1.78925 2.31903 1.90318Q2.22553 2.01711 2.12132 2.12132Q2.01711 2.22553 1.90318 2.31903Q1.78925 2.41253 1.66671 2.49441Q1.54417 2.57629 1.41419 2.64576Q1.28421 2.71524 1.14805 2.77164Q1.01189 2.82804 0.870854 2.87082Q0.72982 2.9136 0.585271 2.94236Q0.440722 2.97111 0.294051 2.98555Q0.147381 3 0 3Q-0.147381 3 -0.294051 2.98555Q-0.440722 2.97111 -0.585271 2.94236Q-0.72982 2.9136 -0.870854 2.87082Q-1.01189 2.82804 -1.14805 2.77164Q-1.28421 2.71524 -1.41419 2.64576Q-1.54417 2.57629 -1.66671 2.49441Q-1.78925 2.41253 -1.90318 2.31903Q-2.01711 2.22553 -2.12132 2.12132Q-2.22553 2.01711 -2.31903 1.90318Q-2.41253 1.78925 -2.49441 1.66671Q-2.57629 1.54417 -2.64576 1.41419Q-2.71524 1.28421 -2.77164 1.14805Q-2.82804 1.01189 -2.87082 0.870854Q-2.9136 0.72982 -2.94236 0.585271Q-2.97111 0.440722 -2.98555 0.294051Q-3 0.147381 -3 0Q-3 -0.147381 -2.98555 -0.294051Q-2.97111 -0.440722 -2.94236 -0.585271Q-2.9136 -0.72982 -2.87082 -0.870854Q-2.82804 -1.01189 -2.77164 -1.14805Q-2.71524 -1.28421 -2.64576 -1.41419Q-2.57629 -1.54417 -2.49441 -1.66671Q-2.41253 -1.78925 -2.31903 -1.90318Q-2.22553 -2.01711 -2.12132 -2.12132Q-2.01711 -2.22553 -1.90318 -2.31903Q-1.78925 -2.41253 -1.66671 -2.49441Q-1.54417 -2.57629 -1.41419 -2.64576Q-1.28421 -2.71524 -1.14805 -2.77164Q-1.01189 -2.82804 -0.870854 -2.87082Q-0.72982 -2.9136 -0.585271 -2.94236Q-0.440722 -2.97111 -0.294051 -2.98555Q-0.147381 -3 0 -3Q0.147381 -3 0.294051 -2.98555Q0.440722 -2.97111 0.585271 -2.94236Q0.72982 -2.9136 0.870854 -2.87082Q1.01189 -2.82804 1.14805 -2.77164Q1.28421 -2.71524 1.41419 -2.64576Q1.54417 -2.57629 1.66671 -2.49441Q1.78925 -2.41253 1.90318 -2.31903Q2.01711 -2.22553 2.12132 -2.12132Q2.22553 -2.01711 2.31903 -1.90318Q2.41253 -1.78925 2.49441 -1.66671Q2.57629 -1.54417 2.64576 -1.41419Q2.71524 -1.28421 2.77164 -1.14805Q2.82804 -1.01189 2.87082 -0.870854Q2.9136 -0.72982 2.94236 -0.585271Q2.97111 -0.440722 2.98555 -0.294051Q3 -0.147381 3 0"/>
			<clipPath id="cl_5">
				<path d="M52.0833 49.1667Q52.0833 49.3385 52.077 49.5101Q52.0707 49.6818 52.0581 49.8528Q52.0454 50.0238 52.0265 50.1938Q52.0076 50.3638 51.9825 50.5323Q51.9573 50.7008 51.926 50.8675Q51.8947 51.0342 51.8573 51.1987Q51.8199 51.3631 51.7764 51.5249Q51.733 51.6867 51.6837 51.8454Q51.6344 52.0042 51.5793 52.1595Q51.5242 52.3149 51.4634 52.4664Q51.4027 52.618 51.3364 52.7654Q51.2701 52.9128 51.1985 53.0557Q51.1269 53.1985 51.0502 53.3366Q50.9734 53.4746 50.8916 53.6074Q50.8099 53.7402 50.7233 53.8676Q50.6368 53.9949 50.5456 54.1164Q50.4545 54.2379 50.359 54.3533Q50.2635 54.4687 50.1639 54.5777Q50.0643 54.6868 49.9608 54.7891Q49.8572 54.8915 49.7501 54.9869Q49.6429 55.0824 49.5324 55.1708Q49.4218 55.2591 49.3082 55.3401Q49.1945 55.4211 49.078 55.4946Q48.9615 55.5681 48.8424 55.6338Q48.7234 55.6996 48.602 55.7575Q48.4807 55.8154 48.3573 55.8652Q48.234 55.9151 48.109 55.9569Q47.984 55.9986 47.8576 56.0322Q47.7312 56.0657 47.6037 56.0909Q47.4762 56.1161 47.3479 56.133Q47.2197 56.1498 47.0909 56.1582Q46.9622 56.1667 46.8333 56.1667Q46.7045 56.1667 46.5757 56.1582Q46.447 56.1498 46.3187 56.133Q46.1905 56.1161 46.063 56.0909Q45.9355 56.0657 45.8091 56.0322Q45.6827 55.9986 45.5577 55.9569Q45.4327 55.9151 45.3093 55.8652Q45.186 55.8154 45.0647 55.7575Q44.9433 55.6996 44.8242 55.6338Q44.7052 55.5681 44.5887 55.4946Q44.4722 55.4211 44.3585 55.3401Q44.2448 55.2591 44.1343 55.1708Q44.0237 55.0824 43.9166 54.9869Q43.8094 54.8915 43.7059 54.7891Q43.6024 54.6868 43.5028 54.5777Q43.4031 54.4687 43.3076 54.3533Q43.2122 54.2379 43.121 54.1164Q43.0299 53.9949 42.9433 53.8676Q42.8568 53.7402 42.775 53.6074Q42.6933 53.4746 42.6165 53.3366Q42.5397 53.1985 42.4681 53.0557Q42.3965 52.9128 42.3303 52.7654Q42.264 52.618 42.2032 52.4664Q42.1425 52.3149 42.0874 52.1595Q42.0323 52.0042 41.983 51.8454Q41.9336 51.6867 41.8902 51.5249Q41.8468 51.3631 41.8094 51.1987Q41.772 51.0342 41.7407 50.8675Q41.7094 50.7008 41.6842 50.5323Q41.6591 50.3638 41.6402 50.1938Q41.6212 50.0238 41.6086 49.8528Q41.596 49.6818 41.5897 49.5101Q41.5833 49.3385 41.5833 49.1667Q41.5833 48.9948 41.5897 48.8232Q41.596 48.6516 41.6086 48.4805Q41.6212 48.3095 41.6402 48.1396Q41.6591 47.9696 41.6842 47.801Q41.7094 47.6325 41.7407 47.4658Q41.772 47.2991 41.8094 47.1347Q41.8468 46.9702 41.8902 46.8084Q41.9336 46.6466 41.983 46.4879Q42.0323 46.3291 42.0874 46.1738Q42.1425 46.0184 42.2032 45.8669Q42.264 45.7153 42.3303 45.5679Q42.3965 45.4206 42.4681 45.2777Q42.5397 45.1348 42.6165 44.9968Q42.6933 44.8587 42.775 44.7259Q42.8568 44.5931 42.9433 44.4658Q43.0299 44.3384 43.121 44.2169Q43.2122 44.0954 43.3076 43.98Q43.4031 43.8646 43.5028 43.7556Q43.6024 43.6466 43.7059 43.5442Q43.8094 43.4418 43.9166 43.3464Q44.0237 43.2509 44.1343 43.1626Q44.2448 43.0742 44.3585 42.9932Q44.4722 42.9122 44.5887 42.8387Q44.7052 42.7653 44.8242 42.6995Q44.9433 42.6337 45.0647 42.5759Q45.186 42.518 45.3093 42.4681Q45.4327 42.4182 45.5577 42.3764Q45.6827 42.3347 45.8091 42.3012Q45.9355 42.2676 46.063 42.2424Q46.1905 42.2172 46.3187 42.2004Q46.447 42.1835 46.5757 42.1751Q46.7045 42.1667 46.8333 42.1667Q46.9622 42.1667 47.0909 42.1751Q47.2197 42.1835 47.3479 42.2004Q47.4762 42.2172 47.6037 42.2424Q47.7312 42.2676 47.8576 42.3012Q47.984 42.3347 48.109 42.3764Q48.234 42.4182 48.3573 42.4681Q48.4807 42.518 48.602 42.5759Q48.7234 42.6337 48.8424 42.6995Q48.9615 42.7653 49.078 42.8387Q49.1945 42.9122 49.3082 42.9932Q49.4218 43.0742 49.5324 43.1626Q49.6429 43.2509 49.7501 43.3464Q49.8572 43.4418 49.9608 43.5442Q50.0643 43.6466 50.1639 43.7556Q50.2635 43.8646 50.359 43.98Q50.4545 44.0954 50.5456 44.2169Q50.6368 44.3384 50.7233 44.4658Q50.8099 44.5931 50.8916 44.7259Q50.9734 44.8587 51.0502 44.9968Q51.1269 45.1348 51.1985 45.2777Q51.2701 45.4206 51.3364 45.5679Q51.4027 45.7153 51.4634 45.8669Q51.5242 46.0184 51.5793 46.1738Q51.6344 46.3291 51.6837 46.4879Q51.733 46.6466 51.7764 46.8084Q51.8199 46.9702 51.8573 47.1347Q51.8947 47.2991 51.926 47.4658Q51.9573 47.6325 51.9825 47.801Q52.0076 47.9696 52.0265 48.1396Q52.0454 48.3095 52.0581 48.4806Q52.0707 48.6516 52.077 48.8232Q52.0833 48.9948 52.0833 49.1667"/>
			</clipPath>
			<g clip-path="url(#cl_5)">
				<path fill="#EEE" transform="matrix(1.75 0 0 1.16667 46.8333 49.1667)" d="M4.9806 3.36588Q4.9806 3.55748 4.96182 3.74815Q4.94305 3.93882 4.90567 4.12674Q4.86829 4.31465 4.81267 4.49799Q4.75705 4.68134 4.68373 4.85835Q4.61041 5.03536 4.5201 5.20433Q4.42978 5.3733 4.32333 5.53261Q4.21689 5.69191 4.09534 5.84002Q3.9738 5.98812 3.83832 6.1236Q3.70284 6.25908 3.55474 6.38062Q3.40663 6.50217 3.24733 6.60861Q3.08802 6.71506 2.91905 6.80538Q2.75008 6.89569 2.57307 6.96901Q2.39606 7.04233 2.21271 7.09795Q2.02937 7.15357 1.84146 7.19095Q1.65354 7.22832 1.46287 7.2471Q1.2722 7.26588 1.0806 7.26588Q0.88901 7.26588 0.698338 7.2471Q0.507666 7.22832 0.319752 7.19095Q0.131839 7.15357 -0.0515057 7.09795Q-0.23485 7.04233 -0.411861 6.96901Q-0.588871 6.89569 -0.757843 6.80538Q-0.926814 6.71506 -1.08612 6.60861Q-1.24542 6.50217 -1.39353 6.38062Q-1.54163 6.25908 -1.67711 6.1236Q-1.81259 5.98812 -1.93414 5.84002Q-2.05568 5.69191 -2.16213 5.53261Q-2.26857 5.3733 -2.35889 5.20433Q-2.44921 5.03536 -2.52253 4.85835Q-2.59585 4.68134 -2.65146 4.49799Q-2.70708 4.31465 -2.74446 4.12674Q-2.78184 3.93882 -2.80062 3.74815Q-2.8194 3.55748 -2.8194 3.36588Q-2.8194 3.17429 -2.80062 2.98362Q-2.78184 2.79295 -2.74446 2.60503Q-2.70708 2.41712 -2.65146 2.23377Q-2.59585 2.05043 -2.52253 1.87342Q-2.44921 1.69641 -2.35889 1.52744Q-2.26857 1.35847 -2.16213 1.19916Q-2.05568 1.03985 -1.93414 0.89175Q-1.81259 0.743646 -1.67711 0.608168Q-1.54163 0.47269 -1.39353 0.351143Q-1.24542 0.229597 -1.08612 0.123153Q-0.926814 0.0167083 -0.757843 -0.0736088Q-0.588871 -0.163926 -0.411861 -0.237246Q-0.23485 -0.310566 -0.0515057 -0.366183Q0.131839 -0.4218 0.319752 -0.459178Q0.507666 -0.496557 0.698338 -0.515336Q0.88901 -0.534116 1.0806 -0.534116Q1.2722 -0.534116 1.46287 -0.515336Q1.65354 -0.496557 1.84146 -0.459178Q2.02937 -0.4218 2.21271 -0.366183Q2.39606 -0.310566 2.57307 -0.237246Q2.75008 -0.163926 2.91905 -0.0736088Q3.08802 0.0167083 3.24733 0.123153Q3.40663 0.229597 3.55474 0.351143Q3.70284 0.47269 3.83832 0.608168Q3.9738 0.743646 4.09534 0.89175Q4.21689 1.03986 4.32334 1.19916Q4.42978 1.35847 4.5201 1.52744Q4.61041 1.69641 4.68373 1.87342Q4.75705 2.05043 4.81267 2.23377Q4.86829 2.41712 4.90567 2.60503Q4.94305 2.79294 4.96182 2.98362Q4.9806 3.17429 4.9806 3.36588"/>
			</g>
			<path fill="none" stroke="#111" stroke-width="0.5" stroke-linecap="round" stroke-linejoin="round" transform="matrix(1.75 0 0 2.33333 46.8333 49.1667)" d="M3 0Q3 0.147381 2.98555 0.294051Q2.97111 0.440722 2.94236 0.585271Q2.9136 0.72982 2.87082 0.870854Q2.82804 1.01189 2.77164 1.14805Q2.71524 1.28421 2.64576 1.41419Q2.57629 1.54417 2.49441 1.66671Q2.41253 1.78925 2.31903 1.90318Q2.22553 2.01711 2.12132 2.12132Q2.01711 2.22553 1.90318 2.31903Q1.78925 2.41253 1.66671 2.49441Q1.54417 2.57629 1.41419 2.64576Q1.28421 2.71524 1.14805 2.77164Q1.01189 2.82804 0.870854 2.87082Q0.72982 2.9136 0.585271 2.94236Q0.440722 2.97111 0.294051 2.98555Q0.147381 3 0 3Q-0.147381 3 -0.294051 2.98555Q-0.440722 2.97111 -0.585271 2.94236Q-0.72982 2.9136 -0.870854 2.87082Q-1.01189 2.82804 -1.14805 2.77164Q-1.28421 2.71524 -1.41419 2.64576Q-1.54417 2.57629 -1.66671 2.49441Q-1.78925 2.41253 -1.90318 2.31903Q-2.01711 2.22553 -2.12132 2.12132Q-2.22553 2.01711 -2.31903 1.90318Q-2.41253 1.78925 -2.49441 1.66671Q-2.57629 1.54417 -2.64576 1.41419Q-2.71524 1.28421 -2.77164 1.14805Q-2.82804 1.01189 -2.87082 0.870854Q-2.9136 0.72982 -2.94236 0.585271Q-2.97111 0.440722 -2.98555 0.294051Q-3 0.147381 -3 0Q-3 -0.147381 -2.98555 -0.294051Q-2.97111 -0.440722 -2.94236 -0.585271Q-2.9136 -0.72982 -2.87082 -0.870854Q-2.82804 -1.01189 -2.77164 -1.14805Q-2.71524 -1.28421 -2.64576 -1.41419Q-2.57629 -1.54417 -2.49441 -1.66671Q-2.41253 -1.78925 -2.31903 -1.90318Q-2.22553 -2.01711 -2.12132 -2.12132Q-2.01711 -2.22553 -1.90318 -2.31903Q-1.78925 -2.41253 -1.66671 -2.49441Q-1.54417 -2.57629 -1.41419 -2.64576Q-1.28421 -2.71524 -1.14805 -2.77164Q-1.01189 -2.82804 -0.870854 -2.87082Q-0.72982 -2.9136 -0.585271 -2.94236Q-0.440722 -2.97111 -0.294051 -2.98555Q-0.147381 -3 0 -3Q0.147381 -3 0.294051 -2.98555Q0.440722 -2.97111 0.585271 -2.94236Q0.72982 -2.9136 0.870854 -2.87082Q1.01189 -2.82804 1.14805 -2.77164Q1.28421 -2.71524 1.41419 -2.64576Q1.54417 -2.57629 1.66671 -2.49441Q1.78925 -2.41253 1.90318 -2.31903Q2.01711 -2.22553 2.12132 -2.12132Q2.22553 -2.01711 2.31903 -1.90318Q2.41253 -1.78925 2.49441 -1.66671Q2.57629 -1.54417 2.64576 -1.41419Q2.71524 -1.28421 2.77164 -1.14805Q2.82804 -1.01189 2.87082 -0.870854Q2.9136 -0.72982 2.94236 -0.585271Q2.97111 -0.440722 2.98555 -0.294051Q3 -0.147381 3 0"/>
			<path fill="#111" transform="matrix(1.75 0 0 2.33333 63.1667 49.1667)" d="M3 0Q3 0.147381 2.98555 0.294051Q2.97111 0.440722 2.94236 0.585271Q2.9136 0.72982 2.87082 0.870854Q2.82804 1.01189 2.77164 1.14805Q2.71524 1.28421 2.64576 1.41419Q2.57629 1.54417 2.49441 1.66671Q2.41253 1.78925 2.31903 1.90318Q2.22553 2.01711 2.12132 2.12132Q2.01711 2.22553 1.90318 2.31903Q1.78925 2.41253 1.66671 2.49441Q1.54417 2.57629 1.41419 2.64576Q1.28421 2.71524 1.14805 2.77164Q1.01189 2.82804 0.870854 2.87082Q0.72982 2.9136 0.585271 2.94236Q0.440722 2.97111 0.294051 2.98555Q0.147381 3 0 3Q-0.147381 3 -0.294051 2.98555Q-0.440722 2.97111 -0.585271 2.94236Q-0.72982 2.9136 -0.870854 2.87082Q-1.01189 2.82804 -1.14805 2.77164Q-1.28421 2.71524 -1.41419 2.64576Q-1.54417 2.57629 -1.66671 2.49441Q-1.78925 2.41253 -1.90318 2.31903Q-2.01711 2.22553 -2.12132 2.12132Q-2.22553 2.01711 -2.31903 1.90318Q-2.41253 1.78925 -2.49441 1.66671Q-2.57629 1.54417 -2.64576 1.41419Q-2.71524 1.28421 -2.77164 1.14805Q-2.82804 1.01189 -2.87082 0.870854Q-2.9136 0.72982 -2.94236 0.585271Q-2.97111 0.440722 -2.98555 0.294051Q-3 0.147381 -3 0Q-3 -0.147381 -2.98555 -0.294051Q-2.97111 -0.440722 -2.94236 -0.585271Q-2.9136 -0.72982 -2.87082 -0.870854Q-2.82804 -1.01189 -2.77164 -1.14805Q-2.71524 -1.28421 -2.64576 -1.41419Q-2.57629 -1.54417 -2.49441 -1.66671Q-2.41253 -1.78925 -2.31903 -1.90318Q-2.22553 -2.01711 -2.12132 -2.12132Q-2.01711 -2.22553 -1.90318 -2.31903Q-1.78925 -2.41253 -1.66671 -2.49441Q-1.54417 -2.57629 -1.41419 -2.64576Q-1.28421 -2.71524 -1.14805 -2.77164Q-1.01189 -2.82804 -0.870854 -2.87082Q-0.72982 -2.9136 -0.585271 -2.94236Q-0.440722 -2.97111 -0.294051 -2.98555Q-0.147381 -3 0 -3Q0.147381 -3 0.294051 -2.98555Q0.440722 -2.97111 0.585271 -2.94236Q0.72982 -2.9136 0.870854 -2.87082Q1.01189 -2.82804 1.14805 -2.77164Q1.28421 -2.71524 1.41419 -2.64576Q1.54417 -2.57629 1.66671 -2.49441Q1.78925 -2.41253 1.90318 -2.31903Q2.01711 -2.22553 2.12132 -2.12132Q2.22553 -2.01711 2.31903 -1.90318Q2.41253 -1.78925 2.49441 -1.66671Q2.57629 -1.54417 2.64576 -1.41419Q2.71524 -1.28421 2.77164 -1.14805Q2.82804 -1.01189 2.87082 -0.870854Q2.9136 -0.72982 2.94236 -0.585271Q2.97111 -0.440722 2.98555 -0.294051Q3 -0.147381 3 0"/>
			<clipPath id="cl_6">
				<path d="M68.4167 49.1667Q68.4167 49.3385 68.4103 49.5101Q68.404 49.6818 68.3914 49.8528Q68.3788 50.0238 68.3598 50.1938Q68.3409 50.3638 68.3158 50.5323Q68.2906 50.7008 68.2593 50.8675Q68.228 51.0342 68.1906 51.1987Q68.1532 51.3631 68.1098 51.5249Q68.0663 51.6867 68.017 51.8454Q67.9677 52.0042 67.9126 52.1595Q67.8575 52.3149 67.7968 52.4664Q67.736 52.618 67.6697 52.7654Q67.6035 52.9128 67.5319 53.0557Q67.4603 53.1985 67.3835 53.3366Q67.3067 53.4746 67.225 53.6074Q67.1432 53.7402 67.0567 53.8676Q66.9701 53.9949 66.879 54.1164Q66.7878 54.2379 66.6923 54.3533Q66.5968 54.4687 66.4972 54.5777Q66.3976 54.6868 66.2941 54.7891Q66.1906 54.8915 66.0834 54.9869Q65.9762 55.0824 65.8657 55.1708Q65.7551 55.2591 65.6415 55.3401Q65.5278 55.4211 65.4113 55.4946Q65.2948 55.5681 65.1757 55.6338Q65.0567 55.6996 64.9353 55.7575Q64.814 55.8154 64.6907 55.8652Q64.5673 55.9151 64.4423 55.9569Q64.3173 55.9986 64.1909 56.0322Q64.0645 56.0657 63.937 56.0909Q63.8095 56.1161 63.6813 56.133Q63.553 56.1498 63.4243 56.1582Q63.2955 56.1667 63.1667 56.1667Q63.0378 56.1667 62.9091 56.1582Q62.7803 56.1498 62.6521 56.133Q62.5238 56.1161 62.3963 56.0909Q62.2688 56.0657 62.1424 56.0322Q62.016 55.9986 61.891 55.9569Q61.766 55.9151 61.6427 55.8652Q61.5193 55.8154 61.398 55.7575Q61.2766 55.6996 61.1576 55.6338Q61.0385 55.5681 60.922 55.4946Q60.8055 55.4211 60.6918 55.3401Q60.5782 55.2591 60.4676 55.1708Q60.3571 55.0824 60.2499 54.9869Q60.1428 54.8915 60.0392 54.7891Q59.9357 54.6868 59.8361 54.5777Q59.7365 54.4687 59.641 54.3533Q59.5455 54.2379 59.4543 54.1164Q59.3632 53.9949 59.2767 53.8676Q59.1901 53.7402 59.1084 53.6074Q59.0266 53.4746 58.9498 53.3366Q58.873 53.1985 58.8014 53.0557Q58.7298 52.9128 58.6636 52.7654Q58.5973 52.618 58.5366 52.4664Q58.4758 52.3149 58.4207 52.1595Q58.3656 52.0042 58.3163 51.8454Q58.267 51.6867 58.2236 51.5249Q58.1801 51.3631 58.1427 51.1987Q58.1053 51.0342 58.074 50.8675Q58.0427 50.7008 58.0175 50.5323Q57.9924 50.3638 57.9735 50.1938Q57.9546 50.0238 57.9419 49.8528Q57.9293 49.6818 57.923 49.5101Q57.9167 49.3385 57.9167 49.1667Q57.9167 48.9948 57.923 48.8232Q57.9293 48.6516 57.9419 48.4805Q57.9546 48.3095 57.9735 48.1396Q57.9924 47.9696 58.0175 47.801Q58.0427 47.6325 58.074 47.4658Q58.1053 47.2991 58.1427 47.1347Q58.1801 46.9702 58.2236 46.8084Q58.267 46.6466 58.3163 46.4879Q58.3656 46.3291 58.4207 46.1738Q58.4758 46.0184 58.5366 45.8669Q58.5973 45.7153 58.6636 45.5679Q58.7298 45.4206 58.8014 45.2777Q58.873 45.1348 58.9498 44.9968Q59.0266 44.8587 59.1084 44.7259Q59.1901 44.5931 59.2767 44.4658Q59.3632 44.3384 59.4543 44.2169Q59.5455 44.0954 59.641 43.98Q59.7365 43.8646 59.8361 43.7556Q59.9357 43.6466 60.0392 43.5442Q60.1428 43.4418 60.2499 43.3464Q60.3571 43.2509 60.4676 43.1626Q60.5782 43.0742 60.6918 42.9932Q60.8055 42.9122 60.922 42.8387Q61.0385 42.7653 61.1576 42.6995Q61.2766 42.6337 61.398 42.5759Q61.5193 42.518 61.6427 42.4681Q61.766 42.4182 61.891 42.3764Q62.016 42.3347 62.1424 42.3012Q62.2688 42.2676 62.3963 42.2424Q62.5238 42.2172 62.6521 42.2004Q62.7803 42.1835 62.9091 42.1751Q63.0378 42.1667 63.1667 42.1667Q63.2955 42.1667 63.4243 42.1751Q63.553 42.1835 63.6813 42.2004Q63.8095 42.2172 63.937 42.2424Q64.0645 42.2676 64.1909 42.3012Q64.3173 42.3347 64.4423 42.3764Q64.5673 42.4182 64.6907 42.4681Q64.814 42.518 64.9353 42.5759Q65.0567 42.6337 65.1758 42.6995Q65.2948 42.7653 65.4113 42.8387Q65.5278 42.9122 65.6415 42.9932Q65.7552 43.0742 65.8657 43.1626Q65.9762 43.2509 66.0834 43.3464Q66.1906 43.4418 66.2941 43.5442Q66.3976 43.6466 66.4972 43.7556Q66.5968 43.8646 66.6923 43.98Q66.7878 44.0954 66.879 44.2169Q66.9701 44.3384 67.0567 44.4658Q67.1432 44.5931 67.225 44.7259Q67.3067 44.8587 67.3835 44.9968Q67.4603 45.1348 67.5319 45.2777Q67.6035 45.4206 67.6697 45.5679Q67.736 45.7153 67.7968 45.8669Q67.8575 46.0184 67.9126 46.1738Q67.9677 46.3291 68.017 46.4879Q68.0663 46.6466 68.1098 46.8084Q68.1532 46.9702 68.1906 47.1347Q68.228 47.2991 68.2593 47.4658Q68.2906 47.6325 68.3158 47.801Q68.3409 47.9696 68.3598 48.1396Q68.3788 48.3095 68.3914 48.4806Q68.404 48.6516 68.4103 48.8232Q68.4167 48.9948 68.4167 49.1667"/>
			</clipPath>
			<g clip-path="url(#cl_6)">
				<path fill="#EEE" transform="matrix(1.75 0 0 1.16667 63.1667 49.1667)" d="M4.9806 3.36588Q4.9806 3.55748 4.96182 3.74815Q4.94305 3.93882 4.90567 4.12674Q4.86829 4.31465 4.81267 4.49799Q4.75705 4.68134 4.68373 4.85835Q4.61041 5.03536 4.5201 5.20433Q4.42978 5.3733 4.32333 5.53261Q4.21689 5.69191 4.09534 5.84002Q3.9738 5.98812 3.83832 6.1236Q3.70284 6.25908 3.55474 6.38062Q3.40663 6.50217 3.24733 6.60861Q3.08802 6.71506 2.91905 6.80538Q2.75008 6.89569 2.57307 6.96901Q2.39606 7.04233 2.21271 7.09795Q2.02937 7.15357 1.84146 7.19095Q1.65354 7.22832 1.46287 7.2471Q1.2722 7.26588 1.0806 7.26588Q0.88901 7.26588 0.698338 7.2471Q0.507666 7.22832 0.319752 7.19095Q0.131839 7.15357 -0.0515057 7.09795Q-0.23485 7.04233 -0.411861 6.96901Q-0.588871 6.89569 -0.757843 6.80538Q-0.926814 6.71506 -1.08612 6.60861Q-1.24542 6.50217 -1.39353 6.38062Q-1.54163 6.25908 -1.67711 6.1236Q-1.81259 5.98812 -1.93414 5.84002Q-2.05568 5.69191 -2.16213 5.53261Q-2.26857 5.3733 -2.35889 5.20433Q-2.44921 5.03536 -2.52253 4.85835Q-2.59585 4.68134 -2.65146 4.49799Q-2.70708 4.31465 -2.74446 4.12674Q-2.78184 3.93882 -2.80062 3.74815Q-2.8194 3.55748 -2.8194 3.36588Q-2.8194 3.17429 -2.80062 2.98362Q-2.78184 2.79295 -2.74446 2.60503Q-2.70708 2.41712 -2.65146 2.23377Q-2.59585 2.05043 -2.52253 1.87342Q-2.44921 1.69641 -2.35889 1.52744Q-2.26857 1.35847 -2.16213 1.19916Q-2.05568 1.03985 -1.93414 0.89175Q-1.81259 0.743646 -1.67711 0.608168Q-1.54163 0.47269 -1.39353 0.351143Q-1.24542 0.229597 -1.08612 0.123153Q-0.926814 0.0167083 -0.757843 -0.0736088Q-0.588871 -0.163926 -0.411861 -0.237246Q-0.23485 -0.310566 -0.0515057 -0.366183Q0.131839 -0.4218 0.319752 -0.459178Q0.507666 -0.496557 0.698338 -0.515336Q0.88901 -0.534116 1.0806 -0.534116Q1.2722 -0.534116 1.46287 -0.515336Q1.65354 -0.496557 1.84146 -0.459178Q2.02937 -0.4218 2.21271 -0.366183Q2.39606 -0.310566 2.57307 -0.237246Q2.75008 -0.163926 2.91905 -0.0736088Q3.08802 0.0167083 3.24733 0.123153Q3.40663 0.229597 3.55474 0.351143Q3.70284 0.47269 3.83832 0.608168Q3.9738 0.743646 4.09534 0.89175Q4.21689 1.03986 4.32334 1.19916Q4.42978 1.35847 4.5201 1.52744Q4.61041 1.69641 4.68373 1.87342Q4.75705 2.05043 4.81267 2.23377Q4.86829 2.41712 4.90567 2.60503Q4.94305 2.79294 4.96182 2.98362Q4.9806 3.17429 4.9806 3.36588"/>
			</g>
			<path fill="none" stroke="#111" stroke-width="0.5" stroke-linecap="round" stroke-linejoin="round" transform="matrix(1.75 0 0 2.33333 63.1667 49.1667)" d="M3 0Q3 0.147381 2.98555 0.294051Q2.97111 0.440722 2.94236 0.585271Q2.9136 0.72982 2.87082 0.870854Q2.82804 1.01189 2.77164 1.14805Q2.71524 1.28421 2.64576 1.41419Q2.57629 1.54417 2.49441 1.66671Q2.41253 1.78925 2.31903 1.90318Q2.22553 2.01711 2.12132 2.12132Q2.01711 2.22553 1.90318 2.31903Q1.78925 2.41253 1.66671 2.49441Q1.54417 2.57629 1.41419 2.64576Q1.28421 2.71524 1.14805 2.77164Q1.01189 2.82804 0.870854 2.87082Q0.72982 2.9136 0.585271 2.94236Q0.440722 2.97111 0.294051 2.98555Q0.147381 3 0 3Q-0.147381 3 -0.294051 2.98555Q-0.440722 2.97111 -0.585271 2.94236Q-0.72982 2.9136 -0.870854 2.87082Q-1.01189 2.82804 -1.14805 2.77164Q-1.28421 2.71524 -1.41419 2.64576Q-1.54417 2.57629 -1.66671 2.49441Q-1.78925 2.41253 -1.90318 2.31903Q-2.01711 2.22553 -2.12132 2.12132Q-2.22553 2.01711 -2.31903 1.90318Q-2.41253 1.78925 -2.49441 1.66671Q-2.57629 1.54417 -2.64576 1.41419Q-2.71524 1.28421 -2.77164 1.14805Q-2.82804 1.01189 -2.87082 0.870854Q-2.9136 0.72982 -2.94236 0.585271Q-2.97111 0.440722 -2.98555 0.294051Q-3 0.147381 -3 0Q-3 -0.147381 -2.98555 -0.294051Q-2.97111 -0.440722 -2.94236 -0.585271Q-2.9136 -0.72982 -2.87082 -0.870854Q-2.82804 -1.01189 -2.77164 -1.14805Q-2.71524 -1.28421 -2.64576 -1.41419Q-2.57629 -1.54417 -2.49441 -1.66671Q-2.41253 -1.78925 -2.31903 -1.90318Q-2.22553 -2.01711 -2.12132 -2.12132Q-2.01711 -2.22553 -1.90318 -2.31903Q-1.78925 -2.41253 -1.66671 -2.49441Q-1.54417 -2.57629 -1.41419 -2.64576Q-1.28421 -2.71524 -1.14805 -2.77164Q-1.01189 -2.82804 -0.870854 -2.87082Q-0.72982 -2.9136 -0.585271 -2.94236Q-0.440722 -2.97111 -0.294051 -2.98555Q-0.147381 -3 0 -3Q0.147381 -3 0.294051 -2.98555Q0.440722 -2.97111 0.585271 -2.94236Q0.72982 -2.9136 0.870854 -2.87082Q1.01189 -2.82804 1.14805 -2.77164Q1.28421 -2.71524 1.41419 -2.64576Q1.54417 -2.57629 1.66671 -2.49441Q1.78925 -2.41253 1.90318 -2.31903Q2.01711 -2.22553 2.12132 -2.12132Q2.22553 -2.01711 2.31903 -1.90318Q2.41253 -1.78925 2.49441 -1.66671Q2.57629 -1.54417 2.64576 -1.41419Q2.71524 -1.28421 2.77164 -1.14805Q2.82804 -1.01189 2.87082 -0.870854Q2.9136 -0.72982 2.94236 -0.585271Q2.97111 -0.440722 2.98555 -0.294051Q3 -0.147381 3 0"/>
		</g>
		<path fill="none" stroke="#111" stroke-width="1.5" stroke-linecap="round" stroke-linejoin="round" transform="matrix(1.16667 0 0 1.16667 55 66.6667)" d="M-6 0Q0 -5 6 0"/>
	</g>
</svg>
