<?xml version="1.0" encoding="utf-8" ?>
<svg xmlns="http://www.w3.org/2000/svg" xmlns:xlink="http://www.w3.org/1999/xlink" width="110" height="110">
	<clipPath id="cl_b">
		<path d="M13.3333 9.16667L96.6667 9.16667Q100.833 9.16667 100.833 13.3333L100.833 96.6667Q100.833 100.833 96.6667 100.833L13.3333 100.833Q9.16667 100.833 9.16667 96.6667L9.16667 13.3333Q9.16667 9.16667 13.3333 9.16667Z"/>
	</clipPath>
	<g clip-path="url(#cl_b)">
		<path fill="#CFCFCF" transform="matrix(1.16667 0 0 1.16667 107.5 55)" d="M11.5 0Q11.5 0.282309 11.4861 0.564278Q11.4723 0.846247 11.4446 1.1272Q11.417 1.40815 11.3755 1.6874Q11.3341 1.96665 11.279 2.24354Q11.224 2.52042 11.1554 2.79427Q11.0868 3.06812 11.0048 3.33827Q10.9229 3.60843 10.8278 3.87423Q10.7326 4.14004 10.6246 4.40086Q10.5166 4.66168 10.3959 4.91688Q10.2752 5.17209 10.1421 5.42106Q10.009 5.67004 9.86388 5.91218Q9.71874 6.15433 9.5619 6.38906Q9.40506 6.62379 9.23689 6.85054Q9.06871 7.07729 8.88962 7.29552Q8.71052 7.51375 8.52094 7.72293Q8.33135 7.9321 8.13173 8.13173Q7.9321 8.33135 7.72293 8.52094Q7.51375 8.71052 7.29552 8.88962Q7.07729 9.06871 6.85054 9.23689Q6.62379 9.40506 6.38906 9.5619Q6.15433 9.71874 5.91218 9.86388Q5.67004 10.009 5.42106 10.1421Q5.17209 10.2752 4.91688 10.3959Q4.66168 10.5166 4.40086 10.6246Q4.14004 10.7326 3.87423 10.8278Q3.60843 10.9229 3.33827 11.0048Q3.06812 11.0868 2.79427 11.1554Q2.52042 11.224 2.24354 11.279Q1.96665 11.3341 1.6874 11.3755Q1.40815 11.417 1.1272 11.4446Q0.846247 11.4723 0.564278 11.4861Q0.282309 11.5 0 11.5Q-0.282309 11.5 -0.564278 11.4861Q-0.846247 11.4723 -1.1272 11.4446Q-1.40815 11.417 -1.6874 11.3755Q-1.96665 11.3341 -2.24354 11.279Q-2.52042 11.224 -2.79427 11.1554Q-3.06812 11.0868 -3.33827 11.0048Q-3.60843 10.9229 -3.87423 10.8278Q-4.14004 10.7326 -4.40086 10.6246Q-4.66168 10.5166 -4.91688 10.3959Q-5.17209 10.2752 -5.42106 10.1421Q-5.67004 10.009 -5.91218 9.86388Q-6.15433 9.71874 -6.38906 9.5619Q-6.62379 9.40506 -6.85054 9.23689Q-7.07729 9.06871 -7.29552 8.88962Q-7.51375 8.71052 -7.72293 8.52094Q-7.9321 8.33135 -8.13173 8.13173Q-8.33135 7.9321 -8.52094 7.72293Q-8.71052 7.51375 -8.88962 7.29552Q-9.06871 7.07729 -9.23689 6.85054Q-9.40506 6.62379 -9.5619 6.38906Q-9.71874 6.15433 -9.86388 5.91218Q-10.009 5.67004 -10.1421 5.42106Q-10.2752 5.17209 -10.3959 4.91688Q-10.5166 4.66168 -10.6246 4.40086Q-10.7326 4.14004 -10.8278 3.87423Q-10.9229 3.60843 -11.0048 3.33827Q-11.0868 3.06812 -11.1554 2.79427Q-11.224 2.52042 -11.279 2.24354Q-11.3341 1.96665 -11.3755 1.6874Q-11.417 1.40815 -11.4446 1.1272Q-11.4723 0.846247 -11.4861 0.564278Q-11.5 0.282309 -11.5 0Q-11.5 -0.282309 -11.4861 -0.564278Q-11.4723 -0.846247 -11.4446 -1.1272Q-11.417 -1.40815 -11.3755 -1.6874Q-11.3341 -1.96665 -11.279 -2.24354Q-11.224 -2.52042 -11.1554 -2.79427Q-11.0868 -3.06812 -11.0048 -3.33827Q-10.9229 -3.60843 -10.8278 -3.87423Q-10.7326 -4.14004 -10.6246 -4.40086Q-10.5166 -4.66168 -10.3959 -4.91688Q-10.2752 -5.17209 -10.1421 -5.42106Q-10.009 -5.67004 -9.86388 -5.91218Q-9.71874 -6.15433 -9.5619 -6.38906Q-9.40506 -6.62379 -9.23689 -6.85054Q-9.06871 -7.07729 -8.88962 -7.29552Q-8.71052 -7.51375 -8.52094 -7.72293Q-8.33135 -7.9321 -8.13173 -8.13173Q-7.9321 -8.33135 -7.72293 -8.52094Q-7.51375 -8.71052 -7.29552 -8.88962Q-7.07729 -9.06871 -6.85054 -9.23689Q-6.62379 -9.40506 -6.38906 -9.5619Q-6.15433 -9.71874 -5.91218 -9.86388Q-5.67004 -10.009 -5.42106 -10.1421Q-5.17209 -10.2752 -4.91688 -10.3959Q-4.66168 -10.5166 -4.40086 -10.6246Q-4.14004 -10.7326 -3.87423 -10.8278Q-3.60843 -10.9229 -3.33827 -11.0048Q-3.06812 -11.0868 -2.79427 -11.1554Q-2.52042 -11.224 -2.24354 -11.279Q-1.96665 -11.3341 -1.6874 -11.3755Q-1.40815 -11.417 -1.1272 -11.4446Q-0.846247 -11.4723 -0.564278 -11.4861Q-0.282309 -11.5 0 -11.5Q0.282309 -11.5 0.564278 -11.4861Q0.846247 -11.4723 1.1272 -11.4446Q1.40815 -11.417 1.6874 -11.3755Q1.96665 -11.3341 2.24354 -11.279Q2.52042 -11.224 2.79427 -11.1554Q3.06812 -11.0868 3.33827 -11.0048Q3.60843 -10.9229 3.87423 -10.8278Q4.14004 -10.7326 4.40086 -10.6246Q4.66168 -10.5166 4.91688 -10.3959Q5.17209 -10.2752 5.42106 -10.1421Q5.67004 -10.009 5.91218 -9.86388Q6.15433 -9.71874 6.38906 -9.5619Q6.62379 -9.40506 6.85054 -9.23689Q7.07729 -9.06871 7.29552 -8.88962Q7.51375 -8.71052 7.72293 -8.52094Q7.9321 -8.33135 8.13173 -8.13173Q8.33135 -7.9321 8.52094 -7.72293Q8.71052 -7.51375 8.88962 -7.29552Q9.06871 -7.07729 9.23689 -6.85054Q9.40506 -6.62379 9.5619 -6.38906Q9.71874 -6.15433 9.86388 -5.91218Q10.009 -5.67004 10.1421 -5.42106Q10.2752 -5.17209 10.3959 -4.91688Q10.5166 -4.66168 10.6246 -4.40086Q10.7326 -4.14004 10.8278 -3.87423Q10.9229 -3.60843 11.0048 -3.33827Q11.0868 -3.06812 11.1554 -2.79427Q11.224 -2.52042 11.279 -2.24354Q11.3341 -1.96665 11.3755 -1.6874Q11.417 -1.40815 11.4446 -1.1272Q11.4723 -0.846247 11.4861 -0.564278Q11.5 -0.282309 11.5 0"/>
		<path fill="white" transform="matrix(1.16667 0 0 1.16667 107.5 55)" d="M8.5 0Q8.5 0.208663 8.48976 0.417075Q8.47952 0.625487 8.45907 0.833146Q8.43862 1.0408 8.408 1.24721Q8.37738 1.45361 8.33667 1.65827Q8.29597 1.86292 8.24527 2.06533Q8.19456 2.26774 8.13399 2.46742Q8.07342 2.6671 8.00312 2.86356Q7.93283 3.06003 7.85298 3.25281Q7.77312 3.44559 7.68391 3.63422Q7.59469 3.82285 7.49633 4.00687Q7.39797 4.1909 7.29069 4.36987Q7.18342 4.54885 7.06749 4.72235Q6.95156 4.89584 6.82726 5.06344Q6.70296 5.23104 6.57059 5.39234Q6.43821 5.55364 6.29808 5.70825Q6.15795 5.86286 6.01041 6.01041Q5.86286 6.15795 5.70825 6.29808Q5.55364 6.43821 5.39234 6.57059Q5.23104 6.70296 5.06344 6.82726Q4.89584 6.95156 4.72235 7.06749Q4.54885 7.18342 4.36987 7.29069Q4.1909 7.39797 4.00687 7.49633Q3.82285 7.59469 3.63422 7.68391Q3.44559 7.77312 3.25281 7.85298Q3.06003 7.93283 2.86356 8.00312Q2.6671 8.07342 2.46742 8.13399Q2.26774 8.19456 2.06533 8.24527Q1.86292 8.29597 1.65827 8.33667Q1.45361 8.37738 1.24721 8.408Q1.0408 8.43862 0.833146 8.45907Q0.625487 8.47952 0.417075 8.48976Q0.208663 8.5 0 8.5Q-0.208663 8.5 -0.417075 8.48976Q-0.625487 8.47952 -0.833146 8.45907Q-1.0408 8.43862 -1.24721 8.408Q-1.45361 8.37738 -1.65827 8.33667Q-1.86292 8.29597 -2.06533 8.24527Q-2.26774 8.19456 -2.46742 8.13399Q-2.6671 8.07342 -2.86356 8.00312Q-3.06003 7.93283 -3.25281 7.85298Q-3.44559 7.77312 -3.63422 7.68391Q-3.82285 7.59469 -4.00687 7.49633Q-4.1909 7.39797 -4.36987 7.29069Q-4.54885 7.18342 -4.72235 7.06749Q-4.89584 6.95156 -5.06344 6.82726Q-5.23104 6.70296 -5.39234 6.57059Q-5.55364 6.43821 -5.70825 6.29808Q-5.86286 6.15795 -6.01041 6.01041Q-6.15795 5.86286 -6.29808 5.70825Q-6.43821 5.55364 -6.57059 5.39234Q-6.70296 5.23104 -6.82726 5.06344Q-6.95156 4.89584 -7.06749 4.72235Q-7.18342 4.54885 -7.29069 4.36987Q-7.39797 4.1909 -7.49633 4.00687Q-7.59469 3.82285 -7.68391 3.63422Q-7.77312 3.44559 -7.85298 3.25281Q-7.93283 3.06003 -8.00312 2.86356Q-8.07342 2.6671 -8.13399 2.46742Q-8.19456 2.26774 -8.24527 2.06533Q-8.29597 1.86292 -8.33667 1.65827Q-8.37738 1.45361 -8.408 1.24721Q-8.43862 1.0408 -8.45907 0.833146Q-8.47952 0.625487 -8.48976 0.417075Q-8.5 0.208663 -8.5 0Q-8.5 -0.208663 -8.48976 -0.417075Q-8.47952 -0.625487 -8.45907 -0.833146Q-8.43862 -1.0408 -8.408 -1.24721Q-8.37738 -1.45361 -8.33667 -1.65827Q-8.29597 -1.86292 -8.24527 -2.06533Q-8.19456 -2.26774 -8.13399 -2.46742Q-8.07342 -2.6671 -8.00312 -2.86356Q-7.93283 -3.06003 -7.85298 -3.25281Q-7.77312 -3.44559 -7.68391 -3.63422Q-7.59469 -3.82285 -7.49633 -4.00687Q-7.39797 -4.1909 -7.29069 -4.36987Q-7.18342 -4.54885 -7.06749 -4.72235Q-6.95156 -4.89584 -6.82726 -5.06344Q-6.70296 -5.23104 -6.57059 -5.39234Q-6.43821 -5.55364 -6.29808 -5.70825Q-6.15795 -5.86286 -6.01041 -6.01041Q-5.86286 -6.15795 -5.70825 -6.29808Q-5.55364 -6.43821 -5.39234 -6.57059Q-5.23104 -6.70296 -5.06344 -6.82726Q-4.89584 -6.95156 -4.72235 -7.06749Q-4.54885 -7.18342 -4.36987 -7.29069Q-4.1909 -7.39797 -4.00687 -7.49633Q-3.82285 -7.59469 -3.63422 -7.68391Q-3.44559 -7.77312 -3.25281 -7.85298Q-3.06003 -7.93283 -2.86356 -8.00312Q-2.6671 -8.07342 -2.46742 -8.13399Q-2.26774 -8.19456 -2.06533 -8.24527Q-1.86292 -8.29597 -1.65827 -8.33667Q-1.45361 -8.37738 -1.24721 -8.408Q-1.0408 -8.43862 -0.833146 -8.45907Q-0.625487 -8.47952 -0.417075 -8.48976Q-0.208663 -8.5 0 -8.5Q0.208663 -8.5 0.417075 -8.48976Q0.625487 -8.47952 0.833146 -8.45907Q1.0408 -8.43862 1.24721 -8.408Q1.45361 -8.37738 1.65827 -8.33667Q1.86292 -8.29597 2.06533 -8.24527Q2.26774 -8.19456 2.46742 -8.13399Q2.6671 -8.07342 2.86356 -8.00312Q3.06003 -7.93283 3.25281 -7.85298Q3.44559 -7.77312 3.63422 -7.68391Q3.82285 -7.59469 4.00687 -7.49633Q4.1909 -7.39797 4.36987 -7.29069Q4.54885 -7.18342 4.72235 -7.06749Q4.89584 -6.95156 5.06344 -6.82726Q5.23104 -6.70296 5.39234 -6.57059Q5.55364 -6.43821 5.70825 -6.29808Q5.86286 -6.15795 6.01041 -6.01041Q6.15795 -5.86286 6.29808 -5.70825Q6.43821 -5.55364 6.57059 -5.39234Q6.70296 -5.23104 6.82726 -5.06344Q6.95156 -4.89584 7.06749 -4.72235Q7.18342 -4.54885 7.29069 -4.36987Q7.39797 -4.1909 7.49633 -4.00687Q7.59469 -3.82285 7.68391 -3.63422Q7.77312 -3.44559 7.85298 -3.25281Q7.93283 -3.06003 8.00312 -2.86356Q8.07342 -2.6671 8.13399 -2.46742Q8.19456 -2.26774 8.24527 -2.06533Q8.29597 -1.86292 8.33667 -1.65827Q8.37738 -1.45361 8.408 -1.24721Q8.43862 -1.0408 8.45907 -0.833146Q8.47952 -0.625487 8.48976 -0.417075Q8.5 -0.208663 8.5 0"/>
		<path fill="#CFCFCF" transform="matrix(1.16667 0 0 1.16667 71.2234 104.93)" d="M11.5 0Q11.5 0.282309 11.4861 0.564278Q11.4723 0.846247 11.4446 1.1272Q11.417 1.40815 11.3755 1.6874Q11.3341 1.96665 11.279 2.24354Q11.224 2.52042 11.1554 2.79427Q11.0868 3.06812 11.0048 3.33827Q10.9229 3.60843 10.8278 3.87423Q10.7326 4.14004 10.6246 4.40086Q10.5166 4.66168 10.3959 4.91688Q10.2752 5.17209 10.1421 5.42106Q10.009 5.67004 9.86388 5.91218Q9.71874 6.15433 9.5619 6.38906Q9.40506 6.62379 9.23689 6.85054Q9.06871 7.07729 8.88962 7.29552Q8.71052 7.51375 8.52094 7.72293Q8.33135 7.9321 8.13173 8.13173Q7.9321 8.33135 7.72293 8.52094Q7.51375 8.71052 7.29552 8.88962Q7.07729 9.06871 6.85054 9.23689Q6.62379 9.40506 6.38906 9.5619Q6.15433 9.71874 5.91218 9.86388Q5.67004 10.009 5.42106 10.1421Q5.17209 10.2752 4.91688 10.3959Q4.66168 10.5166 4.40086 10.6246Q4.14004 10.7326 3.87423 10.8278Q3.60843 10.9229 3.33827 11.0048Q3.06812 11.0868 2.79427 11.1554Q2.52042 11.224 2.24354 11.279Q1.96665 11.3341 1.6874 11.3755Q1.40815 11.417 1.1272 11.4446Q0.846247 11.4723 0.564278 11.4861Q0.282309 11.5 0 11.5Q-0.282309 11.5 -0.564278 11.4861Q-0.846247 11.4723 -1.1272 11.4446Q-1.40815 11.417 -1.6874 11.3755Q-1.96665 11.3341 -2.24354 11.279Q-2.52042 11.224 -2.79427 11.1554Q-3.06812 11.0868 -3.33827 11.0048Q-3.60843 10.9229 -3.87423 10.8278Q-4.14004 10.7326 -4.40086 10.6246Q-4.66168 10.5166 -4.91688 10.3959Q-5.17209 10.2752 -5.42106 10.1421Q-5.67004 10.009 -5.91218 9.86388Q-6.15433 9.71874 -6.38906 9.5619Q-6.62379 9.40506 -6.85054 9.23689Q-7.07729 9.06871 -7.29552 8.88962Q-7.51375 8.71052 -7.72293 8.52094Q-7.9321 8.33135 -8.13173 8.13173Q-8.33135 7.9321 -8.52094 7.72293Q-8.71052 7.51375 -8.88962 7.29552Q-9.06871 7.07729 -9.23689 6.85054Q-9.40506 6.62379 -9.5619 6.38906Q-9.71874 6.15433 -9.86388 5.91218Q-10.009 5.67004 -10.1421 5.42106Q-10.2752 5.17209 -10.3959 4.91688Q-10.5166 4.66168 -10.6246 4.40086Q-10.7326 4.14004 -10.8278 3.87423Q-10.9229 3.60843 -11.0048 3.33827Q-11.0868 3.06812 -11.1554 2.79427Q-11.224 2.52042 -11.279 2.24354Q-11.3341 1.96665 -11.3755 1.6874Q-11.417 1.40815 -11.4446 1.1272Q-11.4723 0.846247 -11.4861 0.564278Q-11.5 0.282309 -11.5 0Q-11.5 -0.282309 -11.4861 -0.564278Q-11.4723 -0.846247 -11.4446 -1.1272Q-11.417 -1.40815 -11.3755 -1.6874Q-11.3341 -1.96665 -11.279 -2.24354Q-11.224 -2.52042 -11.1554 -2.79427Q-11.0868 -3.06812 -11.0048 -3.33827Q-10.9229 -3.60843 -10.8278 -3.87423Q-10.7326 -4.14004 -10.6246 -4.40086Q-10.5166 -4.66168 -10.3959 -4.91688Q-10.2752 -5.17209 -10.1421 -5.42106Q-10.009 -5.67004 -9.86388 -5.91218Q-9.71874 -6.15433 -9.5619 -6.38906Q-9.40506 -6.62379 -9.23689 -6.85054Q-9.06871 -7.07729 -8.88962 -7.29552Q-8.71052 -7.51375 -8.52094 -7.72293Q-8.33135 -7.9321 -8.13173 -8.13173Q-7.9321 -8.33135 -7.72293 -8.52094Q-7.51375 -8.71052 -7.29552 -8.88962Q-7.07729 -9.06871 -6.85054 -9.23689Q-6.62379 -9.40506 -6.38906 -9.5619Q-6.15433 -9.71874 -5.91218 -9.86388Q-5.67004 -10.009 -5.42106 -10.1421Q-5.17209 -10.2752 -4.91688 -10.3959Q-4.66168 -10.5166 -4.40086 -10.6246Q-4.14004 -10.7326 -3.87423 -10.8278Q-3.60843 -10.9229 -3.33827 -11.0048Q-3.06812 -11.0868 -2.79427 -11.1554Q-2.52042 -11.224 -2.24354 -11.279Q-1.96665 -11.3341 -1.6874 -11.3755Q-1.40815 -11.417 -1.1272 -11.4446Q-0.846247 -11.4723 -0.564278 -11.4861Q-0.282309 -11.5 0 -11.5Q0.282309 -11.5 0.564278 -11.4861Q0.846247 -11.4723 1.1272 -11.4446Q1.40815 -11.417 1.6874 -11.3755Q1.96665 -11.3341 2.24354 -11.279Q2.52042 -11.224 2.79427 -11.1554Q3.06812 -11.0868 3.33827 -11.0048Q3.60843 -10.9229 3.87423 -10.8278Q4.14004 -10.7326 4.40086 -10.6246Q4.66168 -10.5166 4.91688 -10.3959Q5.17209 -10.2752 5.42106 -10.1421Q5.67004 -10.009 5.91218 -9.86388Q6.15433 -9.71874 6.38906 -9.5619Q6.62379 -9.40506 6.85054 -9.23689Q7.07729 -9.06871 7.29552 -8.88962Q7.51375 -8.71052 7.72293 -8.52094Q7.9321 -8.33135 8.13173 -8.13173Q8.33135 -7.9321 8.52094 -7.72293Q8.71052 -7.51375 8.88962 -7.29552Q9.06871 -7.07729 9.23689 -6.85054Q9.40506 -6.62379 9.5619 -6.38906Q9.71874 -6.15433 9.86388 -5.91218Q10.009 -5.67004 10.1421 -5.42106Q10.2752 -5.17209 10.3959 -4.91688Q10.5166 -4.66168 10.6246 -4.40086Q10.7326 -4.14004 10.8278 -3.87423Q10.9229 -3.60843 11.0048 -3.33827Q11.0868 -3.06812 11.1554 -2.79427Q11.224 -2.52042 11.279 -2.24354Q11.3341 -1.96665 11.3755 -1.6874Q11.417 -1.40815 11.4446 -1.1272Q11.4723 -0.846247 11.4861 -0.564278Q11.5 -0.282309 11.5 0"/>
		<path fill="white" transform="matrix(1.16667 0 0 1.16667 71.2234 104.93)" d="M8.5 0Q8.5 0.208663 8.48976 0.417075Q8.47952 0.625487 8.45907 0.833146Q8.43862 1.0408 8.408 1.24721Q8.37738 1.45361 8.33667 1.65827Q8.29597 1.86292 8.24527 2.06533Q8.19456 2.26774 8.13399 2.46742Q8.07342 2.6671 8.00312 2.86356Q7.93283 3.06003 7.85298 3.25281Q7.77312 3.44559 7.68391 3.63422Q7.59469 3.82285 7.49633 4.00687Q7.39797 4.1909 7.29069 4.36987Q7.18342 4.54885 7.06749 4.72235Q6.95156 4.89584 6.82726 5.06344Q6.70296 5.23104 6.57059 5.39234Q6.43821 5.55364 6.29808 5.70825Q6.15795 5.86286 6.01041 6.01041Q5.86286 6.15795 5.70825 6.29808Q5.55364 6.43821 5.39234 6.57059Q5.23104 6.70296 5.06344 6.82726Q4.89584 6.95156 4.72235 7.06749Q4.54885 7.18342 4.36987 7.29069Q4.1909 7.39797 4.00687 7.49633Q3.82285 7.59469 3.63422 7.68391Q3.44559 7.77312 3.25281 7.85298Q3.06003 7.93283 2.86356 8.00312Q2.6671 8.07342 2.46742 8.13399Q2.26774 8.19456 2.06533 8.24527Q1.86292 8.29597 1.65827 8.33667Q1.45361 8.37738 1.24721 8.408Q1.0408 8.43862 0.833146 8.45907Q0.625487 8.47952 0.417075 8.48976Q0.208663 8.5 0 8.5Q-0.208663 8.5 -0.417075 8.48976Q-0.625487 8.47952 -0.833146 8.45907Q-1.0408 8.43862 -1.24721 8.408Q-1.45361 8.37738 -1.65827 8.33667Q-1.86292 8.29597 -2.06533 8.24527Q-2.26774 8.19456 -2.46742 8.13399Q-2.6671 8.07342 -2.86356 8.00312Q-3.06003 7.93283 -3.25281 7.85298Q-3.44559 7.77312 -3.63422 7.68391Q-3.82285 7.59469 -4.00687 7.49633Q-4.1909 7.39797 -4.36987 7.29069Q-4.54885 7.18342 -4.72235 7.06749Q-4.89584 6.95156 -5.06344 6.82726Q-5.23104 6.70296 -5.39234 6.57059Q-5.55364 6.43821 -5.70825 6.29808Q-5.86286 6.15795 -6.01041 6.01041Q-6.15795 5.86286 -6.29808 5.70825Q-6.43821 5.55364 -6.57059 5.39234Q-6.70296 5.23104 -6.82726 5.06344Q-6.95156 4.89584 -7.06749 4.72235Q-7.18342 4.54885 -7.29069 4.36987Q-7.39797 4.1909 -7.49633 4.00687Q-7.59469 3.82285 -7.68391 3.63422Q-7.77312 3.44559 -7.85298 3.25281Q-7.93283 3.06003 -8.00312 2.86356Q-8.07342 2.6671 -8.13399 2.46742Q-8.19456 2.26774 -8.24527 2.06533Q-8.29597 1.86292 -8.33667 1.65827Q-8.37738 1.45361 -8.408 1.24721Q-8.43862 1.0408 -8.45907 0.833146Q-8.47952 0.625487 -8.48976 0.417075Q-8.5 0.208663 -8.5 0Q-8.5 -0.208663 -8.48976 -0.417075Q-8.47952 -0.625487 -8.45907 -0.833146Q-8.43862 -1.0408 -8.408 -1.24721Q-8.37738 -1.45361 -8.33667 -1.65827Q-8.29597 -1.86292 -8.24527 -2.06533Q-8.19456 -2.26774 -8.13399 -2.46742Q-8.07342 -2.6671 -8.00312 -2.86356Q-7.93283 -3.06003 -7.85298 -3.25281Q-7.77312 -3.44559 -7.68391 -3.63422Q-7.59469 -3.82285 -7.49633 -4.00687Q-7.39797 -4.1909 -7.29069 -4.36987Q-7.18342 -4.54885 -7.06749 -4.72235Q-6.95156 -4.89584 -6.82726 -5.06344Q-6.70296 -5.23104 -6.57059 -5.39234Q-6.43821 -5.55364 -6.29808 -5.70825Q-6.15795 -5.86286 -6.01041 -6.01041Q-5.86286 -6.15795 -5.70825 -6.29808Q-5.55364 -6.43821 -5.39234 -6.57059Q-5.23104 -6.70296 -5.06344 -6.82726Q-4.89584 -6.95156 -4.72235 -7.06749Q-4.54885 -7.18342 -4.36987 -7.29069Q-4.1909 -7.39797 -4.00687 -7.49633Q-3.82285 -7.59469 -3.63422 -7.68391Q-3.44559 -7.77312 -3.25281 -7.85298Q-3.06003 -7.93283 -2.86356 -8.00312Q-2.6671 -8.07342 -2.46742 -8.13399Q-2.26774 -8.19456 -2.06533 -8.24527Q-1.86292 -8.29597 -1.65827 -8.33667Q-1.45361 -8.37738 -1.24721 -8.408Q-1.0408 -8.43862 -0.833146 -8.45907Q-0.625487 -8.47952 -0.417075 -8.48976Q-0.208663 -8.5 0 -8.5Q0.208663 -8.5 0.417075 -8.48976Q0.625487 -8.47952 0.833146 -8.45907Q1.0408 -8.43862 1.24721 -8.408Q1.45361 -8.37738 1.65827 -8.33667Q1.86292 -8.29597 2.06533 -8.24527Q2.26774 -8.19456 2.46742 -8.13399Q2.6671 -8.07342 2.86356 -8.00312Q3.06003 -7.93283 3.25281 -7.85298Q3.44559 -7.77312 3.63422 -7.68391Q3.82285 -7.59469 4.00687 -7.49633Q4.1909 -7.39797 4.36987 -7.29069Q4.54885 -7.18342 4.72235 -7.06749Q4.89584 -6.95156 5.06344 -6.82726Q5.23104 -6.70296 5.39234 -6.57059Q5.55364 -6.43821 5.70825 -6.29808Q5.86286 -6.15795 6.01041 -6.01041Q6.15795 -5.86286 6.29808 -5.70825Q6.43821 -5.55364 6.57059 -5.39234Q6.70296 -5.23104 6.82726 -5.06344Q6.95156 -4.89584 7.06749 -4.72235Q7.18342 -4.54885 7.29069 -4.36987Q7.39797 -4.1909 7.49633 -4.00687Q7.59469 -3.82285 7.68391 -3.63422Q7.77312 -3.44559 7.85298 -3.25281Q7.93283 -3.06003 8.00312 -2.86356Q8.07342 -2.6671 8.13399 -2.46742Q8.19456 -2.26774 8.24527 -2.06533Q8.29597 -1.86292 8.33667 -1.65827Q8.37738 -1.45361 8.408 -1.24721Q8.43862 -1.0408 8.45907 -0.833146Q8.47952 -0.625487 8.48976 -0.417075Q8.5 -0.208663 8.5 0"/>
		<path fill="#CFCFCF" transform="matrix(1.16667 0 0 1.16667 12.5266 85.8587)" d="M11.5 0Q11.5 0.282309 11.4861 0.564278Q11.4723 0.846247 11.4446 1.1272Q11.417 1.40815 11.3755 1.6874Q11.3341 1.96665 11.279 2.24354Q11.224 2.52042 11.1554 2.79427Q11.0868 3.06812 11.0048 3.33827Q10.9229 3.60843 10.8278 3.87423Q10.7326 4.14004 10.6246 4.40086Q10.5166 4.66168 10.3959 4.91688Q10.2752 5.17209 10.1421 5.42106Q10.009 5.67004 9.86388 5.91218Q9.71874 6.15433 9.5619 6.38906Q9.40506 6.62379 9.23689 6.85054Q9.06871 7.07729 8.88962 7.29552Q8.71052 7.51375 8.52094 7.72293Q8.33135 7.9321 8.13173 8.13173Q7.9321 8.33135 7.72293 8.52094Q7.51375 8.71052 7.29552 8.88962Q7.07729 9.06871 6.85054 9.23689Q6.62379 9.40506 6.38906 9.5619Q6.15433 9.71874 5.91218 9.86388Q5.67004 10.009 5.42106 10.1421Q5.17209 10.2752 4.91688 10.3959Q4.66168 10.5166 4.40086 10.6246Q4.14004 10.7326 3.87423 10.8278Q3.60843 10.9229 3.33827 11.0048Q3.06812 11.0868 2.79427 11.1554Q2.52042 11.224 2.24354 11.279Q1.96665 11.3341 1.6874 11.3755Q1.40815 11.417 1.1272 11.4446Q0.846247 11.4723 0.564278 11.4861Q0.282309 11.5 0 11.5Q-0.282309 11.5 -0.564278 11.4861Q-0.846247 11.4723 -1.1272 11.4446Q-1.40815 11.417 -1.6874 11.3755Q-1.96665 11.3341 -2.24354 11.279Q-2.52042 11.224 -2.79427 11.1554Q-3.06812 11.0868 -3.33827 11.0048Q-3.60843 10.9229 -3.87423 10.8278Q-4.14004 10.7326 -4.40086 10.6246Q-4.66168 10.5166 -4.91688 10.3959Q-5.17209 10.2752 -5.42106 10.1421Q-5.67004 10.009 -5.91218 9.86388Q-6.15433 9.71874 -6.38906 9.5619Q-6.62379 9.40506 -6.85054 9.23689Q-7.07729 9.06871 -7.29552 8.88962Q-7.51375 8.71052 -7.72293 8.52094Q-7.9321 8.33135 -8.13173 8.13173Q-8.33135 7.9321 -8.52094 7.72293Q-8.71052 7.51375 -8.88962 7.29552Q-9.06871 7.07729 -9.23689 6.85054Q-9.40506 6.62379 -9.5619 6.38906Q-9.71874 6.15433 -9.86388 5.91218Q-10.009 5.67004 -10.1421 5.42106Q-10.2752 5.17209 -10.3959 4.91688Q-10.5166 4.66168 -10.6246 4.40086Q-10.7326 4.14004 -10.8278 3.87423Q-10.9229 3.60843 -11.0048 3.33827Q-11.0868 3.06812 -11.1554 2.79427Q-11.224 2.52042 -11.279 2.24354Q-11.3341 1.96665 -11.3755 1.6874Q-11.417 1.40815 -11.4446 1.1272Q-11.4723 0.846247 -11.4861 0.564278Q-11.5 0.282309 -11.5 0Q-11.5 -0.282309 -11.4861 -0.564278Q-11.4723 -0.846247 -11.4446 -1.1272Q-11.417 -1.40815 -11.3755 -1.6874Q-11.3341 -1.96665 -11.279 -2.24354Q-11.224 -2.52042 -11.1554 -2.79427Q-11.0868 -3.06812 -11.0048 -3.33827Q-10.9229 -3.60843 -10.8278 -3.87423Q-10.7326 -4.14004 -10.6246 -4.40086Q-10.5166 -4.66168 -10.3959 -4.91688Q-10.2752 -5.17209 -10.1421 -5.42106Q-10.009 -5.67004 -9.86388 -5.91218Q-9.71874 -6.15433 -9.5619 -6.38906Q-9.40506 -6.62379 -9.23689 -6.85054Q-9.06871 -7.07729 -8.88962 -7.29552Q-8.71052 -7.51375 -8.52094 -7.72293Q-8.33135 -7.9321 -8.13173 -8.13173Q-7.9321 -8.33135 -7.72293 -8.52094Q-7.51375 -8.71052 -7.29552 -8.88962Q-7.07729 -9.06871 -6.85054 -9.23689Q-6.62379 -9.40506 -6.38906 -9.5619Q-6.15433 -9.71874 -5.91218 -9.86388Q-5.67004 -10.009 -5.42106 -10.1421Q-5.17209 -10.2752 -4.91688 -10.3959Q-4.66168 -10.5166 -4.40086 -10.6246Q-4.14004 -10.7326 -3.87423 -10.8278Q-3.60843 -10.9229 -3.33827 -11.0048Q-3.06812 -11.0868 -2.79427 -11.1554Q-2.52042 -11.224 -2.24354 -11.279Q-1.96665 -11.3341 -1.6874 -11.3755Q-1.40815 -11.417 -1.1272 -11.4446Q-0.846247 -11.4723 -0.564278 -11.4861Q-0.282309 -11.5 0 -11.5Q0.282309 -11.5 0.564278 -11.4861Q0.846247 -11.4723 1.1272 -11.4446Q1.40815 -11.417 1.6874 -11.3755Q1.96665 -11.3341 2.24354 -11.279Q2.52042 -11.224 2.79427 -11.1554Q3.06812 -11.0868 3.33827 -11.0048Q3.60843 -10.9229 3.87423 -10.8278Q4.14004 -10.7326 4.40086 -10.6246Q4.66168 -10.5166 4.91688 -10.3959Q5.17209 -10.2752 5.42106 -10.1421Q5.67004 -10.009 5.91218 -9.86388Q6.15433 -9.71874 6.38906 -9.5619Q6.62379 -9.40506 6.85054 -9.23689Q7.07729 -9.06871 7.29552 -8.88962Q7.51375 -8.71052 7.72293 -8.52094Q7.9321 -8.33135 8.13173 -8.13173Q8.33135 -7.9321 8.52094 -7.72293Q8.71052 -7.51375 8.88962 -7.29552Q9.06871 -7.07729 9.23689 -6.85054Q9.40506 -6.62379 9.5619 -6.38906Q9.71874 -6.15433 9.86388 -5.91218Q10.009 -5.67004 10.1421 -5.42106Q10.2752 -5.17209 10.3959 -4.91688Q10.5166 -4.66168 10.6246 -4.40086Q10.7326 -4.14004 10.8278 -3.87423Q10.9229 -3.60843 11.0048 -3.33827Q11.0868 -3.06812 11.1554 -2.79427Q11.224 -2.52042 11.279 -2.24354Q11.3341 -1.96665 11.3755 -1.6874Q11.417 -1.40815 11.4446 -1.1272Q11.4723 -0.846247 11.4861 -0.564278Q11.5 -0.282309 11.5 0"/>
		<path fill="white" transform="matrix(1.16667 0 0 1.16667 12.5266 85.8587)" d="M8.5 0Q8.5 0.208663 8.48976 0.417075Q8.47952 0.625487 8.45907 0.833146Q8.43862 1.0408 8.408 1.24721Q8.37738 1.45361 8.33667 1.65827Q8.29597 1.86292 8.24527 2.06533Q8.19456 2.26774 8.13399 2.46742Q8.07342 2.6671 8.00312 2.86356Q7.93283 3.06003 7.85298 3.25281Q7.77312 3.44559 7.68391 3.63422Q7.59469 3.82285 7.49633 4.00687Q7.39797 4.1909 7.29069 4.36987Q7.18342 4.54885 7.06749 4.72235Q6.95156 4.89584 6.82726 5.06344Q6.70296 5.23104 6.57059 5.39234Q6.43821 5.55364 6.29808 5.70825Q6.15795 5.86286 6.01041 6.01041Q5.86286 6.15795 5.70825 6.29808Q5.55364 6.43821 5.39234 6.57059Q5.23104 6.70296 5.06344 6.82726Q4.89584 6.95156 4.72235 7.06749Q4.54885 7.18342 4.36987 7.29069Q4.1909 7.39797 4.00687 7.49633Q3.82285 7.59469 3.63422 7.68391Q3.44559 7.77312 3.25281 7.85298Q3.06003 7.93283 2.86356 8.00312Q2.6671 8.07342 2.46742 8.13399Q2.26774 8.19456 2.06533 8.24527Q1.86292 8.29597 1.65827 8.33667Q1.45361 8.37738 1.24721 8.408Q1.0408 8.43862 0.833146 8.45907Q0.625487 8.47952 0.417075 8.48976Q0.208663 8.5 0 8.5Q-0.208663 8.5 -0.417075 8.48976Q-0.625487 8.47952 -0.833146 8.45907Q-1.0408 8.43862 -1.24721 8.408Q-1.45361 8.37738 -1.65827 8.33667Q-1.86292 8.29597 -2.06533 8.24527Q-2.26774 8.19456 -2.46742 8.13399Q-2.6671 8.07342 -2.86356 8.00312Q-3.06003 7.93283 -3.25281 7.85298Q-3.44559 7.77312 -3.63422 7.68391Q-3.82285 7.59469 -4.00687 7.49633Q-4.1909 7.39797 -4.36987 7.29069Q-4.54885 7.18342 -4.72235 7.06749Q-4.89584 6.95156 -5.06344 6.82726Q-5.23104 6.70296 -5.39234 6.57059Q-5.55364 6.43821 -5.70825 6.29808Q-5.86286 6.15795 -6.01041 6.01041Q-6.15795 5.86286 -6.29808 5.70825Q-6.43821 5.55364 -6.57059 5.39234Q-6.70296 5.23104 -6.82726 5.06344Q-6.95156 4.89584 -7.06749 4.72235Q-7.18342 4.54885 -7.29069 4.36987Q-7.39797 4.1909 -7.49633 4.00687Q-7.59469 3.82285 -7.68391 3.63422Q-7.77312 3.44559 -7.85298 3.25281Q-7.93283 3.06003 -8.00312 2.86356Q-8.07342 2.6671 -8.13399 2.46742Q-8.19456 2.26774 -8.24527 2.06533Q-8.29597 1.86292 -8.33667 1.65827Q-8.37738 1.45361 -8.408 1.24721Q-8.43862 1.0408 -8.45907 0.833146Q-8.47952 0.625487 -8.48976 0.417075Q-8.5 0.208663 -8.5 0Q-8.5 -0.208663 -8.48976 -0.417075Q-8.47952 -0.625487 -8.45907 -0.833146Q-8.43862 -1.0408 -8.408 -1.24721Q-8.37738 -1.45361 -8.33667 -1.65827Q-8.29597 -1.86292 -8.24527 -2.06533Q-8.19456 -2.26774 -8.13399 -2.46742Q-8.07342 -2.6671 -8.00312 -2.86356Q-7.93283 -3.06003 -7.85298 -3.25281Q-7.77312 -3.44559 -7.68391 -3.63422Q-7.59469 -3.82285 -7.49633 -4.00687Q-7.39797 -4.1909 -7.29069 -4.36987Q-7.18342 -4.54885 -7.06749 -4.72235Q-6.95156 -4.89584 -6.82726 -5.06344Q-6.70296 -5.23104 -6.57059 -5.39234Q-6.43821 -5.55364 -6.29808 -5.70825Q-6.15795 -5.86286 -6.01041 -6.01041Q-5.86286 -6.15795 -5.70825 -6.29808Q-5.55364 -6.43821 -5.39234 -6.57059Q-5.23104 -6.70296 -5.06344 -6.82726Q-4.89584 -6.95156 -4.72235 -7.06749Q-4.54885 -7.18342 -4.36987 -7.29069Q-4.1909 -7.39797 -4.00687 -7.49633Q-3.82285 -7.59469 -3.63422 -7.68391Q-3.44559 -7.77312 -3.25281 -7.85298Q-3.06003 -7.93283 -2.86356 -8.00312Q-2.6671 -8.07342 -2.46742 -8.13399Q-2.26774 -8.19456 -2.06533 -8.24527Q-1.86292 -8.29597 -1.65827 -8.33667Q-1.45361 -8.37738 -1.24721 -8.408Q-1.0408 -8.43862 -0.833146 -8.45907Q-0.625487 -8.47952 -0.417075 -8.48976Q-0.208663 -8.5 0 -8.5Q0.208663 -8.5 0.417075 -8.48976Q0.625487 -8.47952 0.833146 -8.45907Q1.0408 -8.43862 1.24721 -8.408Q1.45361 -8.37738 1.65827 -8.33667Q1.86292 -8.29597 2.06533 -8.24527Q2.26774 -8.19456 2.46742 -8.13399Q2.6671 -8.07342 2.86356 -8.00312Q3.06003 -7.93283 3.25281 -7.85298Q3.44559 -7.77312 3.63422 -7.68391Q3.82285 -7.59469 4.00687 -7.49633Q4.1909 -7.39797 4.36987 -7.29069Q4.54885 -7.18342 4.72235 -7.06749Q4.89584 -6.95156 5.06344 -6.82726Q5.23104 -6.70296 5.39234 -6.57059Q5.55364 -6.43821 5.70825 -6.29808Q5.86286 -6.15795 6.01041 -6.01041Q6.15795 -5.86286 6.29808 -5.70825Q6.43821 -5.55364 6.57059 -5.39234Q6.70296 -5.23104 6.82726 -5.06344Q6.95156 -4.89584 7.06749 -4.72235Q7.18342 -4.54885 7.29069 -4.36987Q7.39797 -4.1909 7.49633 -4.00687Q7.59469 -3.82285 7.68391 -3.63422Q7.77312 -3.44559 7.85298 -3.25281Q7.93283 -3.06003 8.00312 -2.86356Q8.07342 -2.6671 8.13399 -2.46742Q8.19456 -2.26774 8.24527 -2.06533Q8.29597 -1.86292 8.33667 -1.65827Q8.37738 -1.45361 8.408 -1.24721Q8.43862 -1.0408 8.45907 -0.833146Q8.47952 -0.625487 8.48976 -0.417075Q8.5 -0.208663 8.5 0"/>
		<path fill="#CFCFCF" transform="matrix(1.16667 0 0 1.16667 12.5266 24.1413)" d="M11.5 0Q11.5 0.282309 11.4861 0.564278Q11.4723 0.846247 11.4446 1.1272Q11.417 1.40815 11.3755 1.6874Q11.3341 1.96665 11.279 2.24354Q11.224 2.52042 11.1554 2.79427Q11.0868 3.06812 11.0048 3.33827Q10.9229 3.60843 10.8278 3.87423Q10.7326 4.14004 10.6246 4.40086Q10.5166 4.66168 10.3959 4.91688Q10.2752 5.17209 10.1421 5.42106Q10.009 5.67004 9.86388 5.91218Q9.71874 6.15433 9.5619 6.38906Q9.40506 6.62379 9.23689 6.85054Q9.06871 7.07729 8.88962 7.29552Q8.71052 7.51375 8.52094 7.72293Q8.33135 7.9321 8.13173 8.13173Q7.9321 8.33135 7.72293 8.52094Q7.51375 8.71052 7.29552 8.88962Q7.07729 9.06871 6.85054 9.23689Q6.62379 9.40506 6.38906 9.5619Q6.15433 9.71874 5.91218 9.86388Q5.67004 10.009 5.42106 10.1421Q5.17209 10.2752 4.91688 10.3959Q4.66168 10.5166 4.40086 10.6246Q4.14004 10.7326 3.87423 10.8278Q3.60843 10.9229 3.33827 11.0048Q3.06812 11.0868 2.79427 11.1554Q2.52042 11.224 2.24354 11.279Q1.96665 11.3341 1.6874 11.3755Q1.40815 11.417 1.1272 11.4446Q0.846247 11.4723 0.564278 11.4861Q0.282309 11.5 0 11.5Q-0.282309 11.5 -0.564278 11.4861Q-0.846247 11.4723 -1.1272 11.4446Q-1.40815 11.417 -1.6874 11.3755Q-1.96665 11.3341 -2.24354 11.279Q-2.52042 11.224 -2.79427 11.1554Q-3.06812 11.0868 -3.33827 11.0048Q-3.60843 10.9229 -3.87423 10.8278Q-4.14004 10.7326 -4.40086 10.6246Q-4.66168 10.5166 -4.91688 10.3959Q-5.17209 10.2752 -5.42106 10.1421Q-5.67004 10.009 -5.91218 9.86388Q-6.15433 9.71874 -6.38906 9.5619Q-6.62379 9.40506 -6.85054 9.23689Q-7.07729 9.06871 -7.29552 8.88962Q-7.51375 8.71052 -7.72293 8.52094Q-7.9321 8.33135 -8.13173 8.13173Q-8.33135 7.9321 -8.52094 7.72293Q-8.71052 7.51375 -8.88962 7.29552Q-9.06871 7.07729 -9.23689 6.85054Q-9.40506 6.62379 -9.5619 6.38906Q-9.71874 6.15433 -9.86388 5.91218Q-10.009 5.67004 -10.1421 5.42106Q-10.2752 5.17209 -10.3959 4.91688Q-10.5166 4.66168 -10.6246 4.40086Q-10.7326 4.14004 -10.8278 3.87423Q-10.9229 3.60843 -11.0048 3.33827Q-11.0868 3.06812 -11.1554 2.79427Q-11.224 2.52042 -11.279 2.24354Q-11.3341 1.96665 -11.3755 1.6874Q-11.417 1.40815 -11.4446 1.1272Q-11.4723 0.846247 -11.4861 0.564278Q-11.5 0.282309 -11.5 0Q-11.5 -0.282309 -11.4861 -0.564278Q-11.4723 -0.846247 -11.4446 -1.1272Q-11.417 -1.40815 -11.3755 -1.6874Q-11.3341 -1.96665 -11.279 -2.24354Q-11.224 -2.52042 -11.1554 -2.79427Q-11.0868 -3.06812 -11.0048 -3.33827Q-10.9229 -3.60843 -10.8278 -3.87423Q-10.7326 -4.14004 -10.6246 -4.40086Q-10.5166 -4.66168 -10.3959 -4.91688Q-10.2752 -5.17209 -10.1421 -5.42106Q-10.009 -5.67004 -9.86388 -5.91218Q-9.71874 -6.15433 -9.5619 -6.38906Q-9.40506 -6.62379 -9.23689 -6.85054Q-9.06871 -7.07729 -8.88962 -7.29552Q-8.71052 -7.51375 -8.52094 -7.72293Q-8.33135 -7.9321 -8.13173 -8.13173Q-7.9321 -8.33135 -7.72293 -8.52094Q-7.51375 -8.71052 -7.29552 -8.88962Q-7.07729 -9.06871 -6.85054 -9.23689Q-6.62379 -9.40506 -6.38906 -9.5619Q-6.15433 -9.71874 -5.91218 -9.86388Q-5.67004 -10.009 -5.42106 -10.1421Q-5.17209 -10.2752 -4.91688 -10.3959Q-4.66168 -10.5166 -4.40086 -10.6246Q-4.14004 -10.7326 -3.87423 -10.8278Q-3.60843 -10.9229 -3.33827 -11.0048Q-3.06812 -11.0868 -2.79427 -11.1554Q-2.52042 -11.224 -2.24354 -11.279Q-1.96665 -11.3341 -1.6874 -11.3755Q-1.40815 -11.417 -1.1272 -11.4446Q-0.846247 -11.4723 -0.564278 -11.4861Q-0.282309 -11.5 0 -11.5Q0.282309 -11.5 0.564278 -11.4861Q0.846247 -11.4723 1.1272 -11.4446Q1.40815 -11.417 1.6874 -11.3755Q1.96665 -11.3341 2.24354 -11.279Q2.52042 -11.224 2.79427 -11.1554Q3.06812 -11.0868 3.33827 -11.0048Q3.60843 -10.9229 3.87423 -10.8278Q4.14004 -10.7326 4.40086 -10.6246Q4.66168 -10.5166 4.91688 -10.3959Q5.17209 -10.2752 5.42106 -10.1421Q5.67004 -10.009 5.91218 -9.86388Q6.15433 -9.71874 6.38906 -9.5619Q6.62379 -9.40506 6.85054 -9.23689Q7.07729 -9.06871 7.29552 -8.88962Q7.51375 -8.71052 7.72293 -8.52094Q7.9321 -8.33135 8.13173 -8.13173Q8.33135 -7.9321 8.52094 -7.72293Q8.71052 -7.51375 8.88962 -7.29552Q9.06871 -7.07729 9.23689 -6.85054Q9.40506 -6.62379 9.5619 -6.38906Q9.71874 -6.15433 9.86388 -5.91218Q10.009 -5.67004 10.1421 -5.42106Q10.2752 -5.17209 10.3959 -4.91688Q10.5166 -4.66168 10.6246 -4.40086Q10.7326 -4.14004 10.8278 -3.87423Q10.9229 -3.60843 11.0048 -3.33827Q11.0868 -3.06812 11.1554 -2.79427Q11.224 -2.52042 11.279 -2.24354Q11.3341 -1.96665 11.3755 -1.6874Q11.417 -1.40815 11.4446 -1.1272Q11.4723 -0.846247 11.4861 -0.564278Q11.5 -0.282309 11.5 0"/>
		<path fill="white" transform="matrix(1.16667 0 0 1.16667 12.5266 24.1413)" d="M8.5 0Q8.5 0.208663 8.48976 0.417075Q8.47952 0.625487 8.45907 0.833146Q8.43862 1.0408 8.408 1.24721Q8.37738 1.45361 8.33667 1.65827Q8.29597 1.86292 8.24527 2.06533Q8.19456 2.26774 8.13399 2.46742Q8.07342 2.6671 8.00312 2.86356Q7.93283 3.06003 7.85298 3.25281Q7.77312 3.44559 7.68391 3.63422Q7.59469 3.82285 7.49633 4.00687Q7.39797 4.1909 7.29069 4.36987Q7.18342 4.54885 7.06749 4.72235Q6.95156 4.89584 6.82726 5.06344Q6.70296 5.23104 6.57059 5.39234Q6.43821 5.55364 6.29808 5.70825Q6.15795 5.86286 6.01041 6.01041Q5.86286 6.15795 5.70825 6.29808Q5.55364 6.43821 5.39234 6.57059Q5.23104 6.70296 5.06344 6.82726Q4.89584 6.95156 4.72235 7.06749Q4.54885 7.18342 4.36987 7.29069Q4.1909 7.39797 4.00687 7.49633Q3.82285 7.59469 3.63422 7.68391Q3.44559 7.77312 3.25281 7.85298Q3.06003 7.93283 2.86356 8.00312Q2.6671 8.07342 2.46742 8.13399Q2.26774 8.19456 2.06533 8.24527Q1.86292 8.29597 1.65827 8.33667Q1.45361 8.37738 1.24721 8.408Q1.0408 8.43862 0.833146 8.45907Q0.625487 8.47952 0.417075 8.48976Q0.208663 8.5 0 8.5Q-0.208663 8.5 -0.417075 8.48976Q-0.625487 8.47952 -0.833146 8.45907Q-1.0408 8.43862 -1.24721 8.408Q-1.45361 8.37738 -1.65827 8.33667Q-1.86292 8.29597 -2.06533 8.24527Q-2.26774 8.19456 -2.46742 8.13399Q-2.6671 8.07342 -2.86356 8.00312Q-3.06003 7.93283 -3.25281 7.85298Q-3.44559 7.77312 -3.63422 7.68391Q-3.82285 7.59469 -4.00687 7.49633Q-4.1909 7.39797 -4.36987 7.29069Q-4.54885 7.18342 -4.72235 7.06749Q-4.89584 6.95156 -5.06344 6.82726Q-5.23104 6.70296 -5.39234 6.57059Q-5.55364 6.43821 -5.70825 6.29808Q-5.86286 6.15795 -6.01041 6.01041Q-6.15795 5.86286 -6.29808 5.70825Q-6.43821 5.55364 -6.57059 5.39234Q-6.70296 5.23104 -6.82726 5.06344Q-6.95156 4.89584 -7.06749 4.72235Q-7.18342 4.54885 -7.29069 4.36987Q-7.39797 4.1909 -7.49633 4.00687Q-7.59469 3.82285 -7.68391 3.63422Q-7.77312 3.44559 -7.85298 3.25281Q-7.93283 3.06003 -8.00312 2.86356Q-8.07342 2.6671 -8.13399 2.46742Q-8.19456 2.26774 -8.24527 2.06533Q-8.29597 1.86292 -8.33667 1.65827Q-8.37738 1.45361 -8.408 1.24721Q-8.43862 1.0408 -8.45907 0.833146Q-8.47952 0.625487 -8.48976 0.417075Q-8.5 0.208663 -8.5 0Q-8.5 -0.208663 -8.48976 -0.417075Q-8.47952 -0.625487 -8.45907 -0.833146Q-8.43862 -1.0408 -8.408 -1.24721Q-8.37738 -1.45361 -8.33667 -1.65827Q-8.29597 -1.86292 -8.24527 -2.06533Q-8.19456 -2.26774 -8.13399 -2.46742Q-8.07342 -2.6671 -8.00312 -2.86356Q-7.93283 -3.06003 -7.85298 -3.25281Q-7.77312 -3.44559 -7.68391 -3.63422Q-7.59469 -3.82285 -7.49633 -4.00687Q-7.39797 -4.1909 -7.29069 -4.36987Q-7.18342 -4.54885 -7.06749 -4.72235Q-6.95156 -4.89584 -6.82726 -5.06344Q-6.70296 -5.23104 -6.57059 -5.39234Q-6.43821 -5.55364 -6.29808 -5.70825Q-6.15795 -5.86286 -6.01041 -6.01041Q-5.86286 -6.15795 -5.70825 -6.29808Q-5.55364 -6.43821 -5.39234 -6.57059Q-5.23104 -6.70296 -5.06344 -6.82726Q-4.89584 -6.95156 -4.72235 -7.06749Q-4.54885 -7.18342 -4.36987 -7.29069Q-4.1909 -7.39797 -4.00687 -7.49633Q-3.82285 -7.59469 -3.63422 -7.68391Q-3.44559 -7.77312 -3.25281 -7.85298Q-3.06003 -7.93283 -2.86356 -8.00312Q-2.6671 -8.07342 -2.46742 -8.13399Q-2.26774 -8.19456 -2.06533 -8.24527Q-1.86292 -8.29597 -1.65827 -8.33667Q-1.45361 -8.37738 -1.24721 -8.408Q-1.0408 -8.43862 -0.833146 -8.45907Q-0.625487 -8.47952 -0.417075 -8.48976Q-0.208663 -8.5 0 -8.5Q0.208663 -8.5 0.417075 -8.48976Q0.625487 -8.47952 0.833146 -8.45907Q1.0408 -8.43862 1.24721 -8.408Q1.45361 -8.37738 1.65827 -8.33667Q1.86292 -8.29597 2.06533 -8.24527Q2.26774 -8.19456 2.46742 -8.13399Q2.6671 -8.07342 2.86356 -8.00312Q3.06003 -7.93283 3.25281 -7.85298Q3.44559 -7.77312 3.63422 -7.68391Q3.82285 -7.59469 4.00687 -7.49633Q4.1909 -7.39797 4.36987 -7.29069Q4.54885 -7.18342 4.72235 -7.06749Q4.89584 -6.95156 5.06344 -6.82726Q5.23104 -6.70296 5.39234 -6.57059Q5.55364 -6.43821 5.70825 -6.29808Q5.86286 -6.15795 6.01041 -6.01041Q6.15795 -5.86286 6.29808 -5.70825Q6.43821 -5.55364 6.57059 -5.39234Q6.70296 -5.23104 6.82726 -5.06344Q6.95156 -4.89584 7.06749 -4.72235Q7.18342 -4.54885 7.29069 -4.36987Q7.39797 -4.1909 7.49633 -4.00687Q7.59469 -3.82285 7.68391 -3.63422Q7.77312 -3.44559 7.85298 -3.25281Q7.93283 -3.06003 8.00312 -2.86356Q8.07342 -2.6671 8.13399 -2.46742Q8.19456 -2.26774 8.24527 -2.06533Q8.29597 -1.86292 8.33667 -1.65827Q8.37738 -1.45361 8.408 -1.24721Q8.43862 -1.0408 8.45907 -0.833146Q8.47952 -0.625487 8.48976 -0.417075Q8.5 -0.208663 8.5 0"/>
		<path fill="#CFCFCF" transform="matrix(1.16667 0 0 1.16667 71.2234 5.06953)" d="M11.5 0Q11.5 0.282309 11.4861 0.564278Q11.4723 0.846247 11.4446 1.1272Q11.417 1.40815 11.3755 1.6874Q11.3341 1.96665 11.279 2.24354Q11.224 2.52042 11.1554 2.79427Q11.0868 3.06812 11.0048 3.33827Q10.9229 3.60843 10.8278 3.87423Q10.7326 4.14004 10.6246 4.40086Q10.5166 4.66168 10.3959 4.91688Q10.2752 5.17209 10.1421 5.42106Q10.009 5.67004 9.86388 5.91218Q9.71874 6.15433 9.5619 6.38906Q9.40506 6.62379 9.23689 6.85054Q9.06871 7.07729 8.88962 7.29552Q8.71052 7.51375 8.52094 7.72293Q8.33135 7.9321 8.13173 8.13173Q7.9321 8.33135 7.72293 8.52094Q7.51375 8.71052 7.29552 8.88962Q7.07729 9.06871 6.85054 9.23689Q6.62379 9.40506 6.38906 9.5619Q6.15433 9.71874 5.91218 9.86388Q5.67004 10.009 5.42106 10.1421Q5.17209 10.2752 4.91688 10.3959Q4.66168 10.5166 4.40086 10.6246Q4.14004 10.7326 3.87423 10.8278Q3.60843 10.9229 3.33827 11.0048Q3.06812 11.0868 2.79427 11.1554Q2.52042 11.224 2.24354 11.279Q1.96665 11.3341 1.6874 11.3755Q1.40815 11.417 1.1272 11.4446Q0.846247 11.4723 0.564278 11.4861Q0.282309 11.5 0 11.5Q-0.282309 11.5 -0.564278 11.4861Q-0.846247 11.4723 -1.1272 11.4446Q-1.40815 11.417 -1.6874 11.3755Q-1.96665 11.3341 -2.24354 11.279Q-2.52042 11.224 -2.79427 11.1554Q-3.06812 11.0868 -3.33827 11.0048Q-3.60843 10.9229 -3.87423 10.8278Q-4.14004 10.7326 -4.40086 10.6246Q-4.66168 10.5166 -4.91688 10.3959Q-5.17209 10.2752 -5.42106 10.1421Q-5.67004 10.009 -5.91218 9.86388Q-6.15433 9.71874 -6.38906 9.5619Q-6.62379 9.40506 -6.85054 9.23689Q-7.07729 9.06871 -7.29552 8.88962Q-7.51375 8.71052 -7.72293 8.52094Q-7.9321 8.33135 -8.13173 8.13173Q-8.33135 7.9321 -8.52094 7.72293Q-8.71052 7.51375 -8.88962 7.29552Q-9.06871 7.07729 -9.23689 6.85054Q-9.40506 6.62379 -9.5619 6.38906Q-9.71874 6.15433 -9.86388 5.91218Q-10.009 5.67004 -10.1421 5.42106Q-10.2752 5.17209 -10.3959 4.91688Q-10.5166 4.66168 -10.6246 4.40086Q-10.7326 4.14004 -10.8278 3.87423Q-10.9229 3.60843 -11.0048 3.33827Q-11.0868 3.06812 -11.1554 2.79427Q-11.224 2.52042 -11.279 2.24354Q-11.3341 1.96665 -11.3755 1.6874Q-11.417 1.40815 -11.4446 1.1272Q-11.4723 0.846247 -11.4861 0.564278Q-11.5 0.282309 -11.5 0Q-11.5 -0.282309 -11.4861 -0.564278Q-11.4723 -0.846247 -11.4446 -1.1272Q-11.417 -1.40815 -11.3755 -1.6874Q-11.3341 -1.96665 -11.279 -2.24354Q-11.224 -2.52042 -11.1554 -2.79427Q-11.0868 -3.06812 -11.0048 -3.33827Q-10.9229 -3.60843 -10.8278 -3.87423Q-10.7326 -4.14004 -10.6246 -4.40086Q-10.5166 -4.66168 -10.3959 -4.91688Q-10.2752 -5.17209 -10.1421 -5.42106Q-10.009 -5.67004 -9.86388 -5.91218Q-9.71874 -6.15433 -9.5619 -6.38906Q-9.40506 -6.62379 -9.23689 -6.85054Q-9.06871 -7.07729 -8.88962 -7.29552Q-8.71052 -7.51375 -8.52094 -7.72293Q-8.33135 -7.9321 -8.13173 -8.13173Q-7.9321 -8.33135 -7.72293 -8.52094Q-7.51375 -8.71052 -7.29552 -8.88962Q-7.07729 -9.06871 -6.85054 -9.23689Q-6.62379 -9.40506 -6.38906 -9.5619Q-6.15433 -9.71874 -5.91218 -9.86388Q-5.67004 -10.009 -5.42106 -10.1421Q-5.17209 -10.2752 -4.91688 -10.3959Q-4.66168 -10.5166 -4.40086 -10.6246Q-4.14004 -10.7326 -3.87423 -10.8278Q-3.60843 -10.9229 -3.33827 -11.0048Q-3.06812 -11.0868 -2.79427 -11.1554Q-2.52042 -11.224 -2.24354 -11.279Q-1.96665 -11.3341 -1.6874 -11.3755Q-1.40815 -11.417 -1.1272 -11.4446Q-0.846247 -11.4723 -0.564278 -11.4861Q-0.282309 -11.5 0 -11.5Q0.282309 -11.5 0.564278 -11.4861Q0.846247 -11.4723 1.1272 -11.4446Q1.40815 -11.417 1.6874 -11.3755Q1.96665 -11.3341 2.24354 -11.279Q2.52042 -11.224 2.79427 -11.1554Q3.06812 -11.0868 3.33827 -11.0048Q3.60843 -10.9229 3.87423 -10.8278Q4.14004 -10.7326 4.40086 -10.6246Q4.66168 -10.5166 4.91688 -10.3959Q5.17209 -10.2752 5.42106 -10.1421Q5.67004 -10.009 5.91218 -9.86388Q6.15433 -9.71874 6.38906 -9.5619Q6.62379 -9.40506 6.85054 -9.23689Q7.07729 -9.06871 7.29552 -8.88962Q7.51375 -8.71052 7.72293 -8.52094Q7.9321 -8.33135 8.13173 -8.13173Q8.33135 -7.9321 8.52094 -7.72293Q8.71052 -7.51375 8.88962 -7.29552Q9.06871 -7.07729 9.23689 -6.85054Q9.40506 -6.62379 9.5619 -6.38906Q9.71874 -6.15433 9.86388 -5.91218Q10.009 -5.67004 10.1421 -5.42106Q10.2752 -5.17209 10.3959 -4.91688Q10.5166 -4.66168 10.6246 -4.40086Q10.7326 -4.14004 10.8278 -3.87423Q10.9229 -3.60843 11.0048 -3.33827Q11.0868 -3.06812 11.1554 -2.79427Q11.224 -2.52042 11.279 -2.24354Q11.3341 -1.96665 11.3755 -1.6874Q11.417 -1.40815 11.4446 -1.1272Q11.4723 -0.846247 11.4861 -0.564278Q11.5 -0.282309 11.5 0"/>
		<path fill="white" transform="matrix(1.16667 0 0 1.16667 71.2234 5.06953)" d="M8.5 0Q8.5 0.208663 8.48976 0.417075Q8.47952 0.625487 8.45907 0.833146Q8.43862 1.0408 8.408 1.24721Q8.37738 1.45361 8.33667 1.65827Q8.29597 1.86292 8.24527 2.06533Q8.19456 2.26774 8.13399 2.46742Q8.07342 2.6671 8.00312 2.86356Q7.93283 3.06003 7.85298 3.25281Q7.77312 3.44559 7.68391 3.63422Q7.59469 3.82285 7.49633 4.00687Q7.39797 4.1909 7.29069 4.36987Q7.18342 4.54885 7.06749 4.72235Q6.95156 4.89584 6.82726 5.06344Q6.70296 5.23104 6.57059 5.39234Q6.43821 5.55364 6.29808 5.70825Q6.15795 5.86286 6.01041 6.01041Q5.86286 6.15795 5.70825 6.29808Q5.55364 6.43821 5.39234 6.57059Q5.23104 6.70296 5.06344 6.82726Q4.89584 6.95156 4.72235 7.06749Q4.54885 7.18342 4.36987 7.29069Q4.1909 7.39797 4.00687 7.49633Q3.82285 7.59469 3.63422 7.68391Q3.44559 7.77312 3.25281 7.85298Q3.06003 7.93283 2.86356 8.00312Q2.6671 8.07342 2.46742 8.13399Q2.26774 8.19456 2.06533 8.24527Q1.86292 8.29597 1.65827 8.33667Q1.45361 8.37738 1.24721 8.408Q1.0408 8.43862 0.833146 8.45907Q0.625487 8.47952 0.417075 8.48976Q0.208663 8.5 0 8.5Q-0.208663 8.5 -0.417075 8.48976Q-0.625487 8.47952 -0.833146 8.45907Q-1.0408 8.43862 -1.24721 8.408Q-1.45361 8.37738 -1.65827 8.33667Q-1.86292 8.29597 -2.06533 8.24527Q-2.26774 8.19456 -2.46742 8.13399Q-2.6671 8.07342 -2.86356 8.00312Q-3.06003 7.93283 -3.25281 7.85298Q-3.44559 7.77312 -3.63422 7.68391Q-3.82285 7.59469 -4.00687 7.49633Q-4.1909 7.39797 -4.36987 7.29069Q-4.54885 7.18342 -4.72235 7.06749Q-4.89584 6.95156 -5.06344 6.82726Q-5.23104 6.70296 -5.39234 6.57059Q-5.55364 6.43821 -5.70825 6.29808Q-5.86286 6.15795 -6.01041 6.01041Q-6.15795 5.86286 -6.29808 5.70825Q-6.43821 5.55364 -6.57059 5.39234Q-6.70296 5.23104 -6.82726 5.06344Q-6.95156 4.89584 -7.06749 4.72235Q-7.18342 4.54885 -7.29069 4.36987Q-7.39797 4.1909 -7.49633 4.00687Q-7.59469 3.82285 -7.68391 3.63422Q-7.77312 3.44559 -7.85298 3.25281Q-7.93283 3.06003 -8.00312 2.86356Q-8.07342 2.6671 -8.13399 2.46742Q-8.19456 2.26774 -8.24527 2.06533Q-8.29597 1.86292 -8.33667 1.65827Q-8.37738 1.45361 -8.408 1.24721Q-8.43862 1.0408 -8.45907 0.833146Q-8.47952 0.625487 -8.48976 0.417075Q-8.5 0.208663 -8.5 0Q-8.5 -0.208663 -8.48976 -0.417075Q-8.47952 -0.625487 -8.45907 -0.833146Q-8.43862 -1.0408 -8.408 -1.24721Q-8.37738 -1.45361 -8.33667 -1.65827Q-8.29597 -1.86292 -8.24527 -2.06533Q-8.19456 -2.26774 -8.13399 -2.46742Q-8.07342 -2.6671 -8.00312 -2.86356Q-7.93283 -3.06003 -7.85298 -3.25281Q-7.77312 -3.44559 -7.68391 -3.63422Q-7.59469 -3.82285 -7.49633 -4.00687Q-7.39797 -4.1909 -7.29069 -4.36987Q-7.18342 -4.54885 -7.06749 -4.72235Q-6.95156 -4.89584 -6.82726 -5.06344Q-6.70296 -5.23104 -6.57059 -5.39234Q-6.43821 -5.55364 -6.29808 -5.70825Q-6.15795 -5.86286 -6.01041 -6.01041Q-5.86286 -6.15795 -5.70825 -6.29808Q-5.55364 -6.43821 -5.39234 -6.57059Q-5.23104 -6.70296 -5.06344 -6.82726Q-4.89584 -6.95156 -4.72235 -7.06749Q-4.54885 -7.18342 -4.36987 -7.29069Q-4.1909 -7.39797 -4.00687 -7.49633Q-3.82285 -7.59469 -3.63422 -7.68391Q-3.44559 -7.77312 -3.25281 -7.85298Q-3.06003 -7.93283 -2.86356 -8.00312Q-2.6671 -8.07342 -2.46742 -8.13399Q-2.26774 -8.19456 -2.06533 -8.24527Q-1.86292 -8.29597 -1.65827 -8.33667Q-1.45361 -8.37738 -1.24721 -8.408Q-1.0408 -8.43862 -0.833146 -8.45907Q-0.625487 -8.47952 -0.417075 -8.48976Q-0.208663 -8.5 0 -8.5Q0.208663 -8.5 0.417075 -8.48976Q0.625487 -8.47952 0.833146 -8.45907Q1.0408 -8.43862 1.24721 -8.408Q1.45361 -8.37738 1.65827 -8.33667Q1.86292 -8.29597 2.06533 -8.24527Q2.26774 -8.19456 2.46742 -8.13399Q2.6671 -8.07342 2.86356 -8.00312Q3.06003 -7.93283 3.25281 -7.85298Q3.44559 -7.77312 3.63422 -7.68391Q3.82285 -7.59469 4.00687 -7.49633Q4.1909 -7.39797 4.36987 -7.29069Q4.54885 -7.18342 4.72235 -7.06749Q4.89584 -6.95156 5.06344 -6.82726Q5.23104 -6.70296 5.39234 -6.57059Q5.55364 -6.43821 5.70825 -6.29808Q5.86286 -6.15795 6.01041 -6.01041Q6.15795 -5.86286 6.29808 -5.70825Q6.43821 -5.55364 6.57059 -5.39234Q6.70296 -5.23104 6.82726 -5.06344Q6.95156 -4.89584 7.06749 -4.72235Q7.18342 -4.54885 7.29069 -4.36987Q7.39797 -4.1909 7.49633 -4.00687Q7.59469 -3.82285 7.68391 -3.63422Q7.77312 -3.44559 7.85298 -3.25281Q7.93283 -3.06003 8.00312 -2.86356Q8.07342 -2.6671 8.13399 -2.46742Q8.19456 -2.26774 8.24527 -2.06533Q8.29597 -1.86292 8.33667 -1.65827Q8.37738 -1.45361 8.408 -1.24721Q8.43862 -1.0408 8.45907 -0.833146Q8.47952 -0.625487 8.48976 -0.417075Q8.5 -0.208663 8.5 0"/>
		<path fill="#FFF7D0" fill-opacity="0.29803923" transform="matrix(1.16667 0 0 1.16667 55 55)" d="M28.3016 0L23.3742 12.2677L15.1317 21.922L2.93939 24.2081L-10.0334 26.456L-20.3321 18.0127L-24.7588 6.10249L-26.0642 -6.42425L-19.3603 -17.1517L-9.5325 -25.1351L3.17075 -26.1135L14.1416 -20.4876L25.3152 -13.2864L28.3016 0Z"/>
		<path fill="#FFF7D0" fill-opacity="0.29803923" transform="matrix(1.16667 0 0 1.16667 55 55)" d="M31.5056 0L26.0204 13.6565L16.8447 24.4037L3.27215 26.9486L-11.1693 29.451L-22.6338 20.0518L-27.5616 6.79333L-29.0149 -7.15153L-21.552 -19.0934L-10.6117 -27.9806L3.5297 -29.0697L15.7425 -22.8069L28.181 -14.7905L31.5056 0Z"/>
		<path fill="#111" transform="matrix(1.16667 0 0 2.33333 46.8333 49.1667)" d="M3 0Q3 0.147381 2.98555 0.294051Q2.97111 0.440722 2.94236 0.585271Q2.9136 0.72982 2.87082 0.870854Q2.82804 1.01189 2.77164 1.14805Q2.71524 1.28421 2.64576 1.41419Q2.57629 1.54417 2.49441 1.66671Q2.41253 1.78925 2.31903 1.90318Q2.22553 2.01711 2.12132 2.12132Q2.01711 2.22553 1.90318 2.31903Q1.78925 2.41253 1.66671 2.49441Q1.54417 2.57629 1.41419 2.64576Q1.28421 2.71524 1.14805 2.77164Q1.01189 2.82804 0.870854 2.87082Q0.72982 2.9136 0.585271 2.94236Q0.440722 2.97111 0.294051 2.98555Q0.147381 3 0 3Q-0.147381 3 -0.294051 2.98555Q-0.440722 2.97111 -0.585271 2.94236Q-0.72982 2.9136 -0.870854 2.87082Q-1.01189 2.82804 -1.14805 2.77164Q-1.28421 2.71524 -1.41419 2.64576Q-1.54417 2.57629 -1.66671 2.49441Q-1.78925 2.41253 -1.90318 2.31903Q-2.01711 2.22553 -2.12132 2.12132Q-2.22553 2.01711 -2.31903 1.90318Q-2.41253 1.78925 -2.49441 1.66671Q-2.57629 1.54417 -2.64576 1.41419Q-2.71524 1.28421 -2.77164 1.14805Q-2.82804 1.01189 -2.87082 0.870854Q-2.9136 0.72982 -2.94236 0.585271Q-2.97111 0.440722 -2.98555 0.294051Q-3 0.147381 -3 0Q-3 -0.147381 -2.98555 -0.294051Q-2.97111 -0.440722 -2.94236 -0.585271Q-2.9136 -0.72982 -2.87082 -0.870854Q-2.82804 -1.01189 -2.77164 -1.14805Q-2.71524 -1.28421 -2.64576 -1.41419Q-2.57629 -1.54417 -2.49441 -1.66671Q-2.41253 -1.78925 -2.31903 -1.90318Q-2.22553 -2.01711 -2.12132 -2.12132Q-2.01711 -2.22553 -1.90318 -2.31903Q-1.78925 -2.41253 -1.66671 -2.49441Q-1.54417 -2.57629 -1.41419 -2.64576Q-1.28421 -2.71524 -1.14805 -2.77164Q-1.01189 -2.82804 -0.870854 -2.87082Q-0.72982 -2.9136 -0.585271 -2.94236Q-0.440722 -2.97111 -0.294051 -2.98555Q-0.147381 -3 0 -3Q0.147381 -3 0.294051 -2.98555Q0.440722 -2.97111 0.585271 -2.94236Q0.72982 -2.9136 0.870854 -2.87082Q1.01189 -2.82804 1.14805 -2.77164Q1.28421 -2.71524 1.41419 -2.64576Q1.54417 -2.57629 1.66671 -2.49441Q1.78925 -2.41253 1.90318 -2.31903Q2.01711 -2.22553 2.12132 -2.12132Q2.22553 -2.01711 2.31903 -1.90318Q2.41253 -1.78925 2.49441 -1.66671Q2.57629 -1.54417 2.64576 -1.41419Q2.71524 -1.28421 2.77164 -1.14805Q2.82804 -1.01189 2.87082 -0.870854Q2.9136 -0.72982 2.94236 -0.585271Q2.97111 -0.440722 2.98555 -0.294051Q3 -0.147381 3 0"/>
		<clipPath id="cl_c">
			<path d="M50.3333 49.1667Q50.3333 49.3385 50.3291 49.5101Q50.3249 49.6818 50.3165 49.8528Q50.3081 50.0238 50.2955 50.1938Q50.2828 50.3638 50.2661 50.5323Q50.2493 50.7008 50.2284 50.8675Q50.2076 51.0342 50.1826 51.1987Q50.1577 51.3631 50.1287 51.5249Q50.0998 51.6867 50.0669 51.8454Q50.034 52.0042 49.9973 52.1595Q49.9606 52.3149 49.9201 52.4664Q49.8796 52.618 49.8354 52.7654Q49.7912 52.9128 49.7435 53.0557Q49.6957 53.1985 49.6446 53.3366Q49.5934 53.4746 49.5389 53.6074Q49.4844 53.7402 49.4267 53.8676Q49.369 53.9949 49.3082 54.1164Q49.2475 54.2379 49.1838 54.3533Q49.1201 54.4687 49.0537 54.5777Q48.9873 54.6868 48.9183 54.7891Q48.8493 54.8915 48.7778 54.9869Q48.7064 55.0824 48.6327 55.1708Q48.559 55.2591 48.4832 55.3401Q48.4074 55.4211 48.3298 55.4946Q48.2521 55.5681 48.1727 55.6338Q48.0933 55.6996 48.0124 55.7575Q47.9315 55.8154 47.8493 55.8652Q47.7671 55.9151 47.6838 55.9569Q47.6004 55.9986 47.5161 56.0322Q47.4319 56.0657 47.3469 56.0909Q47.2619 56.1161 47.1764 56.133Q47.0909 56.1498 47.0051 56.1582Q46.9193 56.1667 46.8333 56.1667Q46.7474 56.1667 46.6616 56.1582Q46.5758 56.1498 46.4903 56.133Q46.4048 56.1161 46.3198 56.0909Q46.2348 56.0657 46.1505 56.0322Q46.0662 55.9986 45.9829 55.9569Q45.8996 55.9151 45.8173 55.8652Q45.7351 55.8154 45.6542 55.7575Q45.5733 55.6996 45.4939 55.6338Q45.4146 55.5681 45.3369 55.4946Q45.2592 55.4211 45.1834 55.3401Q45.1077 55.2591 45.034 55.1708Q44.9603 55.0824 44.8888 54.9869Q44.8174 54.8915 44.7484 54.7891Q44.6794 54.6868 44.613 54.5777Q44.5465 54.4687 44.4829 54.3533Q44.4192 54.2379 44.3585 54.1164Q44.2977 53.9949 44.24 53.8676Q44.1823 53.7402 44.1278 53.6074Q44.0733 53.4746 44.0221 53.3366Q43.9709 53.1985 43.9232 53.0557Q43.8755 52.9128 43.8313 52.7654Q43.7871 52.618 43.7466 52.4664Q43.7061 52.3149 43.6694 52.1595Q43.6326 52.0042 43.5998 51.8454Q43.5669 51.6867 43.5379 51.5249Q43.509 51.3631 43.484 51.1987Q43.4591 51.0342 43.4382 50.8675Q43.4173 50.7008 43.4006 50.5323Q43.3838 50.3638 43.3712 50.1938Q43.3586 50.0238 43.3502 49.8528Q43.3418 49.6818 43.3376 49.5101Q43.3333 49.3385 43.3333 49.1667Q43.3333 48.9948 43.3376 48.8232Q43.3418 48.6516 43.3502 48.4805Q43.3586 48.3095 43.3712 48.1396Q43.3838 47.9696 43.4006 47.801Q43.4173 47.6325 43.4382 47.4658Q43.4591 47.2991 43.484 47.1347Q43.509 46.9702 43.5379 46.8084Q43.5669 46.6466 43.5998 46.4879Q43.6326 46.3291 43.6694 46.1738Q43.7061 46.0184 43.7466 45.8669Q43.7871 45.7153 43.8313 45.5679Q43.8755 45.4206 43.9232 45.2777Q43.9709 45.1348 44.0221 44.9968Q44.0733 44.8587 44.1278 44.7259Q44.1823 44.5931 44.24 44.4658Q44.2977 44.3384 44.3585 44.2169Q44.4192 44.0954 44.4829 43.98Q44.5465 43.8646 44.613 43.7556Q44.6794 43.6466 44.7484 43.5442Q44.8174 43.4418 44.8888 43.3464Q44.9603 43.2509 45.034 43.1626Q45.1077 43.0742 45.1834 42.9932Q45.2592 42.9122 45.3369 42.8387Q45.4146 42.7653 45.4939 42.6995Q45.5733 42.6337 45.6542 42.5759Q45.7351 42.518 45.8173 42.4681Q45.8996 42.4182 45.9829 42.3764Q46.0662 42.3347 46.1505 42.3012Q46.2348 42.2676 46.3198 42.2424Q46.4048 42.2172 46.4903 42.2004Q46.5758 42.1835 46.6616 42.1751Q46.7474 42.1667 46.8333 42.1667Q46.9193 42.1667 47.0051 42.1751Q47.0909 42.1835 47.1764 42.2004Q47.2619 42.2172 47.3469 42.2424Q47.4319 42.2676 47.5161 42.3012Q47.6004 42.3347 47.6838 42.3764Q47.7671 42.4182 47.8493 42.4681Q47.9315 42.518 48.0124 42.5759Q48.0933 42.6337 48.1727 42.6995Q48.2521 42.7653 48.3298 42.8387Q48.4074 42.9122 48.4832 42.9932Q48.559 43.0742 48.6327 43.1626Q48.7064 43.2509 48.7778 43.3464Q48.8493 43.4418 48.9183 43.5442Q48.9873 43.6466 49.0537 43.7556Q49.1201 43.8646 49.1838 43.98Q49.2474 44.0954 49.3082 44.2169Q49.369 44.3384 49.4267 44.4658Q49.4844 44.5931 49.5389 44.7259Q49.5934 44.8587 49.6446 44.9968Q49.6957 45.1348 49.7435 45.2777Q49.7912 45.4206 49.8354 45.5679Q49.8796 45.7153 49.9201 45.8669Q49.9606 46.0184 49.9973 46.1738Q50.034 46.3291 50.0669 46.4879Q50.0998 46.6466 50.1287 46.8084Q50.1577 46.9702 50.1826 47.1347Q50.2076 47.2991 50.2284 47.4658Q50.2493 47.6325 50.2661 47.801Q50.2828 47.9696 50.2954 48.1396Q50.3081 48.3095 50.3165 48.4806Q50.3249 48.6516 50.3291 48.8232Q50.3333 48.9948 50.3333 49.1667"/>
		</clipPath>
		<g clip-path="url(#cl_c)">
			<path fill="#EEE" transform="matrix(1.16667 0 0 1.16667 46.8333 49.1667)" d="M4.0806 3.36588Q4.0806 3.51326 4.06616 3.65994Q4.05171 3.80661 4.02296 3.95115Q3.99421 4.0957 3.95143 4.23674Q3.90864 4.37777 3.85224 4.51393Q3.79584 4.6501 3.72637 4.78007Q3.65689 4.91005 3.57501 5.03259Q3.49313 5.15514 3.39964 5.26906Q3.30614 5.38299 3.20192 5.4872Q3.09771 5.59142 2.98378 5.68491Q2.86986 5.77841 2.74731 5.86029Q2.62477 5.94217 2.49479 6.01165Q2.36482 6.08112 2.22865 6.13752Q2.09249 6.19392 1.95146 6.2367Q1.81042 6.27949 1.66588 6.30824Q1.52133 6.33699 1.37466 6.35144Q1.22799 6.36588 1.0806 6.36588Q0.933224 6.36588 0.786553 6.35144Q0.639882 6.33699 0.495334 6.30824Q0.350785 6.27949 0.209751 6.2367Q0.0687161 6.19392 -0.0674457 6.13752Q-0.203608 6.08112 -0.333586 6.01165Q-0.463564 5.94217 -0.586106 5.86029Q-0.708649 5.77841 -0.822575 5.68491Q-0.936502 5.59142 -1.04072 5.4872Q-1.14493 5.38299 -1.23843 5.26906Q-1.33192 5.15514 -1.4138 5.03259Q-1.49568 4.91005 -1.56516 4.78007Q-1.63463 4.6501 -1.69103 4.51393Q-1.74743 4.37777 -1.79022 4.23674Q-1.833 4.0957 -1.86175 3.95115Q-1.8905 3.80661 -1.90495 3.65994Q-1.9194 3.51326 -1.9194 3.36588Q-1.9194 3.2185 -1.90495 3.07183Q-1.8905 2.92516 -1.86175 2.78061Q-1.833 2.63606 -1.79022 2.49503Q-1.74743 2.354 -1.69103 2.21783Q-1.63463 2.08167 -1.56516 1.95169Q-1.49568 1.82172 -1.4138 1.69917Q-1.33192 1.57663 -1.23843 1.4627Q-1.14493 1.34878 -1.04072 1.24456Q-0.936502 1.14035 -0.822575 1.04685Q-0.708649 0.953355 -0.586106 0.871475Q-0.463564 0.789595 -0.333586 0.72012Q-0.203608 0.650645 -0.0674458 0.594245Q0.0687161 0.537845 0.209751 0.495063Q0.350785 0.45228 0.495334 0.423528Q0.639882 0.394775 0.786553 0.38033Q0.933224 0.365884 1.0806 0.365884Q1.22799 0.365884 1.37466 0.38033Q1.52133 0.394775 1.66588 0.423528Q1.81042 0.452281 1.95146 0.495063Q2.09249 0.537845 2.22865 0.594245Q2.36482 0.650645 2.49479 0.72012Q2.62477 0.789595 2.74731 0.871475Q2.86986 0.953355 2.98378 1.04685Q3.09771 1.14035 3.20192 1.24456Q3.30614 1.34878 3.39964 1.4627Q3.49313 1.57663 3.57501 1.69917Q3.65689 1.82172 3.72637 1.95169Q3.79584 2.08167 3.85224 2.21783Q3.90864 2.354 3.95143 2.49503Q3.99421 2.63606 4.02296 2.78061Q4.05171 2.92516 4.06616 3.07183Q4.0806 3.2185 4.0806 3.36588"/>
		</g>
		<path fill="none" stroke="#111" stroke-width="0.5" stroke-linecap="round" stroke-linejoin="round" transform="matrix(1.16667 0 0 2.33333 46.8333 49.1667)" d="M3 0Q3 0.147381 2.98555 0.294051Q2.97111 0.440722 2.94236 0.585271Q2.9136 0.72982 2.87082 0.870854Q2.82804 1.01189 2.77164 1.14805Q2.71524 1.28421 2.64576 1.41419Q2.57629 1.54417 2.49441 1.66671Q2.41253 1.78925 2.31903 1.90318Q2.22553 2.01711 2.12132 2.12132Q2.01711 2.22553 1.90318 2.31903Q1.78925 2.41253 1.66671 2.49441Q1.54417 2.57629 1.41419 2.64576Q1.28421 2.71524 1.14805 2.77164Q1.01189 2.82804 0.870854 2.87082Q0.72982 2.9136 0.585271 2.94236Q0.440722 2.97111 0.294051 2.98555Q0.147381 3 0 3Q-0.147381 3 -0.294051 2.98555Q-0.440722 2.97111 -0.585271 2.94236Q-0.72982 2.9136 -0.870854 2.87082Q-1.01189 2.82804 -1.14805 2.77164Q-1.28421 2.71524 -1.41419 2.64576Q-1.54417 2.57629 -1.66671 2.49441Q-1.78925 2.41253 -1.90318 2.31903Q-2.01711 2.22553 -2.12132 2.12132Q-2.22553 2.01711 -2.31903 1.90318Q-2.41253 1.78925 -2.49441 1.66671Q-2.57629 1.54417 -2.64576 1.41419Q-2.71524 1.28421 -2.77164 1.14805Q-2.82804 1.01189 -2.87082 0.870854Q-2.9136 0.72982 -2.94236 0.585271Q-2.97111 0.440722 -2.98555 0.294051Q-3 0.147381 -3 0Q-3 -0.147381 -2.98555 -0.294051Q-2.97111 -0.440722 -2.94236 -0.585271Q-2.9136 -0.72982 -2.87082 -0.870854Q-2.82804 -1.01189 -2.77164 -1.14805Q-2.71524 -1.28421 -2.64576 -1.41419Q-2.57629 -1.54417 -2.49441 -1.66671Q-2.41253 -1.78925 -2.31903 -1.90318Q-2.22553 -2.01711 -2.12132 -2.12132Q-2.01711 -2.22553 -1.90318 -2.31903Q-1.78925 -2.41253 -1.66671 -2.49441Q-1.54417 -2.57629 -1.41419 -2.64576Q-1.28421 -2.71524 -1.14805 -2.77164Q-1.01189 -2.82804 -0.870854 -2.87082Q-0.72982 -2.9136 -0.585271 -2.94236Q-0.440722 -2.97111 -0.294051 -2.98555Q-0.147381 -3 0 -3Q0.147381 -3 0.294051 -2.98555Q0.440722 -2.97111 0.585271 -2.94236Q0.72982 -2.9136 0.870854 -2.87082Q1.01189 -2.82804 1.14805 -2.77164Q1.28421 -2.71524 1.41419 -2.64576Q1.54417 -2.57629 1.66671 -2.49441Q1.78925 -2.41253 1.90318 -2.31903Q2.01711 -2.22553 2.12132 -2.12132Q2.22553 -2.01711 2.31903 -1.90318Q2.41253 -1.78925 2.49441 -1.66671Q2.57629 -1.54417 2.64576 -1.41419Q2.71524 -1.28421 2.77164 -1.14805Q2.82804 -1.01189 2.87082 -0.870854Q2.9136 -0.72982 2.94236 -0.585271Q2.97111 -0.440722 2.98555 -0.294051Q3 -0.147381 3 0"/>
		<path fill="#111" transform="matrix(1.16667 0 0 2.33333 63.1667 49.1667)" d="M3 0Q3 0.147381 2.98555 0.294051Q2.97111 0.440722 2.94236 0.585271Q2.9136 0.72982 2.87082 0.870854Q2.82804 1.01189 2.77164 1.14805Q2.71524 1.28421 2.64576 1.41419Q2.57629 1.54417 2.49441 1.66671Q2.41253 1.78925 2.31903 1.90318Q2.22553 2.01711 2.12132 2.12132Q2.01711 2.22553 1.90318 2.31903Q1.78925 2.41253 1.66671 2.49441Q1.54417 2.57629 1.41419 2.64576Q1.28421 2.71524 1.14805 2.77164Q1.01189 2.82804 0.870854 2.87082Q0.72982 2.9136 0.585271 2.94236Q0.440722 2.97111 0.294051 2.98555Q0.147381 3 0 3Q-0.147381 3 -0.294051 2.98555Q-0.440722 2.97111 -0.585271 2.94236Q-0.72982 2.9136 -0.870854 2.87082Q-1.01189 2.82804 -1.14805 2.77164Q-1.28421 2.71524 -1.41419 2.64576Q-1.54417 2.57629 -1.66671 2.49441Q-1.78925 2.41253 -1.90318 2.31903Q-2.01711 2.22553 -2.12132 2.12132Q-2.22553 2.01711 -2.31903 1.90318Q-2.41253 1.78925 -2.49441 1.66671Q-2.57629 1.54417 -2.64576 1.41419Q-2.71524 1.28421 -2.77164 1.14805Q-2.82804 1.01189 -2.87082 0.870854Q-2.9136 0.72982 -2.94236 0.585271Q-2.97111 0.440722 -2.98555 0.294051Q-3 0.147381 -3 0Q-3 -0.147381 -2.98555 -0.294051Q-2.97111 -0.440722 -2.94236 -0.585271Q-2.9136 -0.72982 -2.87082 -0.870854Q-2.82804 -1.01189 -2.77164 -1.14805Q-2.71524 -1.28421 -2.64576 -1.41419Q-2.57629 -1.54417 -2.49441 -1.66671Q-2.41253 -1.78925 -2.31903 -1.90318Q-2.22553 -2.01711 -2.12132 -2.12132Q-2.01711 -2.22553 -1.90318 -2.31903Q-1.78925 -2.41253 -1.66671 -2.49441Q-1.54417 -2.57629 -1.41419 -2.64576Q-1.28421 -2.71524 -1.14805 -2.77164Q-1.01189 -2.82804 -0.870854 -2.87082Q-0.72982 -2.9136 -0.585271 -2.94236Q-0.440722 -2.97111 -0.294051 -2.98555Q-0.147381 -3 0 -3Q0.147381 -3 0.294051 -2.98555Q0.440722 -2.97111 0.585271 -2.94236Q0.72982 -2.9136 0.870854 -2.87082Q1.01189 -2.82804 1.14805 -2.77164Q1.28421 -2.71524 1.41419 -2.64576Q1.54417 -2.57629 1.66671 -2.49441Q1.78925 -2.41253 1.90318 -2.31903Q2.01711 -2.22553 2.12132 -2.12132Q2.22553 -2.01711 2.31903 -1.90318Q2.41253 -1.78925 2.49441 -1.66671Q2.57629 -1.54417 2.64576 -1.41419Q2.71524 -1.28421 2.77164 -1.14805Q2.82804 -1.01189 2.87082 -0.870854Q2.9136 -0.72982 2.94236 -0.585271Q2.97111 -0.440722 2.98555 -0.294051Q3 -0.147381 3 0"/>
		<clipPath id="cl_d">
			<path d="M66.6667 49.1667Q66.6667 49.3385 66.6624 49.5101Q66.6582 49.6818 66.6498 49.8528Q66.6414 50.0238 66.6288 50.1938Q66.6162 50.3638 66.5994 50.5323Q66.5826 50.7008 66.5618 50.8675Q66.5409 51.0342 66.516 51.1987Q66.491 51.3631 66.4621 51.5249Q66.4331 51.6867 66.4002 51.8454Q66.3674 52.0042 66.3306 52.1595Q66.2939 52.3149 66.2534 52.4664Q66.2129 52.618 66.1687 52.7654Q66.1245 52.9128 66.0768 53.0557Q66.0291 53.1985 65.9779 53.3366Q65.9267 53.4746 65.8722 53.6074Q65.8177 53.7402 65.76 53.8676Q65.7023 53.9949 65.6415 54.1164Q65.5808 54.2379 65.5171 54.3533Q65.4535 54.4687 65.387 54.5777Q65.3206 54.6868 65.2516 54.7891Q65.1826 54.8915 65.1112 54.9869Q65.0397 55.0824 64.966 55.1708Q64.8923 55.2591 64.8166 55.3401Q64.7408 55.4211 64.6631 55.4946Q64.5854 55.5681 64.5061 55.6338Q64.4267 55.6996 64.3458 55.7575Q64.2649 55.8154 64.1827 55.8652Q64.1004 55.9151 64.0171 55.9569Q63.9337 55.9986 63.8495 56.0322Q63.7652 56.0657 63.6802 56.0909Q63.5952 56.1161 63.5097 56.133Q63.4242 56.1498 63.3384 56.1582Q63.2526 56.1667 63.1667 56.1667Q63.0807 56.1667 62.9949 56.1582Q62.9091 56.1498 62.8236 56.133Q62.7381 56.1161 62.6531 56.0909Q62.5681 56.0657 62.4838 56.0322Q62.3996 55.9986 62.3162 55.9569Q62.2329 55.9151 62.1507 55.8652Q62.0684 55.8154 61.9875 55.7575Q61.9066 55.6996 61.8273 55.6338Q61.7479 55.5681 61.6702 55.4946Q61.5925 55.4211 61.5168 55.3401Q61.441 55.2591 61.3673 55.1708Q61.2936 55.0824 61.2222 54.9869Q61.1507 54.8915 61.0817 54.7891Q61.0127 54.6868 60.9463 54.5777Q60.8799 54.4687 60.8162 54.3533Q60.7525 54.2379 60.6918 54.1164Q60.631 53.9949 60.5733 53.8676Q60.5156 53.7402 60.4611 53.6074Q60.4066 53.4746 60.3554 53.3366Q60.3042 53.1985 60.2565 53.0557Q60.2088 52.9128 60.1646 52.7654Q60.1204 52.618 60.0799 52.4664Q60.0394 52.3149 60.0027 52.1595Q59.966 52.0042 59.9331 51.8454Q59.9002 51.6867 59.8713 51.5249Q59.8423 51.3631 59.8174 51.1987Q59.7924 51.0342 59.7716 50.8675Q59.7507 50.7008 59.7339 50.5323Q59.7172 50.3638 59.7045 50.1938Q59.6919 50.0238 59.6835 49.8528Q59.6751 49.6818 59.6709 49.5101Q59.6667 49.3385 59.6667 49.1667Q59.6667 48.9948 59.6709 48.8232Q59.6751 48.6516 59.6835 48.4805Q59.6919 48.3095 59.7045 48.1396Q59.7172 47.9696 59.7339 47.801Q59.7507 47.6325 59.7716 47.4658Q59.7924 47.2991 59.8174 47.1347Q59.8423 46.9702 59.8713 46.8084Q59.9002 46.6466 59.9331 46.4879Q59.966 46.3291 60.0027 46.1738Q60.0394 46.0184 60.0799 45.8669Q60.1204 45.7153 60.1646 45.5679Q60.2088 45.4206 60.2565 45.2777Q60.3042 45.1348 60.3554 44.9968Q60.4066 44.8587 60.4611 44.7259Q60.5156 44.5931 60.5733 44.4658Q60.631 44.3384 60.6918 44.2169Q60.7525 44.0954 60.8162 43.98Q60.8799 43.8646 60.9463 43.7556Q61.0127 43.6466 61.0817 43.5442Q61.1507 43.4418 61.2222 43.3464Q61.2936 43.2509 61.3673 43.1626Q61.441 43.0742 61.5168 42.9932Q61.5925 42.9122 61.6702 42.8387Q61.7479 42.7653 61.8273 42.6995Q61.9066 42.6337 61.9875 42.5759Q62.0684 42.518 62.1507 42.4681Q62.2329 42.4182 62.3162 42.3764Q62.3996 42.3347 62.4838 42.3012Q62.5681 42.2676 62.6531 42.2424Q62.7381 42.2172 62.8236 42.2004Q62.9091 42.1835 62.9949 42.1751Q63.0807 42.1667 63.1667 42.1667Q63.2526 42.1667 63.3384 42.1751Q63.4242 42.1835 63.5097 42.2004Q63.5952 42.2172 63.6802 42.2424Q63.7652 42.2676 63.8495 42.3012Q63.9337 42.3347 64.0171 42.3764Q64.1004 42.4182 64.1827 42.4681Q64.2649 42.518 64.3458 42.5759Q64.4267 42.6337 64.5061 42.6995Q64.5854 42.7653 64.6631 42.8387Q64.7408 42.9122 64.8166 42.9932Q64.8923 43.0742 64.966 43.1626Q65.0397 43.2509 65.1112 43.3464Q65.1826 43.4418 65.2516 43.5442Q65.3206 43.6466 65.387 43.7556Q65.4535 43.8646 65.5171 43.98Q65.5808 44.0954 65.6415 44.2169Q65.7023 44.3384 65.76 44.4658Q65.8177 44.5931 65.8722 44.7259Q65.9267 44.8587 65.9779 44.9968Q66.0291 45.1348 66.0768 45.2777Q66.1245 45.4206 66.1687 45.5679Q66.2129 45.7153 66.2534 45.8669Q66.2939 46.0184 66.3306 46.1738Q66.3674 46.3291 66.4002 46.4879Q66.4331 46.6466 66.4621 46.8084Q66.491 46.9702 66.5159 47.1347Q66.5409 47.2991 66.5618 47.4658Q66.5826 47.6325 66.5994 47.801Q66.6162 47.9696 66.6288 48.1396Q66.6414 48.3095 66.6498 48.4806Q66.6582 48.6516 66.6624 48.8232Q66.6667 48.9948 66.6667 49.1667"/>
		</clipPath>
		<g clip-path="url(#cl_d)">
			<path fill="#EEE" transform="matrix(1.16667 0 0 1.16667 63.1667 49.1667)" d="M4.0806 3.36588Q4.0806 3.51326 4.06616 3.65994Q4.05171 3.80661 4.02296 3.95115Q3.99421 4.0957 3.95143 4.23674Q3.90864 4.37777 3.85224 4.51393Q3.79584 4.6501 3.72637 4.78007Q3.65689 4.91005 3.57501 5.03259Q3.49313 5.15514 3.39964 5.26906Q3.30614 5.38299 3.20192 5.4872Q3.09771 5.59142 2.98378 5.68491Q2.86986 5.77841 2.74731 5.86029Q2.62477 5.94217 2.49479 6.01165Q2.36482 6.08112 2.22865 6.13752Q2.09249 6.19392 1.95146 6.2367Q1.81042 6.27949 1.66588 6.30824Q1.52133 6.33699 1.37466 6.35144Q1.22799 6.36588 1.0806 6.36588Q0.933224 6.36588 0.786553 6.35144Q0.639882 6.33699 0.495334 6.30824Q0.350785 6.27949 0.209751 6.2367Q0.0687161 6.19392 -0.0674457 6.13752Q-0.203608 6.08112 -0.333586 6.01165Q-0.463564 5.94217 -0.586106 5.86029Q-0.708649 5.77841 -0.822575 5.68491Q-0.936502 5.59142 -1.04072 5.4872Q-1.14493 5.38299 -1.23843 5.26906Q-1.33192 5.15514 -1.4138 5.03259Q-1.49568 4.91005 -1.56516 4.78007Q-1.63463 4.6501 -1.69103 4.51393Q-1.74743 4.37777 -1.79022 4.23674Q-1.833 4.0957 -1.86175 3.95115Q-1.8905 3.80661 -1.90495 3.65994Q-1.9194 3.51326 -1.9194 3.36588Q-1.9194 3.2185 -1.90495 3.07183Q-1.8905 2.92516 -1.86175 2.78061Q-1.833 2.63606 -1.79022 2.49503Q-1.74743 2.354 -1.69103 2.21783Q-1.63463 2.08167 -1.56516 1.95169Q-1.49568 1.82172 -1.4138 1.69917Q-1.33192 1.57663 -1.23843 1.4627Q-1.14493 1.34878 -1.04072 1.24456Q-0.936502 1.14035 -0.822575 1.04685Q-0.708649 0.953355 -0.586106 0.871475Q-0.463564 0.789595 -0.333586 0.72012Q-0.203608 0.650645 -0.0674458 0.594245Q0.0687161 0.537845 0.209751 0.495063Q0.350785 0.45228 0.495334 0.423528Q0.639882 0.394775 0.786553 0.38033Q0.933224 0.365884 1.0806 0.365884Q1.22799 0.365884 1.37466 0.38033Q1.52133 0.394775 1.66588 0.423528Q1.81042 0.452281 1.95146 0.495063Q2.09249 0.537845 2.22865 0.594245Q2.36482 0.650645 2.49479 0.72012Q2.62477 0.789595 2.74731 0.871475Q2.86986 0.953355 2.98378 1.04685Q3.09771 1.14035 3.20192 1.24456Q3.30614 1.34878 3.39964 1.4627Q3.49313 1.57663 3.57501 1.69917Q3.65689 1.82172 3.72637 1.95169Q3.79584 2.08167 3.85224 2.21783Q3.90864 2.354 3.95143 2.49503Q3.99421 2.63606 4.02296 2.78061Q4.05171 2.92516 4.06616 3.07183Q4.0806 3.2185 4.0806 3.36588"/>
		</g>
		<path fill="none" stroke="#111" stroke-width="0.5" stroke-linecap="round" stroke-linejoin="round" transform="matrix(1.16667 0 0 2.33333 63.1667 49.1667)" d="M3 0Q3 0.147381 2.98555 0.294051Q2.97111 0.440722 2.94236 0.585271Q2.9136 0.72982 2.87082 0.870854Q2.82804 1.01189 2.77164 1.14805Q2.71524 1.28421 2.64576 1.41419Q2.57629 1.54417 2.49441 1.66671Q2.41253 1.78925 2.31903 1.90318Q2.22553 2.01711 2.12132 2.12132Q2.01711 2.22553 1.90318 2.31903Q1.78925 2.41253 1.66671 2.49441Q1.54417 2.57629 1.41419 2.64576Q1.28421 2.71524 1.14805 2.77164Q1.01189 2.82804 0.870854 2.87082Q0.72982 2.9136 0.585271 2.94236Q0.440722 2.97111 0.294051 2.98555Q0.147381 3 0 3Q-0.147381 3 -0.294051 2.98555Q-0.440722 2.97111 -0.585271 2.94236Q-0.72982 2.9136 -0.870854 2.87082Q-1.01189 2.82804 -1.14805 2.77164Q-1.28421 2.71524 -1.41419 2.64576Q-1.54417 2.57629 -1.66671 2.49441Q-1.78925 2.41253 -1.90318 2.31903Q-2.01711 2.22553 -2.12132 2.12132Q-2.22553 2.01711 -2.31903 1.90318Q-2.41253 1.78925 -2.49441 1.66671Q-2.57629 1.54417 -2.64576 1.41419Q-2.71524 1.28421 -2.77164 1.14805Q-2.82804 1.01189 -2.87082 0.870854Q-2.9136 0.72982 -2.94236 0.585271Q-2.97111 0.440722 -2.98555 0.294051Q-3 0.147381 -3 0Q-3 -0.147381 -2.98555 -0.294051Q-2.97111 -0.440722 -2.94236 -0.585271Q-2.9136 -0.72982 -2.87082 -0.870854Q-2.82804 -1.01189 -2.77164 -1.14805Q-2.71524 -1.28421 -2.64576 -1.41419Q-2.57629 -1.54417 -2.49441 -1.66671Q-2.41253 -1.78925 -2.31903 -1.90318Q-2.22553 -2.01711 -2.12132 -2.12132Q-2.01711 -2.22553 -1.90318 -2.31903Q-1.78925 -2.41253 -1.66671 -2.49441Q-1.54417 -2.57629 -1.41419 -2.64576Q-1.28421 -2.71524 -1.14805 -2.77164Q-1.01189 -2.82804 -0.870854 -2.87082Q-0.72982 -2.9136 -0.585271 -2.94236Q-0.440722 -2.97111 -0.294051 -2.98555Q-0.147381 -3 0 -3Q0.147381 -3 0.294051 -2.98555Q0.440722 -2.97111 0.585271 -2.94236Q0.72982 -2.9136 0.870854 -2.87082Q1.01189 -2.82804 1.14805 -2.77164Q1.28421 -2.71524 1.41419 -2.64576Q1.54417 -2.57629 1.66671 -2.49441Q1.78925 -2.41253 1.90318 -2.31903Q2.01711 -2.22553 2.12132 -2.12132Q2.22553 -2.01711 2.31903 -1.90318Q2.41253 -1.78925 2.49441 -1.66671Q2.57629 -1.54417 2.64576 -1.41419Q2.71524 -1.28421 2.77164 -1.14805Q2.82804 -1.01189 2.87082 -0.870854Q2.9136 -0.72982 2.94236 -0.585271Q2.97111 -0.440722 2.98555 -0.294051Q3 -0.147381 3 0"/>
		<path fill="none" stroke="#111" stroke-width="1.5" stroke-linecap="round" stroke-linejoin="round" transform="matrix(1.16667 0 0 1.16667 55 66.6667)" d="M-6 0Q0 -3 6 0"/>
	</g>
</svg>
